%TF.GenerationSoftware,KiCad,Pcbnew,(5.1.10-1-10_14)*%
%TF.CreationDate,2022-05-17T16:12:05+03:00*%
%TF.ProjectId,Logic_signal_amplifier,4c6f6769-635f-4736-9967-6e616c5f616d,rev?*%
%TF.SameCoordinates,Original*%
%TF.FileFunction,Legend,Bot*%
%TF.FilePolarity,Positive*%
%FSLAX46Y46*%
G04 Gerber Fmt 4.6, Leading zero omitted, Abs format (unit mm)*
G04 Created by KiCad (PCBNEW (5.1.10-1-10_14)) date 2022-05-17 16:12:05*
%MOMM*%
%LPD*%
G01*
G04 APERTURE LIST*
%ADD10C,0.150000*%
%ADD11C,0.120000*%
G04 APERTURE END LIST*
D10*
X137009523Y-159452380D02*
X137342857Y-158976190D01*
X137580952Y-159452380D02*
X137580952Y-158452380D01*
X137200000Y-158452380D01*
X137104761Y-158500000D01*
X137057142Y-158547619D01*
X137009523Y-158642857D01*
X137009523Y-158785714D01*
X137057142Y-158880952D01*
X137104761Y-158928571D01*
X137200000Y-158976190D01*
X137580952Y-158976190D01*
X136200000Y-159404761D02*
X136295238Y-159452380D01*
X136485714Y-159452380D01*
X136580952Y-159404761D01*
X136628571Y-159309523D01*
X136628571Y-158928571D01*
X136580952Y-158833333D01*
X136485714Y-158785714D01*
X136295238Y-158785714D01*
X136200000Y-158833333D01*
X136152380Y-158928571D01*
X136152380Y-159023809D01*
X136628571Y-159119047D01*
X135819047Y-158785714D02*
X135580952Y-159452380D01*
X135342857Y-158785714D01*
X134961904Y-159357142D02*
X134914285Y-159404761D01*
X134961904Y-159452380D01*
X135009523Y-159404761D01*
X134961904Y-159357142D01*
X134961904Y-159452380D01*
X134961904Y-158833333D02*
X134914285Y-158880952D01*
X134961904Y-158928571D01*
X135009523Y-158880952D01*
X134961904Y-158833333D01*
X134961904Y-158928571D01*
X133200000Y-159452380D02*
X133771428Y-159452380D01*
X133485714Y-159452380D02*
X133485714Y-158452380D01*
X133580952Y-158595238D01*
X133676190Y-158690476D01*
X133771428Y-158738095D01*
X132771428Y-159357142D02*
X132723809Y-159404761D01*
X132771428Y-159452380D01*
X132819047Y-159404761D01*
X132771428Y-159357142D01*
X132771428Y-159452380D01*
X131771428Y-159452380D02*
X132342857Y-159452380D01*
X132057142Y-159452380D02*
X132057142Y-158452380D01*
X132152380Y-158595238D01*
X132247619Y-158690476D01*
X132342857Y-158738095D01*
D11*
%TO.C,C1*%
X117261252Y-45235000D02*
X116738748Y-45235000D01*
X117261252Y-43765000D02*
X116738748Y-43765000D01*
D10*
X117166666Y-43177142D02*
X117214285Y-43224761D01*
X117357142Y-43272380D01*
X117452380Y-43272380D01*
X117595238Y-43224761D01*
X117690476Y-43129523D01*
X117738095Y-43034285D01*
X117785714Y-42843809D01*
X117785714Y-42700952D01*
X117738095Y-42510476D01*
X117690476Y-42415238D01*
X117595238Y-42320000D01*
X117452380Y-42272380D01*
X117357142Y-42272380D01*
X117214285Y-42320000D01*
X117166666Y-42367619D01*
X116214285Y-43272380D02*
X116785714Y-43272380D01*
X116500000Y-43272380D02*
X116500000Y-42272380D01*
X116595238Y-42415238D01*
X116690476Y-42510476D01*
X116785714Y-42558095D01*
%TD*%
M02*
