%TF.GenerationSoftware,KiCad,Pcbnew,(5.1.10-1-10_14)*%
%TF.CreationDate,2022-05-12T15:34:21+03:00*%
%TF.ProjectId,Logic_signal_amplifier,4c6f6769-635f-4736-9967-6e616c5f616d,rev?*%
%TF.SameCoordinates,Original*%
%TF.FileFunction,Copper,L1,Top*%
%TF.FilePolarity,Positive*%
%FSLAX46Y46*%
G04 Gerber Fmt 4.6, Leading zero omitted, Abs format (unit mm)*
G04 Created by KiCad (PCBNEW (5.1.10-1-10_14)) date 2022-05-12 15:34:21*
%MOMM*%
%LPD*%
G01*
G04 APERTURE LIST*
%TA.AperFunction,ComponentPad*%
%ADD10C,2.600000*%
%TD*%
%TA.AperFunction,ComponentPad*%
%ADD11R,2.600000X2.600000*%
%TD*%
%TA.AperFunction,ComponentPad*%
%ADD12C,1.800000*%
%TD*%
%TA.AperFunction,ComponentPad*%
%ADD13R,1.800000X1.800000*%
%TD*%
%TA.AperFunction,ViaPad*%
%ADD14C,0.800000*%
%TD*%
%TA.AperFunction,Conductor*%
%ADD15C,0.400000*%
%TD*%
G04 APERTURE END LIST*
%TO.P,U5,16*%
%TO.N,7_br3*%
%TA.AperFunction,SMDPad,CuDef*%
G36*
G01*
X114450000Y-129292500D02*
X114450000Y-129017500D01*
G75*
G02*
X114587500Y-128880000I137500J0D01*
G01*
X115912500Y-128880000D01*
G75*
G02*
X116050000Y-129017500I0J-137500D01*
G01*
X116050000Y-129292500D01*
G75*
G02*
X115912500Y-129430000I-137500J0D01*
G01*
X114587500Y-129430000D01*
G75*
G02*
X114450000Y-129292500I0J137500D01*
G01*
G37*
%TD.AperFunction*%
%TO.P,U5,15*%
%TO.N,7_br4*%
%TA.AperFunction,SMDPad,CuDef*%
G36*
G01*
X114450000Y-130562500D02*
X114450000Y-130287500D01*
G75*
G02*
X114587500Y-130150000I137500J0D01*
G01*
X115912500Y-130150000D01*
G75*
G02*
X116050000Y-130287500I0J-137500D01*
G01*
X116050000Y-130562500D01*
G75*
G02*
X115912500Y-130700000I-137500J0D01*
G01*
X114587500Y-130700000D01*
G75*
G02*
X114450000Y-130562500I0J137500D01*
G01*
G37*
%TD.AperFunction*%
%TO.P,U5,14*%
%TO.N,7_br5*%
%TA.AperFunction,SMDPad,CuDef*%
G36*
G01*
X114450000Y-131832500D02*
X114450000Y-131557500D01*
G75*
G02*
X114587500Y-131420000I137500J0D01*
G01*
X115912500Y-131420000D01*
G75*
G02*
X116050000Y-131557500I0J-137500D01*
G01*
X116050000Y-131832500D01*
G75*
G02*
X115912500Y-131970000I-137500J0D01*
G01*
X114587500Y-131970000D01*
G75*
G02*
X114450000Y-131832500I0J137500D01*
G01*
G37*
%TD.AperFunction*%
%TO.P,U5,13*%
%TO.N,8_cbvm1*%
%TA.AperFunction,SMDPad,CuDef*%
G36*
G01*
X114450000Y-133102500D02*
X114450000Y-132827500D01*
G75*
G02*
X114587500Y-132690000I137500J0D01*
G01*
X115912500Y-132690000D01*
G75*
G02*
X116050000Y-132827500I0J-137500D01*
G01*
X116050000Y-133102500D01*
G75*
G02*
X115912500Y-133240000I-137500J0D01*
G01*
X114587500Y-133240000D01*
G75*
G02*
X114450000Y-133102500I0J137500D01*
G01*
G37*
%TD.AperFunction*%
%TO.P,U5,12*%
%TO.N,8_cbvm2*%
%TA.AperFunction,SMDPad,CuDef*%
G36*
G01*
X114450000Y-134372500D02*
X114450000Y-134097500D01*
G75*
G02*
X114587500Y-133960000I137500J0D01*
G01*
X115912500Y-133960000D01*
G75*
G02*
X116050000Y-134097500I0J-137500D01*
G01*
X116050000Y-134372500D01*
G75*
G02*
X115912500Y-134510000I-137500J0D01*
G01*
X114587500Y-134510000D01*
G75*
G02*
X114450000Y-134372500I0J137500D01*
G01*
G37*
%TD.AperFunction*%
%TO.P,U5,11*%
%TO.N,8_cbvm3*%
%TA.AperFunction,SMDPad,CuDef*%
G36*
G01*
X114450000Y-135642500D02*
X114450000Y-135367500D01*
G75*
G02*
X114587500Y-135230000I137500J0D01*
G01*
X115912500Y-135230000D01*
G75*
G02*
X116050000Y-135367500I0J-137500D01*
G01*
X116050000Y-135642500D01*
G75*
G02*
X115912500Y-135780000I-137500J0D01*
G01*
X114587500Y-135780000D01*
G75*
G02*
X114450000Y-135642500I0J137500D01*
G01*
G37*
%TD.AperFunction*%
%TO.P,U5,10*%
%TO.N,N/C*%
%TA.AperFunction,SMDPad,CuDef*%
G36*
G01*
X114450000Y-136912500D02*
X114450000Y-136637500D01*
G75*
G02*
X114587500Y-136500000I137500J0D01*
G01*
X115912500Y-136500000D01*
G75*
G02*
X116050000Y-136637500I0J-137500D01*
G01*
X116050000Y-136912500D01*
G75*
G02*
X115912500Y-137050000I-137500J0D01*
G01*
X114587500Y-137050000D01*
G75*
G02*
X114450000Y-136912500I0J137500D01*
G01*
G37*
%TD.AperFunction*%
%TO.P,U5,9*%
%TO.N,+5V*%
%TA.AperFunction,SMDPad,CuDef*%
G36*
G01*
X114450000Y-138182500D02*
X114450000Y-137907500D01*
G75*
G02*
X114587500Y-137770000I137500J0D01*
G01*
X115912500Y-137770000D01*
G75*
G02*
X116050000Y-137907500I0J-137500D01*
G01*
X116050000Y-138182500D01*
G75*
G02*
X115912500Y-138320000I-137500J0D01*
G01*
X114587500Y-138320000D01*
G75*
G02*
X114450000Y-138182500I0J137500D01*
G01*
G37*
%TD.AperFunction*%
%TO.P,U5,8*%
%TO.N,GND*%
%TA.AperFunction,SMDPad,CuDef*%
G36*
G01*
X107950000Y-138182500D02*
X107950000Y-137907500D01*
G75*
G02*
X108087500Y-137770000I137500J0D01*
G01*
X109412500Y-137770000D01*
G75*
G02*
X109550000Y-137907500I0J-137500D01*
G01*
X109550000Y-138182500D01*
G75*
G02*
X109412500Y-138320000I-137500J0D01*
G01*
X108087500Y-138320000D01*
G75*
G02*
X107950000Y-138182500I0J137500D01*
G01*
G37*
%TD.AperFunction*%
%TO.P,U5,7*%
%TO.N,N/C*%
%TA.AperFunction,SMDPad,CuDef*%
G36*
G01*
X107950000Y-136912500D02*
X107950000Y-136637500D01*
G75*
G02*
X108087500Y-136500000I137500J0D01*
G01*
X109412500Y-136500000D01*
G75*
G02*
X109550000Y-136637500I0J-137500D01*
G01*
X109550000Y-136912500D01*
G75*
G02*
X109412500Y-137050000I-137500J0D01*
G01*
X108087500Y-137050000D01*
G75*
G02*
X107950000Y-136912500I0J137500D01*
G01*
G37*
%TD.AperFunction*%
%TO.P,U5,6*%
%TO.N,Net-(J5-Pad6)*%
%TA.AperFunction,SMDPad,CuDef*%
G36*
G01*
X107950000Y-135642500D02*
X107950000Y-135367500D01*
G75*
G02*
X108087500Y-135230000I137500J0D01*
G01*
X109412500Y-135230000D01*
G75*
G02*
X109550000Y-135367500I0J-137500D01*
G01*
X109550000Y-135642500D01*
G75*
G02*
X109412500Y-135780000I-137500J0D01*
G01*
X108087500Y-135780000D01*
G75*
G02*
X107950000Y-135642500I0J137500D01*
G01*
G37*
%TD.AperFunction*%
%TO.P,U5,5*%
%TO.N,Net-(J5-Pad5)*%
%TA.AperFunction,SMDPad,CuDef*%
G36*
G01*
X107950000Y-134372500D02*
X107950000Y-134097500D01*
G75*
G02*
X108087500Y-133960000I137500J0D01*
G01*
X109412500Y-133960000D01*
G75*
G02*
X109550000Y-134097500I0J-137500D01*
G01*
X109550000Y-134372500D01*
G75*
G02*
X109412500Y-134510000I-137500J0D01*
G01*
X108087500Y-134510000D01*
G75*
G02*
X107950000Y-134372500I0J137500D01*
G01*
G37*
%TD.AperFunction*%
%TO.P,U5,4*%
%TO.N,Net-(J5-Pad4)*%
%TA.AperFunction,SMDPad,CuDef*%
G36*
G01*
X107950000Y-133102500D02*
X107950000Y-132827500D01*
G75*
G02*
X108087500Y-132690000I137500J0D01*
G01*
X109412500Y-132690000D01*
G75*
G02*
X109550000Y-132827500I0J-137500D01*
G01*
X109550000Y-133102500D01*
G75*
G02*
X109412500Y-133240000I-137500J0D01*
G01*
X108087500Y-133240000D01*
G75*
G02*
X107950000Y-133102500I0J137500D01*
G01*
G37*
%TD.AperFunction*%
%TO.P,U5,3*%
%TO.N,Net-(J5-Pad3)*%
%TA.AperFunction,SMDPad,CuDef*%
G36*
G01*
X107950000Y-131832500D02*
X107950000Y-131557500D01*
G75*
G02*
X108087500Y-131420000I137500J0D01*
G01*
X109412500Y-131420000D01*
G75*
G02*
X109550000Y-131557500I0J-137500D01*
G01*
X109550000Y-131832500D01*
G75*
G02*
X109412500Y-131970000I-137500J0D01*
G01*
X108087500Y-131970000D01*
G75*
G02*
X107950000Y-131832500I0J137500D01*
G01*
G37*
%TD.AperFunction*%
%TO.P,U5,2*%
%TO.N,Net-(J5-Pad2)*%
%TA.AperFunction,SMDPad,CuDef*%
G36*
G01*
X107950000Y-130562500D02*
X107950000Y-130287500D01*
G75*
G02*
X108087500Y-130150000I137500J0D01*
G01*
X109412500Y-130150000D01*
G75*
G02*
X109550000Y-130287500I0J-137500D01*
G01*
X109550000Y-130562500D01*
G75*
G02*
X109412500Y-130700000I-137500J0D01*
G01*
X108087500Y-130700000D01*
G75*
G02*
X107950000Y-130562500I0J137500D01*
G01*
G37*
%TD.AperFunction*%
%TO.P,U5,1*%
%TO.N,Net-(J5-Pad1)*%
%TA.AperFunction,SMDPad,CuDef*%
G36*
G01*
X107950000Y-129292500D02*
X107950000Y-129017500D01*
G75*
G02*
X108087500Y-128880000I137500J0D01*
G01*
X109412500Y-128880000D01*
G75*
G02*
X109550000Y-129017500I0J-137500D01*
G01*
X109550000Y-129292500D01*
G75*
G02*
X109412500Y-129430000I-137500J0D01*
G01*
X108087500Y-129430000D01*
G75*
G02*
X107950000Y-129292500I0J137500D01*
G01*
G37*
%TD.AperFunction*%
%TD*%
%TO.P,U4,16*%
%TO.N,5_bcm4*%
%TA.AperFunction,SMDPad,CuDef*%
G36*
G01*
X114350000Y-109692500D02*
X114350000Y-109417500D01*
G75*
G02*
X114487500Y-109280000I137500J0D01*
G01*
X115812500Y-109280000D01*
G75*
G02*
X115950000Y-109417500I0J-137500D01*
G01*
X115950000Y-109692500D01*
G75*
G02*
X115812500Y-109830000I-137500J0D01*
G01*
X114487500Y-109830000D01*
G75*
G02*
X114350000Y-109692500I0J137500D01*
G01*
G37*
%TD.AperFunction*%
%TO.P,U4,15*%
%TO.N,6_bvs1*%
%TA.AperFunction,SMDPad,CuDef*%
G36*
G01*
X114350000Y-110962500D02*
X114350000Y-110687500D01*
G75*
G02*
X114487500Y-110550000I137500J0D01*
G01*
X115812500Y-110550000D01*
G75*
G02*
X115950000Y-110687500I0J-137500D01*
G01*
X115950000Y-110962500D01*
G75*
G02*
X115812500Y-111100000I-137500J0D01*
G01*
X114487500Y-111100000D01*
G75*
G02*
X114350000Y-110962500I0J137500D01*
G01*
G37*
%TD.AperFunction*%
%TO.P,U4,14*%
%TO.N,6_bvs2*%
%TA.AperFunction,SMDPad,CuDef*%
G36*
G01*
X114350000Y-112232500D02*
X114350000Y-111957500D01*
G75*
G02*
X114487500Y-111820000I137500J0D01*
G01*
X115812500Y-111820000D01*
G75*
G02*
X115950000Y-111957500I0J-137500D01*
G01*
X115950000Y-112232500D01*
G75*
G02*
X115812500Y-112370000I-137500J0D01*
G01*
X114487500Y-112370000D01*
G75*
G02*
X114350000Y-112232500I0J137500D01*
G01*
G37*
%TD.AperFunction*%
%TO.P,U4,13*%
%TO.N,6_bvs3*%
%TA.AperFunction,SMDPad,CuDef*%
G36*
G01*
X114350000Y-113502500D02*
X114350000Y-113227500D01*
G75*
G02*
X114487500Y-113090000I137500J0D01*
G01*
X115812500Y-113090000D01*
G75*
G02*
X115950000Y-113227500I0J-137500D01*
G01*
X115950000Y-113502500D01*
G75*
G02*
X115812500Y-113640000I-137500J0D01*
G01*
X114487500Y-113640000D01*
G75*
G02*
X114350000Y-113502500I0J137500D01*
G01*
G37*
%TD.AperFunction*%
%TO.P,U4,12*%
%TO.N,6_bvs4*%
%TA.AperFunction,SMDPad,CuDef*%
G36*
G01*
X114350000Y-114772500D02*
X114350000Y-114497500D01*
G75*
G02*
X114487500Y-114360000I137500J0D01*
G01*
X115812500Y-114360000D01*
G75*
G02*
X115950000Y-114497500I0J-137500D01*
G01*
X115950000Y-114772500D01*
G75*
G02*
X115812500Y-114910000I-137500J0D01*
G01*
X114487500Y-114910000D01*
G75*
G02*
X114350000Y-114772500I0J137500D01*
G01*
G37*
%TD.AperFunction*%
%TO.P,U4,11*%
%TO.N,7_br1*%
%TA.AperFunction,SMDPad,CuDef*%
G36*
G01*
X114350000Y-116042500D02*
X114350000Y-115767500D01*
G75*
G02*
X114487500Y-115630000I137500J0D01*
G01*
X115812500Y-115630000D01*
G75*
G02*
X115950000Y-115767500I0J-137500D01*
G01*
X115950000Y-116042500D01*
G75*
G02*
X115812500Y-116180000I-137500J0D01*
G01*
X114487500Y-116180000D01*
G75*
G02*
X114350000Y-116042500I0J137500D01*
G01*
G37*
%TD.AperFunction*%
%TO.P,U4,10*%
%TO.N,7_br2*%
%TA.AperFunction,SMDPad,CuDef*%
G36*
G01*
X114350000Y-117312500D02*
X114350000Y-117037500D01*
G75*
G02*
X114487500Y-116900000I137500J0D01*
G01*
X115812500Y-116900000D01*
G75*
G02*
X115950000Y-117037500I0J-137500D01*
G01*
X115950000Y-117312500D01*
G75*
G02*
X115812500Y-117450000I-137500J0D01*
G01*
X114487500Y-117450000D01*
G75*
G02*
X114350000Y-117312500I0J137500D01*
G01*
G37*
%TD.AperFunction*%
%TO.P,U4,9*%
%TO.N,+5V*%
%TA.AperFunction,SMDPad,CuDef*%
G36*
G01*
X114350000Y-118582500D02*
X114350000Y-118307500D01*
G75*
G02*
X114487500Y-118170000I137500J0D01*
G01*
X115812500Y-118170000D01*
G75*
G02*
X115950000Y-118307500I0J-137500D01*
G01*
X115950000Y-118582500D01*
G75*
G02*
X115812500Y-118720000I-137500J0D01*
G01*
X114487500Y-118720000D01*
G75*
G02*
X114350000Y-118582500I0J137500D01*
G01*
G37*
%TD.AperFunction*%
%TO.P,U4,8*%
%TO.N,GND*%
%TA.AperFunction,SMDPad,CuDef*%
G36*
G01*
X107850000Y-118582500D02*
X107850000Y-118307500D01*
G75*
G02*
X107987500Y-118170000I137500J0D01*
G01*
X109312500Y-118170000D01*
G75*
G02*
X109450000Y-118307500I0J-137500D01*
G01*
X109450000Y-118582500D01*
G75*
G02*
X109312500Y-118720000I-137500J0D01*
G01*
X107987500Y-118720000D01*
G75*
G02*
X107850000Y-118582500I0J137500D01*
G01*
G37*
%TD.AperFunction*%
%TO.P,U4,7*%
%TO.N,Net-(J4-Pad7)*%
%TA.AperFunction,SMDPad,CuDef*%
G36*
G01*
X107850000Y-117312500D02*
X107850000Y-117037500D01*
G75*
G02*
X107987500Y-116900000I137500J0D01*
G01*
X109312500Y-116900000D01*
G75*
G02*
X109450000Y-117037500I0J-137500D01*
G01*
X109450000Y-117312500D01*
G75*
G02*
X109312500Y-117450000I-137500J0D01*
G01*
X107987500Y-117450000D01*
G75*
G02*
X107850000Y-117312500I0J137500D01*
G01*
G37*
%TD.AperFunction*%
%TO.P,U4,6*%
%TO.N,Net-(J4-Pad6)*%
%TA.AperFunction,SMDPad,CuDef*%
G36*
G01*
X107850000Y-116042500D02*
X107850000Y-115767500D01*
G75*
G02*
X107987500Y-115630000I137500J0D01*
G01*
X109312500Y-115630000D01*
G75*
G02*
X109450000Y-115767500I0J-137500D01*
G01*
X109450000Y-116042500D01*
G75*
G02*
X109312500Y-116180000I-137500J0D01*
G01*
X107987500Y-116180000D01*
G75*
G02*
X107850000Y-116042500I0J137500D01*
G01*
G37*
%TD.AperFunction*%
%TO.P,U4,5*%
%TO.N,Net-(J4-Pad5)*%
%TA.AperFunction,SMDPad,CuDef*%
G36*
G01*
X107850000Y-114772500D02*
X107850000Y-114497500D01*
G75*
G02*
X107987500Y-114360000I137500J0D01*
G01*
X109312500Y-114360000D01*
G75*
G02*
X109450000Y-114497500I0J-137500D01*
G01*
X109450000Y-114772500D01*
G75*
G02*
X109312500Y-114910000I-137500J0D01*
G01*
X107987500Y-114910000D01*
G75*
G02*
X107850000Y-114772500I0J137500D01*
G01*
G37*
%TD.AperFunction*%
%TO.P,U4,4*%
%TO.N,Net-(J4-Pad4)*%
%TA.AperFunction,SMDPad,CuDef*%
G36*
G01*
X107850000Y-113502500D02*
X107850000Y-113227500D01*
G75*
G02*
X107987500Y-113090000I137500J0D01*
G01*
X109312500Y-113090000D01*
G75*
G02*
X109450000Y-113227500I0J-137500D01*
G01*
X109450000Y-113502500D01*
G75*
G02*
X109312500Y-113640000I-137500J0D01*
G01*
X107987500Y-113640000D01*
G75*
G02*
X107850000Y-113502500I0J137500D01*
G01*
G37*
%TD.AperFunction*%
%TO.P,U4,3*%
%TO.N,Net-(J4-Pad3)*%
%TA.AperFunction,SMDPad,CuDef*%
G36*
G01*
X107850000Y-112232500D02*
X107850000Y-111957500D01*
G75*
G02*
X107987500Y-111820000I137500J0D01*
G01*
X109312500Y-111820000D01*
G75*
G02*
X109450000Y-111957500I0J-137500D01*
G01*
X109450000Y-112232500D01*
G75*
G02*
X109312500Y-112370000I-137500J0D01*
G01*
X107987500Y-112370000D01*
G75*
G02*
X107850000Y-112232500I0J137500D01*
G01*
G37*
%TD.AperFunction*%
%TO.P,U4,2*%
%TO.N,Net-(J4-Pad2)*%
%TA.AperFunction,SMDPad,CuDef*%
G36*
G01*
X107850000Y-110962500D02*
X107850000Y-110687500D01*
G75*
G02*
X107987500Y-110550000I137500J0D01*
G01*
X109312500Y-110550000D01*
G75*
G02*
X109450000Y-110687500I0J-137500D01*
G01*
X109450000Y-110962500D01*
G75*
G02*
X109312500Y-111100000I-137500J0D01*
G01*
X107987500Y-111100000D01*
G75*
G02*
X107850000Y-110962500I0J137500D01*
G01*
G37*
%TD.AperFunction*%
%TO.P,U4,1*%
%TO.N,Net-(J4-Pad1)*%
%TA.AperFunction,SMDPad,CuDef*%
G36*
G01*
X107850000Y-109692500D02*
X107850000Y-109417500D01*
G75*
G02*
X107987500Y-109280000I137500J0D01*
G01*
X109312500Y-109280000D01*
G75*
G02*
X109450000Y-109417500I0J-137500D01*
G01*
X109450000Y-109692500D01*
G75*
G02*
X109312500Y-109830000I-137500J0D01*
G01*
X107987500Y-109830000D01*
G75*
G02*
X107850000Y-109692500I0J137500D01*
G01*
G37*
%TD.AperFunction*%
%TD*%
%TO.P,U3,16*%
%TO.N,4_ecm1*%
%TA.AperFunction,SMDPad,CuDef*%
G36*
G01*
X114400000Y-87857500D02*
X114400000Y-87582500D01*
G75*
G02*
X114537500Y-87445000I137500J0D01*
G01*
X115862500Y-87445000D01*
G75*
G02*
X116000000Y-87582500I0J-137500D01*
G01*
X116000000Y-87857500D01*
G75*
G02*
X115862500Y-87995000I-137500J0D01*
G01*
X114537500Y-87995000D01*
G75*
G02*
X114400000Y-87857500I0J137500D01*
G01*
G37*
%TD.AperFunction*%
%TO.P,U3,15*%
%TO.N,4_ecm2*%
%TA.AperFunction,SMDPad,CuDef*%
G36*
G01*
X114400000Y-89127500D02*
X114400000Y-88852500D01*
G75*
G02*
X114537500Y-88715000I137500J0D01*
G01*
X115862500Y-88715000D01*
G75*
G02*
X116000000Y-88852500I0J-137500D01*
G01*
X116000000Y-89127500D01*
G75*
G02*
X115862500Y-89265000I-137500J0D01*
G01*
X114537500Y-89265000D01*
G75*
G02*
X114400000Y-89127500I0J137500D01*
G01*
G37*
%TD.AperFunction*%
%TO.P,U3,14*%
%TO.N,4_rp1*%
%TA.AperFunction,SMDPad,CuDef*%
G36*
G01*
X114400000Y-90397500D02*
X114400000Y-90122500D01*
G75*
G02*
X114537500Y-89985000I137500J0D01*
G01*
X115862500Y-89985000D01*
G75*
G02*
X116000000Y-90122500I0J-137500D01*
G01*
X116000000Y-90397500D01*
G75*
G02*
X115862500Y-90535000I-137500J0D01*
G01*
X114537500Y-90535000D01*
G75*
G02*
X114400000Y-90397500I0J137500D01*
G01*
G37*
%TD.AperFunction*%
%TO.P,U3,13*%
%TO.N,4_rp2*%
%TA.AperFunction,SMDPad,CuDef*%
G36*
G01*
X114400000Y-91667500D02*
X114400000Y-91392500D01*
G75*
G02*
X114537500Y-91255000I137500J0D01*
G01*
X115862500Y-91255000D01*
G75*
G02*
X116000000Y-91392500I0J-137500D01*
G01*
X116000000Y-91667500D01*
G75*
G02*
X115862500Y-91805000I-137500J0D01*
G01*
X114537500Y-91805000D01*
G75*
G02*
X114400000Y-91667500I0J137500D01*
G01*
G37*
%TD.AperFunction*%
%TO.P,U3,12*%
%TO.N,5_bcm1*%
%TA.AperFunction,SMDPad,CuDef*%
G36*
G01*
X114400000Y-92937500D02*
X114400000Y-92662500D01*
G75*
G02*
X114537500Y-92525000I137500J0D01*
G01*
X115862500Y-92525000D01*
G75*
G02*
X116000000Y-92662500I0J-137500D01*
G01*
X116000000Y-92937500D01*
G75*
G02*
X115862500Y-93075000I-137500J0D01*
G01*
X114537500Y-93075000D01*
G75*
G02*
X114400000Y-92937500I0J137500D01*
G01*
G37*
%TD.AperFunction*%
%TO.P,U3,11*%
%TO.N,5_bcm2*%
%TA.AperFunction,SMDPad,CuDef*%
G36*
G01*
X114400000Y-94207500D02*
X114400000Y-93932500D01*
G75*
G02*
X114537500Y-93795000I137500J0D01*
G01*
X115862500Y-93795000D01*
G75*
G02*
X116000000Y-93932500I0J-137500D01*
G01*
X116000000Y-94207500D01*
G75*
G02*
X115862500Y-94345000I-137500J0D01*
G01*
X114537500Y-94345000D01*
G75*
G02*
X114400000Y-94207500I0J137500D01*
G01*
G37*
%TD.AperFunction*%
%TO.P,U3,10*%
%TO.N,5_bcm3*%
%TA.AperFunction,SMDPad,CuDef*%
G36*
G01*
X114400000Y-95477500D02*
X114400000Y-95202500D01*
G75*
G02*
X114537500Y-95065000I137500J0D01*
G01*
X115862500Y-95065000D01*
G75*
G02*
X116000000Y-95202500I0J-137500D01*
G01*
X116000000Y-95477500D01*
G75*
G02*
X115862500Y-95615000I-137500J0D01*
G01*
X114537500Y-95615000D01*
G75*
G02*
X114400000Y-95477500I0J137500D01*
G01*
G37*
%TD.AperFunction*%
%TO.P,U3,9*%
%TO.N,+5V*%
%TA.AperFunction,SMDPad,CuDef*%
G36*
G01*
X114400000Y-96747500D02*
X114400000Y-96472500D01*
G75*
G02*
X114537500Y-96335000I137500J0D01*
G01*
X115862500Y-96335000D01*
G75*
G02*
X116000000Y-96472500I0J-137500D01*
G01*
X116000000Y-96747500D01*
G75*
G02*
X115862500Y-96885000I-137500J0D01*
G01*
X114537500Y-96885000D01*
G75*
G02*
X114400000Y-96747500I0J137500D01*
G01*
G37*
%TD.AperFunction*%
%TO.P,U3,8*%
%TO.N,GND*%
%TA.AperFunction,SMDPad,CuDef*%
G36*
G01*
X107900000Y-96747500D02*
X107900000Y-96472500D01*
G75*
G02*
X108037500Y-96335000I137500J0D01*
G01*
X109362500Y-96335000D01*
G75*
G02*
X109500000Y-96472500I0J-137500D01*
G01*
X109500000Y-96747500D01*
G75*
G02*
X109362500Y-96885000I-137500J0D01*
G01*
X108037500Y-96885000D01*
G75*
G02*
X107900000Y-96747500I0J137500D01*
G01*
G37*
%TD.AperFunction*%
%TO.P,U3,7*%
%TO.N,Net-(J3-Pad7)*%
%TA.AperFunction,SMDPad,CuDef*%
G36*
G01*
X107900000Y-95477500D02*
X107900000Y-95202500D01*
G75*
G02*
X108037500Y-95065000I137500J0D01*
G01*
X109362500Y-95065000D01*
G75*
G02*
X109500000Y-95202500I0J-137500D01*
G01*
X109500000Y-95477500D01*
G75*
G02*
X109362500Y-95615000I-137500J0D01*
G01*
X108037500Y-95615000D01*
G75*
G02*
X107900000Y-95477500I0J137500D01*
G01*
G37*
%TD.AperFunction*%
%TO.P,U3,6*%
%TO.N,Net-(J3-Pad6)*%
%TA.AperFunction,SMDPad,CuDef*%
G36*
G01*
X107900000Y-94207500D02*
X107900000Y-93932500D01*
G75*
G02*
X108037500Y-93795000I137500J0D01*
G01*
X109362500Y-93795000D01*
G75*
G02*
X109500000Y-93932500I0J-137500D01*
G01*
X109500000Y-94207500D01*
G75*
G02*
X109362500Y-94345000I-137500J0D01*
G01*
X108037500Y-94345000D01*
G75*
G02*
X107900000Y-94207500I0J137500D01*
G01*
G37*
%TD.AperFunction*%
%TO.P,U3,5*%
%TO.N,Net-(J3-Pad5)*%
%TA.AperFunction,SMDPad,CuDef*%
G36*
G01*
X107900000Y-92937500D02*
X107900000Y-92662500D01*
G75*
G02*
X108037500Y-92525000I137500J0D01*
G01*
X109362500Y-92525000D01*
G75*
G02*
X109500000Y-92662500I0J-137500D01*
G01*
X109500000Y-92937500D01*
G75*
G02*
X109362500Y-93075000I-137500J0D01*
G01*
X108037500Y-93075000D01*
G75*
G02*
X107900000Y-92937500I0J137500D01*
G01*
G37*
%TD.AperFunction*%
%TO.P,U3,4*%
%TO.N,Net-(J3-Pad4)*%
%TA.AperFunction,SMDPad,CuDef*%
G36*
G01*
X107900000Y-91667500D02*
X107900000Y-91392500D01*
G75*
G02*
X108037500Y-91255000I137500J0D01*
G01*
X109362500Y-91255000D01*
G75*
G02*
X109500000Y-91392500I0J-137500D01*
G01*
X109500000Y-91667500D01*
G75*
G02*
X109362500Y-91805000I-137500J0D01*
G01*
X108037500Y-91805000D01*
G75*
G02*
X107900000Y-91667500I0J137500D01*
G01*
G37*
%TD.AperFunction*%
%TO.P,U3,3*%
%TO.N,Net-(J3-Pad3)*%
%TA.AperFunction,SMDPad,CuDef*%
G36*
G01*
X107900000Y-90397500D02*
X107900000Y-90122500D01*
G75*
G02*
X108037500Y-89985000I137500J0D01*
G01*
X109362500Y-89985000D01*
G75*
G02*
X109500000Y-90122500I0J-137500D01*
G01*
X109500000Y-90397500D01*
G75*
G02*
X109362500Y-90535000I-137500J0D01*
G01*
X108037500Y-90535000D01*
G75*
G02*
X107900000Y-90397500I0J137500D01*
G01*
G37*
%TD.AperFunction*%
%TO.P,U3,2*%
%TO.N,Net-(J3-Pad2)*%
%TA.AperFunction,SMDPad,CuDef*%
G36*
G01*
X107900000Y-89127500D02*
X107900000Y-88852500D01*
G75*
G02*
X108037500Y-88715000I137500J0D01*
G01*
X109362500Y-88715000D01*
G75*
G02*
X109500000Y-88852500I0J-137500D01*
G01*
X109500000Y-89127500D01*
G75*
G02*
X109362500Y-89265000I-137500J0D01*
G01*
X108037500Y-89265000D01*
G75*
G02*
X107900000Y-89127500I0J137500D01*
G01*
G37*
%TD.AperFunction*%
%TO.P,U3,1*%
%TO.N,Net-(J3-Pad1)*%
%TA.AperFunction,SMDPad,CuDef*%
G36*
G01*
X107900000Y-87857500D02*
X107900000Y-87582500D01*
G75*
G02*
X108037500Y-87445000I137500J0D01*
G01*
X109362500Y-87445000D01*
G75*
G02*
X109500000Y-87582500I0J-137500D01*
G01*
X109500000Y-87857500D01*
G75*
G02*
X109362500Y-87995000I-137500J0D01*
G01*
X108037500Y-87995000D01*
G75*
G02*
X107900000Y-87857500I0J137500D01*
G01*
G37*
%TD.AperFunction*%
%TD*%
%TO.P,U2,16*%
%TO.N,2_bcs3*%
%TA.AperFunction,SMDPad,CuDef*%
G36*
G01*
X114350000Y-68092500D02*
X114350000Y-67817500D01*
G75*
G02*
X114487500Y-67680000I137500J0D01*
G01*
X115812500Y-67680000D01*
G75*
G02*
X115950000Y-67817500I0J-137500D01*
G01*
X115950000Y-68092500D01*
G75*
G02*
X115812500Y-68230000I-137500J0D01*
G01*
X114487500Y-68230000D01*
G75*
G02*
X114350000Y-68092500I0J137500D01*
G01*
G37*
%TD.AperFunction*%
%TO.P,U2,15*%
%TO.N,2_bcs4*%
%TA.AperFunction,SMDPad,CuDef*%
G36*
G01*
X114350000Y-69362500D02*
X114350000Y-69087500D01*
G75*
G02*
X114487500Y-68950000I137500J0D01*
G01*
X115812500Y-68950000D01*
G75*
G02*
X115950000Y-69087500I0J-137500D01*
G01*
X115950000Y-69362500D01*
G75*
G02*
X115812500Y-69500000I-137500J0D01*
G01*
X114487500Y-69500000D01*
G75*
G02*
X114350000Y-69362500I0J137500D01*
G01*
G37*
%TD.AperFunction*%
%TO.P,U2,14*%
%TO.N,2_bcs5*%
%TA.AperFunction,SMDPad,CuDef*%
G36*
G01*
X114350000Y-70632500D02*
X114350000Y-70357500D01*
G75*
G02*
X114487500Y-70220000I137500J0D01*
G01*
X115812500Y-70220000D01*
G75*
G02*
X115950000Y-70357500I0J-137500D01*
G01*
X115950000Y-70632500D01*
G75*
G02*
X115812500Y-70770000I-137500J0D01*
G01*
X114487500Y-70770000D01*
G75*
G02*
X114350000Y-70632500I0J137500D01*
G01*
G37*
%TD.AperFunction*%
%TO.P,U2,13*%
%TO.N,3_ccm1*%
%TA.AperFunction,SMDPad,CuDef*%
G36*
G01*
X114350000Y-71902500D02*
X114350000Y-71627500D01*
G75*
G02*
X114487500Y-71490000I137500J0D01*
G01*
X115812500Y-71490000D01*
G75*
G02*
X115950000Y-71627500I0J-137500D01*
G01*
X115950000Y-71902500D01*
G75*
G02*
X115812500Y-72040000I-137500J0D01*
G01*
X114487500Y-72040000D01*
G75*
G02*
X114350000Y-71902500I0J137500D01*
G01*
G37*
%TD.AperFunction*%
%TO.P,U2,12*%
%TO.N,3_ccm2*%
%TA.AperFunction,SMDPad,CuDef*%
G36*
G01*
X114350000Y-73172500D02*
X114350000Y-72897500D01*
G75*
G02*
X114487500Y-72760000I137500J0D01*
G01*
X115812500Y-72760000D01*
G75*
G02*
X115950000Y-72897500I0J-137500D01*
G01*
X115950000Y-73172500D01*
G75*
G02*
X115812500Y-73310000I-137500J0D01*
G01*
X114487500Y-73310000D01*
G75*
G02*
X114350000Y-73172500I0J137500D01*
G01*
G37*
%TD.AperFunction*%
%TO.P,U2,11*%
%TO.N,3_ccm3*%
%TA.AperFunction,SMDPad,CuDef*%
G36*
G01*
X114350000Y-74442500D02*
X114350000Y-74167500D01*
G75*
G02*
X114487500Y-74030000I137500J0D01*
G01*
X115812500Y-74030000D01*
G75*
G02*
X115950000Y-74167500I0J-137500D01*
G01*
X115950000Y-74442500D01*
G75*
G02*
X115812500Y-74580000I-137500J0D01*
G01*
X114487500Y-74580000D01*
G75*
G02*
X114350000Y-74442500I0J137500D01*
G01*
G37*
%TD.AperFunction*%
%TO.P,U2,10*%
%TO.N,3_ccm4*%
%TA.AperFunction,SMDPad,CuDef*%
G36*
G01*
X114350000Y-75712500D02*
X114350000Y-75437500D01*
G75*
G02*
X114487500Y-75300000I137500J0D01*
G01*
X115812500Y-75300000D01*
G75*
G02*
X115950000Y-75437500I0J-137500D01*
G01*
X115950000Y-75712500D01*
G75*
G02*
X115812500Y-75850000I-137500J0D01*
G01*
X114487500Y-75850000D01*
G75*
G02*
X114350000Y-75712500I0J137500D01*
G01*
G37*
%TD.AperFunction*%
%TO.P,U2,9*%
%TO.N,+5V*%
%TA.AperFunction,SMDPad,CuDef*%
G36*
G01*
X114350000Y-76982500D02*
X114350000Y-76707500D01*
G75*
G02*
X114487500Y-76570000I137500J0D01*
G01*
X115812500Y-76570000D01*
G75*
G02*
X115950000Y-76707500I0J-137500D01*
G01*
X115950000Y-76982500D01*
G75*
G02*
X115812500Y-77120000I-137500J0D01*
G01*
X114487500Y-77120000D01*
G75*
G02*
X114350000Y-76982500I0J137500D01*
G01*
G37*
%TD.AperFunction*%
%TO.P,U2,8*%
%TO.N,GND*%
%TA.AperFunction,SMDPad,CuDef*%
G36*
G01*
X107850000Y-76982500D02*
X107850000Y-76707500D01*
G75*
G02*
X107987500Y-76570000I137500J0D01*
G01*
X109312500Y-76570000D01*
G75*
G02*
X109450000Y-76707500I0J-137500D01*
G01*
X109450000Y-76982500D01*
G75*
G02*
X109312500Y-77120000I-137500J0D01*
G01*
X107987500Y-77120000D01*
G75*
G02*
X107850000Y-76982500I0J137500D01*
G01*
G37*
%TD.AperFunction*%
%TO.P,U2,7*%
%TO.N,Net-(J2-Pad7)*%
%TA.AperFunction,SMDPad,CuDef*%
G36*
G01*
X107850000Y-75712500D02*
X107850000Y-75437500D01*
G75*
G02*
X107987500Y-75300000I137500J0D01*
G01*
X109312500Y-75300000D01*
G75*
G02*
X109450000Y-75437500I0J-137500D01*
G01*
X109450000Y-75712500D01*
G75*
G02*
X109312500Y-75850000I-137500J0D01*
G01*
X107987500Y-75850000D01*
G75*
G02*
X107850000Y-75712500I0J137500D01*
G01*
G37*
%TD.AperFunction*%
%TO.P,U2,6*%
%TO.N,Net-(J2-Pad6)*%
%TA.AperFunction,SMDPad,CuDef*%
G36*
G01*
X107850000Y-74442500D02*
X107850000Y-74167500D01*
G75*
G02*
X107987500Y-74030000I137500J0D01*
G01*
X109312500Y-74030000D01*
G75*
G02*
X109450000Y-74167500I0J-137500D01*
G01*
X109450000Y-74442500D01*
G75*
G02*
X109312500Y-74580000I-137500J0D01*
G01*
X107987500Y-74580000D01*
G75*
G02*
X107850000Y-74442500I0J137500D01*
G01*
G37*
%TD.AperFunction*%
%TO.P,U2,5*%
%TO.N,Net-(J2-Pad5)*%
%TA.AperFunction,SMDPad,CuDef*%
G36*
G01*
X107850000Y-73172500D02*
X107850000Y-72897500D01*
G75*
G02*
X107987500Y-72760000I137500J0D01*
G01*
X109312500Y-72760000D01*
G75*
G02*
X109450000Y-72897500I0J-137500D01*
G01*
X109450000Y-73172500D01*
G75*
G02*
X109312500Y-73310000I-137500J0D01*
G01*
X107987500Y-73310000D01*
G75*
G02*
X107850000Y-73172500I0J137500D01*
G01*
G37*
%TD.AperFunction*%
%TO.P,U2,4*%
%TO.N,Net-(J2-Pad4)*%
%TA.AperFunction,SMDPad,CuDef*%
G36*
G01*
X107850000Y-71902500D02*
X107850000Y-71627500D01*
G75*
G02*
X107987500Y-71490000I137500J0D01*
G01*
X109312500Y-71490000D01*
G75*
G02*
X109450000Y-71627500I0J-137500D01*
G01*
X109450000Y-71902500D01*
G75*
G02*
X109312500Y-72040000I-137500J0D01*
G01*
X107987500Y-72040000D01*
G75*
G02*
X107850000Y-71902500I0J137500D01*
G01*
G37*
%TD.AperFunction*%
%TO.P,U2,3*%
%TO.N,Net-(J2-Pad3)*%
%TA.AperFunction,SMDPad,CuDef*%
G36*
G01*
X107850000Y-70632500D02*
X107850000Y-70357500D01*
G75*
G02*
X107987500Y-70220000I137500J0D01*
G01*
X109312500Y-70220000D01*
G75*
G02*
X109450000Y-70357500I0J-137500D01*
G01*
X109450000Y-70632500D01*
G75*
G02*
X109312500Y-70770000I-137500J0D01*
G01*
X107987500Y-70770000D01*
G75*
G02*
X107850000Y-70632500I0J137500D01*
G01*
G37*
%TD.AperFunction*%
%TO.P,U2,2*%
%TO.N,Net-(J2-Pad2)*%
%TA.AperFunction,SMDPad,CuDef*%
G36*
G01*
X107850000Y-69362500D02*
X107850000Y-69087500D01*
G75*
G02*
X107987500Y-68950000I137500J0D01*
G01*
X109312500Y-68950000D01*
G75*
G02*
X109450000Y-69087500I0J-137500D01*
G01*
X109450000Y-69362500D01*
G75*
G02*
X109312500Y-69500000I-137500J0D01*
G01*
X107987500Y-69500000D01*
G75*
G02*
X107850000Y-69362500I0J137500D01*
G01*
G37*
%TD.AperFunction*%
%TO.P,U2,1*%
%TO.N,Net-(J2-Pad1)*%
%TA.AperFunction,SMDPad,CuDef*%
G36*
G01*
X107850000Y-68092500D02*
X107850000Y-67817500D01*
G75*
G02*
X107987500Y-67680000I137500J0D01*
G01*
X109312500Y-67680000D01*
G75*
G02*
X109450000Y-67817500I0J-137500D01*
G01*
X109450000Y-68092500D01*
G75*
G02*
X109312500Y-68230000I-137500J0D01*
G01*
X107987500Y-68230000D01*
G75*
G02*
X107850000Y-68092500I0J137500D01*
G01*
G37*
%TD.AperFunction*%
%TD*%
%TO.P,U1,16*%
%TO.N,1_ccs1*%
%TA.AperFunction,SMDPad,CuDef*%
G36*
G01*
X114350000Y-50792500D02*
X114350000Y-50517500D01*
G75*
G02*
X114487500Y-50380000I137500J0D01*
G01*
X115812500Y-50380000D01*
G75*
G02*
X115950000Y-50517500I0J-137500D01*
G01*
X115950000Y-50792500D01*
G75*
G02*
X115812500Y-50930000I-137500J0D01*
G01*
X114487500Y-50930000D01*
G75*
G02*
X114350000Y-50792500I0J137500D01*
G01*
G37*
%TD.AperFunction*%
%TO.P,U1,15*%
%TO.N,1_ccs2*%
%TA.AperFunction,SMDPad,CuDef*%
G36*
G01*
X114350000Y-52062500D02*
X114350000Y-51787500D01*
G75*
G02*
X114487500Y-51650000I137500J0D01*
G01*
X115812500Y-51650000D01*
G75*
G02*
X115950000Y-51787500I0J-137500D01*
G01*
X115950000Y-52062500D01*
G75*
G02*
X115812500Y-52200000I-137500J0D01*
G01*
X114487500Y-52200000D01*
G75*
G02*
X114350000Y-52062500I0J137500D01*
G01*
G37*
%TD.AperFunction*%
%TO.P,U1,14*%
%TO.N,1_ccs3*%
%TA.AperFunction,SMDPad,CuDef*%
G36*
G01*
X114350000Y-53332500D02*
X114350000Y-53057500D01*
G75*
G02*
X114487500Y-52920000I137500J0D01*
G01*
X115812500Y-52920000D01*
G75*
G02*
X115950000Y-53057500I0J-137500D01*
G01*
X115950000Y-53332500D01*
G75*
G02*
X115812500Y-53470000I-137500J0D01*
G01*
X114487500Y-53470000D01*
G75*
G02*
X114350000Y-53332500I0J137500D01*
G01*
G37*
%TD.AperFunction*%
%TO.P,U1,13*%
%TO.N,1_ccs4*%
%TA.AperFunction,SMDPad,CuDef*%
G36*
G01*
X114350000Y-54602500D02*
X114350000Y-54327500D01*
G75*
G02*
X114487500Y-54190000I137500J0D01*
G01*
X115812500Y-54190000D01*
G75*
G02*
X115950000Y-54327500I0J-137500D01*
G01*
X115950000Y-54602500D01*
G75*
G02*
X115812500Y-54740000I-137500J0D01*
G01*
X114487500Y-54740000D01*
G75*
G02*
X114350000Y-54602500I0J137500D01*
G01*
G37*
%TD.AperFunction*%
%TO.P,U1,12*%
%TO.N,1_ccs5*%
%TA.AperFunction,SMDPad,CuDef*%
G36*
G01*
X114350000Y-55872500D02*
X114350000Y-55597500D01*
G75*
G02*
X114487500Y-55460000I137500J0D01*
G01*
X115812500Y-55460000D01*
G75*
G02*
X115950000Y-55597500I0J-137500D01*
G01*
X115950000Y-55872500D01*
G75*
G02*
X115812500Y-56010000I-137500J0D01*
G01*
X114487500Y-56010000D01*
G75*
G02*
X114350000Y-55872500I0J137500D01*
G01*
G37*
%TD.AperFunction*%
%TO.P,U1,11*%
%TO.N,2_bcs1*%
%TA.AperFunction,SMDPad,CuDef*%
G36*
G01*
X114350000Y-57142500D02*
X114350000Y-56867500D01*
G75*
G02*
X114487500Y-56730000I137500J0D01*
G01*
X115812500Y-56730000D01*
G75*
G02*
X115950000Y-56867500I0J-137500D01*
G01*
X115950000Y-57142500D01*
G75*
G02*
X115812500Y-57280000I-137500J0D01*
G01*
X114487500Y-57280000D01*
G75*
G02*
X114350000Y-57142500I0J137500D01*
G01*
G37*
%TD.AperFunction*%
%TO.P,U1,10*%
%TO.N,2_bcs2*%
%TA.AperFunction,SMDPad,CuDef*%
G36*
G01*
X114350000Y-58412500D02*
X114350000Y-58137500D01*
G75*
G02*
X114487500Y-58000000I137500J0D01*
G01*
X115812500Y-58000000D01*
G75*
G02*
X115950000Y-58137500I0J-137500D01*
G01*
X115950000Y-58412500D01*
G75*
G02*
X115812500Y-58550000I-137500J0D01*
G01*
X114487500Y-58550000D01*
G75*
G02*
X114350000Y-58412500I0J137500D01*
G01*
G37*
%TD.AperFunction*%
%TO.P,U1,9*%
%TO.N,+5V*%
%TA.AperFunction,SMDPad,CuDef*%
G36*
G01*
X114350000Y-59682500D02*
X114350000Y-59407500D01*
G75*
G02*
X114487500Y-59270000I137500J0D01*
G01*
X115812500Y-59270000D01*
G75*
G02*
X115950000Y-59407500I0J-137500D01*
G01*
X115950000Y-59682500D01*
G75*
G02*
X115812500Y-59820000I-137500J0D01*
G01*
X114487500Y-59820000D01*
G75*
G02*
X114350000Y-59682500I0J137500D01*
G01*
G37*
%TD.AperFunction*%
%TO.P,U1,8*%
%TO.N,GND*%
%TA.AperFunction,SMDPad,CuDef*%
G36*
G01*
X107850000Y-59682500D02*
X107850000Y-59407500D01*
G75*
G02*
X107987500Y-59270000I137500J0D01*
G01*
X109312500Y-59270000D01*
G75*
G02*
X109450000Y-59407500I0J-137500D01*
G01*
X109450000Y-59682500D01*
G75*
G02*
X109312500Y-59820000I-137500J0D01*
G01*
X107987500Y-59820000D01*
G75*
G02*
X107850000Y-59682500I0J137500D01*
G01*
G37*
%TD.AperFunction*%
%TO.P,U1,7*%
%TO.N,Net-(J1-Pad7)*%
%TA.AperFunction,SMDPad,CuDef*%
G36*
G01*
X107850000Y-58412500D02*
X107850000Y-58137500D01*
G75*
G02*
X107987500Y-58000000I137500J0D01*
G01*
X109312500Y-58000000D01*
G75*
G02*
X109450000Y-58137500I0J-137500D01*
G01*
X109450000Y-58412500D01*
G75*
G02*
X109312500Y-58550000I-137500J0D01*
G01*
X107987500Y-58550000D01*
G75*
G02*
X107850000Y-58412500I0J137500D01*
G01*
G37*
%TD.AperFunction*%
%TO.P,U1,6*%
%TO.N,Net-(J1-Pad6)*%
%TA.AperFunction,SMDPad,CuDef*%
G36*
G01*
X107850000Y-57142500D02*
X107850000Y-56867500D01*
G75*
G02*
X107987500Y-56730000I137500J0D01*
G01*
X109312500Y-56730000D01*
G75*
G02*
X109450000Y-56867500I0J-137500D01*
G01*
X109450000Y-57142500D01*
G75*
G02*
X109312500Y-57280000I-137500J0D01*
G01*
X107987500Y-57280000D01*
G75*
G02*
X107850000Y-57142500I0J137500D01*
G01*
G37*
%TD.AperFunction*%
%TO.P,U1,5*%
%TO.N,Net-(J1-Pad5)*%
%TA.AperFunction,SMDPad,CuDef*%
G36*
G01*
X107850000Y-55872500D02*
X107850000Y-55597500D01*
G75*
G02*
X107987500Y-55460000I137500J0D01*
G01*
X109312500Y-55460000D01*
G75*
G02*
X109450000Y-55597500I0J-137500D01*
G01*
X109450000Y-55872500D01*
G75*
G02*
X109312500Y-56010000I-137500J0D01*
G01*
X107987500Y-56010000D01*
G75*
G02*
X107850000Y-55872500I0J137500D01*
G01*
G37*
%TD.AperFunction*%
%TO.P,U1,4*%
%TO.N,Net-(J1-Pad4)*%
%TA.AperFunction,SMDPad,CuDef*%
G36*
G01*
X107850000Y-54602500D02*
X107850000Y-54327500D01*
G75*
G02*
X107987500Y-54190000I137500J0D01*
G01*
X109312500Y-54190000D01*
G75*
G02*
X109450000Y-54327500I0J-137500D01*
G01*
X109450000Y-54602500D01*
G75*
G02*
X109312500Y-54740000I-137500J0D01*
G01*
X107987500Y-54740000D01*
G75*
G02*
X107850000Y-54602500I0J137500D01*
G01*
G37*
%TD.AperFunction*%
%TO.P,U1,3*%
%TO.N,Net-(J1-Pad3)*%
%TA.AperFunction,SMDPad,CuDef*%
G36*
G01*
X107850000Y-53332500D02*
X107850000Y-53057500D01*
G75*
G02*
X107987500Y-52920000I137500J0D01*
G01*
X109312500Y-52920000D01*
G75*
G02*
X109450000Y-53057500I0J-137500D01*
G01*
X109450000Y-53332500D01*
G75*
G02*
X109312500Y-53470000I-137500J0D01*
G01*
X107987500Y-53470000D01*
G75*
G02*
X107850000Y-53332500I0J137500D01*
G01*
G37*
%TD.AperFunction*%
%TO.P,U1,2*%
%TO.N,Net-(J1-Pad2)*%
%TA.AperFunction,SMDPad,CuDef*%
G36*
G01*
X107850000Y-52062500D02*
X107850000Y-51787500D01*
G75*
G02*
X107987500Y-51650000I137500J0D01*
G01*
X109312500Y-51650000D01*
G75*
G02*
X109450000Y-51787500I0J-137500D01*
G01*
X109450000Y-52062500D01*
G75*
G02*
X109312500Y-52200000I-137500J0D01*
G01*
X107987500Y-52200000D01*
G75*
G02*
X107850000Y-52062500I0J137500D01*
G01*
G37*
%TD.AperFunction*%
%TO.P,U1,1*%
%TO.N,Net-(J1-Pad1)*%
%TA.AperFunction,SMDPad,CuDef*%
G36*
G01*
X107850000Y-50792500D02*
X107850000Y-50517500D01*
G75*
G02*
X107987500Y-50380000I137500J0D01*
G01*
X109312500Y-50380000D01*
G75*
G02*
X109450000Y-50517500I0J-137500D01*
G01*
X109450000Y-50792500D01*
G75*
G02*
X109312500Y-50930000I-137500J0D01*
G01*
X107987500Y-50930000D01*
G75*
G02*
X107850000Y-50792500I0J137500D01*
G01*
G37*
%TD.AperFunction*%
%TD*%
D10*
%TO.P,J14,2*%
%TO.N,GND*%
X114220000Y-40700000D03*
D11*
%TO.P,J14,1*%
%TO.N,+5V*%
X119300000Y-40700000D03*
%TD*%
D12*
%TO.P,J13,4*%
%TO.N,8_cbvm3*%
X143700000Y-139820000D03*
%TO.P,J13,2*%
%TO.N,8_cbvm1*%
X143700000Y-134740000D03*
D13*
%TO.P,J13,1*%
%TO.N,+5V*%
X143700000Y-132200000D03*
D12*
%TO.P,J13,3*%
%TO.N,8_cbvm2*%
X143700000Y-137280000D03*
%TD*%
D13*
%TO.P,J12,1*%
%TO.N,+5V*%
X133300000Y-116400000D03*
D12*
%TO.P,J12,2*%
%TO.N,7_br1*%
X133300000Y-118940000D03*
%TO.P,J12,3*%
%TO.N,7_br2*%
X133300000Y-121480000D03*
%TO.P,J12,4*%
%TO.N,7_br3*%
X133300000Y-124020000D03*
%TO.P,J12,5*%
%TO.N,7_br4*%
X133300000Y-126560000D03*
%TO.P,J12,6*%
%TO.N,7_br5*%
X133300000Y-129100000D03*
%TD*%
%TO.P,J11,5*%
%TO.N,6_bvs4*%
X143300000Y-114360000D03*
%TO.P,J11,4*%
%TO.N,6_bvs3*%
X143300000Y-111820000D03*
%TO.P,J11,3*%
%TO.N,6_bvs2*%
X143300000Y-109280000D03*
%TO.P,J11,2*%
%TO.N,6_bvs1*%
X143300000Y-106740000D03*
D13*
%TO.P,J11,1*%
%TO.N,+5V*%
X143300000Y-104200000D03*
%TD*%
D12*
%TO.P,J10,5*%
%TO.N,5_bcm4*%
X132800000Y-103060000D03*
%TO.P,J10,4*%
%TO.N,5_bcm3*%
X132800000Y-100520000D03*
%TO.P,J10,3*%
%TO.N,5_bcm2*%
X132800000Y-97980000D03*
%TO.P,J10,2*%
%TO.N,5_bcm1*%
X132800000Y-95440000D03*
D13*
%TO.P,J10,1*%
%TO.N,+5V*%
X132800000Y-92900000D03*
%TD*%
D12*
%TO.P,J9,5*%
%TO.N,4_rp2*%
X143600000Y-90960000D03*
%TO.P,J9,4*%
%TO.N,4_rp1*%
X143600000Y-88420000D03*
%TO.P,J9,3*%
%TO.N,4_ecm2*%
X143600000Y-85880000D03*
%TO.P,J9,2*%
%TO.N,4_ecm1*%
X143600000Y-83340000D03*
D13*
%TO.P,J9,1*%
%TO.N,+5V*%
X143600000Y-80800000D03*
%TD*%
D12*
%TO.P,J8,5*%
%TO.N,3_ccm4*%
X132700000Y-80560000D03*
%TO.P,J8,4*%
%TO.N,3_ccm3*%
X132700000Y-78020000D03*
%TO.P,J8,3*%
%TO.N,3_ccm2*%
X132700000Y-75480000D03*
%TO.P,J8,2*%
%TO.N,3_ccm1*%
X132700000Y-72940000D03*
D13*
%TO.P,J8,1*%
%TO.N,+5V*%
X132700000Y-70400000D03*
%TD*%
%TO.P,J7,1*%
%TO.N,+5V*%
X143600000Y-56300000D03*
D12*
%TO.P,J7,2*%
%TO.N,2_bcs1*%
X143600000Y-58840000D03*
%TO.P,J7,3*%
%TO.N,2_bcs2*%
X143600000Y-61380000D03*
%TO.P,J7,4*%
%TO.N,2_bcs3*%
X143600000Y-63920000D03*
%TO.P,J7,5*%
%TO.N,2_bcs4*%
X143600000Y-66460000D03*
%TO.P,J7,6*%
%TO.N,2_bcs5*%
X143600000Y-69000000D03*
%TD*%
D13*
%TO.P,J6,1*%
%TO.N,+5V*%
X132700000Y-43900000D03*
D12*
%TO.P,J6,2*%
%TO.N,1_ccs1*%
X132700000Y-46440000D03*
%TO.P,J6,3*%
%TO.N,1_ccs2*%
X132700000Y-48980000D03*
%TO.P,J6,4*%
%TO.N,1_ccs3*%
X132700000Y-51520000D03*
%TO.P,J6,5*%
%TO.N,1_ccs4*%
X132700000Y-54060000D03*
%TO.P,J6,6*%
%TO.N,1_ccs5*%
X132700000Y-56600000D03*
%TD*%
D13*
%TO.P,J5,1*%
%TO.N,Net-(J5-Pad1)*%
X99200000Y-127600000D03*
D12*
%TO.P,J5,2*%
%TO.N,Net-(J5-Pad2)*%
X99200000Y-130140000D03*
%TO.P,J5,3*%
%TO.N,Net-(J5-Pad3)*%
X99200000Y-132680000D03*
%TO.P,J5,4*%
%TO.N,Net-(J5-Pad4)*%
X99200000Y-135220000D03*
%TO.P,J5,5*%
%TO.N,Net-(J5-Pad5)*%
X99200000Y-137760000D03*
%TO.P,J5,6*%
%TO.N,Net-(J5-Pad6)*%
X99200000Y-140300000D03*
%TD*%
%TO.P,J4,4*%
%TO.N,Net-(J4-Pad4)*%
X99100000Y-113520000D03*
%TO.P,J4,3*%
%TO.N,Net-(J4-Pad3)*%
X99100000Y-110980000D03*
%TO.P,J4,6*%
%TO.N,Net-(J4-Pad6)*%
X99100000Y-118600000D03*
D13*
%TO.P,J4,1*%
%TO.N,Net-(J4-Pad1)*%
X99100000Y-105900000D03*
D12*
%TO.P,J4,5*%
%TO.N,Net-(J4-Pad5)*%
X99100000Y-116060000D03*
%TO.P,J4,2*%
%TO.N,Net-(J4-Pad2)*%
X99100000Y-108440000D03*
%TO.P,J4,7*%
%TO.N,Net-(J4-Pad7)*%
X99100000Y-121140000D03*
%TD*%
%TO.P,J3,4*%
%TO.N,Net-(J3-Pad4)*%
X99000000Y-92660000D03*
%TO.P,J3,3*%
%TO.N,Net-(J3-Pad3)*%
X99000000Y-90120000D03*
%TO.P,J3,6*%
%TO.N,Net-(J3-Pad6)*%
X99000000Y-97740000D03*
D13*
%TO.P,J3,1*%
%TO.N,Net-(J3-Pad1)*%
X99000000Y-85040000D03*
D12*
%TO.P,J3,5*%
%TO.N,Net-(J3-Pad5)*%
X99000000Y-95200000D03*
%TO.P,J3,2*%
%TO.N,Net-(J3-Pad2)*%
X99000000Y-87580000D03*
%TO.P,J3,7*%
%TO.N,Net-(J3-Pad7)*%
X99000000Y-100280000D03*
%TD*%
%TO.P,J2,4*%
%TO.N,Net-(J2-Pad4)*%
X99000000Y-71320000D03*
%TO.P,J2,3*%
%TO.N,Net-(J2-Pad3)*%
X99000000Y-68780000D03*
%TO.P,J2,6*%
%TO.N,Net-(J2-Pad6)*%
X99000000Y-76400000D03*
D13*
%TO.P,J2,1*%
%TO.N,Net-(J2-Pad1)*%
X99000000Y-63700000D03*
D12*
%TO.P,J2,5*%
%TO.N,Net-(J2-Pad5)*%
X99000000Y-73860000D03*
%TO.P,J2,2*%
%TO.N,Net-(J2-Pad2)*%
X99000000Y-66240000D03*
%TO.P,J2,7*%
%TO.N,Net-(J2-Pad7)*%
X99000000Y-78940000D03*
%TD*%
%TO.P,J1,4*%
%TO.N,Net-(J1-Pad4)*%
X98900000Y-50720000D03*
%TO.P,J1,3*%
%TO.N,Net-(J1-Pad3)*%
X98900000Y-48180000D03*
%TO.P,J1,6*%
%TO.N,Net-(J1-Pad6)*%
X98900000Y-55800000D03*
D13*
%TO.P,J1,1*%
%TO.N,Net-(J1-Pad1)*%
X98900000Y-43100000D03*
D12*
%TO.P,J1,5*%
%TO.N,Net-(J1-Pad5)*%
X98900000Y-53260000D03*
%TO.P,J1,2*%
%TO.N,Net-(J1-Pad2)*%
X98900000Y-45640000D03*
%TO.P,J1,7*%
%TO.N,Net-(J1-Pad7)*%
X98900000Y-58340000D03*
%TD*%
D14*
%TO.N,+5V*%
X115300000Y-139900000D03*
X115300000Y-120500000D03*
X115300000Y-98500000D03*
X115300000Y-61500000D03*
X115300000Y-78900000D03*
%TO.N,GND*%
X108700000Y-139900000D03*
X108700000Y-120300000D03*
X108700000Y-98300000D03*
X108700000Y-61600000D03*
X108700000Y-78900000D03*
%TD*%
D15*
%TO.N,+5V*%
X115150000Y-120350000D02*
X115300000Y-120500000D01*
X115150000Y-118445000D02*
X115150000Y-120350000D01*
X115200000Y-98400000D02*
X115300000Y-98500000D01*
X115200000Y-96610000D02*
X115200000Y-98400000D01*
X115250000Y-138045000D02*
X115250000Y-139750000D01*
X115300000Y-139800000D02*
X115300000Y-139900000D01*
X115250000Y-139750000D02*
X115300000Y-139800000D01*
X115300000Y-76995000D02*
X115150000Y-76845000D01*
X115300000Y-78900000D02*
X115300000Y-76995000D01*
X115300000Y-59695000D02*
X115150000Y-59545000D01*
X115300000Y-61500000D02*
X115300000Y-59695000D01*
%TO.N,1_ccs1*%
X132700000Y-46440000D02*
X123260000Y-46440000D01*
X119045000Y-50655000D02*
X115150000Y-50655000D01*
X123260000Y-46440000D02*
X119045000Y-50655000D01*
%TO.N,1_ccs2*%
X115150000Y-51925000D02*
X120675000Y-51925000D01*
X123620000Y-48980000D02*
X132700000Y-48980000D01*
X120675000Y-51925000D02*
X123620000Y-48980000D01*
%TO.N,1_ccs3*%
X115150000Y-53195000D02*
X121805000Y-53195000D01*
X123480000Y-51520000D02*
X132700000Y-51520000D01*
X121805000Y-53195000D02*
X123480000Y-51520000D01*
%TO.N,1_ccs4*%
X115150000Y-54465000D02*
X122935000Y-54465000D01*
X123340000Y-54060000D02*
X132700000Y-54060000D01*
X122935000Y-54465000D02*
X123340000Y-54060000D01*
%TO.N,1_ccs5*%
X115150000Y-55735000D02*
X128635000Y-55735000D01*
X129500000Y-56600000D02*
X132700000Y-56600000D01*
X128635000Y-55735000D02*
X129500000Y-56600000D01*
%TO.N,2_bcs1*%
X115150000Y-57005000D02*
X127905000Y-57005000D01*
X129740000Y-58840000D02*
X143600000Y-58840000D01*
X127905000Y-57005000D02*
X129740000Y-58840000D01*
%TO.N,2_bcs2*%
X143600000Y-61380000D02*
X130280000Y-61380000D01*
X127175000Y-58275000D02*
X115150000Y-58275000D01*
X130280000Y-61380000D02*
X127175000Y-58275000D01*
%TO.N,2_bcs3*%
X143600000Y-63920000D02*
X121980000Y-63920000D01*
X117945000Y-67955000D02*
X115150000Y-67955000D01*
X121980000Y-63920000D02*
X117945000Y-67955000D01*
%TO.N,2_bcs4*%
X143600000Y-66460000D02*
X121640000Y-66460000D01*
X118875000Y-69225000D02*
X115150000Y-69225000D01*
X121640000Y-66460000D02*
X118875000Y-69225000D01*
%TO.N,2_bcs5*%
X115150000Y-70495000D02*
X126105000Y-70495000D01*
X126105000Y-70495000D02*
X128900000Y-67700000D01*
X128900000Y-67700000D02*
X138600000Y-67700000D01*
X139900000Y-69000000D02*
X143600000Y-69000000D01*
X138600000Y-67700000D02*
X139900000Y-69000000D01*
%TO.N,3_ccm4*%
X115150000Y-75575000D02*
X118975000Y-75575000D01*
X123960000Y-80560000D02*
X132700000Y-80560000D01*
X118975000Y-75575000D02*
X123960000Y-80560000D01*
%TO.N,3_ccm3*%
X132700000Y-78020000D02*
X123320000Y-78020000D01*
X119605000Y-74305000D02*
X115150000Y-74305000D01*
X123320000Y-78020000D02*
X119605000Y-74305000D01*
%TO.N,3_ccm2*%
X115150000Y-73035000D02*
X120235000Y-73035000D01*
X122680000Y-75480000D02*
X132700000Y-75480000D01*
X120235000Y-73035000D02*
X122680000Y-75480000D01*
%TO.N,3_ccm1*%
X132700000Y-72940000D02*
X121840000Y-72940000D01*
X120665000Y-71765000D02*
X115150000Y-71765000D01*
X121840000Y-72940000D02*
X120665000Y-71765000D01*
%TO.N,4_rp2*%
X143600000Y-90960000D02*
X124140000Y-90960000D01*
X123570000Y-91530000D02*
X115200000Y-91530000D01*
X124140000Y-90960000D02*
X123570000Y-91530000D01*
%TO.N,4_rp1*%
X143600000Y-88420000D02*
X124580000Y-88420000D01*
X122740000Y-90260000D02*
X115200000Y-90260000D01*
X124580000Y-88420000D02*
X122740000Y-90260000D01*
%TO.N,4_ecm2*%
X115200000Y-88990000D02*
X122510000Y-88990000D01*
X125620000Y-85880000D02*
X143600000Y-85880000D01*
X122510000Y-88990000D02*
X125620000Y-85880000D01*
%TO.N,4_ecm1*%
X143600000Y-83340000D02*
X124260000Y-83340000D01*
X119880000Y-87720000D02*
X115200000Y-87720000D01*
X124260000Y-83340000D02*
X119880000Y-87720000D01*
%TO.N,5_bcm4*%
X132800000Y-103060000D02*
X123340000Y-103060000D01*
X116845000Y-109555000D02*
X115150000Y-109555000D01*
X123340000Y-103060000D02*
X116845000Y-109555000D01*
%TO.N,5_bcm3*%
X115200000Y-95340000D02*
X122440000Y-95340000D01*
X127620000Y-100520000D02*
X132800000Y-100520000D01*
X122440000Y-95340000D02*
X127620000Y-100520000D01*
%TO.N,5_bcm2*%
X132800000Y-97980000D02*
X128180000Y-97980000D01*
X124270000Y-94070000D02*
X115200000Y-94070000D01*
X128180000Y-97980000D02*
X124270000Y-94070000D01*
%TO.N,5_bcm1*%
X115200000Y-92800000D02*
X127600000Y-92800000D01*
X130240000Y-95440000D02*
X132800000Y-95440000D01*
X127600000Y-92800000D02*
X130240000Y-95440000D01*
%TO.N,6_bvs4*%
X115425000Y-114360000D02*
X115150000Y-114635000D01*
X143300000Y-114360000D02*
X115425000Y-114360000D01*
%TO.N,6_bvs3*%
X115150000Y-113365000D02*
X126935000Y-113365000D01*
X128480000Y-111820000D02*
X143300000Y-111820000D01*
X126935000Y-113365000D02*
X128480000Y-111820000D01*
%TO.N,6_bvs2*%
X143300000Y-109280000D02*
X126820000Y-109280000D01*
X124005000Y-112095000D02*
X115150000Y-112095000D01*
X126820000Y-109280000D02*
X124005000Y-112095000D01*
%TO.N,6_bvs1*%
X115150000Y-110825000D02*
X120675000Y-110825000D01*
X124760000Y-106740000D02*
X143300000Y-106740000D01*
X120675000Y-110825000D02*
X124760000Y-106740000D01*
%TO.N,7_br1*%
X115150000Y-115905000D02*
X121305000Y-115905000D01*
X124340000Y-118940000D02*
X133300000Y-118940000D01*
X121305000Y-115905000D02*
X124340000Y-118940000D01*
%TO.N,7_br2*%
X133300000Y-121480000D02*
X123380000Y-121480000D01*
X119075000Y-117175000D02*
X115150000Y-117175000D01*
X123380000Y-121480000D02*
X119075000Y-117175000D01*
%TO.N,7_br3*%
X133300000Y-124020000D02*
X127480000Y-124020000D01*
X122345000Y-129155000D02*
X115250000Y-129155000D01*
X127480000Y-124020000D02*
X122345000Y-129155000D01*
%TO.N,7_br4*%
X115250000Y-130425000D02*
X124875000Y-130425000D01*
X128740000Y-126560000D02*
X133300000Y-126560000D01*
X124875000Y-130425000D02*
X128740000Y-126560000D01*
%TO.N,7_br5*%
X133300000Y-129100000D02*
X129000000Y-129100000D01*
X126405000Y-131695000D02*
X115250000Y-131695000D01*
X129000000Y-129100000D02*
X126405000Y-131695000D01*
%TO.N,8_cbvm3*%
X115250000Y-135505000D02*
X118405000Y-135505000D01*
X122720000Y-139820000D02*
X143700000Y-139820000D01*
X118405000Y-135505000D02*
X122720000Y-139820000D01*
%TO.N,8_cbvm1*%
X115250000Y-132965000D02*
X123665000Y-132965000D01*
X125440000Y-134740000D02*
X143700000Y-134740000D01*
X123665000Y-132965000D02*
X125440000Y-134740000D01*
%TO.N,8_cbvm2*%
X143700000Y-137280000D02*
X122480000Y-137280000D01*
X119435000Y-134235000D02*
X115250000Y-134235000D01*
X122480000Y-137280000D02*
X119435000Y-134235000D01*
%TO.N,Net-(J1-Pad4)*%
X108650000Y-54465000D02*
X105765000Y-54465000D01*
X102020000Y-50720000D02*
X98900000Y-50720000D01*
X105765000Y-54465000D02*
X102020000Y-50720000D01*
%TO.N,Net-(J1-Pad3)*%
X108650000Y-53195000D02*
X106895000Y-53195000D01*
X101880000Y-48180000D02*
X98900000Y-48180000D01*
X106895000Y-53195000D02*
X101880000Y-48180000D01*
%TO.N,Net-(J1-Pad6)*%
X108650000Y-57005000D02*
X103305000Y-57005000D01*
X102100000Y-55800000D02*
X98900000Y-55800000D01*
X103305000Y-57005000D02*
X102100000Y-55800000D01*
%TO.N,Net-(J1-Pad1)*%
X108650000Y-50655000D02*
X101295000Y-43300000D01*
X99100000Y-43300000D02*
X98900000Y-43100000D01*
X101295000Y-43300000D02*
X99100000Y-43300000D01*
%TO.N,Net-(J1-Pad5)*%
X108650000Y-55735000D02*
X104235000Y-55735000D01*
X101760000Y-53260000D02*
X98900000Y-53260000D01*
X104235000Y-55735000D02*
X101760000Y-53260000D01*
%TO.N,Net-(J1-Pad2)*%
X107850000Y-51925000D02*
X102200000Y-46275000D01*
X108650000Y-51925000D02*
X107850000Y-51925000D01*
X102200000Y-46275000D02*
X102175000Y-46275000D01*
X101540000Y-45640000D02*
X98900000Y-45640000D01*
X102175000Y-46275000D02*
X101540000Y-45640000D01*
%TO.N,Net-(J1-Pad7)*%
X98965000Y-58275000D02*
X98900000Y-58340000D01*
X108650000Y-58275000D02*
X98965000Y-58275000D01*
%TO.N,Net-(J2-Pad4)*%
X99445000Y-71765000D02*
X99000000Y-71320000D01*
X108650000Y-71765000D02*
X99445000Y-71765000D01*
%TO.N,Net-(J2-Pad3)*%
X99000000Y-68780000D02*
X103580000Y-68780000D01*
X105295000Y-70495000D02*
X108650000Y-70495000D01*
X103580000Y-68780000D02*
X105295000Y-70495000D01*
%TO.N,Net-(J2-Pad6)*%
X108650000Y-74305000D02*
X104595000Y-74305000D01*
X102500000Y-76400000D02*
X99000000Y-76400000D01*
X104595000Y-74305000D02*
X102500000Y-76400000D01*
%TO.N,Net-(J2-Pad1)*%
X108650000Y-67955000D02*
X108650000Y-67350000D01*
X105000000Y-63700000D02*
X99000000Y-63700000D01*
X108650000Y-67350000D02*
X105000000Y-63700000D01*
%TO.N,Net-(J2-Pad5)*%
X99000000Y-73860000D02*
X103140000Y-73860000D01*
X103965000Y-73035000D02*
X108650000Y-73035000D01*
X103140000Y-73860000D02*
X103965000Y-73035000D01*
%TO.N,Net-(J2-Pad2)*%
X108650000Y-69225000D02*
X107325000Y-69225000D01*
X104340000Y-66240000D02*
X99000000Y-66240000D01*
X107325000Y-69225000D02*
X104340000Y-66240000D01*
%TO.N,Net-(J2-Pad7)*%
X99000000Y-78940000D02*
X102460000Y-78940000D01*
X105825000Y-75575000D02*
X108650000Y-75575000D01*
X102460000Y-78940000D02*
X105825000Y-75575000D01*
%TO.N,Net-(J3-Pad4)*%
X108700000Y-91530000D02*
X104470000Y-91530000D01*
X103340000Y-92660000D02*
X99000000Y-92660000D01*
X104470000Y-91530000D02*
X103340000Y-92660000D01*
%TO.N,Net-(J3-Pad3)*%
X99140000Y-90260000D02*
X99000000Y-90120000D01*
X108700000Y-90260000D02*
X99140000Y-90260000D01*
%TO.N,Net-(J3-Pad6)*%
X108700000Y-94070000D02*
X106430000Y-94070000D01*
X102760000Y-97740000D02*
X99000000Y-97740000D01*
X106430000Y-94070000D02*
X102760000Y-97740000D01*
%TO.N,Net-(J3-Pad1)*%
X108700000Y-87720000D02*
X106820000Y-87720000D01*
X104140000Y-85040000D02*
X99000000Y-85040000D01*
X106820000Y-87720000D02*
X104140000Y-85040000D01*
%TO.N,Net-(J3-Pad5)*%
X99000000Y-95200000D02*
X103500000Y-95200000D01*
X105900000Y-92800000D02*
X108700000Y-92800000D01*
X103500000Y-95200000D02*
X105900000Y-92800000D01*
%TO.N,Net-(J3-Pad2)*%
X99000000Y-87580000D02*
X103480000Y-87580000D01*
X104890000Y-88990000D02*
X108700000Y-88990000D01*
X103480000Y-87580000D02*
X104890000Y-88990000D01*
%TO.N,Net-(J3-Pad7)*%
X108700000Y-95340000D02*
X107160000Y-95340000D01*
X102220000Y-100280000D02*
X99000000Y-100280000D01*
X107160000Y-95340000D02*
X102220000Y-100280000D01*
%TO.N,Net-(J4-Pad1)*%
X108650000Y-109555000D02*
X107155000Y-109555000D01*
X103500000Y-105900000D02*
X99100000Y-105900000D01*
X107155000Y-109555000D02*
X103500000Y-105900000D01*
%TO.N,Net-(J4-Pad2)*%
X108650000Y-110825000D02*
X105325000Y-110825000D01*
X102940000Y-108440000D02*
X99100000Y-108440000D01*
X105325000Y-110825000D02*
X102940000Y-108440000D01*
%TO.N,Net-(J4-Pad3)*%
X100215000Y-112095000D02*
X108650000Y-112095000D01*
X99100000Y-110980000D02*
X100215000Y-112095000D01*
%TO.N,Net-(J4-Pad4)*%
X99255000Y-113365000D02*
X99100000Y-113520000D01*
X108650000Y-113365000D02*
X99255000Y-113365000D01*
%TO.N,Net-(J4-Pad5)*%
X99100000Y-116060000D02*
X103640000Y-116060000D01*
X105065000Y-114635000D02*
X108650000Y-114635000D01*
X103640000Y-116060000D02*
X105065000Y-114635000D01*
%TO.N,Net-(J4-Pad6)*%
X108650000Y-115905000D02*
X105995000Y-115905000D01*
X103300000Y-118600000D02*
X99100000Y-118600000D01*
X105995000Y-115905000D02*
X103300000Y-118600000D01*
%TO.N,Net-(J5-Pad4)*%
X108750000Y-132965000D02*
X103035000Y-132965000D01*
X100780000Y-135220000D02*
X99200000Y-135220000D01*
X103035000Y-132965000D02*
X100780000Y-135220000D01*
%TO.N,Net-(J5-Pad3)*%
X99200000Y-132680000D02*
X100280000Y-131600000D01*
X108655000Y-131600000D02*
X108750000Y-131695000D01*
X100280000Y-131600000D02*
X108655000Y-131600000D01*
%TO.N,Net-(J5-Pad6)*%
X102100000Y-140300000D02*
X99200000Y-140300000D01*
X106895000Y-135505000D02*
X102100000Y-140300000D01*
X108750000Y-135505000D02*
X106895000Y-135505000D01*
%TO.N,Net-(J5-Pad1)*%
X99200000Y-127600000D02*
X104500000Y-127600000D01*
X106055000Y-129155000D02*
X108750000Y-129155000D01*
X104500000Y-127600000D02*
X106055000Y-129155000D01*
%TO.N,Net-(J5-Pad5)*%
X99200000Y-137760000D02*
X101440000Y-137760000D01*
X104965000Y-134235000D02*
X108750000Y-134235000D01*
X101440000Y-137760000D02*
X104965000Y-134235000D01*
%TO.N,Net-(J5-Pad2)*%
X99485000Y-130425000D02*
X99200000Y-130140000D01*
X108750000Y-130425000D02*
X99485000Y-130425000D01*
%TO.N,GND*%
X108650000Y-120250000D02*
X108700000Y-120300000D01*
X108650000Y-118445000D02*
X108650000Y-120250000D01*
X108700000Y-96610000D02*
X108700000Y-98300000D01*
X108700000Y-138095000D02*
X108750000Y-138045000D01*
X108700000Y-139900000D02*
X108700000Y-138095000D01*
X108700000Y-76895000D02*
X108650000Y-76845000D01*
X108700000Y-78900000D02*
X108700000Y-76895000D01*
X108700000Y-59595000D02*
X108650000Y-59545000D01*
X108700000Y-61600000D02*
X108700000Y-59595000D01*
%TO.N,Net-(J4-Pad7)*%
X99100000Y-121140000D02*
X102660000Y-121140000D01*
X106625000Y-117175000D02*
X108650000Y-117175000D01*
X102660000Y-121140000D02*
X106625000Y-117175000D01*
%TD*%
M02*
