M48
INCH,TZ
T1C0.0157
T2C0.0354
T3C0.0512
%
G90
G05
T1
X42795Y-24252
X42795Y-31063
X42795Y-38701
X42795Y-47362
X42795Y-55079
X45394Y-24213
X45394Y-31063
X45394Y-38780
X45394Y-47441
X45394Y-55079
T2
X38937Y-16969
X38937Y-17969
X38937Y-18969
X38937Y-19969
X38937Y-20969
X38937Y-21969
X38937Y-22969
X38976Y-25079
X38976Y-26079
X38976Y-27079
X38976Y-28079
X38976Y-29079
X38976Y-30079
X38976Y-31079
X38976Y-33480
X38976Y-34480
X38976Y-35480
X38976Y-36480
X38976Y-37480
X38976Y-38480
X38976Y-39480
X39016Y-41693
X39016Y-42693
X39016Y-43693
X39016Y-44693
X39016Y-45693
X39016Y-46693
X39016Y-47693
X39055Y-50236
X39055Y-51236
X39055Y-52236
X39055Y-53236
X39055Y-54236
X39055Y-55236
X52244Y-17283
X52244Y-18283
X52244Y-19283
X52244Y-20283
X52244Y-21283
X52244Y-22283
X52244Y-27717
X52244Y-28717
X52244Y-29717
X52244Y-30717
X52244Y-31717
X52283Y-36575
X52283Y-37575
X52283Y-38575
X52283Y-39575
X52283Y-40575
X52480Y-45827
X52480Y-46827
X52480Y-47827
X52480Y-48827
X52480Y-49827
X52480Y-50827
X56417Y-41024
X56417Y-42024
X56417Y-43024
X56417Y-44024
X56417Y-45024
X56535Y-22165
X56535Y-23165
X56535Y-24165
X56535Y-25165
X56535Y-26165
X56535Y-27165
X56535Y-31811
X56535Y-32811
X56535Y-33811
X56535Y-34811
X56535Y-35811
X56575Y-52047
X56575Y-53047
X56575Y-54047
X56575Y-55047
T3
X44969Y-16024
X46969Y-16024
T0
M30
