%TF.GenerationSoftware,KiCad,Pcbnew,(5.1.10-1-10_14)*%
%TF.CreationDate,2022-05-17T16:12:05+03:00*%
%TF.ProjectId,Logic_signal_amplifier,4c6f6769-635f-4736-9967-6e616c5f616d,rev?*%
%TF.SameCoordinates,Original*%
%TF.FileFunction,Legend,Top*%
%TF.FilePolarity,Positive*%
%FSLAX46Y46*%
G04 Gerber Fmt 4.6, Leading zero omitted, Abs format (unit mm)*
G04 Created by KiCad (PCBNEW (5.1.10-1-10_14)) date 2022-05-17 16:12:05*
%MOMM*%
%LPD*%
G01*
G04 APERTURE LIST*
%ADD10C,0.300000*%
%ADD11C,0.400000*%
%ADD12C,0.120000*%
%ADD13C,0.150000*%
G04 APERTURE END LIST*
D10*
X126871428Y-155423809D02*
X128204761Y-155423809D01*
X126109523Y-155900000D02*
X127538095Y-156376190D01*
X127538095Y-155138095D01*
X126204761Y-153995238D02*
X126204761Y-153804761D01*
X126300000Y-153614285D01*
X126395238Y-153519047D01*
X126585714Y-153423809D01*
X126966666Y-153328571D01*
X127442857Y-153328571D01*
X127823809Y-153423809D01*
X128014285Y-153519047D01*
X128109523Y-153614285D01*
X128204761Y-153804761D01*
X128204761Y-153995238D01*
X128109523Y-154185714D01*
X128014285Y-154280952D01*
X127823809Y-154376190D01*
X127442857Y-154471428D01*
X126966666Y-154471428D01*
X126585714Y-154376190D01*
X126395238Y-154280952D01*
X126300000Y-154185714D01*
X126204761Y-153995238D01*
X127442857Y-152471428D02*
X127442857Y-150947619D01*
X126204761Y-149042857D02*
X126204761Y-149995238D01*
X127157142Y-150090476D01*
X127061904Y-149995238D01*
X126966666Y-149804761D01*
X126966666Y-149328571D01*
X127061904Y-149138095D01*
X127157142Y-149042857D01*
X127347619Y-148947619D01*
X127823809Y-148947619D01*
X128014285Y-149042857D01*
X128109523Y-149138095D01*
X128204761Y-149328571D01*
X128204761Y-149804761D01*
X128109523Y-149995238D01*
X128014285Y-150090476D01*
X126204761Y-147709523D02*
X126204761Y-147519047D01*
X126300000Y-147328571D01*
X126395238Y-147233333D01*
X126585714Y-147138095D01*
X126966666Y-147042857D01*
X127442857Y-147042857D01*
X127823809Y-147138095D01*
X128014285Y-147233333D01*
X128109523Y-147328571D01*
X128204761Y-147519047D01*
X128204761Y-147709523D01*
X128109523Y-147900000D01*
X128014285Y-147995238D01*
X127823809Y-148090476D01*
X127442857Y-148185714D01*
X126966666Y-148185714D01*
X126585714Y-148090476D01*
X126395238Y-147995238D01*
X126300000Y-147900000D01*
X126204761Y-147709523D01*
X126204761Y-145804761D02*
X126204761Y-145614285D01*
X126300000Y-145423809D01*
X126395238Y-145328571D01*
X126585714Y-145233333D01*
X126966666Y-145138095D01*
X127442857Y-145138095D01*
X127823809Y-145233333D01*
X128014285Y-145328571D01*
X128109523Y-145423809D01*
X128204761Y-145614285D01*
X128204761Y-145804761D01*
X128109523Y-145995238D01*
X128014285Y-146090476D01*
X127823809Y-146185714D01*
X127442857Y-146280952D01*
X126966666Y-146280952D01*
X126585714Y-146185714D01*
X126395238Y-146090476D01*
X126300000Y-145995238D01*
X126204761Y-145804761D01*
X126204761Y-144566666D02*
X128204761Y-143900000D01*
X126204761Y-143233333D01*
D11*
X107500000Y-40285714D02*
X107357142Y-40571428D01*
X107357142Y-41000000D01*
X107500000Y-41428571D01*
X107785714Y-41714285D01*
X108071428Y-41857142D01*
X108642857Y-42000000D01*
X109071428Y-42000000D01*
X109642857Y-41857142D01*
X109928571Y-41714285D01*
X110214285Y-41428571D01*
X110357142Y-41000000D01*
X110357142Y-40714285D01*
X110214285Y-40285714D01*
X110071428Y-40142857D01*
X109071428Y-40142857D01*
X109071428Y-40714285D01*
X110357142Y-38857142D02*
X107357142Y-38857142D01*
X110357142Y-37142857D01*
X107357142Y-37142857D01*
X110357142Y-35714285D02*
X107357142Y-35714285D01*
X107357142Y-35000000D01*
X107500000Y-34571428D01*
X107785714Y-34285714D01*
X108071428Y-34142857D01*
X108642857Y-34000000D01*
X109071428Y-34000000D01*
X109642857Y-34142857D01*
X109928571Y-34285714D01*
X110214285Y-34571428D01*
X110357142Y-35000000D01*
X110357142Y-35714285D01*
X125514285Y-42857142D02*
X125514285Y-40571428D01*
X126657142Y-41714285D02*
X124371428Y-41714285D01*
X123657142Y-37714285D02*
X123657142Y-39142857D01*
X125085714Y-39285714D01*
X124942857Y-39142857D01*
X124800000Y-38857142D01*
X124800000Y-38142857D01*
X124942857Y-37857142D01*
X125085714Y-37714285D01*
X125371428Y-37571428D01*
X126085714Y-37571428D01*
X126371428Y-37714285D01*
X126514285Y-37857142D01*
X126657142Y-38142857D01*
X126657142Y-38857142D01*
X126514285Y-39142857D01*
X126371428Y-39285714D01*
X123657142Y-36714285D02*
X126657142Y-35714285D01*
X123657142Y-34714285D01*
X137442857Y-136685714D02*
X137300000Y-136971428D01*
X137157142Y-137114285D01*
X136871428Y-137257142D01*
X136728571Y-137257142D01*
X136442857Y-137114285D01*
X136300000Y-136971428D01*
X136157142Y-136685714D01*
X136157142Y-136114285D01*
X136300000Y-135828571D01*
X136442857Y-135685714D01*
X136728571Y-135542857D01*
X136871428Y-135542857D01*
X137157142Y-135685714D01*
X137300000Y-135828571D01*
X137442857Y-136114285D01*
X137442857Y-136685714D01*
X137585714Y-136971428D01*
X137728571Y-137114285D01*
X138014285Y-137257142D01*
X138585714Y-137257142D01*
X138871428Y-137114285D01*
X139014285Y-136971428D01*
X139157142Y-136685714D01*
X139157142Y-136114285D01*
X139014285Y-135828571D01*
X138871428Y-135685714D01*
X138585714Y-135542857D01*
X138014285Y-135542857D01*
X137728571Y-135685714D01*
X137585714Y-135828571D01*
X137442857Y-136114285D01*
X125757142Y-123700000D02*
X125757142Y-121700000D01*
X128757142Y-122985714D01*
X135157142Y-109228571D02*
X135157142Y-109800000D01*
X135300000Y-110085714D01*
X135442857Y-110228571D01*
X135871428Y-110514285D01*
X136442857Y-110657142D01*
X137585714Y-110657142D01*
X137871428Y-110514285D01*
X138014285Y-110371428D01*
X138157142Y-110085714D01*
X138157142Y-109514285D01*
X138014285Y-109228571D01*
X137871428Y-109085714D01*
X137585714Y-108942857D01*
X136871428Y-108942857D01*
X136585714Y-109085714D01*
X136442857Y-109228571D01*
X136300000Y-109514285D01*
X136300000Y-110085714D01*
X136442857Y-110371428D01*
X136585714Y-110514285D01*
X136871428Y-110657142D01*
X124657142Y-96585714D02*
X124657142Y-98014285D01*
X126085714Y-98157142D01*
X125942857Y-98014285D01*
X125800000Y-97728571D01*
X125800000Y-97014285D01*
X125942857Y-96728571D01*
X126085714Y-96585714D01*
X126371428Y-96442857D01*
X127085714Y-96442857D01*
X127371428Y-96585714D01*
X127514285Y-96728571D01*
X127657142Y-97014285D01*
X127657142Y-97728571D01*
X127514285Y-98014285D01*
X127371428Y-98157142D01*
X137357142Y-85628571D02*
X139357142Y-85628571D01*
X136214285Y-86342857D02*
X138357142Y-87057142D01*
X138357142Y-85200000D01*
X124857142Y-76500000D02*
X124857142Y-74642857D01*
X126000000Y-75642857D01*
X126000000Y-75214285D01*
X126142857Y-74928571D01*
X126285714Y-74785714D01*
X126571428Y-74642857D01*
X127285714Y-74642857D01*
X127571428Y-74785714D01*
X127714285Y-74928571D01*
X127857142Y-75214285D01*
X127857142Y-76071428D01*
X127714285Y-76357142D01*
X127571428Y-76500000D01*
X135942857Y-64657142D02*
X135800000Y-64514285D01*
X135657142Y-64228571D01*
X135657142Y-63514285D01*
X135800000Y-63228571D01*
X135942857Y-63085714D01*
X136228571Y-62942857D01*
X136514285Y-62942857D01*
X136942857Y-63085714D01*
X138657142Y-64800000D01*
X138657142Y-62942857D01*
X127857142Y-49442857D02*
X127857142Y-51157142D01*
X127857142Y-50300000D02*
X124857142Y-50300000D01*
X125285714Y-50585714D01*
X125571428Y-50871428D01*
X125714285Y-51157142D01*
D12*
%TO.C,U6*%
X109615000Y-147120000D02*
X107950000Y-147120000D01*
X109615000Y-146840000D02*
X109615000Y-147120000D01*
X112000000Y-146840000D02*
X109615000Y-146840000D01*
X114385000Y-146840000D02*
X114385000Y-147120000D01*
X112000000Y-146840000D02*
X114385000Y-146840000D01*
X109615000Y-157360000D02*
X109615000Y-157080000D01*
X112000000Y-157360000D02*
X109615000Y-157360000D01*
X114385000Y-157360000D02*
X114385000Y-157080000D01*
X112000000Y-157360000D02*
X114385000Y-157360000D01*
%TO.C,J16*%
X129744000Y-154890000D02*
X135840000Y-154890000D01*
X129744000Y-144730000D02*
X129744000Y-154890000D01*
X135840000Y-144730000D02*
X129744000Y-144730000D01*
X135078000Y-144730000D02*
X135078000Y-154890000D01*
X135840000Y-154890000D02*
X135840000Y-144730000D01*
%TO.C,J6*%
X101740000Y-152350000D02*
X101740000Y-144730000D01*
X100978000Y-144730000D02*
X100978000Y-152350000D01*
X101740000Y-144730000D02*
X95644000Y-144730000D01*
X95644000Y-144730000D02*
X95644000Y-152350000D01*
X95644000Y-152350000D02*
X101740000Y-152350000D01*
%TO.C,U5*%
X109615000Y-128620000D02*
X107950000Y-128620000D01*
X109615000Y-128340000D02*
X109615000Y-128620000D01*
X112000000Y-128340000D02*
X109615000Y-128340000D01*
X114385000Y-128340000D02*
X114385000Y-128620000D01*
X112000000Y-128340000D02*
X114385000Y-128340000D01*
X109615000Y-138860000D02*
X109615000Y-138580000D01*
X112000000Y-138860000D02*
X109615000Y-138860000D01*
X114385000Y-138860000D02*
X114385000Y-138580000D01*
X112000000Y-138860000D02*
X114385000Y-138860000D01*
%TO.C,U4*%
X109515000Y-109020000D02*
X107850000Y-109020000D01*
X109515000Y-108740000D02*
X109515000Y-109020000D01*
X111900000Y-108740000D02*
X109515000Y-108740000D01*
X114285000Y-108740000D02*
X114285000Y-109020000D01*
X111900000Y-108740000D02*
X114285000Y-108740000D01*
X109515000Y-119260000D02*
X109515000Y-118980000D01*
X111900000Y-119260000D02*
X109515000Y-119260000D01*
X114285000Y-119260000D02*
X114285000Y-118980000D01*
X111900000Y-119260000D02*
X114285000Y-119260000D01*
%TO.C,U3*%
X109565000Y-87185000D02*
X107900000Y-87185000D01*
X109565000Y-86905000D02*
X109565000Y-87185000D01*
X111950000Y-86905000D02*
X109565000Y-86905000D01*
X114335000Y-86905000D02*
X114335000Y-87185000D01*
X111950000Y-86905000D02*
X114335000Y-86905000D01*
X109565000Y-97425000D02*
X109565000Y-97145000D01*
X111950000Y-97425000D02*
X109565000Y-97425000D01*
X114335000Y-97425000D02*
X114335000Y-97145000D01*
X111950000Y-97425000D02*
X114335000Y-97425000D01*
%TO.C,U2*%
X109515000Y-67420000D02*
X107850000Y-67420000D01*
X109515000Y-67140000D02*
X109515000Y-67420000D01*
X111900000Y-67140000D02*
X109515000Y-67140000D01*
X114285000Y-67140000D02*
X114285000Y-67420000D01*
X111900000Y-67140000D02*
X114285000Y-67140000D01*
X109515000Y-77660000D02*
X109515000Y-77380000D01*
X111900000Y-77660000D02*
X109515000Y-77660000D01*
X114285000Y-77660000D02*
X114285000Y-77380000D01*
X111900000Y-77660000D02*
X114285000Y-77660000D01*
%TO.C,U1*%
X109515000Y-50120000D02*
X107850000Y-50120000D01*
X109515000Y-49840000D02*
X109515000Y-50120000D01*
X111900000Y-49840000D02*
X109515000Y-49840000D01*
X114285000Y-49840000D02*
X114285000Y-50120000D01*
X111900000Y-49840000D02*
X114285000Y-49840000D01*
X109515000Y-60360000D02*
X109515000Y-60080000D01*
X111900000Y-60360000D02*
X109515000Y-60360000D01*
X114285000Y-60360000D02*
X114285000Y-60080000D01*
X111900000Y-60360000D02*
X114285000Y-60360000D01*
%TO.C,J7*%
X122340000Y-33600000D02*
X121840000Y-33600000D01*
X122340000Y-34340000D02*
X122340000Y-33600000D01*
X115647000Y-37477000D02*
X115694000Y-37431000D01*
X113350000Y-39775000D02*
X113385000Y-39739000D01*
X115454000Y-37261000D02*
X115489000Y-37226000D01*
X113145000Y-39569000D02*
X113192000Y-39523000D01*
X111820000Y-43761000D02*
X111820000Y-33840000D01*
X122100000Y-43761000D02*
X122100000Y-33840000D01*
X122100000Y-33840000D02*
X111820000Y-33840000D01*
X122100000Y-43761000D02*
X111820000Y-43761000D01*
X122100000Y-40801000D02*
X111820000Y-40801000D01*
X122100000Y-35900000D02*
X111820000Y-35900000D01*
X122100000Y-34400000D02*
X111820000Y-34400000D01*
X116100000Y-38500000D02*
G75*
G03*
X116100000Y-38500000I-1680000J0D01*
G01*
X119471195Y-36819747D02*
G75*
G02*
X120184000Y-36965000I28805J-1680253D01*
G01*
X121035426Y-37816958D02*
G75*
G02*
X121035000Y-39184000I-1535426J-683042D01*
G01*
X120183042Y-40035426D02*
G75*
G02*
X118816000Y-40035000I-683042J1535426D01*
G01*
X117964574Y-39183042D02*
G75*
G02*
X117965000Y-37816000I1535426J683042D01*
G01*
X118816682Y-36965244D02*
G75*
G02*
X119500000Y-36820000I683318J-1534756D01*
G01*
%TO.C,J15*%
X140144000Y-141090000D02*
X146240000Y-141090000D01*
X140144000Y-130930000D02*
X140144000Y-141090000D01*
X146240000Y-130930000D02*
X140144000Y-130930000D01*
X145478000Y-130930000D02*
X145478000Y-141090000D01*
X146240000Y-141090000D02*
X146240000Y-130930000D01*
%TO.C,J14*%
X135840000Y-115130000D02*
X129744000Y-115130000D01*
X129744000Y-115130000D02*
X129744000Y-130370000D01*
X129744000Y-130370000D02*
X135840000Y-130370000D01*
X135840000Y-130370000D02*
X135840000Y-115130000D01*
X135078000Y-115130000D02*
X135078000Y-130370000D01*
%TO.C,J13*%
X145840000Y-102930000D02*
X139744000Y-102930000D01*
X139744000Y-102930000D02*
X139744000Y-115630000D01*
X139744000Y-115630000D02*
X145840000Y-115630000D01*
X145840000Y-115630000D02*
X145840000Y-102930000D01*
X145078000Y-102930000D02*
X145078000Y-115630000D01*
%TO.C,J12*%
X135340000Y-91630000D02*
X129244000Y-91630000D01*
X129244000Y-91630000D02*
X129244000Y-104330000D01*
X129244000Y-104330000D02*
X135340000Y-104330000D01*
X135340000Y-104330000D02*
X135340000Y-91630000D01*
X134578000Y-91630000D02*
X134578000Y-104330000D01*
%TO.C,J11*%
X146140000Y-79530000D02*
X140044000Y-79530000D01*
X140044000Y-79530000D02*
X140044000Y-92230000D01*
X140044000Y-92230000D02*
X146140000Y-92230000D01*
X146140000Y-92230000D02*
X146140000Y-79530000D01*
X145378000Y-79530000D02*
X145378000Y-92230000D01*
%TO.C,J10*%
X135240000Y-69130000D02*
X129144000Y-69130000D01*
X129144000Y-69130000D02*
X129144000Y-81830000D01*
X129144000Y-81830000D02*
X135240000Y-81830000D01*
X135240000Y-81830000D02*
X135240000Y-69130000D01*
X134478000Y-69130000D02*
X134478000Y-81830000D01*
%TO.C,J9*%
X146140000Y-55030000D02*
X140044000Y-55030000D01*
X140044000Y-55030000D02*
X140044000Y-70270000D01*
X140044000Y-70270000D02*
X146140000Y-70270000D01*
X146140000Y-70270000D02*
X146140000Y-55030000D01*
X145378000Y-55030000D02*
X145378000Y-70270000D01*
%TO.C,J8*%
X135240000Y-42630000D02*
X129144000Y-42630000D01*
X129144000Y-42630000D02*
X129144000Y-57870000D01*
X129144000Y-57870000D02*
X135240000Y-57870000D01*
X135240000Y-57870000D02*
X135240000Y-42630000D01*
X134478000Y-42630000D02*
X134478000Y-57870000D01*
%TO.C,J5*%
X101740000Y-126330000D02*
X95644000Y-126330000D01*
X95644000Y-126330000D02*
X95644000Y-141570000D01*
X95644000Y-141570000D02*
X101740000Y-141570000D01*
X101740000Y-141570000D02*
X101740000Y-126330000D01*
X100978000Y-126330000D02*
X100978000Y-141570000D01*
%TO.C,J4*%
X100878000Y-104630000D02*
X100878000Y-122410000D01*
X101640000Y-122410000D02*
X101640000Y-104630000D01*
X101640000Y-104630000D02*
X95544000Y-104630000D01*
X95544000Y-122410000D02*
X101640000Y-122410000D01*
X95544000Y-104630000D02*
X95544000Y-122410000D01*
%TO.C,J3*%
X100778000Y-83770000D02*
X100778000Y-101550000D01*
X101540000Y-101550000D02*
X101540000Y-83770000D01*
X101540000Y-83770000D02*
X95444000Y-83770000D01*
X95444000Y-101550000D02*
X101540000Y-101550000D01*
X95444000Y-83770000D02*
X95444000Y-101550000D01*
%TO.C,J2*%
X100778000Y-62430000D02*
X100778000Y-80210000D01*
X101540000Y-80210000D02*
X101540000Y-62430000D01*
X101540000Y-62430000D02*
X95444000Y-62430000D01*
X95444000Y-80210000D02*
X101540000Y-80210000D01*
X95444000Y-62430000D02*
X95444000Y-80210000D01*
%TO.C,J1*%
X100678000Y-41830000D02*
X100678000Y-59610000D01*
X101440000Y-59610000D02*
X101440000Y-41830000D01*
X101440000Y-41830000D02*
X95344000Y-41830000D01*
X95344000Y-59610000D02*
X101440000Y-59610000D01*
X95344000Y-41830000D02*
X95344000Y-59610000D01*
%TO.C,U6*%
D13*
X111238095Y-145452380D02*
X111238095Y-146261904D01*
X111285714Y-146357142D01*
X111333333Y-146404761D01*
X111428571Y-146452380D01*
X111619047Y-146452380D01*
X111714285Y-146404761D01*
X111761904Y-146357142D01*
X111809523Y-146261904D01*
X111809523Y-145452380D01*
X112714285Y-145452380D02*
X112523809Y-145452380D01*
X112428571Y-145500000D01*
X112380952Y-145547619D01*
X112285714Y-145690476D01*
X112238095Y-145880952D01*
X112238095Y-146261904D01*
X112285714Y-146357142D01*
X112333333Y-146404761D01*
X112428571Y-146452380D01*
X112619047Y-146452380D01*
X112714285Y-146404761D01*
X112761904Y-146357142D01*
X112809523Y-146261904D01*
X112809523Y-146023809D01*
X112761904Y-145928571D01*
X112714285Y-145880952D01*
X112619047Y-145833333D01*
X112428571Y-145833333D01*
X112333333Y-145880952D01*
X112285714Y-145928571D01*
X112238095Y-146023809D01*
%TO.C,J16*%
X132490476Y-142912380D02*
X132490476Y-143626666D01*
X132442857Y-143769523D01*
X132347619Y-143864761D01*
X132204761Y-143912380D01*
X132109523Y-143912380D01*
X133490476Y-143912380D02*
X132919047Y-143912380D01*
X133204761Y-143912380D02*
X133204761Y-142912380D01*
X133109523Y-143055238D01*
X133014285Y-143150476D01*
X132919047Y-143198095D01*
X134347619Y-142912380D02*
X134157142Y-142912380D01*
X134061904Y-142960000D01*
X134014285Y-143007619D01*
X133919047Y-143150476D01*
X133871428Y-143340952D01*
X133871428Y-143721904D01*
X133919047Y-143817142D01*
X133966666Y-143864761D01*
X134061904Y-143912380D01*
X134252380Y-143912380D01*
X134347619Y-143864761D01*
X134395238Y-143817142D01*
X134442857Y-143721904D01*
X134442857Y-143483809D01*
X134395238Y-143388571D01*
X134347619Y-143340952D01*
X134252380Y-143293333D01*
X134061904Y-143293333D01*
X133966666Y-143340952D01*
X133919047Y-143388571D01*
X133871428Y-143483809D01*
%TO.C,J6*%
X98866666Y-142912380D02*
X98866666Y-143626666D01*
X98819047Y-143769523D01*
X98723809Y-143864761D01*
X98580952Y-143912380D01*
X98485714Y-143912380D01*
X99771428Y-142912380D02*
X99580952Y-142912380D01*
X99485714Y-142960000D01*
X99438095Y-143007619D01*
X99342857Y-143150476D01*
X99295238Y-143340952D01*
X99295238Y-143721904D01*
X99342857Y-143817142D01*
X99390476Y-143864761D01*
X99485714Y-143912380D01*
X99676190Y-143912380D01*
X99771428Y-143864761D01*
X99819047Y-143817142D01*
X99866666Y-143721904D01*
X99866666Y-143483809D01*
X99819047Y-143388571D01*
X99771428Y-143340952D01*
X99676190Y-143293333D01*
X99485714Y-143293333D01*
X99390476Y-143340952D01*
X99342857Y-143388571D01*
X99295238Y-143483809D01*
%TO.C,H4*%
X143238095Y-154252380D02*
X143238095Y-153252380D01*
X143238095Y-153728571D02*
X143809523Y-153728571D01*
X143809523Y-154252380D02*
X143809523Y-153252380D01*
X144714285Y-153585714D02*
X144714285Y-154252380D01*
X144476190Y-153204761D02*
X144238095Y-153919047D01*
X144857142Y-153919047D01*
%TO.C,H3*%
X96238095Y-154252380D02*
X96238095Y-153252380D01*
X96238095Y-153728571D02*
X96809523Y-153728571D01*
X96809523Y-154252380D02*
X96809523Y-153252380D01*
X97190476Y-153252380D02*
X97809523Y-153252380D01*
X97476190Y-153633333D01*
X97619047Y-153633333D01*
X97714285Y-153680952D01*
X97761904Y-153728571D01*
X97809523Y-153823809D01*
X97809523Y-154061904D01*
X97761904Y-154157142D01*
X97714285Y-154204761D01*
X97619047Y-154252380D01*
X97333333Y-154252380D01*
X97238095Y-154204761D01*
X97190476Y-154157142D01*
%TO.C,H2*%
X138738095Y-33652380D02*
X138738095Y-32652380D01*
X138738095Y-33128571D02*
X139309523Y-33128571D01*
X139309523Y-33652380D02*
X139309523Y-32652380D01*
X139738095Y-32747619D02*
X139785714Y-32700000D01*
X139880952Y-32652380D01*
X140119047Y-32652380D01*
X140214285Y-32700000D01*
X140261904Y-32747619D01*
X140309523Y-32842857D01*
X140309523Y-32938095D01*
X140261904Y-33080952D01*
X139690476Y-33652380D01*
X140309523Y-33652380D01*
%TO.C,H1*%
X101438095Y-34052380D02*
X101438095Y-33052380D01*
X101438095Y-33528571D02*
X102009523Y-33528571D01*
X102009523Y-34052380D02*
X102009523Y-33052380D01*
X103009523Y-34052380D02*
X102438095Y-34052380D01*
X102723809Y-34052380D02*
X102723809Y-33052380D01*
X102628571Y-33195238D01*
X102533333Y-33290476D01*
X102438095Y-33338095D01*
%TO.C,U5*%
X111238095Y-126952380D02*
X111238095Y-127761904D01*
X111285714Y-127857142D01*
X111333333Y-127904761D01*
X111428571Y-127952380D01*
X111619047Y-127952380D01*
X111714285Y-127904761D01*
X111761904Y-127857142D01*
X111809523Y-127761904D01*
X111809523Y-126952380D01*
X112761904Y-126952380D02*
X112285714Y-126952380D01*
X112238095Y-127428571D01*
X112285714Y-127380952D01*
X112380952Y-127333333D01*
X112619047Y-127333333D01*
X112714285Y-127380952D01*
X112761904Y-127428571D01*
X112809523Y-127523809D01*
X112809523Y-127761904D01*
X112761904Y-127857142D01*
X112714285Y-127904761D01*
X112619047Y-127952380D01*
X112380952Y-127952380D01*
X112285714Y-127904761D01*
X112238095Y-127857142D01*
%TO.C,U4*%
X111138095Y-107352380D02*
X111138095Y-108161904D01*
X111185714Y-108257142D01*
X111233333Y-108304761D01*
X111328571Y-108352380D01*
X111519047Y-108352380D01*
X111614285Y-108304761D01*
X111661904Y-108257142D01*
X111709523Y-108161904D01*
X111709523Y-107352380D01*
X112614285Y-107685714D02*
X112614285Y-108352380D01*
X112376190Y-107304761D02*
X112138095Y-108019047D01*
X112757142Y-108019047D01*
%TO.C,U3*%
X111188095Y-85517380D02*
X111188095Y-86326904D01*
X111235714Y-86422142D01*
X111283333Y-86469761D01*
X111378571Y-86517380D01*
X111569047Y-86517380D01*
X111664285Y-86469761D01*
X111711904Y-86422142D01*
X111759523Y-86326904D01*
X111759523Y-85517380D01*
X112140476Y-85517380D02*
X112759523Y-85517380D01*
X112426190Y-85898333D01*
X112569047Y-85898333D01*
X112664285Y-85945952D01*
X112711904Y-85993571D01*
X112759523Y-86088809D01*
X112759523Y-86326904D01*
X112711904Y-86422142D01*
X112664285Y-86469761D01*
X112569047Y-86517380D01*
X112283333Y-86517380D01*
X112188095Y-86469761D01*
X112140476Y-86422142D01*
%TO.C,U2*%
X111138095Y-65752380D02*
X111138095Y-66561904D01*
X111185714Y-66657142D01*
X111233333Y-66704761D01*
X111328571Y-66752380D01*
X111519047Y-66752380D01*
X111614285Y-66704761D01*
X111661904Y-66657142D01*
X111709523Y-66561904D01*
X111709523Y-65752380D01*
X112138095Y-65847619D02*
X112185714Y-65800000D01*
X112280952Y-65752380D01*
X112519047Y-65752380D01*
X112614285Y-65800000D01*
X112661904Y-65847619D01*
X112709523Y-65942857D01*
X112709523Y-66038095D01*
X112661904Y-66180952D01*
X112090476Y-66752380D01*
X112709523Y-66752380D01*
%TO.C,U1*%
X111138095Y-48452380D02*
X111138095Y-49261904D01*
X111185714Y-49357142D01*
X111233333Y-49404761D01*
X111328571Y-49452380D01*
X111519047Y-49452380D01*
X111614285Y-49404761D01*
X111661904Y-49357142D01*
X111709523Y-49261904D01*
X111709523Y-48452380D01*
X112709523Y-49452380D02*
X112138095Y-49452380D01*
X112423809Y-49452380D02*
X112423809Y-48452380D01*
X112328571Y-48595238D01*
X112233333Y-48690476D01*
X112138095Y-48738095D01*
%TO.C,J7*%
X116626666Y-44212380D02*
X116626666Y-44926666D01*
X116579047Y-45069523D01*
X116483809Y-45164761D01*
X116340952Y-45212380D01*
X116245714Y-45212380D01*
X117007619Y-44212380D02*
X117674285Y-44212380D01*
X117245714Y-45212380D01*
%TO.C,J15*%
X142890476Y-129112380D02*
X142890476Y-129826666D01*
X142842857Y-129969523D01*
X142747619Y-130064761D01*
X142604761Y-130112380D01*
X142509523Y-130112380D01*
X143890476Y-130112380D02*
X143319047Y-130112380D01*
X143604761Y-130112380D02*
X143604761Y-129112380D01*
X143509523Y-129255238D01*
X143414285Y-129350476D01*
X143319047Y-129398095D01*
X144795238Y-129112380D02*
X144319047Y-129112380D01*
X144271428Y-129588571D01*
X144319047Y-129540952D01*
X144414285Y-129493333D01*
X144652380Y-129493333D01*
X144747619Y-129540952D01*
X144795238Y-129588571D01*
X144842857Y-129683809D01*
X144842857Y-129921904D01*
X144795238Y-130017142D01*
X144747619Y-130064761D01*
X144652380Y-130112380D01*
X144414285Y-130112380D01*
X144319047Y-130064761D01*
X144271428Y-130017142D01*
%TO.C,J14*%
X132236476Y-112804380D02*
X132236476Y-113518666D01*
X132188857Y-113661523D01*
X132093619Y-113756761D01*
X131950761Y-113804380D01*
X131855523Y-113804380D01*
X133236476Y-113804380D02*
X132665047Y-113804380D01*
X132950761Y-113804380D02*
X132950761Y-112804380D01*
X132855523Y-112947238D01*
X132760285Y-113042476D01*
X132665047Y-113090095D01*
X134093619Y-113137714D02*
X134093619Y-113804380D01*
X133855523Y-112756761D02*
X133617428Y-113471047D01*
X134236476Y-113471047D01*
%TO.C,J13*%
X142490476Y-101112380D02*
X142490476Y-101826666D01*
X142442857Y-101969523D01*
X142347619Y-102064761D01*
X142204761Y-102112380D01*
X142109523Y-102112380D01*
X143490476Y-102112380D02*
X142919047Y-102112380D01*
X143204761Y-102112380D02*
X143204761Y-101112380D01*
X143109523Y-101255238D01*
X143014285Y-101350476D01*
X142919047Y-101398095D01*
X143823809Y-101112380D02*
X144442857Y-101112380D01*
X144109523Y-101493333D01*
X144252380Y-101493333D01*
X144347619Y-101540952D01*
X144395238Y-101588571D01*
X144442857Y-101683809D01*
X144442857Y-101921904D01*
X144395238Y-102017142D01*
X144347619Y-102064761D01*
X144252380Y-102112380D01*
X143966666Y-102112380D01*
X143871428Y-102064761D01*
X143823809Y-102017142D01*
%TO.C,J12*%
X131990476Y-89812380D02*
X131990476Y-90526666D01*
X131942857Y-90669523D01*
X131847619Y-90764761D01*
X131704761Y-90812380D01*
X131609523Y-90812380D01*
X132990476Y-90812380D02*
X132419047Y-90812380D01*
X132704761Y-90812380D02*
X132704761Y-89812380D01*
X132609523Y-89955238D01*
X132514285Y-90050476D01*
X132419047Y-90098095D01*
X133371428Y-89907619D02*
X133419047Y-89860000D01*
X133514285Y-89812380D01*
X133752380Y-89812380D01*
X133847619Y-89860000D01*
X133895238Y-89907619D01*
X133942857Y-90002857D01*
X133942857Y-90098095D01*
X133895238Y-90240952D01*
X133323809Y-90812380D01*
X133942857Y-90812380D01*
%TO.C,J11*%
X142790476Y-77712380D02*
X142790476Y-78426666D01*
X142742857Y-78569523D01*
X142647619Y-78664761D01*
X142504761Y-78712380D01*
X142409523Y-78712380D01*
X143790476Y-78712380D02*
X143219047Y-78712380D01*
X143504761Y-78712380D02*
X143504761Y-77712380D01*
X143409523Y-77855238D01*
X143314285Y-77950476D01*
X143219047Y-77998095D01*
X144742857Y-78712380D02*
X144171428Y-78712380D01*
X144457142Y-78712380D02*
X144457142Y-77712380D01*
X144361904Y-77855238D01*
X144266666Y-77950476D01*
X144171428Y-77998095D01*
%TO.C,J10*%
X131890476Y-67312380D02*
X131890476Y-68026666D01*
X131842857Y-68169523D01*
X131747619Y-68264761D01*
X131604761Y-68312380D01*
X131509523Y-68312380D01*
X132890476Y-68312380D02*
X132319047Y-68312380D01*
X132604761Y-68312380D02*
X132604761Y-67312380D01*
X132509523Y-67455238D01*
X132414285Y-67550476D01*
X132319047Y-67598095D01*
X133509523Y-67312380D02*
X133604761Y-67312380D01*
X133700000Y-67360000D01*
X133747619Y-67407619D01*
X133795238Y-67502857D01*
X133842857Y-67693333D01*
X133842857Y-67931428D01*
X133795238Y-68121904D01*
X133747619Y-68217142D01*
X133700000Y-68264761D01*
X133604761Y-68312380D01*
X133509523Y-68312380D01*
X133414285Y-68264761D01*
X133366666Y-68217142D01*
X133319047Y-68121904D01*
X133271428Y-67931428D01*
X133271428Y-67693333D01*
X133319047Y-67502857D01*
X133366666Y-67407619D01*
X133414285Y-67360000D01*
X133509523Y-67312380D01*
%TO.C,J9*%
X143012666Y-52704380D02*
X143012666Y-53418666D01*
X142965047Y-53561523D01*
X142869809Y-53656761D01*
X142726952Y-53704380D01*
X142631714Y-53704380D01*
X143536476Y-53704380D02*
X143726952Y-53704380D01*
X143822190Y-53656761D01*
X143869809Y-53609142D01*
X143965047Y-53466285D01*
X144012666Y-53275809D01*
X144012666Y-52894857D01*
X143965047Y-52799619D01*
X143917428Y-52752000D01*
X143822190Y-52704380D01*
X143631714Y-52704380D01*
X143536476Y-52752000D01*
X143488857Y-52799619D01*
X143441238Y-52894857D01*
X143441238Y-53132952D01*
X143488857Y-53228190D01*
X143536476Y-53275809D01*
X143631714Y-53323428D01*
X143822190Y-53323428D01*
X143917428Y-53275809D01*
X143965047Y-53228190D01*
X144012666Y-53132952D01*
%TO.C,J8*%
X132112666Y-40304380D02*
X132112666Y-41018666D01*
X132065047Y-41161523D01*
X131969809Y-41256761D01*
X131826952Y-41304380D01*
X131731714Y-41304380D01*
X132731714Y-40732952D02*
X132636476Y-40685333D01*
X132588857Y-40637714D01*
X132541238Y-40542476D01*
X132541238Y-40494857D01*
X132588857Y-40399619D01*
X132636476Y-40352000D01*
X132731714Y-40304380D01*
X132922190Y-40304380D01*
X133017428Y-40352000D01*
X133065047Y-40399619D01*
X133112666Y-40494857D01*
X133112666Y-40542476D01*
X133065047Y-40637714D01*
X133017428Y-40685333D01*
X132922190Y-40732952D01*
X132731714Y-40732952D01*
X132636476Y-40780571D01*
X132588857Y-40828190D01*
X132541238Y-40923428D01*
X132541238Y-41113904D01*
X132588857Y-41209142D01*
X132636476Y-41256761D01*
X132731714Y-41304380D01*
X132922190Y-41304380D01*
X133017428Y-41256761D01*
X133065047Y-41209142D01*
X133112666Y-41113904D01*
X133112666Y-40923428D01*
X133065047Y-40828190D01*
X133017428Y-40780571D01*
X132922190Y-40732952D01*
%TO.C,J5*%
X98566666Y-124552380D02*
X98566666Y-125266666D01*
X98519047Y-125409523D01*
X98423809Y-125504761D01*
X98280952Y-125552380D01*
X98185714Y-125552380D01*
X99519047Y-124552380D02*
X99042857Y-124552380D01*
X98995238Y-125028571D01*
X99042857Y-124980952D01*
X99138095Y-124933333D01*
X99376190Y-124933333D01*
X99471428Y-124980952D01*
X99519047Y-125028571D01*
X99566666Y-125123809D01*
X99566666Y-125361904D01*
X99519047Y-125457142D01*
X99471428Y-125504761D01*
X99376190Y-125552380D01*
X99138095Y-125552380D01*
X99042857Y-125504761D01*
X98995238Y-125457142D01*
%TO.C,J4*%
X98512666Y-103052380D02*
X98512666Y-103766666D01*
X98465047Y-103909523D01*
X98369809Y-104004761D01*
X98226952Y-104052380D01*
X98131714Y-104052380D01*
X99417428Y-103385714D02*
X99417428Y-104052380D01*
X99179333Y-103004761D02*
X98941238Y-103719047D01*
X99560285Y-103719047D01*
%TO.C,J3*%
X98266666Y-82052380D02*
X98266666Y-82766666D01*
X98219047Y-82909523D01*
X98123809Y-83004761D01*
X97980952Y-83052380D01*
X97885714Y-83052380D01*
X98647619Y-82052380D02*
X99266666Y-82052380D01*
X98933333Y-82433333D01*
X99076190Y-82433333D01*
X99171428Y-82480952D01*
X99219047Y-82528571D01*
X99266666Y-82623809D01*
X99266666Y-82861904D01*
X99219047Y-82957142D01*
X99171428Y-83004761D01*
X99076190Y-83052380D01*
X98790476Y-83052380D01*
X98695238Y-83004761D01*
X98647619Y-82957142D01*
%TO.C,J2*%
X98412666Y-60752380D02*
X98412666Y-61466666D01*
X98365047Y-61609523D01*
X98269809Y-61704761D01*
X98126952Y-61752380D01*
X98031714Y-61752380D01*
X98841238Y-60847619D02*
X98888857Y-60800000D01*
X98984095Y-60752380D01*
X99222190Y-60752380D01*
X99317428Y-60800000D01*
X99365047Y-60847619D01*
X99412666Y-60942857D01*
X99412666Y-61038095D01*
X99365047Y-61180952D01*
X98793619Y-61752380D01*
X99412666Y-61752380D01*
%TO.C,J1*%
X98266666Y-40352380D02*
X98266666Y-41066666D01*
X98219047Y-41209523D01*
X98123809Y-41304761D01*
X97980952Y-41352380D01*
X97885714Y-41352380D01*
X99266666Y-41352380D02*
X98695238Y-41352380D01*
X98980952Y-41352380D02*
X98980952Y-40352380D01*
X98885714Y-40495238D01*
X98790476Y-40590476D01*
X98695238Y-40638095D01*
%TD*%
M02*
