%TF.GenerationSoftware,KiCad,Pcbnew,(5.1.10-1-10_14)*%
%TF.CreationDate,2022-05-12T15:34:05+03:00*%
%TF.ProjectId,Logic_signal_amplifier,4c6f6769-635f-4736-9967-6e616c5f616d,rev?*%
%TF.SameCoordinates,Original*%
%TF.FileFunction,Legend,Bot*%
%TF.FilePolarity,Positive*%
%FSLAX46Y46*%
G04 Gerber Fmt 4.6, Leading zero omitted, Abs format (unit mm)*
G04 Created by KiCad (PCBNEW (5.1.10-1-10_14)) date 2022-05-12 15:34:05*
%MOMM*%
%LPD*%
G01*
G04 APERTURE LIST*
%ADD10C,0.150000*%
%ADD11C,0.120000*%
G04 APERTURE END LIST*
D10*
X137809523Y-147452380D02*
X138142857Y-146976190D01*
X138380952Y-147452380D02*
X138380952Y-146452380D01*
X138000000Y-146452380D01*
X137904761Y-146500000D01*
X137857142Y-146547619D01*
X137809523Y-146642857D01*
X137809523Y-146785714D01*
X137857142Y-146880952D01*
X137904761Y-146928571D01*
X138000000Y-146976190D01*
X138380952Y-146976190D01*
X137000000Y-147404761D02*
X137095238Y-147452380D01*
X137285714Y-147452380D01*
X137380952Y-147404761D01*
X137428571Y-147309523D01*
X137428571Y-146928571D01*
X137380952Y-146833333D01*
X137285714Y-146785714D01*
X137095238Y-146785714D01*
X137000000Y-146833333D01*
X136952380Y-146928571D01*
X136952380Y-147023809D01*
X137428571Y-147119047D01*
X136619047Y-146785714D02*
X136380952Y-147452380D01*
X136142857Y-146785714D01*
X135761904Y-147357142D02*
X135714285Y-147404761D01*
X135761904Y-147452380D01*
X135809523Y-147404761D01*
X135761904Y-147357142D01*
X135761904Y-147452380D01*
X135761904Y-146833333D02*
X135714285Y-146880952D01*
X135761904Y-146928571D01*
X135809523Y-146880952D01*
X135761904Y-146833333D01*
X135761904Y-146928571D01*
X134000000Y-147452380D02*
X134571428Y-147452380D01*
X134285714Y-147452380D02*
X134285714Y-146452380D01*
X134380952Y-146595238D01*
X134476190Y-146690476D01*
X134571428Y-146738095D01*
X133571428Y-147357142D02*
X133523809Y-147404761D01*
X133571428Y-147452380D01*
X133619047Y-147404761D01*
X133571428Y-147357142D01*
X133571428Y-147452380D01*
X132904761Y-146452380D02*
X132809523Y-146452380D01*
X132714285Y-146500000D01*
X132666666Y-146547619D01*
X132619047Y-146642857D01*
X132571428Y-146833333D01*
X132571428Y-147071428D01*
X132619047Y-147261904D01*
X132666666Y-147357142D01*
X132714285Y-147404761D01*
X132809523Y-147452380D01*
X132904761Y-147452380D01*
X133000000Y-147404761D01*
X133047619Y-147357142D01*
X133095238Y-147261904D01*
X133142857Y-147071428D01*
X133142857Y-146833333D01*
X133095238Y-146642857D01*
X133047619Y-146547619D01*
X133000000Y-146500000D01*
X132904761Y-146452380D01*
D11*
%TO.C,C1*%
X117261252Y-45235000D02*
X116738748Y-45235000D01*
X117261252Y-43765000D02*
X116738748Y-43765000D01*
D10*
X117166666Y-43177142D02*
X117214285Y-43224761D01*
X117357142Y-43272380D01*
X117452380Y-43272380D01*
X117595238Y-43224761D01*
X117690476Y-43129523D01*
X117738095Y-43034285D01*
X117785714Y-42843809D01*
X117785714Y-42700952D01*
X117738095Y-42510476D01*
X117690476Y-42415238D01*
X117595238Y-42320000D01*
X117452380Y-42272380D01*
X117357142Y-42272380D01*
X117214285Y-42320000D01*
X117166666Y-42367619D01*
X116214285Y-43272380D02*
X116785714Y-43272380D01*
X116500000Y-43272380D02*
X116500000Y-42272380D01*
X116595238Y-42415238D01*
X116690476Y-42510476D01*
X116785714Y-42558095D01*
%TD*%
M02*
