%TF.GenerationSoftware,KiCad,Pcbnew,(5.1.10-1-10_14)*%
%TF.CreationDate,2022-05-12T15:34:05+03:00*%
%TF.ProjectId,Logic_signal_amplifier,4c6f6769-635f-4736-9967-6e616c5f616d,rev?*%
%TF.SameCoordinates,Original*%
%TF.FileFunction,Soldermask,Top*%
%TF.FilePolarity,Negative*%
%FSLAX46Y46*%
G04 Gerber Fmt 4.6, Leading zero omitted, Abs format (unit mm)*
G04 Created by KiCad (PCBNEW (5.1.10-1-10_14)) date 2022-05-12 15:34:05*
%MOMM*%
%LPD*%
G01*
G04 APERTURE LIST*
%ADD10C,3.200000*%
%ADD11C,2.600000*%
%ADD12R,2.600000X2.600000*%
%ADD13C,1.800000*%
%ADD14R,1.800000X1.800000*%
G04 APERTURE END LIST*
D10*
%TO.C,H4*%
X144000000Y-147000000D03*
%TD*%
%TO.C,H3*%
X97000000Y-147000000D03*
%TD*%
%TO.C,H2*%
X144000000Y-35000000D03*
%TD*%
%TO.C,H1*%
X97000000Y-35000000D03*
%TD*%
%TO.C,U5*%
G36*
G01*
X114450000Y-129292500D02*
X114450000Y-129017500D01*
G75*
G02*
X114587500Y-128880000I137500J0D01*
G01*
X115912500Y-128880000D01*
G75*
G02*
X116050000Y-129017500I0J-137500D01*
G01*
X116050000Y-129292500D01*
G75*
G02*
X115912500Y-129430000I-137500J0D01*
G01*
X114587500Y-129430000D01*
G75*
G02*
X114450000Y-129292500I0J137500D01*
G01*
G37*
G36*
G01*
X114450000Y-130562500D02*
X114450000Y-130287500D01*
G75*
G02*
X114587500Y-130150000I137500J0D01*
G01*
X115912500Y-130150000D01*
G75*
G02*
X116050000Y-130287500I0J-137500D01*
G01*
X116050000Y-130562500D01*
G75*
G02*
X115912500Y-130700000I-137500J0D01*
G01*
X114587500Y-130700000D01*
G75*
G02*
X114450000Y-130562500I0J137500D01*
G01*
G37*
G36*
G01*
X114450000Y-131832500D02*
X114450000Y-131557500D01*
G75*
G02*
X114587500Y-131420000I137500J0D01*
G01*
X115912500Y-131420000D01*
G75*
G02*
X116050000Y-131557500I0J-137500D01*
G01*
X116050000Y-131832500D01*
G75*
G02*
X115912500Y-131970000I-137500J0D01*
G01*
X114587500Y-131970000D01*
G75*
G02*
X114450000Y-131832500I0J137500D01*
G01*
G37*
G36*
G01*
X114450000Y-133102500D02*
X114450000Y-132827500D01*
G75*
G02*
X114587500Y-132690000I137500J0D01*
G01*
X115912500Y-132690000D01*
G75*
G02*
X116050000Y-132827500I0J-137500D01*
G01*
X116050000Y-133102500D01*
G75*
G02*
X115912500Y-133240000I-137500J0D01*
G01*
X114587500Y-133240000D01*
G75*
G02*
X114450000Y-133102500I0J137500D01*
G01*
G37*
G36*
G01*
X114450000Y-134372500D02*
X114450000Y-134097500D01*
G75*
G02*
X114587500Y-133960000I137500J0D01*
G01*
X115912500Y-133960000D01*
G75*
G02*
X116050000Y-134097500I0J-137500D01*
G01*
X116050000Y-134372500D01*
G75*
G02*
X115912500Y-134510000I-137500J0D01*
G01*
X114587500Y-134510000D01*
G75*
G02*
X114450000Y-134372500I0J137500D01*
G01*
G37*
G36*
G01*
X114450000Y-135642500D02*
X114450000Y-135367500D01*
G75*
G02*
X114587500Y-135230000I137500J0D01*
G01*
X115912500Y-135230000D01*
G75*
G02*
X116050000Y-135367500I0J-137500D01*
G01*
X116050000Y-135642500D01*
G75*
G02*
X115912500Y-135780000I-137500J0D01*
G01*
X114587500Y-135780000D01*
G75*
G02*
X114450000Y-135642500I0J137500D01*
G01*
G37*
G36*
G01*
X114450000Y-136912500D02*
X114450000Y-136637500D01*
G75*
G02*
X114587500Y-136500000I137500J0D01*
G01*
X115912500Y-136500000D01*
G75*
G02*
X116050000Y-136637500I0J-137500D01*
G01*
X116050000Y-136912500D01*
G75*
G02*
X115912500Y-137050000I-137500J0D01*
G01*
X114587500Y-137050000D01*
G75*
G02*
X114450000Y-136912500I0J137500D01*
G01*
G37*
G36*
G01*
X114450000Y-138182500D02*
X114450000Y-137907500D01*
G75*
G02*
X114587500Y-137770000I137500J0D01*
G01*
X115912500Y-137770000D01*
G75*
G02*
X116050000Y-137907500I0J-137500D01*
G01*
X116050000Y-138182500D01*
G75*
G02*
X115912500Y-138320000I-137500J0D01*
G01*
X114587500Y-138320000D01*
G75*
G02*
X114450000Y-138182500I0J137500D01*
G01*
G37*
G36*
G01*
X107950000Y-138182500D02*
X107950000Y-137907500D01*
G75*
G02*
X108087500Y-137770000I137500J0D01*
G01*
X109412500Y-137770000D01*
G75*
G02*
X109550000Y-137907500I0J-137500D01*
G01*
X109550000Y-138182500D01*
G75*
G02*
X109412500Y-138320000I-137500J0D01*
G01*
X108087500Y-138320000D01*
G75*
G02*
X107950000Y-138182500I0J137500D01*
G01*
G37*
G36*
G01*
X107950000Y-136912500D02*
X107950000Y-136637500D01*
G75*
G02*
X108087500Y-136500000I137500J0D01*
G01*
X109412500Y-136500000D01*
G75*
G02*
X109550000Y-136637500I0J-137500D01*
G01*
X109550000Y-136912500D01*
G75*
G02*
X109412500Y-137050000I-137500J0D01*
G01*
X108087500Y-137050000D01*
G75*
G02*
X107950000Y-136912500I0J137500D01*
G01*
G37*
G36*
G01*
X107950000Y-135642500D02*
X107950000Y-135367500D01*
G75*
G02*
X108087500Y-135230000I137500J0D01*
G01*
X109412500Y-135230000D01*
G75*
G02*
X109550000Y-135367500I0J-137500D01*
G01*
X109550000Y-135642500D01*
G75*
G02*
X109412500Y-135780000I-137500J0D01*
G01*
X108087500Y-135780000D01*
G75*
G02*
X107950000Y-135642500I0J137500D01*
G01*
G37*
G36*
G01*
X107950000Y-134372500D02*
X107950000Y-134097500D01*
G75*
G02*
X108087500Y-133960000I137500J0D01*
G01*
X109412500Y-133960000D01*
G75*
G02*
X109550000Y-134097500I0J-137500D01*
G01*
X109550000Y-134372500D01*
G75*
G02*
X109412500Y-134510000I-137500J0D01*
G01*
X108087500Y-134510000D01*
G75*
G02*
X107950000Y-134372500I0J137500D01*
G01*
G37*
G36*
G01*
X107950000Y-133102500D02*
X107950000Y-132827500D01*
G75*
G02*
X108087500Y-132690000I137500J0D01*
G01*
X109412500Y-132690000D01*
G75*
G02*
X109550000Y-132827500I0J-137500D01*
G01*
X109550000Y-133102500D01*
G75*
G02*
X109412500Y-133240000I-137500J0D01*
G01*
X108087500Y-133240000D01*
G75*
G02*
X107950000Y-133102500I0J137500D01*
G01*
G37*
G36*
G01*
X107950000Y-131832500D02*
X107950000Y-131557500D01*
G75*
G02*
X108087500Y-131420000I137500J0D01*
G01*
X109412500Y-131420000D01*
G75*
G02*
X109550000Y-131557500I0J-137500D01*
G01*
X109550000Y-131832500D01*
G75*
G02*
X109412500Y-131970000I-137500J0D01*
G01*
X108087500Y-131970000D01*
G75*
G02*
X107950000Y-131832500I0J137500D01*
G01*
G37*
G36*
G01*
X107950000Y-130562500D02*
X107950000Y-130287500D01*
G75*
G02*
X108087500Y-130150000I137500J0D01*
G01*
X109412500Y-130150000D01*
G75*
G02*
X109550000Y-130287500I0J-137500D01*
G01*
X109550000Y-130562500D01*
G75*
G02*
X109412500Y-130700000I-137500J0D01*
G01*
X108087500Y-130700000D01*
G75*
G02*
X107950000Y-130562500I0J137500D01*
G01*
G37*
G36*
G01*
X107950000Y-129292500D02*
X107950000Y-129017500D01*
G75*
G02*
X108087500Y-128880000I137500J0D01*
G01*
X109412500Y-128880000D01*
G75*
G02*
X109550000Y-129017500I0J-137500D01*
G01*
X109550000Y-129292500D01*
G75*
G02*
X109412500Y-129430000I-137500J0D01*
G01*
X108087500Y-129430000D01*
G75*
G02*
X107950000Y-129292500I0J137500D01*
G01*
G37*
%TD*%
%TO.C,U4*%
G36*
G01*
X114350000Y-109692500D02*
X114350000Y-109417500D01*
G75*
G02*
X114487500Y-109280000I137500J0D01*
G01*
X115812500Y-109280000D01*
G75*
G02*
X115950000Y-109417500I0J-137500D01*
G01*
X115950000Y-109692500D01*
G75*
G02*
X115812500Y-109830000I-137500J0D01*
G01*
X114487500Y-109830000D01*
G75*
G02*
X114350000Y-109692500I0J137500D01*
G01*
G37*
G36*
G01*
X114350000Y-110962500D02*
X114350000Y-110687500D01*
G75*
G02*
X114487500Y-110550000I137500J0D01*
G01*
X115812500Y-110550000D01*
G75*
G02*
X115950000Y-110687500I0J-137500D01*
G01*
X115950000Y-110962500D01*
G75*
G02*
X115812500Y-111100000I-137500J0D01*
G01*
X114487500Y-111100000D01*
G75*
G02*
X114350000Y-110962500I0J137500D01*
G01*
G37*
G36*
G01*
X114350000Y-112232500D02*
X114350000Y-111957500D01*
G75*
G02*
X114487500Y-111820000I137500J0D01*
G01*
X115812500Y-111820000D01*
G75*
G02*
X115950000Y-111957500I0J-137500D01*
G01*
X115950000Y-112232500D01*
G75*
G02*
X115812500Y-112370000I-137500J0D01*
G01*
X114487500Y-112370000D01*
G75*
G02*
X114350000Y-112232500I0J137500D01*
G01*
G37*
G36*
G01*
X114350000Y-113502500D02*
X114350000Y-113227500D01*
G75*
G02*
X114487500Y-113090000I137500J0D01*
G01*
X115812500Y-113090000D01*
G75*
G02*
X115950000Y-113227500I0J-137500D01*
G01*
X115950000Y-113502500D01*
G75*
G02*
X115812500Y-113640000I-137500J0D01*
G01*
X114487500Y-113640000D01*
G75*
G02*
X114350000Y-113502500I0J137500D01*
G01*
G37*
G36*
G01*
X114350000Y-114772500D02*
X114350000Y-114497500D01*
G75*
G02*
X114487500Y-114360000I137500J0D01*
G01*
X115812500Y-114360000D01*
G75*
G02*
X115950000Y-114497500I0J-137500D01*
G01*
X115950000Y-114772500D01*
G75*
G02*
X115812500Y-114910000I-137500J0D01*
G01*
X114487500Y-114910000D01*
G75*
G02*
X114350000Y-114772500I0J137500D01*
G01*
G37*
G36*
G01*
X114350000Y-116042500D02*
X114350000Y-115767500D01*
G75*
G02*
X114487500Y-115630000I137500J0D01*
G01*
X115812500Y-115630000D01*
G75*
G02*
X115950000Y-115767500I0J-137500D01*
G01*
X115950000Y-116042500D01*
G75*
G02*
X115812500Y-116180000I-137500J0D01*
G01*
X114487500Y-116180000D01*
G75*
G02*
X114350000Y-116042500I0J137500D01*
G01*
G37*
G36*
G01*
X114350000Y-117312500D02*
X114350000Y-117037500D01*
G75*
G02*
X114487500Y-116900000I137500J0D01*
G01*
X115812500Y-116900000D01*
G75*
G02*
X115950000Y-117037500I0J-137500D01*
G01*
X115950000Y-117312500D01*
G75*
G02*
X115812500Y-117450000I-137500J0D01*
G01*
X114487500Y-117450000D01*
G75*
G02*
X114350000Y-117312500I0J137500D01*
G01*
G37*
G36*
G01*
X114350000Y-118582500D02*
X114350000Y-118307500D01*
G75*
G02*
X114487500Y-118170000I137500J0D01*
G01*
X115812500Y-118170000D01*
G75*
G02*
X115950000Y-118307500I0J-137500D01*
G01*
X115950000Y-118582500D01*
G75*
G02*
X115812500Y-118720000I-137500J0D01*
G01*
X114487500Y-118720000D01*
G75*
G02*
X114350000Y-118582500I0J137500D01*
G01*
G37*
G36*
G01*
X107850000Y-118582500D02*
X107850000Y-118307500D01*
G75*
G02*
X107987500Y-118170000I137500J0D01*
G01*
X109312500Y-118170000D01*
G75*
G02*
X109450000Y-118307500I0J-137500D01*
G01*
X109450000Y-118582500D01*
G75*
G02*
X109312500Y-118720000I-137500J0D01*
G01*
X107987500Y-118720000D01*
G75*
G02*
X107850000Y-118582500I0J137500D01*
G01*
G37*
G36*
G01*
X107850000Y-117312500D02*
X107850000Y-117037500D01*
G75*
G02*
X107987500Y-116900000I137500J0D01*
G01*
X109312500Y-116900000D01*
G75*
G02*
X109450000Y-117037500I0J-137500D01*
G01*
X109450000Y-117312500D01*
G75*
G02*
X109312500Y-117450000I-137500J0D01*
G01*
X107987500Y-117450000D01*
G75*
G02*
X107850000Y-117312500I0J137500D01*
G01*
G37*
G36*
G01*
X107850000Y-116042500D02*
X107850000Y-115767500D01*
G75*
G02*
X107987500Y-115630000I137500J0D01*
G01*
X109312500Y-115630000D01*
G75*
G02*
X109450000Y-115767500I0J-137500D01*
G01*
X109450000Y-116042500D01*
G75*
G02*
X109312500Y-116180000I-137500J0D01*
G01*
X107987500Y-116180000D01*
G75*
G02*
X107850000Y-116042500I0J137500D01*
G01*
G37*
G36*
G01*
X107850000Y-114772500D02*
X107850000Y-114497500D01*
G75*
G02*
X107987500Y-114360000I137500J0D01*
G01*
X109312500Y-114360000D01*
G75*
G02*
X109450000Y-114497500I0J-137500D01*
G01*
X109450000Y-114772500D01*
G75*
G02*
X109312500Y-114910000I-137500J0D01*
G01*
X107987500Y-114910000D01*
G75*
G02*
X107850000Y-114772500I0J137500D01*
G01*
G37*
G36*
G01*
X107850000Y-113502500D02*
X107850000Y-113227500D01*
G75*
G02*
X107987500Y-113090000I137500J0D01*
G01*
X109312500Y-113090000D01*
G75*
G02*
X109450000Y-113227500I0J-137500D01*
G01*
X109450000Y-113502500D01*
G75*
G02*
X109312500Y-113640000I-137500J0D01*
G01*
X107987500Y-113640000D01*
G75*
G02*
X107850000Y-113502500I0J137500D01*
G01*
G37*
G36*
G01*
X107850000Y-112232500D02*
X107850000Y-111957500D01*
G75*
G02*
X107987500Y-111820000I137500J0D01*
G01*
X109312500Y-111820000D01*
G75*
G02*
X109450000Y-111957500I0J-137500D01*
G01*
X109450000Y-112232500D01*
G75*
G02*
X109312500Y-112370000I-137500J0D01*
G01*
X107987500Y-112370000D01*
G75*
G02*
X107850000Y-112232500I0J137500D01*
G01*
G37*
G36*
G01*
X107850000Y-110962500D02*
X107850000Y-110687500D01*
G75*
G02*
X107987500Y-110550000I137500J0D01*
G01*
X109312500Y-110550000D01*
G75*
G02*
X109450000Y-110687500I0J-137500D01*
G01*
X109450000Y-110962500D01*
G75*
G02*
X109312500Y-111100000I-137500J0D01*
G01*
X107987500Y-111100000D01*
G75*
G02*
X107850000Y-110962500I0J137500D01*
G01*
G37*
G36*
G01*
X107850000Y-109692500D02*
X107850000Y-109417500D01*
G75*
G02*
X107987500Y-109280000I137500J0D01*
G01*
X109312500Y-109280000D01*
G75*
G02*
X109450000Y-109417500I0J-137500D01*
G01*
X109450000Y-109692500D01*
G75*
G02*
X109312500Y-109830000I-137500J0D01*
G01*
X107987500Y-109830000D01*
G75*
G02*
X107850000Y-109692500I0J137500D01*
G01*
G37*
%TD*%
%TO.C,U3*%
G36*
G01*
X114400000Y-87857500D02*
X114400000Y-87582500D01*
G75*
G02*
X114537500Y-87445000I137500J0D01*
G01*
X115862500Y-87445000D01*
G75*
G02*
X116000000Y-87582500I0J-137500D01*
G01*
X116000000Y-87857500D01*
G75*
G02*
X115862500Y-87995000I-137500J0D01*
G01*
X114537500Y-87995000D01*
G75*
G02*
X114400000Y-87857500I0J137500D01*
G01*
G37*
G36*
G01*
X114400000Y-89127500D02*
X114400000Y-88852500D01*
G75*
G02*
X114537500Y-88715000I137500J0D01*
G01*
X115862500Y-88715000D01*
G75*
G02*
X116000000Y-88852500I0J-137500D01*
G01*
X116000000Y-89127500D01*
G75*
G02*
X115862500Y-89265000I-137500J0D01*
G01*
X114537500Y-89265000D01*
G75*
G02*
X114400000Y-89127500I0J137500D01*
G01*
G37*
G36*
G01*
X114400000Y-90397500D02*
X114400000Y-90122500D01*
G75*
G02*
X114537500Y-89985000I137500J0D01*
G01*
X115862500Y-89985000D01*
G75*
G02*
X116000000Y-90122500I0J-137500D01*
G01*
X116000000Y-90397500D01*
G75*
G02*
X115862500Y-90535000I-137500J0D01*
G01*
X114537500Y-90535000D01*
G75*
G02*
X114400000Y-90397500I0J137500D01*
G01*
G37*
G36*
G01*
X114400000Y-91667500D02*
X114400000Y-91392500D01*
G75*
G02*
X114537500Y-91255000I137500J0D01*
G01*
X115862500Y-91255000D01*
G75*
G02*
X116000000Y-91392500I0J-137500D01*
G01*
X116000000Y-91667500D01*
G75*
G02*
X115862500Y-91805000I-137500J0D01*
G01*
X114537500Y-91805000D01*
G75*
G02*
X114400000Y-91667500I0J137500D01*
G01*
G37*
G36*
G01*
X114400000Y-92937500D02*
X114400000Y-92662500D01*
G75*
G02*
X114537500Y-92525000I137500J0D01*
G01*
X115862500Y-92525000D01*
G75*
G02*
X116000000Y-92662500I0J-137500D01*
G01*
X116000000Y-92937500D01*
G75*
G02*
X115862500Y-93075000I-137500J0D01*
G01*
X114537500Y-93075000D01*
G75*
G02*
X114400000Y-92937500I0J137500D01*
G01*
G37*
G36*
G01*
X114400000Y-94207500D02*
X114400000Y-93932500D01*
G75*
G02*
X114537500Y-93795000I137500J0D01*
G01*
X115862500Y-93795000D01*
G75*
G02*
X116000000Y-93932500I0J-137500D01*
G01*
X116000000Y-94207500D01*
G75*
G02*
X115862500Y-94345000I-137500J0D01*
G01*
X114537500Y-94345000D01*
G75*
G02*
X114400000Y-94207500I0J137500D01*
G01*
G37*
G36*
G01*
X114400000Y-95477500D02*
X114400000Y-95202500D01*
G75*
G02*
X114537500Y-95065000I137500J0D01*
G01*
X115862500Y-95065000D01*
G75*
G02*
X116000000Y-95202500I0J-137500D01*
G01*
X116000000Y-95477500D01*
G75*
G02*
X115862500Y-95615000I-137500J0D01*
G01*
X114537500Y-95615000D01*
G75*
G02*
X114400000Y-95477500I0J137500D01*
G01*
G37*
G36*
G01*
X114400000Y-96747500D02*
X114400000Y-96472500D01*
G75*
G02*
X114537500Y-96335000I137500J0D01*
G01*
X115862500Y-96335000D01*
G75*
G02*
X116000000Y-96472500I0J-137500D01*
G01*
X116000000Y-96747500D01*
G75*
G02*
X115862500Y-96885000I-137500J0D01*
G01*
X114537500Y-96885000D01*
G75*
G02*
X114400000Y-96747500I0J137500D01*
G01*
G37*
G36*
G01*
X107900000Y-96747500D02*
X107900000Y-96472500D01*
G75*
G02*
X108037500Y-96335000I137500J0D01*
G01*
X109362500Y-96335000D01*
G75*
G02*
X109500000Y-96472500I0J-137500D01*
G01*
X109500000Y-96747500D01*
G75*
G02*
X109362500Y-96885000I-137500J0D01*
G01*
X108037500Y-96885000D01*
G75*
G02*
X107900000Y-96747500I0J137500D01*
G01*
G37*
G36*
G01*
X107900000Y-95477500D02*
X107900000Y-95202500D01*
G75*
G02*
X108037500Y-95065000I137500J0D01*
G01*
X109362500Y-95065000D01*
G75*
G02*
X109500000Y-95202500I0J-137500D01*
G01*
X109500000Y-95477500D01*
G75*
G02*
X109362500Y-95615000I-137500J0D01*
G01*
X108037500Y-95615000D01*
G75*
G02*
X107900000Y-95477500I0J137500D01*
G01*
G37*
G36*
G01*
X107900000Y-94207500D02*
X107900000Y-93932500D01*
G75*
G02*
X108037500Y-93795000I137500J0D01*
G01*
X109362500Y-93795000D01*
G75*
G02*
X109500000Y-93932500I0J-137500D01*
G01*
X109500000Y-94207500D01*
G75*
G02*
X109362500Y-94345000I-137500J0D01*
G01*
X108037500Y-94345000D01*
G75*
G02*
X107900000Y-94207500I0J137500D01*
G01*
G37*
G36*
G01*
X107900000Y-92937500D02*
X107900000Y-92662500D01*
G75*
G02*
X108037500Y-92525000I137500J0D01*
G01*
X109362500Y-92525000D01*
G75*
G02*
X109500000Y-92662500I0J-137500D01*
G01*
X109500000Y-92937500D01*
G75*
G02*
X109362500Y-93075000I-137500J0D01*
G01*
X108037500Y-93075000D01*
G75*
G02*
X107900000Y-92937500I0J137500D01*
G01*
G37*
G36*
G01*
X107900000Y-91667500D02*
X107900000Y-91392500D01*
G75*
G02*
X108037500Y-91255000I137500J0D01*
G01*
X109362500Y-91255000D01*
G75*
G02*
X109500000Y-91392500I0J-137500D01*
G01*
X109500000Y-91667500D01*
G75*
G02*
X109362500Y-91805000I-137500J0D01*
G01*
X108037500Y-91805000D01*
G75*
G02*
X107900000Y-91667500I0J137500D01*
G01*
G37*
G36*
G01*
X107900000Y-90397500D02*
X107900000Y-90122500D01*
G75*
G02*
X108037500Y-89985000I137500J0D01*
G01*
X109362500Y-89985000D01*
G75*
G02*
X109500000Y-90122500I0J-137500D01*
G01*
X109500000Y-90397500D01*
G75*
G02*
X109362500Y-90535000I-137500J0D01*
G01*
X108037500Y-90535000D01*
G75*
G02*
X107900000Y-90397500I0J137500D01*
G01*
G37*
G36*
G01*
X107900000Y-89127500D02*
X107900000Y-88852500D01*
G75*
G02*
X108037500Y-88715000I137500J0D01*
G01*
X109362500Y-88715000D01*
G75*
G02*
X109500000Y-88852500I0J-137500D01*
G01*
X109500000Y-89127500D01*
G75*
G02*
X109362500Y-89265000I-137500J0D01*
G01*
X108037500Y-89265000D01*
G75*
G02*
X107900000Y-89127500I0J137500D01*
G01*
G37*
G36*
G01*
X107900000Y-87857500D02*
X107900000Y-87582500D01*
G75*
G02*
X108037500Y-87445000I137500J0D01*
G01*
X109362500Y-87445000D01*
G75*
G02*
X109500000Y-87582500I0J-137500D01*
G01*
X109500000Y-87857500D01*
G75*
G02*
X109362500Y-87995000I-137500J0D01*
G01*
X108037500Y-87995000D01*
G75*
G02*
X107900000Y-87857500I0J137500D01*
G01*
G37*
%TD*%
%TO.C,U2*%
G36*
G01*
X114350000Y-68092500D02*
X114350000Y-67817500D01*
G75*
G02*
X114487500Y-67680000I137500J0D01*
G01*
X115812500Y-67680000D01*
G75*
G02*
X115950000Y-67817500I0J-137500D01*
G01*
X115950000Y-68092500D01*
G75*
G02*
X115812500Y-68230000I-137500J0D01*
G01*
X114487500Y-68230000D01*
G75*
G02*
X114350000Y-68092500I0J137500D01*
G01*
G37*
G36*
G01*
X114350000Y-69362500D02*
X114350000Y-69087500D01*
G75*
G02*
X114487500Y-68950000I137500J0D01*
G01*
X115812500Y-68950000D01*
G75*
G02*
X115950000Y-69087500I0J-137500D01*
G01*
X115950000Y-69362500D01*
G75*
G02*
X115812500Y-69500000I-137500J0D01*
G01*
X114487500Y-69500000D01*
G75*
G02*
X114350000Y-69362500I0J137500D01*
G01*
G37*
G36*
G01*
X114350000Y-70632500D02*
X114350000Y-70357500D01*
G75*
G02*
X114487500Y-70220000I137500J0D01*
G01*
X115812500Y-70220000D01*
G75*
G02*
X115950000Y-70357500I0J-137500D01*
G01*
X115950000Y-70632500D01*
G75*
G02*
X115812500Y-70770000I-137500J0D01*
G01*
X114487500Y-70770000D01*
G75*
G02*
X114350000Y-70632500I0J137500D01*
G01*
G37*
G36*
G01*
X114350000Y-71902500D02*
X114350000Y-71627500D01*
G75*
G02*
X114487500Y-71490000I137500J0D01*
G01*
X115812500Y-71490000D01*
G75*
G02*
X115950000Y-71627500I0J-137500D01*
G01*
X115950000Y-71902500D01*
G75*
G02*
X115812500Y-72040000I-137500J0D01*
G01*
X114487500Y-72040000D01*
G75*
G02*
X114350000Y-71902500I0J137500D01*
G01*
G37*
G36*
G01*
X114350000Y-73172500D02*
X114350000Y-72897500D01*
G75*
G02*
X114487500Y-72760000I137500J0D01*
G01*
X115812500Y-72760000D01*
G75*
G02*
X115950000Y-72897500I0J-137500D01*
G01*
X115950000Y-73172500D01*
G75*
G02*
X115812500Y-73310000I-137500J0D01*
G01*
X114487500Y-73310000D01*
G75*
G02*
X114350000Y-73172500I0J137500D01*
G01*
G37*
G36*
G01*
X114350000Y-74442500D02*
X114350000Y-74167500D01*
G75*
G02*
X114487500Y-74030000I137500J0D01*
G01*
X115812500Y-74030000D01*
G75*
G02*
X115950000Y-74167500I0J-137500D01*
G01*
X115950000Y-74442500D01*
G75*
G02*
X115812500Y-74580000I-137500J0D01*
G01*
X114487500Y-74580000D01*
G75*
G02*
X114350000Y-74442500I0J137500D01*
G01*
G37*
G36*
G01*
X114350000Y-75712500D02*
X114350000Y-75437500D01*
G75*
G02*
X114487500Y-75300000I137500J0D01*
G01*
X115812500Y-75300000D01*
G75*
G02*
X115950000Y-75437500I0J-137500D01*
G01*
X115950000Y-75712500D01*
G75*
G02*
X115812500Y-75850000I-137500J0D01*
G01*
X114487500Y-75850000D01*
G75*
G02*
X114350000Y-75712500I0J137500D01*
G01*
G37*
G36*
G01*
X114350000Y-76982500D02*
X114350000Y-76707500D01*
G75*
G02*
X114487500Y-76570000I137500J0D01*
G01*
X115812500Y-76570000D01*
G75*
G02*
X115950000Y-76707500I0J-137500D01*
G01*
X115950000Y-76982500D01*
G75*
G02*
X115812500Y-77120000I-137500J0D01*
G01*
X114487500Y-77120000D01*
G75*
G02*
X114350000Y-76982500I0J137500D01*
G01*
G37*
G36*
G01*
X107850000Y-76982500D02*
X107850000Y-76707500D01*
G75*
G02*
X107987500Y-76570000I137500J0D01*
G01*
X109312500Y-76570000D01*
G75*
G02*
X109450000Y-76707500I0J-137500D01*
G01*
X109450000Y-76982500D01*
G75*
G02*
X109312500Y-77120000I-137500J0D01*
G01*
X107987500Y-77120000D01*
G75*
G02*
X107850000Y-76982500I0J137500D01*
G01*
G37*
G36*
G01*
X107850000Y-75712500D02*
X107850000Y-75437500D01*
G75*
G02*
X107987500Y-75300000I137500J0D01*
G01*
X109312500Y-75300000D01*
G75*
G02*
X109450000Y-75437500I0J-137500D01*
G01*
X109450000Y-75712500D01*
G75*
G02*
X109312500Y-75850000I-137500J0D01*
G01*
X107987500Y-75850000D01*
G75*
G02*
X107850000Y-75712500I0J137500D01*
G01*
G37*
G36*
G01*
X107850000Y-74442500D02*
X107850000Y-74167500D01*
G75*
G02*
X107987500Y-74030000I137500J0D01*
G01*
X109312500Y-74030000D01*
G75*
G02*
X109450000Y-74167500I0J-137500D01*
G01*
X109450000Y-74442500D01*
G75*
G02*
X109312500Y-74580000I-137500J0D01*
G01*
X107987500Y-74580000D01*
G75*
G02*
X107850000Y-74442500I0J137500D01*
G01*
G37*
G36*
G01*
X107850000Y-73172500D02*
X107850000Y-72897500D01*
G75*
G02*
X107987500Y-72760000I137500J0D01*
G01*
X109312500Y-72760000D01*
G75*
G02*
X109450000Y-72897500I0J-137500D01*
G01*
X109450000Y-73172500D01*
G75*
G02*
X109312500Y-73310000I-137500J0D01*
G01*
X107987500Y-73310000D01*
G75*
G02*
X107850000Y-73172500I0J137500D01*
G01*
G37*
G36*
G01*
X107850000Y-71902500D02*
X107850000Y-71627500D01*
G75*
G02*
X107987500Y-71490000I137500J0D01*
G01*
X109312500Y-71490000D01*
G75*
G02*
X109450000Y-71627500I0J-137500D01*
G01*
X109450000Y-71902500D01*
G75*
G02*
X109312500Y-72040000I-137500J0D01*
G01*
X107987500Y-72040000D01*
G75*
G02*
X107850000Y-71902500I0J137500D01*
G01*
G37*
G36*
G01*
X107850000Y-70632500D02*
X107850000Y-70357500D01*
G75*
G02*
X107987500Y-70220000I137500J0D01*
G01*
X109312500Y-70220000D01*
G75*
G02*
X109450000Y-70357500I0J-137500D01*
G01*
X109450000Y-70632500D01*
G75*
G02*
X109312500Y-70770000I-137500J0D01*
G01*
X107987500Y-70770000D01*
G75*
G02*
X107850000Y-70632500I0J137500D01*
G01*
G37*
G36*
G01*
X107850000Y-69362500D02*
X107850000Y-69087500D01*
G75*
G02*
X107987500Y-68950000I137500J0D01*
G01*
X109312500Y-68950000D01*
G75*
G02*
X109450000Y-69087500I0J-137500D01*
G01*
X109450000Y-69362500D01*
G75*
G02*
X109312500Y-69500000I-137500J0D01*
G01*
X107987500Y-69500000D01*
G75*
G02*
X107850000Y-69362500I0J137500D01*
G01*
G37*
G36*
G01*
X107850000Y-68092500D02*
X107850000Y-67817500D01*
G75*
G02*
X107987500Y-67680000I137500J0D01*
G01*
X109312500Y-67680000D01*
G75*
G02*
X109450000Y-67817500I0J-137500D01*
G01*
X109450000Y-68092500D01*
G75*
G02*
X109312500Y-68230000I-137500J0D01*
G01*
X107987500Y-68230000D01*
G75*
G02*
X107850000Y-68092500I0J137500D01*
G01*
G37*
%TD*%
%TO.C,U1*%
G36*
G01*
X114350000Y-50792500D02*
X114350000Y-50517500D01*
G75*
G02*
X114487500Y-50380000I137500J0D01*
G01*
X115812500Y-50380000D01*
G75*
G02*
X115950000Y-50517500I0J-137500D01*
G01*
X115950000Y-50792500D01*
G75*
G02*
X115812500Y-50930000I-137500J0D01*
G01*
X114487500Y-50930000D01*
G75*
G02*
X114350000Y-50792500I0J137500D01*
G01*
G37*
G36*
G01*
X114350000Y-52062500D02*
X114350000Y-51787500D01*
G75*
G02*
X114487500Y-51650000I137500J0D01*
G01*
X115812500Y-51650000D01*
G75*
G02*
X115950000Y-51787500I0J-137500D01*
G01*
X115950000Y-52062500D01*
G75*
G02*
X115812500Y-52200000I-137500J0D01*
G01*
X114487500Y-52200000D01*
G75*
G02*
X114350000Y-52062500I0J137500D01*
G01*
G37*
G36*
G01*
X114350000Y-53332500D02*
X114350000Y-53057500D01*
G75*
G02*
X114487500Y-52920000I137500J0D01*
G01*
X115812500Y-52920000D01*
G75*
G02*
X115950000Y-53057500I0J-137500D01*
G01*
X115950000Y-53332500D01*
G75*
G02*
X115812500Y-53470000I-137500J0D01*
G01*
X114487500Y-53470000D01*
G75*
G02*
X114350000Y-53332500I0J137500D01*
G01*
G37*
G36*
G01*
X114350000Y-54602500D02*
X114350000Y-54327500D01*
G75*
G02*
X114487500Y-54190000I137500J0D01*
G01*
X115812500Y-54190000D01*
G75*
G02*
X115950000Y-54327500I0J-137500D01*
G01*
X115950000Y-54602500D01*
G75*
G02*
X115812500Y-54740000I-137500J0D01*
G01*
X114487500Y-54740000D01*
G75*
G02*
X114350000Y-54602500I0J137500D01*
G01*
G37*
G36*
G01*
X114350000Y-55872500D02*
X114350000Y-55597500D01*
G75*
G02*
X114487500Y-55460000I137500J0D01*
G01*
X115812500Y-55460000D01*
G75*
G02*
X115950000Y-55597500I0J-137500D01*
G01*
X115950000Y-55872500D01*
G75*
G02*
X115812500Y-56010000I-137500J0D01*
G01*
X114487500Y-56010000D01*
G75*
G02*
X114350000Y-55872500I0J137500D01*
G01*
G37*
G36*
G01*
X114350000Y-57142500D02*
X114350000Y-56867500D01*
G75*
G02*
X114487500Y-56730000I137500J0D01*
G01*
X115812500Y-56730000D01*
G75*
G02*
X115950000Y-56867500I0J-137500D01*
G01*
X115950000Y-57142500D01*
G75*
G02*
X115812500Y-57280000I-137500J0D01*
G01*
X114487500Y-57280000D01*
G75*
G02*
X114350000Y-57142500I0J137500D01*
G01*
G37*
G36*
G01*
X114350000Y-58412500D02*
X114350000Y-58137500D01*
G75*
G02*
X114487500Y-58000000I137500J0D01*
G01*
X115812500Y-58000000D01*
G75*
G02*
X115950000Y-58137500I0J-137500D01*
G01*
X115950000Y-58412500D01*
G75*
G02*
X115812500Y-58550000I-137500J0D01*
G01*
X114487500Y-58550000D01*
G75*
G02*
X114350000Y-58412500I0J137500D01*
G01*
G37*
G36*
G01*
X114350000Y-59682500D02*
X114350000Y-59407500D01*
G75*
G02*
X114487500Y-59270000I137500J0D01*
G01*
X115812500Y-59270000D01*
G75*
G02*
X115950000Y-59407500I0J-137500D01*
G01*
X115950000Y-59682500D01*
G75*
G02*
X115812500Y-59820000I-137500J0D01*
G01*
X114487500Y-59820000D01*
G75*
G02*
X114350000Y-59682500I0J137500D01*
G01*
G37*
G36*
G01*
X107850000Y-59682500D02*
X107850000Y-59407500D01*
G75*
G02*
X107987500Y-59270000I137500J0D01*
G01*
X109312500Y-59270000D01*
G75*
G02*
X109450000Y-59407500I0J-137500D01*
G01*
X109450000Y-59682500D01*
G75*
G02*
X109312500Y-59820000I-137500J0D01*
G01*
X107987500Y-59820000D01*
G75*
G02*
X107850000Y-59682500I0J137500D01*
G01*
G37*
G36*
G01*
X107850000Y-58412500D02*
X107850000Y-58137500D01*
G75*
G02*
X107987500Y-58000000I137500J0D01*
G01*
X109312500Y-58000000D01*
G75*
G02*
X109450000Y-58137500I0J-137500D01*
G01*
X109450000Y-58412500D01*
G75*
G02*
X109312500Y-58550000I-137500J0D01*
G01*
X107987500Y-58550000D01*
G75*
G02*
X107850000Y-58412500I0J137500D01*
G01*
G37*
G36*
G01*
X107850000Y-57142500D02*
X107850000Y-56867500D01*
G75*
G02*
X107987500Y-56730000I137500J0D01*
G01*
X109312500Y-56730000D01*
G75*
G02*
X109450000Y-56867500I0J-137500D01*
G01*
X109450000Y-57142500D01*
G75*
G02*
X109312500Y-57280000I-137500J0D01*
G01*
X107987500Y-57280000D01*
G75*
G02*
X107850000Y-57142500I0J137500D01*
G01*
G37*
G36*
G01*
X107850000Y-55872500D02*
X107850000Y-55597500D01*
G75*
G02*
X107987500Y-55460000I137500J0D01*
G01*
X109312500Y-55460000D01*
G75*
G02*
X109450000Y-55597500I0J-137500D01*
G01*
X109450000Y-55872500D01*
G75*
G02*
X109312500Y-56010000I-137500J0D01*
G01*
X107987500Y-56010000D01*
G75*
G02*
X107850000Y-55872500I0J137500D01*
G01*
G37*
G36*
G01*
X107850000Y-54602500D02*
X107850000Y-54327500D01*
G75*
G02*
X107987500Y-54190000I137500J0D01*
G01*
X109312500Y-54190000D01*
G75*
G02*
X109450000Y-54327500I0J-137500D01*
G01*
X109450000Y-54602500D01*
G75*
G02*
X109312500Y-54740000I-137500J0D01*
G01*
X107987500Y-54740000D01*
G75*
G02*
X107850000Y-54602500I0J137500D01*
G01*
G37*
G36*
G01*
X107850000Y-53332500D02*
X107850000Y-53057500D01*
G75*
G02*
X107987500Y-52920000I137500J0D01*
G01*
X109312500Y-52920000D01*
G75*
G02*
X109450000Y-53057500I0J-137500D01*
G01*
X109450000Y-53332500D01*
G75*
G02*
X109312500Y-53470000I-137500J0D01*
G01*
X107987500Y-53470000D01*
G75*
G02*
X107850000Y-53332500I0J137500D01*
G01*
G37*
G36*
G01*
X107850000Y-52062500D02*
X107850000Y-51787500D01*
G75*
G02*
X107987500Y-51650000I137500J0D01*
G01*
X109312500Y-51650000D01*
G75*
G02*
X109450000Y-51787500I0J-137500D01*
G01*
X109450000Y-52062500D01*
G75*
G02*
X109312500Y-52200000I-137500J0D01*
G01*
X107987500Y-52200000D01*
G75*
G02*
X107850000Y-52062500I0J137500D01*
G01*
G37*
G36*
G01*
X107850000Y-50792500D02*
X107850000Y-50517500D01*
G75*
G02*
X107987500Y-50380000I137500J0D01*
G01*
X109312500Y-50380000D01*
G75*
G02*
X109450000Y-50517500I0J-137500D01*
G01*
X109450000Y-50792500D01*
G75*
G02*
X109312500Y-50930000I-137500J0D01*
G01*
X107987500Y-50930000D01*
G75*
G02*
X107850000Y-50792500I0J137500D01*
G01*
G37*
%TD*%
D11*
%TO.C,J14*%
X114220000Y-40700000D03*
D12*
X119300000Y-40700000D03*
%TD*%
D13*
%TO.C,J13*%
X143700000Y-139820000D03*
X143700000Y-134740000D03*
D14*
X143700000Y-132200000D03*
D13*
X143700000Y-137280000D03*
%TD*%
D14*
%TO.C,J12*%
X133300000Y-116400000D03*
D13*
X133300000Y-118940000D03*
X133300000Y-121480000D03*
X133300000Y-124020000D03*
X133300000Y-126560000D03*
X133300000Y-129100000D03*
%TD*%
%TO.C,J11*%
X143300000Y-114360000D03*
X143300000Y-111820000D03*
X143300000Y-109280000D03*
X143300000Y-106740000D03*
D14*
X143300000Y-104200000D03*
%TD*%
D13*
%TO.C,J10*%
X132800000Y-103060000D03*
X132800000Y-100520000D03*
X132800000Y-97980000D03*
X132800000Y-95440000D03*
D14*
X132800000Y-92900000D03*
%TD*%
D13*
%TO.C,J9*%
X143600000Y-90960000D03*
X143600000Y-88420000D03*
X143600000Y-85880000D03*
X143600000Y-83340000D03*
D14*
X143600000Y-80800000D03*
%TD*%
D13*
%TO.C,J8*%
X132700000Y-80560000D03*
X132700000Y-78020000D03*
X132700000Y-75480000D03*
X132700000Y-72940000D03*
D14*
X132700000Y-70400000D03*
%TD*%
%TO.C,J7*%
X143600000Y-56300000D03*
D13*
X143600000Y-58840000D03*
X143600000Y-61380000D03*
X143600000Y-63920000D03*
X143600000Y-66460000D03*
X143600000Y-69000000D03*
%TD*%
D14*
%TO.C,J6*%
X132700000Y-43900000D03*
D13*
X132700000Y-46440000D03*
X132700000Y-48980000D03*
X132700000Y-51520000D03*
X132700000Y-54060000D03*
X132700000Y-56600000D03*
%TD*%
D14*
%TO.C,J5*%
X99200000Y-127600000D03*
D13*
X99200000Y-130140000D03*
X99200000Y-132680000D03*
X99200000Y-135220000D03*
X99200000Y-137760000D03*
X99200000Y-140300000D03*
%TD*%
%TO.C,J4*%
X99100000Y-113520000D03*
X99100000Y-110980000D03*
X99100000Y-118600000D03*
D14*
X99100000Y-105900000D03*
D13*
X99100000Y-116060000D03*
X99100000Y-108440000D03*
X99100000Y-121140000D03*
%TD*%
%TO.C,J3*%
X99000000Y-92660000D03*
X99000000Y-90120000D03*
X99000000Y-97740000D03*
D14*
X99000000Y-85040000D03*
D13*
X99000000Y-95200000D03*
X99000000Y-87580000D03*
X99000000Y-100280000D03*
%TD*%
%TO.C,J2*%
X99000000Y-71320000D03*
X99000000Y-68780000D03*
X99000000Y-76400000D03*
D14*
X99000000Y-63700000D03*
D13*
X99000000Y-73860000D03*
X99000000Y-66240000D03*
X99000000Y-78940000D03*
%TD*%
%TO.C,J1*%
X98900000Y-50720000D03*
X98900000Y-48180000D03*
X98900000Y-55800000D03*
D14*
X98900000Y-43100000D03*
D13*
X98900000Y-53260000D03*
X98900000Y-45640000D03*
X98900000Y-58340000D03*
%TD*%
M02*
