M48
INCH,TZ
T1C0.0157
T2C0.0276
T3C0.0315
T4C0.0335
T5C0.0354
T6C0.0394
T7C0.0433
T8C0.0551
T9C0.0630
%
G90
G05
T1
X28465Y-40472
X28543Y-55354
X29813Y-35935
X30591Y-50906
X30827Y-35394
X30827Y-36820
X30906Y-34370
X30984Y-37953
X30984Y-50197
X30984Y-52008
X31024Y-49567
X31260Y-44409
X31535Y-50157
X31654Y-52480
X31850Y-58780
X31929Y-37402
X32205Y-54488
X32205Y-54843
X32756Y-41181
X34134Y-31614
X34134Y-32008
X34134Y-32362
X34528Y-58465
X35630Y-36181
X35669Y-39370
X35748Y-51024
X37402Y-40039
X37441Y-41575
X37480Y-55512
X37480Y-56969
X38071Y-42638
X38323Y-57937
X38399Y-40210
X42480Y-37598
X49021Y-48342
X49173Y-33740
X49218Y-56540
X50433Y-41732
X55748Y-24803
X55945Y-21929
X55945Y-21929
X56142Y-26339
X56516Y-24862
X57441Y-20827
X58976Y-16732
X62126Y-24094
X62244Y-23386
X62494Y-51325
X76850Y-34409
X79094Y-56102
X79646Y-32756
X79685Y-36299
X84764Y-35000
T2
X70551Y-35039
X70888Y-34226
X70888Y-35852
X71701Y-33890
X71701Y-36189
X72514Y-34226
X72514Y-35852
X72850Y-35039
X74846Y-36063
X75553Y-35356
X76260Y-36063
X81224Y-38031
X81931Y-37324
X82638Y-38031
T3
X26486Y-41634
X26486Y-42634
X26486Y-43634
X26614Y-56693
X26614Y-57693
X26614Y-58693
X29486Y-41634
X29486Y-42634
X29486Y-43634
X29614Y-56693
X29614Y-57693
X29614Y-58693
X30541Y-39626
X30541Y-40626
X30541Y-41626
X30541Y-42626
X30630Y-54685
X30630Y-55685
X30630Y-56685
X30630Y-57685
X33541Y-39626
X33541Y-40626
X33541Y-41626
X33541Y-42626
X33630Y-54685
X33630Y-55685
X33630Y-56685
X33630Y-57685
X36063Y-61982
X36063Y-62982
X36063Y-63982
X39063Y-61982
X39063Y-62982
X39063Y-63982
X40059Y-61982
X40059Y-62982
X40059Y-63982
X42953Y-47362
X43059Y-61982
X43059Y-62982
X43059Y-63982
X43071Y-42126
X43228Y-57520
X43268Y-33189
X43268Y-34921
X43268Y-35921
X43268Y-36921
X43268Y-38484
X43268Y-39484
X43268Y-40484
X43465Y-53701
X43465Y-54701
X43465Y-55701
X43543Y-49961
X43543Y-50961
X43543Y-51961
X44075Y-61982
X44075Y-62982
X44075Y-63982
X46268Y-34921
X46268Y-35921
X46268Y-36921
X46268Y-38484
X46268Y-39484
X46268Y-40484
X46465Y-53701
X46465Y-54701
X46465Y-55701
X46543Y-49961
X46543Y-50961
X46543Y-51961
X47075Y-61982
X47075Y-62982
X47075Y-63982
X47431Y-34951
X47431Y-35951
X47431Y-36951
X47441Y-38504
X47441Y-39504
X47441Y-40504
X47874Y-50000
X47874Y-51000
X47874Y-52000
X47874Y-53701
X47874Y-54701
X47874Y-55701
X47953Y-47362
X48071Y-42126
X48110Y-61982
X48110Y-62982
X48110Y-63982
X48228Y-57520
X48268Y-33189
X50431Y-34951
X50431Y-35951
X50431Y-36951
X50441Y-38504
X50441Y-39504
X50441Y-40504
X50874Y-50000
X50874Y-51000
X50874Y-52000
X50874Y-53701
X50874Y-54701
X50874Y-55701
X51110Y-61982
X51110Y-62982
X51110Y-63982
X51476Y-34951
X51476Y-35951
X51476Y-36951
X51486Y-38494
X51486Y-39494
X51486Y-40494
X52047Y-53701
X52047Y-54701
X52047Y-55701
X52087Y-50000
X52087Y-51000
X52087Y-52000
X52126Y-61982
X52126Y-62982
X52126Y-63982
X54476Y-34951
X54476Y-35951
X54476Y-36951
X54486Y-38494
X54486Y-39494
X54486Y-40494
X55047Y-53701
X55047Y-54701
X55047Y-55701
X55087Y-50000
X55087Y-51000
X55087Y-52000
X55126Y-61982
X55126Y-62982
X55126Y-63982
X55228Y-45205
X55228Y-46205
X55228Y-47205
X58228Y-45205
X58228Y-46205
X58228Y-47205
X60394Y-58150
X60394Y-63150
X60433Y-25354
X60433Y-26354
X60433Y-27354
X60858Y-20362
X60858Y-21362
X60858Y-22362
X61982Y-46004
X61982Y-49004
X62022Y-50059
X62022Y-53059
X62022Y-54094
X62022Y-57094
X62022Y-58150
X62022Y-61150
X62982Y-46004
X62982Y-49004
X63022Y-50059
X63022Y-53059
X63022Y-54094
X63022Y-57094
X63022Y-58150
X63022Y-61150
X63433Y-25354
X63433Y-26354
X63433Y-27354
X63858Y-20362
X63858Y-21362
X63858Y-22362
X63982Y-46004
X63982Y-49004
X64022Y-50059
X64022Y-53059
X64022Y-54094
X64022Y-57094
X64022Y-58150
X64022Y-61150
X65315Y-60157
X65315Y-61157
X65315Y-62157
X65315Y-63157
X68315Y-60157
X68315Y-61157
X68315Y-62157
X68315Y-63157
X70866Y-37630
X70866Y-40630
X70866Y-41646
X70866Y-44646
X71866Y-37630
X71866Y-40630
X71866Y-41646
X71866Y-44646
X72866Y-37630
X72866Y-40630
X72866Y-41646
X72866Y-44646
X74449Y-49803
X74449Y-50803
X74449Y-51803
X74528Y-30189
X74528Y-33189
X74528Y-54370
X74528Y-55370
X74528Y-56370
X74528Y-58898
X74528Y-59898
X74528Y-60898
X75528Y-30189
X75528Y-33189
X76528Y-30189
X76528Y-33189
X77449Y-49803
X77449Y-50803
X77449Y-51803
X77528Y-54370
X77528Y-55370
X77528Y-56370
X77528Y-58898
X77528Y-59898
X77528Y-60898
X78780Y-49764
X78780Y-50764
X78780Y-51764
X79173Y-45709
X79291Y-47638
X80740Y-28551
X80740Y-29551
X80740Y-30551
X80748Y-25276
X80748Y-26276
X80748Y-27276
X80748Y-32008
X80748Y-33008
X80748Y-34008
X80748Y-35008
X81780Y-49764
X81780Y-50764
X81780Y-51764
X83378Y-49331
X83378Y-52331
X83740Y-28551
X83740Y-29551
X83740Y-30551
X83748Y-25276
X83748Y-26276
X83748Y-27276
X83748Y-32008
X83748Y-33008
X83748Y-34008
X83748Y-35008
X84173Y-45709
X84213Y-54094
X84213Y-55094
X84213Y-60094
X84213Y-61094
X84291Y-47638
X84378Y-49331
X84378Y-52331
X85378Y-49331
X85378Y-52331
X86378Y-49331
X86378Y-52331
X87213Y-54094
X87213Y-55094
X87213Y-60094
X87213Y-61094
T4
X80984Y-54354
X80984Y-55354
X80984Y-56354
X80984Y-59354
X80984Y-60354
T5
X27126Y-46969
X27126Y-47969
X27126Y-48969
X29016Y-63228
X30016Y-63228
X31016Y-63228
X31110Y-28031
X32016Y-63228
X32110Y-28031
X33016Y-63228
X33110Y-28031
X34016Y-63228
X34110Y-28031
X35110Y-28031
X36110Y-28031
X39665Y-28071
X40665Y-28071
X41665Y-28071
X42665Y-28071
X43665Y-28071
X44665Y-28071
X45665Y-28071
X49567Y-42953
X49803Y-57913
X50567Y-42953
X50803Y-57913
X51567Y-42953
X51803Y-57913
X52567Y-42953
X52803Y-57913
X53567Y-42953
X53803Y-57913
X54567Y-42953
X54803Y-57913
X55945Y-14843
X55945Y-15843
X55945Y-16843
X55945Y-17843
X55945Y-18843
X67283Y-52520
X67283Y-53520
X67283Y-54520
X67283Y-55520
X67283Y-56520
X68268Y-40472
X68268Y-41472
X68268Y-42472
X68268Y-43472
X68268Y-44472
X71181Y-62110
X71181Y-63110
X72126Y-30315
X73126Y-30315
X74504Y-63307
X75504Y-63307
X76504Y-63307
X77504Y-63307
X78504Y-63307
X82756Y-41457
X83756Y-41457
X85024Y-63819
X85945Y-35709
X85945Y-36709
X85945Y-37709
X85945Y-38709
X86024Y-63819
T6
X30177Y-23996
X32146Y-23996
X34508Y-23996
X36476Y-23996
X37992Y-13661
X37992Y-15630
X38071Y-18465
X38071Y-20433
X39567Y-23937
X41535Y-23937
X42008Y-19252
X43976Y-19252
X43996Y-23937
X45965Y-23937
T7
X28740Y-35315
X28740Y-39315
X29055Y-50646
X29055Y-54646
X32530Y-34100
X32530Y-38100
X32913Y-49449
X32913Y-53449
X34754Y-37713
X34754Y-41713
X34921Y-52717
X34921Y-56717
X39085Y-39524
X39085Y-43524
X39331Y-54858
X39331Y-58858
X41378Y-32260
X41378Y-36260
X41417Y-39213
X41417Y-43213
X41457Y-47535
X41457Y-51535
X41575Y-54724
X41575Y-58724
X58740Y-21118
X58740Y-25118
T8
X30614Y-13740
X30614Y-16417
X30614Y-19094
X32614Y-13740
X32614Y-16417
X32614Y-19094
X42638Y-13409
X42638Y-15409
X46417Y-13425
X46417Y-15425
X50197Y-13409
X50197Y-15409
X50236Y-19157
X50236Y-21157
X72465Y-14724
X72583Y-19921
X72661Y-25276
X74465Y-14724
X74583Y-19921
X74661Y-25276
X84079Y-14724
X84276Y-19882
X86079Y-14724
X86276Y-19882
X88780Y-39276
X88780Y-41276
X88780Y-45283
X88780Y-47283
T9
X56457Y-31646
X56457Y-33146
X56457Y-36146
X56457Y-37646
X59055Y-31646
X59055Y-33146
X59055Y-36146
X59055Y-37646
X59953Y-17953
X59992Y-15079
X61453Y-17953
X61492Y-15079
X64453Y-17953
X64492Y-15079
X65953Y-17953
X65992Y-15079
X67087Y-31764
X67087Y-33264
X67087Y-36264
X67087Y-37764
X85630Y-26213
X85630Y-27713
X85630Y-30713
X85630Y-32213
T0
M30
