%TF.GenerationSoftware,KiCad,Pcbnew,(5.1.10-1-10_14)*%
%TF.CreationDate,2022-05-12T12:23:04+03:00*%
%TF.ProjectId,Bipolar_transistor_tester_1.0,4269706f-6c61-4725-9f74-72616e736973,rev?*%
%TF.SameCoordinates,Original*%
%TF.FileFunction,Legend,Bot*%
%TF.FilePolarity,Positive*%
%FSLAX46Y46*%
G04 Gerber Fmt 4.6, Leading zero omitted, Abs format (unit mm)*
G04 Created by KiCad (PCBNEW (5.1.10-1-10_14)) date 2022-05-12 12:23:04*
%MOMM*%
%LPD*%
G01*
G04 APERTURE LIST*
%ADD10C,0.300000*%
%ADD11C,0.120000*%
%ADD12C,0.150000*%
G04 APERTURE END LIST*
D10*
X74280952Y-29795238D02*
X73614285Y-30747619D01*
X73138095Y-29795238D02*
X73138095Y-31795238D01*
X73900000Y-31795238D01*
X74090476Y-31700000D01*
X74185714Y-31604761D01*
X74280952Y-31414285D01*
X74280952Y-31128571D01*
X74185714Y-30938095D01*
X74090476Y-30842857D01*
X73900000Y-30747619D01*
X73138095Y-30747619D01*
X75900000Y-29890476D02*
X75709523Y-29795238D01*
X75328571Y-29795238D01*
X75138095Y-29890476D01*
X75042857Y-30080952D01*
X75042857Y-30842857D01*
X75138095Y-31033333D01*
X75328571Y-31128571D01*
X75709523Y-31128571D01*
X75900000Y-31033333D01*
X75995238Y-30842857D01*
X75995238Y-30652380D01*
X75042857Y-30461904D01*
X76661904Y-31128571D02*
X77138095Y-29795238D01*
X77614285Y-31128571D01*
X78376190Y-29985714D02*
X78471428Y-29890476D01*
X78376190Y-29795238D01*
X78280952Y-29890476D01*
X78376190Y-29985714D01*
X78376190Y-29795238D01*
X78376190Y-31033333D02*
X78471428Y-30938095D01*
X78376190Y-30842857D01*
X78280952Y-30938095D01*
X78376190Y-31033333D01*
X78376190Y-30842857D01*
X81900000Y-29795238D02*
X80757142Y-29795238D01*
X81328571Y-29795238D02*
X81328571Y-31795238D01*
X81138095Y-31509523D01*
X80947619Y-31319047D01*
X80757142Y-31223809D01*
X82757142Y-29985714D02*
X82852380Y-29890476D01*
X82757142Y-29795238D01*
X82661904Y-29890476D01*
X82757142Y-29985714D01*
X82757142Y-29795238D01*
X84090476Y-31795238D02*
X84280952Y-31795238D01*
X84471428Y-31700000D01*
X84566666Y-31604761D01*
X84661904Y-31414285D01*
X84757142Y-31033333D01*
X84757142Y-30557142D01*
X84661904Y-30176190D01*
X84566666Y-29985714D01*
X84471428Y-29890476D01*
X84280952Y-29795238D01*
X84090476Y-29795238D01*
X83900000Y-29890476D01*
X83804761Y-29985714D01*
X83709523Y-30176190D01*
X83614285Y-30557142D01*
X83614285Y-31033333D01*
X83709523Y-31414285D01*
X83804761Y-31604761D01*
X83900000Y-31700000D01*
X84090476Y-31795238D01*
D11*
%TO.C,C36*%
X210265000Y-138738748D02*
X210265000Y-139261252D01*
X211735000Y-138738748D02*
X211735000Y-139261252D01*
%TO.C,C35*%
X211735000Y-142961252D02*
X211735000Y-142438748D01*
X210265000Y-142961252D02*
X210265000Y-142438748D01*
%TO.C,C34*%
X207565000Y-152161252D02*
X207565000Y-151638748D01*
X209035000Y-152161252D02*
X209035000Y-151638748D01*
%TO.C,C33*%
X201765000Y-152161252D02*
X201765000Y-151638748D01*
X203235000Y-152161252D02*
X203235000Y-151638748D01*
%TO.C,R4*%
X70727064Y-106335000D02*
X70272936Y-106335000D01*
X70727064Y-104865000D02*
X70272936Y-104865000D01*
%TO.C,R73*%
X74827064Y-141935000D02*
X74372936Y-141935000D01*
X74827064Y-140465000D02*
X74372936Y-140465000D01*
%TO.C,R102*%
X176872936Y-156765000D02*
X177327064Y-156765000D01*
X176872936Y-158235000D02*
X177327064Y-158235000D01*
%TO.C,R101*%
X169839564Y-153535000D02*
X169385436Y-153535000D01*
X169839564Y-152065000D02*
X169385436Y-152065000D01*
%TO.C,R100*%
X158627064Y-153835000D02*
X158172936Y-153835000D01*
X158627064Y-152365000D02*
X158172936Y-152365000D01*
%TO.C,R98*%
X158727064Y-143435000D02*
X158272936Y-143435000D01*
X158727064Y-141965000D02*
X158272936Y-141965000D01*
%TO.C,R97*%
X154527064Y-138235000D02*
X154072936Y-138235000D01*
X154527064Y-136765000D02*
X154072936Y-136765000D01*
%TO.C,R96*%
X158727064Y-133235000D02*
X158272936Y-133235000D01*
X158727064Y-131765000D02*
X158272936Y-131765000D01*
%TO.C,R95*%
X154527064Y-128035000D02*
X154072936Y-128035000D01*
X154527064Y-126565000D02*
X154072936Y-126565000D01*
%TO.C,R94*%
X158527064Y-122835000D02*
X158072936Y-122835000D01*
X158527064Y-121365000D02*
X158072936Y-121365000D01*
%TO.C,R93*%
X154427064Y-117835000D02*
X153972936Y-117835000D01*
X154427064Y-116365000D02*
X153972936Y-116365000D01*
%TO.C,R92*%
X144460436Y-119165000D02*
X144914564Y-119165000D01*
X144460436Y-120635000D02*
X144914564Y-120635000D01*
%TO.C,R91*%
X133765000Y-137527064D02*
X133765000Y-137072936D01*
X135235000Y-137527064D02*
X135235000Y-137072936D01*
%TO.C,R90*%
X133965000Y-128227064D02*
X133965000Y-127772936D01*
X135435000Y-128227064D02*
X135435000Y-127772936D01*
%TO.C,R89*%
X138235000Y-141972936D02*
X138235000Y-142427064D01*
X136765000Y-141972936D02*
X136765000Y-142427064D01*
%TO.C,R88*%
X139165000Y-123927064D02*
X139165000Y-123472936D01*
X140635000Y-123927064D02*
X140635000Y-123472936D01*
%TO.C,R87*%
X123265000Y-137527064D02*
X123265000Y-137072936D01*
X124735000Y-137527064D02*
X124735000Y-137072936D01*
%TO.C,R86*%
X123265000Y-128127064D02*
X123265000Y-127672936D01*
X124735000Y-128127064D02*
X124735000Y-127672936D01*
%TO.C,R85*%
X127435000Y-142472936D02*
X127435000Y-142927064D01*
X125965000Y-142472936D02*
X125965000Y-142927064D01*
%TO.C,R84*%
X128465000Y-123927064D02*
X128465000Y-123472936D01*
X129935000Y-123927064D02*
X129935000Y-123472936D01*
%TO.C,R83*%
X106135000Y-142172936D02*
X106135000Y-142627064D01*
X104665000Y-142172936D02*
X104665000Y-142627064D01*
%TO.C,R82*%
X89127064Y-128435000D02*
X88672936Y-128435000D01*
X89127064Y-126965000D02*
X88672936Y-126965000D01*
%TO.C,R81*%
X112065000Y-137427064D02*
X112065000Y-136972936D01*
X113535000Y-137427064D02*
X113535000Y-136972936D01*
%TO.C,R80*%
X112465000Y-128027064D02*
X112465000Y-127572936D01*
X113935000Y-128027064D02*
X113935000Y-127572936D01*
%TO.C,R77*%
X106135000Y-145672936D02*
X106135000Y-146127064D01*
X104665000Y-145672936D02*
X104665000Y-146127064D01*
%TO.C,R76*%
X89735000Y-130472936D02*
X89735000Y-130927064D01*
X88265000Y-130472936D02*
X88265000Y-130927064D01*
%TO.C,R75*%
X92572936Y-139165000D02*
X93027064Y-139165000D01*
X92572936Y-140635000D02*
X93027064Y-140635000D01*
%TO.C,R74*%
X88372936Y-146165000D02*
X88827064Y-146165000D01*
X88372936Y-147635000D02*
X88827064Y-147635000D01*
%TO.C,R72*%
X77935000Y-131385436D02*
X77935000Y-131839564D01*
X76465000Y-131385436D02*
X76465000Y-131839564D01*
%TO.C,R71*%
X88627064Y-142235000D02*
X88172936Y-142235000D01*
X88627064Y-140765000D02*
X88172936Y-140765000D01*
%TO.C,R70*%
X81035000Y-138885436D02*
X81035000Y-139339564D01*
X79565000Y-138885436D02*
X79565000Y-139339564D01*
%TO.C,R69*%
X80765000Y-144927064D02*
X80765000Y-144472936D01*
X82235000Y-144927064D02*
X82235000Y-144472936D01*
%TO.C,R68*%
X71335000Y-144272936D02*
X71335000Y-144727064D01*
X69865000Y-144272936D02*
X69865000Y-144727064D01*
%TO.C,R67*%
X149127064Y-46335000D02*
X148672936Y-46335000D01*
X149127064Y-44865000D02*
X148672936Y-44865000D01*
%TO.C,R66*%
X156735000Y-65072936D02*
X156735000Y-65527064D01*
X155265000Y-65072936D02*
X155265000Y-65527064D01*
%TO.C,R65*%
X158965000Y-56127064D02*
X158965000Y-55672936D01*
X160435000Y-56127064D02*
X160435000Y-55672936D01*
%TO.C,R64*%
X154735000Y-60172936D02*
X154735000Y-60627064D01*
X153265000Y-60172936D02*
X153265000Y-60627064D01*
%TO.C,R63*%
X140835000Y-56572936D02*
X140835000Y-57027064D01*
X139365000Y-56572936D02*
X139365000Y-57027064D01*
%TO.C,R62*%
X143465000Y-54527064D02*
X143465000Y-54072936D01*
X144935000Y-54527064D02*
X144935000Y-54072936D01*
%TO.C,R61*%
X149139564Y-39035000D02*
X148685436Y-39035000D01*
X149139564Y-37565000D02*
X148685436Y-37565000D01*
%TO.C,R60*%
X143627064Y-57935000D02*
X143172936Y-57935000D01*
X143627064Y-56465000D02*
X143172936Y-56465000D01*
%TO.C,R59*%
X140835000Y-60872936D02*
X140835000Y-61327064D01*
X139365000Y-60872936D02*
X139365000Y-61327064D01*
%TO.C,R58*%
X135535000Y-158072936D02*
X135535000Y-158527064D01*
X134065000Y-158072936D02*
X134065000Y-158527064D01*
%TO.C,R57*%
X138435000Y-157572936D02*
X138435000Y-158027064D01*
X136965000Y-157572936D02*
X136965000Y-158027064D01*
%TO.C,R56*%
X125335000Y-158072936D02*
X125335000Y-158527064D01*
X123865000Y-158072936D02*
X123865000Y-158527064D01*
%TO.C,R55*%
X128335000Y-157672936D02*
X128335000Y-158127064D01*
X126865000Y-157672936D02*
X126865000Y-158127064D01*
%TO.C,R54*%
X115135000Y-158172936D02*
X115135000Y-158627064D01*
X113665000Y-158172936D02*
X113665000Y-158627064D01*
%TO.C,R53*%
X118135000Y-157672936D02*
X118135000Y-158127064D01*
X116665000Y-157672936D02*
X116665000Y-158127064D01*
%TO.C,R52*%
X104935000Y-158072936D02*
X104935000Y-158527064D01*
X103465000Y-158072936D02*
X103465000Y-158527064D01*
%TO.C,R51*%
X107935000Y-157672936D02*
X107935000Y-158127064D01*
X106465000Y-157672936D02*
X106465000Y-158127064D01*
%TO.C,R50*%
X94735000Y-158072936D02*
X94735000Y-158527064D01*
X93265000Y-158072936D02*
X93265000Y-158527064D01*
%TO.C,R49*%
X214235000Y-92572936D02*
X214235000Y-93027064D01*
X212765000Y-92572936D02*
X212765000Y-93027064D01*
%TO.C,R48*%
X211035000Y-76472936D02*
X211035000Y-76927064D01*
X209565000Y-76472936D02*
X209565000Y-76927064D01*
%TO.C,R47*%
X203535000Y-78272936D02*
X203535000Y-78727064D01*
X202065000Y-78272936D02*
X202065000Y-78727064D01*
%TO.C,R46*%
X216372936Y-72565000D02*
X216827064Y-72565000D01*
X216372936Y-74035000D02*
X216827064Y-74035000D01*
%TO.C,R45*%
X206665000Y-65327064D02*
X206665000Y-64872936D01*
X208135000Y-65327064D02*
X208135000Y-64872936D01*
%TO.C,R44*%
X216765000Y-86527064D02*
X216765000Y-86072936D01*
X218235000Y-86527064D02*
X218235000Y-86072936D01*
%TO.C,R43*%
X186735000Y-82472936D02*
X186735000Y-82927064D01*
X185265000Y-82472936D02*
X185265000Y-82927064D01*
%TO.C,R42*%
X188627064Y-96435000D02*
X188172936Y-96435000D01*
X188627064Y-94965000D02*
X188172936Y-94965000D01*
%TO.C,R41*%
X188527064Y-106535000D02*
X188072936Y-106535000D01*
X188527064Y-105065000D02*
X188072936Y-105065000D01*
%TO.C,R40*%
X180672936Y-100165000D02*
X181127064Y-100165000D01*
X180672936Y-101635000D02*
X181127064Y-101635000D01*
%TO.C,R39*%
X180672936Y-110365000D02*
X181127064Y-110365000D01*
X180672936Y-111835000D02*
X181127064Y-111835000D01*
%TO.C,R38*%
X210565000Y-154327064D02*
X210565000Y-153872936D01*
X212035000Y-154327064D02*
X212035000Y-153872936D01*
%TO.C,R37*%
X220335000Y-129572936D02*
X220335000Y-130027064D01*
X218865000Y-129572936D02*
X218865000Y-130027064D01*
%TO.C,R36*%
X187935000Y-150272936D02*
X187935000Y-150727064D01*
X186465000Y-150272936D02*
X186465000Y-150727064D01*
%TO.C,R35*%
X199835000Y-148472936D02*
X199835000Y-148927064D01*
X198365000Y-148472936D02*
X198365000Y-148927064D01*
%TO.C,R34*%
X187935000Y-138760436D02*
X187935000Y-139214564D01*
X186465000Y-138760436D02*
X186465000Y-139214564D01*
%TO.C,R33*%
X200039564Y-138835000D02*
X199585436Y-138835000D01*
X200039564Y-137365000D02*
X199585436Y-137365000D01*
%TO.C,R32*%
X187735000Y-127172936D02*
X187735000Y-127627064D01*
X186265000Y-127172936D02*
X186265000Y-127627064D01*
%TO.C,R30*%
X203435000Y-126972936D02*
X203435000Y-127427064D01*
X201965000Y-126972936D02*
X201965000Y-127427064D01*
%TO.C,R28*%
X142665000Y-99127064D02*
X142665000Y-98672936D01*
X144135000Y-99127064D02*
X144135000Y-98672936D01*
%TO.C,R27*%
X149265000Y-99127064D02*
X149265000Y-98672936D01*
X150735000Y-99127064D02*
X150735000Y-98672936D01*
%TO.C,R26*%
X132365000Y-98927064D02*
X132365000Y-98472936D01*
X133835000Y-98927064D02*
X133835000Y-98472936D01*
%TO.C,R25*%
X132465000Y-89727064D02*
X132465000Y-89272936D01*
X133935000Y-89727064D02*
X133935000Y-89272936D01*
%TO.C,R24*%
X136735000Y-103872936D02*
X136735000Y-104327064D01*
X135265000Y-103872936D02*
X135265000Y-104327064D01*
%TO.C,R23*%
X137665000Y-85627064D02*
X137665000Y-85172936D01*
X139135000Y-85627064D02*
X139135000Y-85172936D01*
%TO.C,R22*%
X122065000Y-98927064D02*
X122065000Y-98472936D01*
X123535000Y-98927064D02*
X123535000Y-98472936D01*
%TO.C,R21*%
X122065000Y-89927064D02*
X122065000Y-89472936D01*
X123535000Y-89927064D02*
X123535000Y-89472936D01*
%TO.C,R20*%
X126535000Y-103772936D02*
X126535000Y-104227064D01*
X125065000Y-103772936D02*
X125065000Y-104227064D01*
%TO.C,R19*%
X127365000Y-85727064D02*
X127365000Y-85272936D01*
X128835000Y-85727064D02*
X128835000Y-85272936D01*
%TO.C,R18*%
X106035000Y-102572936D02*
X106035000Y-103027064D01*
X104565000Y-102572936D02*
X104565000Y-103027064D01*
%TO.C,R17*%
X88964564Y-90060000D02*
X88510436Y-90060000D01*
X88964564Y-88590000D02*
X88510436Y-88590000D01*
%TO.C,R16*%
X111465000Y-98927064D02*
X111465000Y-98472936D01*
X112935000Y-98927064D02*
X112935000Y-98472936D01*
%TO.C,R15*%
X111365000Y-89827064D02*
X111365000Y-89372936D01*
X112835000Y-89827064D02*
X112835000Y-89372936D01*
%TO.C,R12*%
X106035000Y-106372936D02*
X106035000Y-106827064D01*
X104565000Y-106372936D02*
X104565000Y-106827064D01*
%TO.C,R11*%
X89585000Y-92197936D02*
X89585000Y-92652064D01*
X88115000Y-92197936D02*
X88115000Y-92652064D01*
%TO.C,R10*%
X92327064Y-102335000D02*
X91872936Y-102335000D01*
X92327064Y-100865000D02*
X91872936Y-100865000D01*
%TO.C,R9*%
X87985436Y-108165000D02*
X88439564Y-108165000D01*
X87985436Y-109635000D02*
X88439564Y-109635000D01*
%TO.C,R8*%
X74677064Y-103535000D02*
X74222936Y-103535000D01*
X74677064Y-102065000D02*
X74222936Y-102065000D01*
%TO.C,R7*%
X77310000Y-92885436D02*
X77310000Y-93339564D01*
X75840000Y-92885436D02*
X75840000Y-93339564D01*
%TO.C,R6*%
X88702064Y-103810000D02*
X88247936Y-103810000D01*
X88702064Y-102340000D02*
X88247936Y-102340000D01*
%TO.C,R5*%
X80810000Y-99547936D02*
X80810000Y-100002064D01*
X79340000Y-99547936D02*
X79340000Y-100002064D01*
%TO.C,R3*%
X80490000Y-105877064D02*
X80490000Y-105422936D01*
X81960000Y-105877064D02*
X81960000Y-105422936D01*
%TO.C,R2*%
X190427064Y-82935000D02*
X189972936Y-82935000D01*
X190427064Y-81465000D02*
X189972936Y-81465000D01*
%TO.C,R1*%
X174527064Y-96635000D02*
X174072936Y-96635000D01*
X174527064Y-95165000D02*
X174072936Y-95165000D01*
%TO.C,Q8*%
X94630000Y-130320000D02*
X93530000Y-130320000D01*
X94630000Y-130050000D02*
X94630000Y-130320000D01*
X96130000Y-130050000D02*
X94630000Y-130050000D01*
X94630000Y-136680000D02*
X91800000Y-136680000D01*
X94630000Y-136950000D02*
X94630000Y-136680000D01*
X96130000Y-136950000D02*
X94630000Y-136950000D01*
%TO.C,Q7*%
X94530000Y-122420000D02*
X93430000Y-122420000D01*
X94530000Y-122150000D02*
X94530000Y-122420000D01*
X96030000Y-122150000D02*
X94530000Y-122150000D01*
X94530000Y-128780000D02*
X91700000Y-128780000D01*
X94530000Y-129050000D02*
X94530000Y-128780000D01*
X96030000Y-129050000D02*
X94530000Y-129050000D01*
%TO.C,Q6*%
X91740000Y-145480000D02*
X93200000Y-145480000D01*
X91740000Y-142320000D02*
X93900000Y-142320000D01*
X91740000Y-142320000D02*
X91740000Y-143250000D01*
X91740000Y-145480000D02*
X91740000Y-144550000D01*
%TO.C,Q5*%
X75520000Y-134540000D02*
X75520000Y-136000000D01*
X78680000Y-134540000D02*
X78680000Y-136700000D01*
X78680000Y-134540000D02*
X77750000Y-134540000D01*
X75520000Y-134540000D02*
X76450000Y-134540000D01*
%TO.C,Q4*%
X94430000Y-91520000D02*
X93330000Y-91520000D01*
X94430000Y-91250000D02*
X94430000Y-91520000D01*
X95930000Y-91250000D02*
X94430000Y-91250000D01*
X94430000Y-97880000D02*
X91600000Y-97880000D01*
X94430000Y-98150000D02*
X94430000Y-97880000D01*
X95930000Y-98150000D02*
X94430000Y-98150000D01*
%TO.C,Q3*%
X94505000Y-83545000D02*
X93405000Y-83545000D01*
X94505000Y-83275000D02*
X94505000Y-83545000D01*
X96005000Y-83275000D02*
X94505000Y-83275000D01*
X94505000Y-89905000D02*
X91675000Y-89905000D01*
X94505000Y-90175000D02*
X94505000Y-89905000D01*
X96005000Y-90175000D02*
X94505000Y-90175000D01*
%TO.C,Q2*%
X91765000Y-106230000D02*
X93225000Y-106230000D01*
X91765000Y-103070000D02*
X93925000Y-103070000D01*
X91765000Y-103070000D02*
X91765000Y-104000000D01*
X91765000Y-106230000D02*
X91765000Y-105300000D01*
%TO.C,Q1*%
X74995000Y-96290000D02*
X74995000Y-97750000D01*
X78155000Y-96290000D02*
X78155000Y-98450000D01*
X78155000Y-96290000D02*
X77225000Y-96290000D01*
X74995000Y-96290000D02*
X75925000Y-96290000D01*
%TO.C,IC5*%
X99700000Y-146560000D02*
X96250000Y-146560000D01*
X99700000Y-146560000D02*
X101650000Y-146560000D01*
X99700000Y-141440000D02*
X97750000Y-141440000D01*
X99700000Y-141440000D02*
X101650000Y-141440000D01*
%TO.C,IC4*%
X82900000Y-132960000D02*
X79450000Y-132960000D01*
X82900000Y-132960000D02*
X84850000Y-132960000D01*
X82900000Y-127840000D02*
X80950000Y-127840000D01*
X82900000Y-127840000D02*
X84850000Y-127840000D01*
%TO.C,IC3*%
X148900000Y-60960000D02*
X145450000Y-60960000D01*
X148900000Y-60960000D02*
X150850000Y-60960000D01*
X148900000Y-55840000D02*
X146950000Y-55840000D01*
X148900000Y-55840000D02*
X150850000Y-55840000D01*
%TO.C,IC2*%
X99250000Y-107860000D02*
X95800000Y-107860000D01*
X99250000Y-107860000D02*
X101200000Y-107860000D01*
X99250000Y-102740000D02*
X97300000Y-102740000D01*
X99250000Y-102740000D02*
X101200000Y-102740000D01*
%TO.C,IC1*%
X82620000Y-94085000D02*
X79170000Y-94085000D01*
X82620000Y-94085000D02*
X84570000Y-94085000D01*
X82620000Y-88965000D02*
X80670000Y-88965000D01*
X82620000Y-88965000D02*
X84570000Y-88965000D01*
%TO.C,C32*%
X178935000Y-160138748D02*
X178935000Y-160661252D01*
X177465000Y-160138748D02*
X177465000Y-160661252D01*
%TO.C,C31*%
X171435000Y-156638748D02*
X171435000Y-157161252D01*
X169965000Y-156638748D02*
X169965000Y-157161252D01*
%TO.C,C30*%
X169438748Y-159765000D02*
X169961252Y-159765000D01*
X169438748Y-161235000D02*
X169961252Y-161235000D01*
%TO.C,C29*%
X80935000Y-135038748D02*
X80935000Y-135561252D01*
X79465000Y-135038748D02*
X79465000Y-135561252D01*
%TO.C,C28*%
X76465000Y-127361252D02*
X76465000Y-126838748D01*
X77935000Y-127361252D02*
X77935000Y-126838748D01*
%TO.C,C27*%
X82661252Y-142535000D02*
X82138748Y-142535000D01*
X82661252Y-141065000D02*
X82138748Y-141065000D01*
%TO.C,C26*%
X78638748Y-148565000D02*
X79161252Y-148565000D01*
X78638748Y-150035000D02*
X79161252Y-150035000D01*
%TO.C,C25*%
X156935000Y-60138748D02*
X156935000Y-60661252D01*
X155465000Y-60138748D02*
X155465000Y-60661252D01*
%TO.C,C24*%
X143561252Y-62135000D02*
X143038748Y-62135000D01*
X143561252Y-60665000D02*
X143038748Y-60665000D01*
%TO.C,C23*%
X211061252Y-101335000D02*
X210538748Y-101335000D01*
X211061252Y-99865000D02*
X210538748Y-99865000D01*
%TO.C,C22*%
X215635000Y-86438748D02*
X215635000Y-86961252D01*
X214165000Y-86438748D02*
X214165000Y-86961252D01*
%TO.C,C21*%
X203535000Y-89738748D02*
X203535000Y-90261252D01*
X202065000Y-89738748D02*
X202065000Y-90261252D01*
%TO.C,C20*%
X182465000Y-83011252D02*
X182465000Y-82488748D01*
X183935000Y-83011252D02*
X183935000Y-82488748D01*
%TO.C,C19*%
X181465000Y-89261252D02*
X181465000Y-88738748D01*
X182935000Y-89261252D02*
X182935000Y-88738748D01*
%TO.C,C18*%
X179965000Y-83011252D02*
X179965000Y-82488748D01*
X181435000Y-83011252D02*
X181435000Y-82488748D01*
%TO.C,C17*%
X192538748Y-86965000D02*
X193061252Y-86965000D01*
X192538748Y-88435000D02*
X193061252Y-88435000D01*
%TO.C,C9*%
X212038748Y-156765000D02*
X212561252Y-156765000D01*
X212038748Y-158235000D02*
X212561252Y-158235000D01*
%TO.C,C8*%
X209035000Y-138738748D02*
X209035000Y-139261252D01*
X207565000Y-138738748D02*
X207565000Y-139261252D01*
%TO.C,C7*%
X207565000Y-142961252D02*
X207565000Y-142438748D01*
X209035000Y-142961252D02*
X209035000Y-142438748D01*
%TO.C,C6*%
X218761252Y-156335000D02*
X218238748Y-156335000D01*
X218761252Y-154865000D02*
X218238748Y-154865000D01*
%TO.C,C5*%
X218761252Y-152835000D02*
X218238748Y-152835000D01*
X218761252Y-151365000D02*
X218238748Y-151365000D01*
%TO.C,C4*%
X80435000Y-95938748D02*
X80435000Y-96461252D01*
X78965000Y-95938748D02*
X78965000Y-96461252D01*
%TO.C,C3*%
X75865000Y-89361252D02*
X75865000Y-88838748D01*
X77335000Y-89361252D02*
X77335000Y-88838748D01*
%TO.C,C2*%
X82281252Y-103475000D02*
X81758748Y-103475000D01*
X82281252Y-102005000D02*
X81758748Y-102005000D01*
%TO.C,C1*%
X78335000Y-111338748D02*
X78335000Y-111861252D01*
X76865000Y-111338748D02*
X76865000Y-111861252D01*
%TO.C,C36*%
D12*
X211357142Y-135157142D02*
X211404761Y-135109523D01*
X211452380Y-134966666D01*
X211452380Y-134871428D01*
X211404761Y-134728571D01*
X211309523Y-134633333D01*
X211214285Y-134585714D01*
X211023809Y-134538095D01*
X210880952Y-134538095D01*
X210690476Y-134585714D01*
X210595238Y-134633333D01*
X210500000Y-134728571D01*
X210452380Y-134871428D01*
X210452380Y-134966666D01*
X210500000Y-135109523D01*
X210547619Y-135157142D01*
X210452380Y-135490476D02*
X210452380Y-136109523D01*
X210833333Y-135776190D01*
X210833333Y-135919047D01*
X210880952Y-136014285D01*
X210928571Y-136061904D01*
X211023809Y-136109523D01*
X211261904Y-136109523D01*
X211357142Y-136061904D01*
X211404761Y-136014285D01*
X211452380Y-135919047D01*
X211452380Y-135633333D01*
X211404761Y-135538095D01*
X211357142Y-135490476D01*
X210452380Y-136966666D02*
X210452380Y-136776190D01*
X210500000Y-136680952D01*
X210547619Y-136633333D01*
X210690476Y-136538095D01*
X210880952Y-136490476D01*
X211261904Y-136490476D01*
X211357142Y-136538095D01*
X211404761Y-136585714D01*
X211452380Y-136680952D01*
X211452380Y-136871428D01*
X211404761Y-136966666D01*
X211357142Y-137014285D01*
X211261904Y-137061904D01*
X211023809Y-137061904D01*
X210928571Y-137014285D01*
X210880952Y-136966666D01*
X210833333Y-136871428D01*
X210833333Y-136680952D01*
X210880952Y-136585714D01*
X210928571Y-136538095D01*
X211023809Y-136490476D01*
%TO.C,C35*%
X211357142Y-145257142D02*
X211404761Y-145209523D01*
X211452380Y-145066666D01*
X211452380Y-144971428D01*
X211404761Y-144828571D01*
X211309523Y-144733333D01*
X211214285Y-144685714D01*
X211023809Y-144638095D01*
X210880952Y-144638095D01*
X210690476Y-144685714D01*
X210595238Y-144733333D01*
X210500000Y-144828571D01*
X210452380Y-144971428D01*
X210452380Y-145066666D01*
X210500000Y-145209523D01*
X210547619Y-145257142D01*
X210452380Y-145590476D02*
X210452380Y-146209523D01*
X210833333Y-145876190D01*
X210833333Y-146019047D01*
X210880952Y-146114285D01*
X210928571Y-146161904D01*
X211023809Y-146209523D01*
X211261904Y-146209523D01*
X211357142Y-146161904D01*
X211404761Y-146114285D01*
X211452380Y-146019047D01*
X211452380Y-145733333D01*
X211404761Y-145638095D01*
X211357142Y-145590476D01*
X210452380Y-147114285D02*
X210452380Y-146638095D01*
X210928571Y-146590476D01*
X210880952Y-146638095D01*
X210833333Y-146733333D01*
X210833333Y-146971428D01*
X210880952Y-147066666D01*
X210928571Y-147114285D01*
X211023809Y-147161904D01*
X211261904Y-147161904D01*
X211357142Y-147114285D01*
X211404761Y-147066666D01*
X211452380Y-146971428D01*
X211452380Y-146733333D01*
X211404761Y-146638095D01*
X211357142Y-146590476D01*
%TO.C,C34*%
X208757142Y-148157142D02*
X208804761Y-148109523D01*
X208852380Y-147966666D01*
X208852380Y-147871428D01*
X208804761Y-147728571D01*
X208709523Y-147633333D01*
X208614285Y-147585714D01*
X208423809Y-147538095D01*
X208280952Y-147538095D01*
X208090476Y-147585714D01*
X207995238Y-147633333D01*
X207900000Y-147728571D01*
X207852380Y-147871428D01*
X207852380Y-147966666D01*
X207900000Y-148109523D01*
X207947619Y-148157142D01*
X207852380Y-148490476D02*
X207852380Y-149109523D01*
X208233333Y-148776190D01*
X208233333Y-148919047D01*
X208280952Y-149014285D01*
X208328571Y-149061904D01*
X208423809Y-149109523D01*
X208661904Y-149109523D01*
X208757142Y-149061904D01*
X208804761Y-149014285D01*
X208852380Y-148919047D01*
X208852380Y-148633333D01*
X208804761Y-148538095D01*
X208757142Y-148490476D01*
X208185714Y-149966666D02*
X208852380Y-149966666D01*
X207804761Y-149728571D02*
X208519047Y-149490476D01*
X208519047Y-150109523D01*
%TO.C,C33*%
X202857142Y-148057142D02*
X202904761Y-148009523D01*
X202952380Y-147866666D01*
X202952380Y-147771428D01*
X202904761Y-147628571D01*
X202809523Y-147533333D01*
X202714285Y-147485714D01*
X202523809Y-147438095D01*
X202380952Y-147438095D01*
X202190476Y-147485714D01*
X202095238Y-147533333D01*
X202000000Y-147628571D01*
X201952380Y-147771428D01*
X201952380Y-147866666D01*
X202000000Y-148009523D01*
X202047619Y-148057142D01*
X201952380Y-148390476D02*
X201952380Y-149009523D01*
X202333333Y-148676190D01*
X202333333Y-148819047D01*
X202380952Y-148914285D01*
X202428571Y-148961904D01*
X202523809Y-149009523D01*
X202761904Y-149009523D01*
X202857142Y-148961904D01*
X202904761Y-148914285D01*
X202952380Y-148819047D01*
X202952380Y-148533333D01*
X202904761Y-148438095D01*
X202857142Y-148390476D01*
X201952380Y-149342857D02*
X201952380Y-149961904D01*
X202333333Y-149628571D01*
X202333333Y-149771428D01*
X202380952Y-149866666D01*
X202428571Y-149914285D01*
X202523809Y-149961904D01*
X202761904Y-149961904D01*
X202857142Y-149914285D01*
X202904761Y-149866666D01*
X202952380Y-149771428D01*
X202952380Y-149485714D01*
X202904761Y-149390476D01*
X202857142Y-149342857D01*
%TO.C,R4*%
X70666666Y-104402380D02*
X71000000Y-103926190D01*
X71238095Y-104402380D02*
X71238095Y-103402380D01*
X70857142Y-103402380D01*
X70761904Y-103450000D01*
X70714285Y-103497619D01*
X70666666Y-103592857D01*
X70666666Y-103735714D01*
X70714285Y-103830952D01*
X70761904Y-103878571D01*
X70857142Y-103926190D01*
X71238095Y-103926190D01*
X69809523Y-103735714D02*
X69809523Y-104402380D01*
X70047619Y-103354761D02*
X70285714Y-104069047D01*
X69666666Y-104069047D01*
%TO.C,R73*%
X72142857Y-141252380D02*
X72476190Y-140776190D01*
X72714285Y-141252380D02*
X72714285Y-140252380D01*
X72333333Y-140252380D01*
X72238095Y-140300000D01*
X72190476Y-140347619D01*
X72142857Y-140442857D01*
X72142857Y-140585714D01*
X72190476Y-140680952D01*
X72238095Y-140728571D01*
X72333333Y-140776190D01*
X72714285Y-140776190D01*
X71809523Y-140252380D02*
X71142857Y-140252380D01*
X71571428Y-141252380D01*
X70857142Y-140252380D02*
X70238095Y-140252380D01*
X70571428Y-140633333D01*
X70428571Y-140633333D01*
X70333333Y-140680952D01*
X70285714Y-140728571D01*
X70238095Y-140823809D01*
X70238095Y-141061904D01*
X70285714Y-141157142D01*
X70333333Y-141204761D01*
X70428571Y-141252380D01*
X70714285Y-141252380D01*
X70809523Y-141204761D01*
X70857142Y-141157142D01*
%TO.C,R102*%
X178219047Y-156252380D02*
X178552380Y-155776190D01*
X178790476Y-156252380D02*
X178790476Y-155252380D01*
X178409523Y-155252380D01*
X178314285Y-155300000D01*
X178266666Y-155347619D01*
X178219047Y-155442857D01*
X178219047Y-155585714D01*
X178266666Y-155680952D01*
X178314285Y-155728571D01*
X178409523Y-155776190D01*
X178790476Y-155776190D01*
X177266666Y-156252380D02*
X177838095Y-156252380D01*
X177552380Y-156252380D02*
X177552380Y-155252380D01*
X177647619Y-155395238D01*
X177742857Y-155490476D01*
X177838095Y-155538095D01*
X176647619Y-155252380D02*
X176552380Y-155252380D01*
X176457142Y-155300000D01*
X176409523Y-155347619D01*
X176361904Y-155442857D01*
X176314285Y-155633333D01*
X176314285Y-155871428D01*
X176361904Y-156061904D01*
X176409523Y-156157142D01*
X176457142Y-156204761D01*
X176552380Y-156252380D01*
X176647619Y-156252380D01*
X176742857Y-156204761D01*
X176790476Y-156157142D01*
X176838095Y-156061904D01*
X176885714Y-155871428D01*
X176885714Y-155633333D01*
X176838095Y-155442857D01*
X176790476Y-155347619D01*
X176742857Y-155300000D01*
X176647619Y-155252380D01*
X175933333Y-155347619D02*
X175885714Y-155300000D01*
X175790476Y-155252380D01*
X175552380Y-155252380D01*
X175457142Y-155300000D01*
X175409523Y-155347619D01*
X175361904Y-155442857D01*
X175361904Y-155538095D01*
X175409523Y-155680952D01*
X175980952Y-156252380D01*
X175361904Y-156252380D01*
%TO.C,R101*%
X170731547Y-151602380D02*
X171064880Y-151126190D01*
X171302976Y-151602380D02*
X171302976Y-150602380D01*
X170922023Y-150602380D01*
X170826785Y-150650000D01*
X170779166Y-150697619D01*
X170731547Y-150792857D01*
X170731547Y-150935714D01*
X170779166Y-151030952D01*
X170826785Y-151078571D01*
X170922023Y-151126190D01*
X171302976Y-151126190D01*
X169779166Y-151602380D02*
X170350595Y-151602380D01*
X170064880Y-151602380D02*
X170064880Y-150602380D01*
X170160119Y-150745238D01*
X170255357Y-150840476D01*
X170350595Y-150888095D01*
X169160119Y-150602380D02*
X169064880Y-150602380D01*
X168969642Y-150650000D01*
X168922023Y-150697619D01*
X168874404Y-150792857D01*
X168826785Y-150983333D01*
X168826785Y-151221428D01*
X168874404Y-151411904D01*
X168922023Y-151507142D01*
X168969642Y-151554761D01*
X169064880Y-151602380D01*
X169160119Y-151602380D01*
X169255357Y-151554761D01*
X169302976Y-151507142D01*
X169350595Y-151411904D01*
X169398214Y-151221428D01*
X169398214Y-150983333D01*
X169350595Y-150792857D01*
X169302976Y-150697619D01*
X169255357Y-150650000D01*
X169160119Y-150602380D01*
X167874404Y-151602380D02*
X168445833Y-151602380D01*
X168160119Y-151602380D02*
X168160119Y-150602380D01*
X168255357Y-150745238D01*
X168350595Y-150840476D01*
X168445833Y-150888095D01*
%TO.C,R100*%
X159519047Y-151902380D02*
X159852380Y-151426190D01*
X160090476Y-151902380D02*
X160090476Y-150902380D01*
X159709523Y-150902380D01*
X159614285Y-150950000D01*
X159566666Y-150997619D01*
X159519047Y-151092857D01*
X159519047Y-151235714D01*
X159566666Y-151330952D01*
X159614285Y-151378571D01*
X159709523Y-151426190D01*
X160090476Y-151426190D01*
X158566666Y-151902380D02*
X159138095Y-151902380D01*
X158852380Y-151902380D02*
X158852380Y-150902380D01*
X158947619Y-151045238D01*
X159042857Y-151140476D01*
X159138095Y-151188095D01*
X157947619Y-150902380D02*
X157852380Y-150902380D01*
X157757142Y-150950000D01*
X157709523Y-150997619D01*
X157661904Y-151092857D01*
X157614285Y-151283333D01*
X157614285Y-151521428D01*
X157661904Y-151711904D01*
X157709523Y-151807142D01*
X157757142Y-151854761D01*
X157852380Y-151902380D01*
X157947619Y-151902380D01*
X158042857Y-151854761D01*
X158090476Y-151807142D01*
X158138095Y-151711904D01*
X158185714Y-151521428D01*
X158185714Y-151283333D01*
X158138095Y-151092857D01*
X158090476Y-150997619D01*
X158042857Y-150950000D01*
X157947619Y-150902380D01*
X156995238Y-150902380D02*
X156900000Y-150902380D01*
X156804761Y-150950000D01*
X156757142Y-150997619D01*
X156709523Y-151092857D01*
X156661904Y-151283333D01*
X156661904Y-151521428D01*
X156709523Y-151711904D01*
X156757142Y-151807142D01*
X156804761Y-151854761D01*
X156900000Y-151902380D01*
X156995238Y-151902380D01*
X157090476Y-151854761D01*
X157138095Y-151807142D01*
X157185714Y-151711904D01*
X157233333Y-151521428D01*
X157233333Y-151283333D01*
X157185714Y-151092857D01*
X157138095Y-150997619D01*
X157090476Y-150950000D01*
X156995238Y-150902380D01*
%TO.C,R98*%
X159142857Y-141502380D02*
X159476190Y-141026190D01*
X159714285Y-141502380D02*
X159714285Y-140502380D01*
X159333333Y-140502380D01*
X159238095Y-140550000D01*
X159190476Y-140597619D01*
X159142857Y-140692857D01*
X159142857Y-140835714D01*
X159190476Y-140930952D01*
X159238095Y-140978571D01*
X159333333Y-141026190D01*
X159714285Y-141026190D01*
X158666666Y-141502380D02*
X158476190Y-141502380D01*
X158380952Y-141454761D01*
X158333333Y-141407142D01*
X158238095Y-141264285D01*
X158190476Y-141073809D01*
X158190476Y-140692857D01*
X158238095Y-140597619D01*
X158285714Y-140550000D01*
X158380952Y-140502380D01*
X158571428Y-140502380D01*
X158666666Y-140550000D01*
X158714285Y-140597619D01*
X158761904Y-140692857D01*
X158761904Y-140930952D01*
X158714285Y-141026190D01*
X158666666Y-141073809D01*
X158571428Y-141121428D01*
X158380952Y-141121428D01*
X158285714Y-141073809D01*
X158238095Y-141026190D01*
X158190476Y-140930952D01*
X157619047Y-140930952D02*
X157714285Y-140883333D01*
X157761904Y-140835714D01*
X157809523Y-140740476D01*
X157809523Y-140692857D01*
X157761904Y-140597619D01*
X157714285Y-140550000D01*
X157619047Y-140502380D01*
X157428571Y-140502380D01*
X157333333Y-140550000D01*
X157285714Y-140597619D01*
X157238095Y-140692857D01*
X157238095Y-140740476D01*
X157285714Y-140835714D01*
X157333333Y-140883333D01*
X157428571Y-140930952D01*
X157619047Y-140930952D01*
X157714285Y-140978571D01*
X157761904Y-141026190D01*
X157809523Y-141121428D01*
X157809523Y-141311904D01*
X157761904Y-141407142D01*
X157714285Y-141454761D01*
X157619047Y-141502380D01*
X157428571Y-141502380D01*
X157333333Y-141454761D01*
X157285714Y-141407142D01*
X157238095Y-141311904D01*
X157238095Y-141121428D01*
X157285714Y-141026190D01*
X157333333Y-140978571D01*
X157428571Y-140930952D01*
%TO.C,R97*%
X154942857Y-136302380D02*
X155276190Y-135826190D01*
X155514285Y-136302380D02*
X155514285Y-135302380D01*
X155133333Y-135302380D01*
X155038095Y-135350000D01*
X154990476Y-135397619D01*
X154942857Y-135492857D01*
X154942857Y-135635714D01*
X154990476Y-135730952D01*
X155038095Y-135778571D01*
X155133333Y-135826190D01*
X155514285Y-135826190D01*
X154466666Y-136302380D02*
X154276190Y-136302380D01*
X154180952Y-136254761D01*
X154133333Y-136207142D01*
X154038095Y-136064285D01*
X153990476Y-135873809D01*
X153990476Y-135492857D01*
X154038095Y-135397619D01*
X154085714Y-135350000D01*
X154180952Y-135302380D01*
X154371428Y-135302380D01*
X154466666Y-135350000D01*
X154514285Y-135397619D01*
X154561904Y-135492857D01*
X154561904Y-135730952D01*
X154514285Y-135826190D01*
X154466666Y-135873809D01*
X154371428Y-135921428D01*
X154180952Y-135921428D01*
X154085714Y-135873809D01*
X154038095Y-135826190D01*
X153990476Y-135730952D01*
X153657142Y-135302380D02*
X152990476Y-135302380D01*
X153419047Y-136302380D01*
%TO.C,R96*%
X159142857Y-131302380D02*
X159476190Y-130826190D01*
X159714285Y-131302380D02*
X159714285Y-130302380D01*
X159333333Y-130302380D01*
X159238095Y-130350000D01*
X159190476Y-130397619D01*
X159142857Y-130492857D01*
X159142857Y-130635714D01*
X159190476Y-130730952D01*
X159238095Y-130778571D01*
X159333333Y-130826190D01*
X159714285Y-130826190D01*
X158666666Y-131302380D02*
X158476190Y-131302380D01*
X158380952Y-131254761D01*
X158333333Y-131207142D01*
X158238095Y-131064285D01*
X158190476Y-130873809D01*
X158190476Y-130492857D01*
X158238095Y-130397619D01*
X158285714Y-130350000D01*
X158380952Y-130302380D01*
X158571428Y-130302380D01*
X158666666Y-130350000D01*
X158714285Y-130397619D01*
X158761904Y-130492857D01*
X158761904Y-130730952D01*
X158714285Y-130826190D01*
X158666666Y-130873809D01*
X158571428Y-130921428D01*
X158380952Y-130921428D01*
X158285714Y-130873809D01*
X158238095Y-130826190D01*
X158190476Y-130730952D01*
X157333333Y-130302380D02*
X157523809Y-130302380D01*
X157619047Y-130350000D01*
X157666666Y-130397619D01*
X157761904Y-130540476D01*
X157809523Y-130730952D01*
X157809523Y-131111904D01*
X157761904Y-131207142D01*
X157714285Y-131254761D01*
X157619047Y-131302380D01*
X157428571Y-131302380D01*
X157333333Y-131254761D01*
X157285714Y-131207142D01*
X157238095Y-131111904D01*
X157238095Y-130873809D01*
X157285714Y-130778571D01*
X157333333Y-130730952D01*
X157428571Y-130683333D01*
X157619047Y-130683333D01*
X157714285Y-130730952D01*
X157761904Y-130778571D01*
X157809523Y-130873809D01*
%TO.C,R95*%
X154942857Y-126102380D02*
X155276190Y-125626190D01*
X155514285Y-126102380D02*
X155514285Y-125102380D01*
X155133333Y-125102380D01*
X155038095Y-125150000D01*
X154990476Y-125197619D01*
X154942857Y-125292857D01*
X154942857Y-125435714D01*
X154990476Y-125530952D01*
X155038095Y-125578571D01*
X155133333Y-125626190D01*
X155514285Y-125626190D01*
X154466666Y-126102380D02*
X154276190Y-126102380D01*
X154180952Y-126054761D01*
X154133333Y-126007142D01*
X154038095Y-125864285D01*
X153990476Y-125673809D01*
X153990476Y-125292857D01*
X154038095Y-125197619D01*
X154085714Y-125150000D01*
X154180952Y-125102380D01*
X154371428Y-125102380D01*
X154466666Y-125150000D01*
X154514285Y-125197619D01*
X154561904Y-125292857D01*
X154561904Y-125530952D01*
X154514285Y-125626190D01*
X154466666Y-125673809D01*
X154371428Y-125721428D01*
X154180952Y-125721428D01*
X154085714Y-125673809D01*
X154038095Y-125626190D01*
X153990476Y-125530952D01*
X153085714Y-125102380D02*
X153561904Y-125102380D01*
X153609523Y-125578571D01*
X153561904Y-125530952D01*
X153466666Y-125483333D01*
X153228571Y-125483333D01*
X153133333Y-125530952D01*
X153085714Y-125578571D01*
X153038095Y-125673809D01*
X153038095Y-125911904D01*
X153085714Y-126007142D01*
X153133333Y-126054761D01*
X153228571Y-126102380D01*
X153466666Y-126102380D01*
X153561904Y-126054761D01*
X153609523Y-126007142D01*
%TO.C,R94*%
X158942857Y-120902380D02*
X159276190Y-120426190D01*
X159514285Y-120902380D02*
X159514285Y-119902380D01*
X159133333Y-119902380D01*
X159038095Y-119950000D01*
X158990476Y-119997619D01*
X158942857Y-120092857D01*
X158942857Y-120235714D01*
X158990476Y-120330952D01*
X159038095Y-120378571D01*
X159133333Y-120426190D01*
X159514285Y-120426190D01*
X158466666Y-120902380D02*
X158276190Y-120902380D01*
X158180952Y-120854761D01*
X158133333Y-120807142D01*
X158038095Y-120664285D01*
X157990476Y-120473809D01*
X157990476Y-120092857D01*
X158038095Y-119997619D01*
X158085714Y-119950000D01*
X158180952Y-119902380D01*
X158371428Y-119902380D01*
X158466666Y-119950000D01*
X158514285Y-119997619D01*
X158561904Y-120092857D01*
X158561904Y-120330952D01*
X158514285Y-120426190D01*
X158466666Y-120473809D01*
X158371428Y-120521428D01*
X158180952Y-120521428D01*
X158085714Y-120473809D01*
X158038095Y-120426190D01*
X157990476Y-120330952D01*
X157133333Y-120235714D02*
X157133333Y-120902380D01*
X157371428Y-119854761D02*
X157609523Y-120569047D01*
X156990476Y-120569047D01*
%TO.C,R93*%
X154842857Y-115902380D02*
X155176190Y-115426190D01*
X155414285Y-115902380D02*
X155414285Y-114902380D01*
X155033333Y-114902380D01*
X154938095Y-114950000D01*
X154890476Y-114997619D01*
X154842857Y-115092857D01*
X154842857Y-115235714D01*
X154890476Y-115330952D01*
X154938095Y-115378571D01*
X155033333Y-115426190D01*
X155414285Y-115426190D01*
X154366666Y-115902380D02*
X154176190Y-115902380D01*
X154080952Y-115854761D01*
X154033333Y-115807142D01*
X153938095Y-115664285D01*
X153890476Y-115473809D01*
X153890476Y-115092857D01*
X153938095Y-114997619D01*
X153985714Y-114950000D01*
X154080952Y-114902380D01*
X154271428Y-114902380D01*
X154366666Y-114950000D01*
X154414285Y-114997619D01*
X154461904Y-115092857D01*
X154461904Y-115330952D01*
X154414285Y-115426190D01*
X154366666Y-115473809D01*
X154271428Y-115521428D01*
X154080952Y-115521428D01*
X153985714Y-115473809D01*
X153938095Y-115426190D01*
X153890476Y-115330952D01*
X153557142Y-114902380D02*
X152938095Y-114902380D01*
X153271428Y-115283333D01*
X153128571Y-115283333D01*
X153033333Y-115330952D01*
X152985714Y-115378571D01*
X152938095Y-115473809D01*
X152938095Y-115711904D01*
X152985714Y-115807142D01*
X153033333Y-115854761D01*
X153128571Y-115902380D01*
X153414285Y-115902380D01*
X153509523Y-115854761D01*
X153557142Y-115807142D01*
%TO.C,R92*%
X145330357Y-122002380D02*
X145663690Y-121526190D01*
X145901785Y-122002380D02*
X145901785Y-121002380D01*
X145520833Y-121002380D01*
X145425595Y-121050000D01*
X145377976Y-121097619D01*
X145330357Y-121192857D01*
X145330357Y-121335714D01*
X145377976Y-121430952D01*
X145425595Y-121478571D01*
X145520833Y-121526190D01*
X145901785Y-121526190D01*
X144854166Y-122002380D02*
X144663690Y-122002380D01*
X144568452Y-121954761D01*
X144520833Y-121907142D01*
X144425595Y-121764285D01*
X144377976Y-121573809D01*
X144377976Y-121192857D01*
X144425595Y-121097619D01*
X144473214Y-121050000D01*
X144568452Y-121002380D01*
X144758928Y-121002380D01*
X144854166Y-121050000D01*
X144901785Y-121097619D01*
X144949404Y-121192857D01*
X144949404Y-121430952D01*
X144901785Y-121526190D01*
X144854166Y-121573809D01*
X144758928Y-121621428D01*
X144568452Y-121621428D01*
X144473214Y-121573809D01*
X144425595Y-121526190D01*
X144377976Y-121430952D01*
X143997023Y-121097619D02*
X143949404Y-121050000D01*
X143854166Y-121002380D01*
X143616071Y-121002380D01*
X143520833Y-121050000D01*
X143473214Y-121097619D01*
X143425595Y-121192857D01*
X143425595Y-121288095D01*
X143473214Y-121430952D01*
X144044642Y-122002380D01*
X143425595Y-122002380D01*
%TO.C,R91*%
X136602380Y-136657142D02*
X136126190Y-136323809D01*
X136602380Y-136085714D02*
X135602380Y-136085714D01*
X135602380Y-136466666D01*
X135650000Y-136561904D01*
X135697619Y-136609523D01*
X135792857Y-136657142D01*
X135935714Y-136657142D01*
X136030952Y-136609523D01*
X136078571Y-136561904D01*
X136126190Y-136466666D01*
X136126190Y-136085714D01*
X136602380Y-137133333D02*
X136602380Y-137323809D01*
X136554761Y-137419047D01*
X136507142Y-137466666D01*
X136364285Y-137561904D01*
X136173809Y-137609523D01*
X135792857Y-137609523D01*
X135697619Y-137561904D01*
X135650000Y-137514285D01*
X135602380Y-137419047D01*
X135602380Y-137228571D01*
X135650000Y-137133333D01*
X135697619Y-137085714D01*
X135792857Y-137038095D01*
X136030952Y-137038095D01*
X136126190Y-137085714D01*
X136173809Y-137133333D01*
X136221428Y-137228571D01*
X136221428Y-137419047D01*
X136173809Y-137514285D01*
X136126190Y-137561904D01*
X136030952Y-137609523D01*
X136602380Y-138561904D02*
X136602380Y-137990476D01*
X136602380Y-138276190D02*
X135602380Y-138276190D01*
X135745238Y-138180952D01*
X135840476Y-138085714D01*
X135888095Y-137990476D01*
%TO.C,R90*%
X136802380Y-127357142D02*
X136326190Y-127023809D01*
X136802380Y-126785714D02*
X135802380Y-126785714D01*
X135802380Y-127166666D01*
X135850000Y-127261904D01*
X135897619Y-127309523D01*
X135992857Y-127357142D01*
X136135714Y-127357142D01*
X136230952Y-127309523D01*
X136278571Y-127261904D01*
X136326190Y-127166666D01*
X136326190Y-126785714D01*
X136802380Y-127833333D02*
X136802380Y-128023809D01*
X136754761Y-128119047D01*
X136707142Y-128166666D01*
X136564285Y-128261904D01*
X136373809Y-128309523D01*
X135992857Y-128309523D01*
X135897619Y-128261904D01*
X135850000Y-128214285D01*
X135802380Y-128119047D01*
X135802380Y-127928571D01*
X135850000Y-127833333D01*
X135897619Y-127785714D01*
X135992857Y-127738095D01*
X136230952Y-127738095D01*
X136326190Y-127785714D01*
X136373809Y-127833333D01*
X136421428Y-127928571D01*
X136421428Y-128119047D01*
X136373809Y-128214285D01*
X136326190Y-128261904D01*
X136230952Y-128309523D01*
X135802380Y-128928571D02*
X135802380Y-129023809D01*
X135850000Y-129119047D01*
X135897619Y-129166666D01*
X135992857Y-129214285D01*
X136183333Y-129261904D01*
X136421428Y-129261904D01*
X136611904Y-129214285D01*
X136707142Y-129166666D01*
X136754761Y-129119047D01*
X136802380Y-129023809D01*
X136802380Y-128928571D01*
X136754761Y-128833333D01*
X136707142Y-128785714D01*
X136611904Y-128738095D01*
X136421428Y-128690476D01*
X136183333Y-128690476D01*
X135992857Y-128738095D01*
X135897619Y-128785714D01*
X135850000Y-128833333D01*
X135802380Y-128928571D01*
%TO.C,R89*%
X136302380Y-141557142D02*
X135826190Y-141223809D01*
X136302380Y-140985714D02*
X135302380Y-140985714D01*
X135302380Y-141366666D01*
X135350000Y-141461904D01*
X135397619Y-141509523D01*
X135492857Y-141557142D01*
X135635714Y-141557142D01*
X135730952Y-141509523D01*
X135778571Y-141461904D01*
X135826190Y-141366666D01*
X135826190Y-140985714D01*
X135730952Y-142128571D02*
X135683333Y-142033333D01*
X135635714Y-141985714D01*
X135540476Y-141938095D01*
X135492857Y-141938095D01*
X135397619Y-141985714D01*
X135350000Y-142033333D01*
X135302380Y-142128571D01*
X135302380Y-142319047D01*
X135350000Y-142414285D01*
X135397619Y-142461904D01*
X135492857Y-142509523D01*
X135540476Y-142509523D01*
X135635714Y-142461904D01*
X135683333Y-142414285D01*
X135730952Y-142319047D01*
X135730952Y-142128571D01*
X135778571Y-142033333D01*
X135826190Y-141985714D01*
X135921428Y-141938095D01*
X136111904Y-141938095D01*
X136207142Y-141985714D01*
X136254761Y-142033333D01*
X136302380Y-142128571D01*
X136302380Y-142319047D01*
X136254761Y-142414285D01*
X136207142Y-142461904D01*
X136111904Y-142509523D01*
X135921428Y-142509523D01*
X135826190Y-142461904D01*
X135778571Y-142414285D01*
X135730952Y-142319047D01*
X136302380Y-142985714D02*
X136302380Y-143176190D01*
X136254761Y-143271428D01*
X136207142Y-143319047D01*
X136064285Y-143414285D01*
X135873809Y-143461904D01*
X135492857Y-143461904D01*
X135397619Y-143414285D01*
X135350000Y-143366666D01*
X135302380Y-143271428D01*
X135302380Y-143080952D01*
X135350000Y-142985714D01*
X135397619Y-142938095D01*
X135492857Y-142890476D01*
X135730952Y-142890476D01*
X135826190Y-142938095D01*
X135873809Y-142985714D01*
X135921428Y-143080952D01*
X135921428Y-143271428D01*
X135873809Y-143366666D01*
X135826190Y-143414285D01*
X135730952Y-143461904D01*
%TO.C,R88*%
X142002380Y-123057142D02*
X141526190Y-122723809D01*
X142002380Y-122485714D02*
X141002380Y-122485714D01*
X141002380Y-122866666D01*
X141050000Y-122961904D01*
X141097619Y-123009523D01*
X141192857Y-123057142D01*
X141335714Y-123057142D01*
X141430952Y-123009523D01*
X141478571Y-122961904D01*
X141526190Y-122866666D01*
X141526190Y-122485714D01*
X141430952Y-123628571D02*
X141383333Y-123533333D01*
X141335714Y-123485714D01*
X141240476Y-123438095D01*
X141192857Y-123438095D01*
X141097619Y-123485714D01*
X141050000Y-123533333D01*
X141002380Y-123628571D01*
X141002380Y-123819047D01*
X141050000Y-123914285D01*
X141097619Y-123961904D01*
X141192857Y-124009523D01*
X141240476Y-124009523D01*
X141335714Y-123961904D01*
X141383333Y-123914285D01*
X141430952Y-123819047D01*
X141430952Y-123628571D01*
X141478571Y-123533333D01*
X141526190Y-123485714D01*
X141621428Y-123438095D01*
X141811904Y-123438095D01*
X141907142Y-123485714D01*
X141954761Y-123533333D01*
X142002380Y-123628571D01*
X142002380Y-123819047D01*
X141954761Y-123914285D01*
X141907142Y-123961904D01*
X141811904Y-124009523D01*
X141621428Y-124009523D01*
X141526190Y-123961904D01*
X141478571Y-123914285D01*
X141430952Y-123819047D01*
X141430952Y-124580952D02*
X141383333Y-124485714D01*
X141335714Y-124438095D01*
X141240476Y-124390476D01*
X141192857Y-124390476D01*
X141097619Y-124438095D01*
X141050000Y-124485714D01*
X141002380Y-124580952D01*
X141002380Y-124771428D01*
X141050000Y-124866666D01*
X141097619Y-124914285D01*
X141192857Y-124961904D01*
X141240476Y-124961904D01*
X141335714Y-124914285D01*
X141383333Y-124866666D01*
X141430952Y-124771428D01*
X141430952Y-124580952D01*
X141478571Y-124485714D01*
X141526190Y-124438095D01*
X141621428Y-124390476D01*
X141811904Y-124390476D01*
X141907142Y-124438095D01*
X141954761Y-124485714D01*
X142002380Y-124580952D01*
X142002380Y-124771428D01*
X141954761Y-124866666D01*
X141907142Y-124914285D01*
X141811904Y-124961904D01*
X141621428Y-124961904D01*
X141526190Y-124914285D01*
X141478571Y-124866666D01*
X141430952Y-124771428D01*
%TO.C,R87*%
X126102380Y-136657142D02*
X125626190Y-136323809D01*
X126102380Y-136085714D02*
X125102380Y-136085714D01*
X125102380Y-136466666D01*
X125150000Y-136561904D01*
X125197619Y-136609523D01*
X125292857Y-136657142D01*
X125435714Y-136657142D01*
X125530952Y-136609523D01*
X125578571Y-136561904D01*
X125626190Y-136466666D01*
X125626190Y-136085714D01*
X125530952Y-137228571D02*
X125483333Y-137133333D01*
X125435714Y-137085714D01*
X125340476Y-137038095D01*
X125292857Y-137038095D01*
X125197619Y-137085714D01*
X125150000Y-137133333D01*
X125102380Y-137228571D01*
X125102380Y-137419047D01*
X125150000Y-137514285D01*
X125197619Y-137561904D01*
X125292857Y-137609523D01*
X125340476Y-137609523D01*
X125435714Y-137561904D01*
X125483333Y-137514285D01*
X125530952Y-137419047D01*
X125530952Y-137228571D01*
X125578571Y-137133333D01*
X125626190Y-137085714D01*
X125721428Y-137038095D01*
X125911904Y-137038095D01*
X126007142Y-137085714D01*
X126054761Y-137133333D01*
X126102380Y-137228571D01*
X126102380Y-137419047D01*
X126054761Y-137514285D01*
X126007142Y-137561904D01*
X125911904Y-137609523D01*
X125721428Y-137609523D01*
X125626190Y-137561904D01*
X125578571Y-137514285D01*
X125530952Y-137419047D01*
X125102380Y-137942857D02*
X125102380Y-138609523D01*
X126102380Y-138180952D01*
%TO.C,R86*%
X126102380Y-127257142D02*
X125626190Y-126923809D01*
X126102380Y-126685714D02*
X125102380Y-126685714D01*
X125102380Y-127066666D01*
X125150000Y-127161904D01*
X125197619Y-127209523D01*
X125292857Y-127257142D01*
X125435714Y-127257142D01*
X125530952Y-127209523D01*
X125578571Y-127161904D01*
X125626190Y-127066666D01*
X125626190Y-126685714D01*
X125530952Y-127828571D02*
X125483333Y-127733333D01*
X125435714Y-127685714D01*
X125340476Y-127638095D01*
X125292857Y-127638095D01*
X125197619Y-127685714D01*
X125150000Y-127733333D01*
X125102380Y-127828571D01*
X125102380Y-128019047D01*
X125150000Y-128114285D01*
X125197619Y-128161904D01*
X125292857Y-128209523D01*
X125340476Y-128209523D01*
X125435714Y-128161904D01*
X125483333Y-128114285D01*
X125530952Y-128019047D01*
X125530952Y-127828571D01*
X125578571Y-127733333D01*
X125626190Y-127685714D01*
X125721428Y-127638095D01*
X125911904Y-127638095D01*
X126007142Y-127685714D01*
X126054761Y-127733333D01*
X126102380Y-127828571D01*
X126102380Y-128019047D01*
X126054761Y-128114285D01*
X126007142Y-128161904D01*
X125911904Y-128209523D01*
X125721428Y-128209523D01*
X125626190Y-128161904D01*
X125578571Y-128114285D01*
X125530952Y-128019047D01*
X125102380Y-129066666D02*
X125102380Y-128876190D01*
X125150000Y-128780952D01*
X125197619Y-128733333D01*
X125340476Y-128638095D01*
X125530952Y-128590476D01*
X125911904Y-128590476D01*
X126007142Y-128638095D01*
X126054761Y-128685714D01*
X126102380Y-128780952D01*
X126102380Y-128971428D01*
X126054761Y-129066666D01*
X126007142Y-129114285D01*
X125911904Y-129161904D01*
X125673809Y-129161904D01*
X125578571Y-129114285D01*
X125530952Y-129066666D01*
X125483333Y-128971428D01*
X125483333Y-128780952D01*
X125530952Y-128685714D01*
X125578571Y-128638095D01*
X125673809Y-128590476D01*
%TO.C,R85*%
X125502380Y-142057142D02*
X125026190Y-141723809D01*
X125502380Y-141485714D02*
X124502380Y-141485714D01*
X124502380Y-141866666D01*
X124550000Y-141961904D01*
X124597619Y-142009523D01*
X124692857Y-142057142D01*
X124835714Y-142057142D01*
X124930952Y-142009523D01*
X124978571Y-141961904D01*
X125026190Y-141866666D01*
X125026190Y-141485714D01*
X124930952Y-142628571D02*
X124883333Y-142533333D01*
X124835714Y-142485714D01*
X124740476Y-142438095D01*
X124692857Y-142438095D01*
X124597619Y-142485714D01*
X124550000Y-142533333D01*
X124502380Y-142628571D01*
X124502380Y-142819047D01*
X124550000Y-142914285D01*
X124597619Y-142961904D01*
X124692857Y-143009523D01*
X124740476Y-143009523D01*
X124835714Y-142961904D01*
X124883333Y-142914285D01*
X124930952Y-142819047D01*
X124930952Y-142628571D01*
X124978571Y-142533333D01*
X125026190Y-142485714D01*
X125121428Y-142438095D01*
X125311904Y-142438095D01*
X125407142Y-142485714D01*
X125454761Y-142533333D01*
X125502380Y-142628571D01*
X125502380Y-142819047D01*
X125454761Y-142914285D01*
X125407142Y-142961904D01*
X125311904Y-143009523D01*
X125121428Y-143009523D01*
X125026190Y-142961904D01*
X124978571Y-142914285D01*
X124930952Y-142819047D01*
X124502380Y-143914285D02*
X124502380Y-143438095D01*
X124978571Y-143390476D01*
X124930952Y-143438095D01*
X124883333Y-143533333D01*
X124883333Y-143771428D01*
X124930952Y-143866666D01*
X124978571Y-143914285D01*
X125073809Y-143961904D01*
X125311904Y-143961904D01*
X125407142Y-143914285D01*
X125454761Y-143866666D01*
X125502380Y-143771428D01*
X125502380Y-143533333D01*
X125454761Y-143438095D01*
X125407142Y-143390476D01*
%TO.C,R84*%
X131302380Y-123057142D02*
X130826190Y-122723809D01*
X131302380Y-122485714D02*
X130302380Y-122485714D01*
X130302380Y-122866666D01*
X130350000Y-122961904D01*
X130397619Y-123009523D01*
X130492857Y-123057142D01*
X130635714Y-123057142D01*
X130730952Y-123009523D01*
X130778571Y-122961904D01*
X130826190Y-122866666D01*
X130826190Y-122485714D01*
X130730952Y-123628571D02*
X130683333Y-123533333D01*
X130635714Y-123485714D01*
X130540476Y-123438095D01*
X130492857Y-123438095D01*
X130397619Y-123485714D01*
X130350000Y-123533333D01*
X130302380Y-123628571D01*
X130302380Y-123819047D01*
X130350000Y-123914285D01*
X130397619Y-123961904D01*
X130492857Y-124009523D01*
X130540476Y-124009523D01*
X130635714Y-123961904D01*
X130683333Y-123914285D01*
X130730952Y-123819047D01*
X130730952Y-123628571D01*
X130778571Y-123533333D01*
X130826190Y-123485714D01*
X130921428Y-123438095D01*
X131111904Y-123438095D01*
X131207142Y-123485714D01*
X131254761Y-123533333D01*
X131302380Y-123628571D01*
X131302380Y-123819047D01*
X131254761Y-123914285D01*
X131207142Y-123961904D01*
X131111904Y-124009523D01*
X130921428Y-124009523D01*
X130826190Y-123961904D01*
X130778571Y-123914285D01*
X130730952Y-123819047D01*
X130635714Y-124866666D02*
X131302380Y-124866666D01*
X130254761Y-124628571D02*
X130969047Y-124390476D01*
X130969047Y-125009523D01*
%TO.C,R83*%
X107652380Y-141857142D02*
X107176190Y-141523809D01*
X107652380Y-141285714D02*
X106652380Y-141285714D01*
X106652380Y-141666666D01*
X106700000Y-141761904D01*
X106747619Y-141809523D01*
X106842857Y-141857142D01*
X106985714Y-141857142D01*
X107080952Y-141809523D01*
X107128571Y-141761904D01*
X107176190Y-141666666D01*
X107176190Y-141285714D01*
X107080952Y-142428571D02*
X107033333Y-142333333D01*
X106985714Y-142285714D01*
X106890476Y-142238095D01*
X106842857Y-142238095D01*
X106747619Y-142285714D01*
X106700000Y-142333333D01*
X106652380Y-142428571D01*
X106652380Y-142619047D01*
X106700000Y-142714285D01*
X106747619Y-142761904D01*
X106842857Y-142809523D01*
X106890476Y-142809523D01*
X106985714Y-142761904D01*
X107033333Y-142714285D01*
X107080952Y-142619047D01*
X107080952Y-142428571D01*
X107128571Y-142333333D01*
X107176190Y-142285714D01*
X107271428Y-142238095D01*
X107461904Y-142238095D01*
X107557142Y-142285714D01*
X107604761Y-142333333D01*
X107652380Y-142428571D01*
X107652380Y-142619047D01*
X107604761Y-142714285D01*
X107557142Y-142761904D01*
X107461904Y-142809523D01*
X107271428Y-142809523D01*
X107176190Y-142761904D01*
X107128571Y-142714285D01*
X107080952Y-142619047D01*
X106652380Y-143142857D02*
X106652380Y-143761904D01*
X107033333Y-143428571D01*
X107033333Y-143571428D01*
X107080952Y-143666666D01*
X107128571Y-143714285D01*
X107223809Y-143761904D01*
X107461904Y-143761904D01*
X107557142Y-143714285D01*
X107604761Y-143666666D01*
X107652380Y-143571428D01*
X107652380Y-143285714D01*
X107604761Y-143190476D01*
X107557142Y-143142857D01*
%TO.C,R82*%
X89542857Y-126502380D02*
X89876190Y-126026190D01*
X90114285Y-126502380D02*
X90114285Y-125502380D01*
X89733333Y-125502380D01*
X89638095Y-125550000D01*
X89590476Y-125597619D01*
X89542857Y-125692857D01*
X89542857Y-125835714D01*
X89590476Y-125930952D01*
X89638095Y-125978571D01*
X89733333Y-126026190D01*
X90114285Y-126026190D01*
X88971428Y-125930952D02*
X89066666Y-125883333D01*
X89114285Y-125835714D01*
X89161904Y-125740476D01*
X89161904Y-125692857D01*
X89114285Y-125597619D01*
X89066666Y-125550000D01*
X88971428Y-125502380D01*
X88780952Y-125502380D01*
X88685714Y-125550000D01*
X88638095Y-125597619D01*
X88590476Y-125692857D01*
X88590476Y-125740476D01*
X88638095Y-125835714D01*
X88685714Y-125883333D01*
X88780952Y-125930952D01*
X88971428Y-125930952D01*
X89066666Y-125978571D01*
X89114285Y-126026190D01*
X89161904Y-126121428D01*
X89161904Y-126311904D01*
X89114285Y-126407142D01*
X89066666Y-126454761D01*
X88971428Y-126502380D01*
X88780952Y-126502380D01*
X88685714Y-126454761D01*
X88638095Y-126407142D01*
X88590476Y-126311904D01*
X88590476Y-126121428D01*
X88638095Y-126026190D01*
X88685714Y-125978571D01*
X88780952Y-125930952D01*
X88209523Y-125597619D02*
X88161904Y-125550000D01*
X88066666Y-125502380D01*
X87828571Y-125502380D01*
X87733333Y-125550000D01*
X87685714Y-125597619D01*
X87638095Y-125692857D01*
X87638095Y-125788095D01*
X87685714Y-125930952D01*
X88257142Y-126502380D01*
X87638095Y-126502380D01*
%TO.C,R81*%
X114902380Y-136557142D02*
X114426190Y-136223809D01*
X114902380Y-135985714D02*
X113902380Y-135985714D01*
X113902380Y-136366666D01*
X113950000Y-136461904D01*
X113997619Y-136509523D01*
X114092857Y-136557142D01*
X114235714Y-136557142D01*
X114330952Y-136509523D01*
X114378571Y-136461904D01*
X114426190Y-136366666D01*
X114426190Y-135985714D01*
X114330952Y-137128571D02*
X114283333Y-137033333D01*
X114235714Y-136985714D01*
X114140476Y-136938095D01*
X114092857Y-136938095D01*
X113997619Y-136985714D01*
X113950000Y-137033333D01*
X113902380Y-137128571D01*
X113902380Y-137319047D01*
X113950000Y-137414285D01*
X113997619Y-137461904D01*
X114092857Y-137509523D01*
X114140476Y-137509523D01*
X114235714Y-137461904D01*
X114283333Y-137414285D01*
X114330952Y-137319047D01*
X114330952Y-137128571D01*
X114378571Y-137033333D01*
X114426190Y-136985714D01*
X114521428Y-136938095D01*
X114711904Y-136938095D01*
X114807142Y-136985714D01*
X114854761Y-137033333D01*
X114902380Y-137128571D01*
X114902380Y-137319047D01*
X114854761Y-137414285D01*
X114807142Y-137461904D01*
X114711904Y-137509523D01*
X114521428Y-137509523D01*
X114426190Y-137461904D01*
X114378571Y-137414285D01*
X114330952Y-137319047D01*
X114902380Y-138461904D02*
X114902380Y-137890476D01*
X114902380Y-138176190D02*
X113902380Y-138176190D01*
X114045238Y-138080952D01*
X114140476Y-137985714D01*
X114188095Y-137890476D01*
%TO.C,R80*%
X115302380Y-127157142D02*
X114826190Y-126823809D01*
X115302380Y-126585714D02*
X114302380Y-126585714D01*
X114302380Y-126966666D01*
X114350000Y-127061904D01*
X114397619Y-127109523D01*
X114492857Y-127157142D01*
X114635714Y-127157142D01*
X114730952Y-127109523D01*
X114778571Y-127061904D01*
X114826190Y-126966666D01*
X114826190Y-126585714D01*
X114730952Y-127728571D02*
X114683333Y-127633333D01*
X114635714Y-127585714D01*
X114540476Y-127538095D01*
X114492857Y-127538095D01*
X114397619Y-127585714D01*
X114350000Y-127633333D01*
X114302380Y-127728571D01*
X114302380Y-127919047D01*
X114350000Y-128014285D01*
X114397619Y-128061904D01*
X114492857Y-128109523D01*
X114540476Y-128109523D01*
X114635714Y-128061904D01*
X114683333Y-128014285D01*
X114730952Y-127919047D01*
X114730952Y-127728571D01*
X114778571Y-127633333D01*
X114826190Y-127585714D01*
X114921428Y-127538095D01*
X115111904Y-127538095D01*
X115207142Y-127585714D01*
X115254761Y-127633333D01*
X115302380Y-127728571D01*
X115302380Y-127919047D01*
X115254761Y-128014285D01*
X115207142Y-128061904D01*
X115111904Y-128109523D01*
X114921428Y-128109523D01*
X114826190Y-128061904D01*
X114778571Y-128014285D01*
X114730952Y-127919047D01*
X114302380Y-128728571D02*
X114302380Y-128823809D01*
X114350000Y-128919047D01*
X114397619Y-128966666D01*
X114492857Y-129014285D01*
X114683333Y-129061904D01*
X114921428Y-129061904D01*
X115111904Y-129014285D01*
X115207142Y-128966666D01*
X115254761Y-128919047D01*
X115302380Y-128823809D01*
X115302380Y-128728571D01*
X115254761Y-128633333D01*
X115207142Y-128585714D01*
X115111904Y-128538095D01*
X114921428Y-128490476D01*
X114683333Y-128490476D01*
X114492857Y-128538095D01*
X114397619Y-128585714D01*
X114350000Y-128633333D01*
X114302380Y-128728571D01*
%TO.C,R77*%
X107652380Y-145157142D02*
X107176190Y-144823809D01*
X107652380Y-144585714D02*
X106652380Y-144585714D01*
X106652380Y-144966666D01*
X106700000Y-145061904D01*
X106747619Y-145109523D01*
X106842857Y-145157142D01*
X106985714Y-145157142D01*
X107080952Y-145109523D01*
X107128571Y-145061904D01*
X107176190Y-144966666D01*
X107176190Y-144585714D01*
X106652380Y-145490476D02*
X106652380Y-146157142D01*
X107652380Y-145728571D01*
X106652380Y-146442857D02*
X106652380Y-147109523D01*
X107652380Y-146680952D01*
%TO.C,R76*%
X87802380Y-130057142D02*
X87326190Y-129723809D01*
X87802380Y-129485714D02*
X86802380Y-129485714D01*
X86802380Y-129866666D01*
X86850000Y-129961904D01*
X86897619Y-130009523D01*
X86992857Y-130057142D01*
X87135714Y-130057142D01*
X87230952Y-130009523D01*
X87278571Y-129961904D01*
X87326190Y-129866666D01*
X87326190Y-129485714D01*
X86802380Y-130390476D02*
X86802380Y-131057142D01*
X87802380Y-130628571D01*
X86802380Y-131866666D02*
X86802380Y-131676190D01*
X86850000Y-131580952D01*
X86897619Y-131533333D01*
X87040476Y-131438095D01*
X87230952Y-131390476D01*
X87611904Y-131390476D01*
X87707142Y-131438095D01*
X87754761Y-131485714D01*
X87802380Y-131580952D01*
X87802380Y-131771428D01*
X87754761Y-131866666D01*
X87707142Y-131914285D01*
X87611904Y-131961904D01*
X87373809Y-131961904D01*
X87278571Y-131914285D01*
X87230952Y-131866666D01*
X87183333Y-131771428D01*
X87183333Y-131580952D01*
X87230952Y-131485714D01*
X87278571Y-131438095D01*
X87373809Y-131390476D01*
%TO.C,R75*%
X96542857Y-140352380D02*
X96876190Y-139876190D01*
X97114285Y-140352380D02*
X97114285Y-139352380D01*
X96733333Y-139352380D01*
X96638095Y-139400000D01*
X96590476Y-139447619D01*
X96542857Y-139542857D01*
X96542857Y-139685714D01*
X96590476Y-139780952D01*
X96638095Y-139828571D01*
X96733333Y-139876190D01*
X97114285Y-139876190D01*
X96209523Y-139352380D02*
X95542857Y-139352380D01*
X95971428Y-140352380D01*
X94685714Y-139352380D02*
X95161904Y-139352380D01*
X95209523Y-139828571D01*
X95161904Y-139780952D01*
X95066666Y-139733333D01*
X94828571Y-139733333D01*
X94733333Y-139780952D01*
X94685714Y-139828571D01*
X94638095Y-139923809D01*
X94638095Y-140161904D01*
X94685714Y-140257142D01*
X94733333Y-140304761D01*
X94828571Y-140352380D01*
X95066666Y-140352380D01*
X95161904Y-140304761D01*
X95209523Y-140257142D01*
%TO.C,R74*%
X89242857Y-149002380D02*
X89576190Y-148526190D01*
X89814285Y-149002380D02*
X89814285Y-148002380D01*
X89433333Y-148002380D01*
X89338095Y-148050000D01*
X89290476Y-148097619D01*
X89242857Y-148192857D01*
X89242857Y-148335714D01*
X89290476Y-148430952D01*
X89338095Y-148478571D01*
X89433333Y-148526190D01*
X89814285Y-148526190D01*
X88909523Y-148002380D02*
X88242857Y-148002380D01*
X88671428Y-149002380D01*
X87433333Y-148335714D02*
X87433333Y-149002380D01*
X87671428Y-147954761D02*
X87909523Y-148669047D01*
X87290476Y-148669047D01*
%TO.C,R72*%
X76002380Y-130969642D02*
X75526190Y-130636309D01*
X76002380Y-130398214D02*
X75002380Y-130398214D01*
X75002380Y-130779166D01*
X75050000Y-130874404D01*
X75097619Y-130922023D01*
X75192857Y-130969642D01*
X75335714Y-130969642D01*
X75430952Y-130922023D01*
X75478571Y-130874404D01*
X75526190Y-130779166D01*
X75526190Y-130398214D01*
X75002380Y-131302976D02*
X75002380Y-131969642D01*
X76002380Y-131541071D01*
X75097619Y-132302976D02*
X75050000Y-132350595D01*
X75002380Y-132445833D01*
X75002380Y-132683928D01*
X75050000Y-132779166D01*
X75097619Y-132826785D01*
X75192857Y-132874404D01*
X75288095Y-132874404D01*
X75430952Y-132826785D01*
X76002380Y-132255357D01*
X76002380Y-132874404D01*
%TO.C,R71*%
X89042857Y-140302380D02*
X89376190Y-139826190D01*
X89614285Y-140302380D02*
X89614285Y-139302380D01*
X89233333Y-139302380D01*
X89138095Y-139350000D01*
X89090476Y-139397619D01*
X89042857Y-139492857D01*
X89042857Y-139635714D01*
X89090476Y-139730952D01*
X89138095Y-139778571D01*
X89233333Y-139826190D01*
X89614285Y-139826190D01*
X88709523Y-139302380D02*
X88042857Y-139302380D01*
X88471428Y-140302380D01*
X87138095Y-140302380D02*
X87709523Y-140302380D01*
X87423809Y-140302380D02*
X87423809Y-139302380D01*
X87519047Y-139445238D01*
X87614285Y-139540476D01*
X87709523Y-139588095D01*
%TO.C,R70*%
X82452380Y-137657142D02*
X81976190Y-137323809D01*
X82452380Y-137085714D02*
X81452380Y-137085714D01*
X81452380Y-137466666D01*
X81500000Y-137561904D01*
X81547619Y-137609523D01*
X81642857Y-137657142D01*
X81785714Y-137657142D01*
X81880952Y-137609523D01*
X81928571Y-137561904D01*
X81976190Y-137466666D01*
X81976190Y-137085714D01*
X81452380Y-137990476D02*
X81452380Y-138657142D01*
X82452380Y-138228571D01*
X81452380Y-139228571D02*
X81452380Y-139323809D01*
X81500000Y-139419047D01*
X81547619Y-139466666D01*
X81642857Y-139514285D01*
X81833333Y-139561904D01*
X82071428Y-139561904D01*
X82261904Y-139514285D01*
X82357142Y-139466666D01*
X82404761Y-139419047D01*
X82452380Y-139323809D01*
X82452380Y-139228571D01*
X82404761Y-139133333D01*
X82357142Y-139085714D01*
X82261904Y-139038095D01*
X82071428Y-138990476D01*
X81833333Y-138990476D01*
X81642857Y-139038095D01*
X81547619Y-139085714D01*
X81500000Y-139133333D01*
X81452380Y-139228571D01*
%TO.C,R69*%
X83602380Y-144057142D02*
X83126190Y-143723809D01*
X83602380Y-143485714D02*
X82602380Y-143485714D01*
X82602380Y-143866666D01*
X82650000Y-143961904D01*
X82697619Y-144009523D01*
X82792857Y-144057142D01*
X82935714Y-144057142D01*
X83030952Y-144009523D01*
X83078571Y-143961904D01*
X83126190Y-143866666D01*
X83126190Y-143485714D01*
X82602380Y-144914285D02*
X82602380Y-144723809D01*
X82650000Y-144628571D01*
X82697619Y-144580952D01*
X82840476Y-144485714D01*
X83030952Y-144438095D01*
X83411904Y-144438095D01*
X83507142Y-144485714D01*
X83554761Y-144533333D01*
X83602380Y-144628571D01*
X83602380Y-144819047D01*
X83554761Y-144914285D01*
X83507142Y-144961904D01*
X83411904Y-145009523D01*
X83173809Y-145009523D01*
X83078571Y-144961904D01*
X83030952Y-144914285D01*
X82983333Y-144819047D01*
X82983333Y-144628571D01*
X83030952Y-144533333D01*
X83078571Y-144485714D01*
X83173809Y-144438095D01*
X83602380Y-145485714D02*
X83602380Y-145676190D01*
X83554761Y-145771428D01*
X83507142Y-145819047D01*
X83364285Y-145914285D01*
X83173809Y-145961904D01*
X82792857Y-145961904D01*
X82697619Y-145914285D01*
X82650000Y-145866666D01*
X82602380Y-145771428D01*
X82602380Y-145580952D01*
X82650000Y-145485714D01*
X82697619Y-145438095D01*
X82792857Y-145390476D01*
X83030952Y-145390476D01*
X83126190Y-145438095D01*
X83173809Y-145485714D01*
X83221428Y-145580952D01*
X83221428Y-145771428D01*
X83173809Y-145866666D01*
X83126190Y-145914285D01*
X83030952Y-145961904D01*
%TO.C,R68*%
X71152380Y-147057142D02*
X70676190Y-146723809D01*
X71152380Y-146485714D02*
X70152380Y-146485714D01*
X70152380Y-146866666D01*
X70200000Y-146961904D01*
X70247619Y-147009523D01*
X70342857Y-147057142D01*
X70485714Y-147057142D01*
X70580952Y-147009523D01*
X70628571Y-146961904D01*
X70676190Y-146866666D01*
X70676190Y-146485714D01*
X70152380Y-147914285D02*
X70152380Y-147723809D01*
X70200000Y-147628571D01*
X70247619Y-147580952D01*
X70390476Y-147485714D01*
X70580952Y-147438095D01*
X70961904Y-147438095D01*
X71057142Y-147485714D01*
X71104761Y-147533333D01*
X71152380Y-147628571D01*
X71152380Y-147819047D01*
X71104761Y-147914285D01*
X71057142Y-147961904D01*
X70961904Y-148009523D01*
X70723809Y-148009523D01*
X70628571Y-147961904D01*
X70580952Y-147914285D01*
X70533333Y-147819047D01*
X70533333Y-147628571D01*
X70580952Y-147533333D01*
X70628571Y-147485714D01*
X70723809Y-147438095D01*
X70580952Y-148580952D02*
X70533333Y-148485714D01*
X70485714Y-148438095D01*
X70390476Y-148390476D01*
X70342857Y-148390476D01*
X70247619Y-148438095D01*
X70200000Y-148485714D01*
X70152380Y-148580952D01*
X70152380Y-148771428D01*
X70200000Y-148866666D01*
X70247619Y-148914285D01*
X70342857Y-148961904D01*
X70390476Y-148961904D01*
X70485714Y-148914285D01*
X70533333Y-148866666D01*
X70580952Y-148771428D01*
X70580952Y-148580952D01*
X70628571Y-148485714D01*
X70676190Y-148438095D01*
X70771428Y-148390476D01*
X70961904Y-148390476D01*
X71057142Y-148438095D01*
X71104761Y-148485714D01*
X71152380Y-148580952D01*
X71152380Y-148771428D01*
X71104761Y-148866666D01*
X71057142Y-148914285D01*
X70961904Y-148961904D01*
X70771428Y-148961904D01*
X70676190Y-148914285D01*
X70628571Y-148866666D01*
X70580952Y-148771428D01*
%TO.C,R67*%
X149542857Y-44402380D02*
X149876190Y-43926190D01*
X150114285Y-44402380D02*
X150114285Y-43402380D01*
X149733333Y-43402380D01*
X149638095Y-43450000D01*
X149590476Y-43497619D01*
X149542857Y-43592857D01*
X149542857Y-43735714D01*
X149590476Y-43830952D01*
X149638095Y-43878571D01*
X149733333Y-43926190D01*
X150114285Y-43926190D01*
X148685714Y-43402380D02*
X148876190Y-43402380D01*
X148971428Y-43450000D01*
X149019047Y-43497619D01*
X149114285Y-43640476D01*
X149161904Y-43830952D01*
X149161904Y-44211904D01*
X149114285Y-44307142D01*
X149066666Y-44354761D01*
X148971428Y-44402380D01*
X148780952Y-44402380D01*
X148685714Y-44354761D01*
X148638095Y-44307142D01*
X148590476Y-44211904D01*
X148590476Y-43973809D01*
X148638095Y-43878571D01*
X148685714Y-43830952D01*
X148780952Y-43783333D01*
X148971428Y-43783333D01*
X149066666Y-43830952D01*
X149114285Y-43878571D01*
X149161904Y-43973809D01*
X148257142Y-43402380D02*
X147590476Y-43402380D01*
X148019047Y-44402380D01*
%TO.C,R66*%
X158052380Y-64557142D02*
X157576190Y-64223809D01*
X158052380Y-63985714D02*
X157052380Y-63985714D01*
X157052380Y-64366666D01*
X157100000Y-64461904D01*
X157147619Y-64509523D01*
X157242857Y-64557142D01*
X157385714Y-64557142D01*
X157480952Y-64509523D01*
X157528571Y-64461904D01*
X157576190Y-64366666D01*
X157576190Y-63985714D01*
X157052380Y-65414285D02*
X157052380Y-65223809D01*
X157100000Y-65128571D01*
X157147619Y-65080952D01*
X157290476Y-64985714D01*
X157480952Y-64938095D01*
X157861904Y-64938095D01*
X157957142Y-64985714D01*
X158004761Y-65033333D01*
X158052380Y-65128571D01*
X158052380Y-65319047D01*
X158004761Y-65414285D01*
X157957142Y-65461904D01*
X157861904Y-65509523D01*
X157623809Y-65509523D01*
X157528571Y-65461904D01*
X157480952Y-65414285D01*
X157433333Y-65319047D01*
X157433333Y-65128571D01*
X157480952Y-65033333D01*
X157528571Y-64985714D01*
X157623809Y-64938095D01*
X157052380Y-66366666D02*
X157052380Y-66176190D01*
X157100000Y-66080952D01*
X157147619Y-66033333D01*
X157290476Y-65938095D01*
X157480952Y-65890476D01*
X157861904Y-65890476D01*
X157957142Y-65938095D01*
X158004761Y-65985714D01*
X158052380Y-66080952D01*
X158052380Y-66271428D01*
X158004761Y-66366666D01*
X157957142Y-66414285D01*
X157861904Y-66461904D01*
X157623809Y-66461904D01*
X157528571Y-66414285D01*
X157480952Y-66366666D01*
X157433333Y-66271428D01*
X157433333Y-66080952D01*
X157480952Y-65985714D01*
X157528571Y-65938095D01*
X157623809Y-65890476D01*
%TO.C,R65*%
X158452380Y-55157142D02*
X157976190Y-54823809D01*
X158452380Y-54585714D02*
X157452380Y-54585714D01*
X157452380Y-54966666D01*
X157500000Y-55061904D01*
X157547619Y-55109523D01*
X157642857Y-55157142D01*
X157785714Y-55157142D01*
X157880952Y-55109523D01*
X157928571Y-55061904D01*
X157976190Y-54966666D01*
X157976190Y-54585714D01*
X157452380Y-56014285D02*
X157452380Y-55823809D01*
X157500000Y-55728571D01*
X157547619Y-55680952D01*
X157690476Y-55585714D01*
X157880952Y-55538095D01*
X158261904Y-55538095D01*
X158357142Y-55585714D01*
X158404761Y-55633333D01*
X158452380Y-55728571D01*
X158452380Y-55919047D01*
X158404761Y-56014285D01*
X158357142Y-56061904D01*
X158261904Y-56109523D01*
X158023809Y-56109523D01*
X157928571Y-56061904D01*
X157880952Y-56014285D01*
X157833333Y-55919047D01*
X157833333Y-55728571D01*
X157880952Y-55633333D01*
X157928571Y-55585714D01*
X158023809Y-55538095D01*
X157452380Y-57014285D02*
X157452380Y-56538095D01*
X157928571Y-56490476D01*
X157880952Y-56538095D01*
X157833333Y-56633333D01*
X157833333Y-56871428D01*
X157880952Y-56966666D01*
X157928571Y-57014285D01*
X158023809Y-57061904D01*
X158261904Y-57061904D01*
X158357142Y-57014285D01*
X158404761Y-56966666D01*
X158452380Y-56871428D01*
X158452380Y-56633333D01*
X158404761Y-56538095D01*
X158357142Y-56490476D01*
%TO.C,R64*%
X154342857Y-63252380D02*
X154676190Y-62776190D01*
X154914285Y-63252380D02*
X154914285Y-62252380D01*
X154533333Y-62252380D01*
X154438095Y-62300000D01*
X154390476Y-62347619D01*
X154342857Y-62442857D01*
X154342857Y-62585714D01*
X154390476Y-62680952D01*
X154438095Y-62728571D01*
X154533333Y-62776190D01*
X154914285Y-62776190D01*
X153485714Y-62252380D02*
X153676190Y-62252380D01*
X153771428Y-62300000D01*
X153819047Y-62347619D01*
X153914285Y-62490476D01*
X153961904Y-62680952D01*
X153961904Y-63061904D01*
X153914285Y-63157142D01*
X153866666Y-63204761D01*
X153771428Y-63252380D01*
X153580952Y-63252380D01*
X153485714Y-63204761D01*
X153438095Y-63157142D01*
X153390476Y-63061904D01*
X153390476Y-62823809D01*
X153438095Y-62728571D01*
X153485714Y-62680952D01*
X153580952Y-62633333D01*
X153771428Y-62633333D01*
X153866666Y-62680952D01*
X153914285Y-62728571D01*
X153961904Y-62823809D01*
X152533333Y-62585714D02*
X152533333Y-63252380D01*
X152771428Y-62204761D02*
X153009523Y-62919047D01*
X152390476Y-62919047D01*
%TO.C,R63*%
X138902380Y-56157142D02*
X138426190Y-55823809D01*
X138902380Y-55585714D02*
X137902380Y-55585714D01*
X137902380Y-55966666D01*
X137950000Y-56061904D01*
X137997619Y-56109523D01*
X138092857Y-56157142D01*
X138235714Y-56157142D01*
X138330952Y-56109523D01*
X138378571Y-56061904D01*
X138426190Y-55966666D01*
X138426190Y-55585714D01*
X137902380Y-57014285D02*
X137902380Y-56823809D01*
X137950000Y-56728571D01*
X137997619Y-56680952D01*
X138140476Y-56585714D01*
X138330952Y-56538095D01*
X138711904Y-56538095D01*
X138807142Y-56585714D01*
X138854761Y-56633333D01*
X138902380Y-56728571D01*
X138902380Y-56919047D01*
X138854761Y-57014285D01*
X138807142Y-57061904D01*
X138711904Y-57109523D01*
X138473809Y-57109523D01*
X138378571Y-57061904D01*
X138330952Y-57014285D01*
X138283333Y-56919047D01*
X138283333Y-56728571D01*
X138330952Y-56633333D01*
X138378571Y-56585714D01*
X138473809Y-56538095D01*
X137902380Y-57442857D02*
X137902380Y-58061904D01*
X138283333Y-57728571D01*
X138283333Y-57871428D01*
X138330952Y-57966666D01*
X138378571Y-58014285D01*
X138473809Y-58061904D01*
X138711904Y-58061904D01*
X138807142Y-58014285D01*
X138854761Y-57966666D01*
X138902380Y-57871428D01*
X138902380Y-57585714D01*
X138854761Y-57490476D01*
X138807142Y-57442857D01*
%TO.C,R62*%
X146302380Y-53657142D02*
X145826190Y-53323809D01*
X146302380Y-53085714D02*
X145302380Y-53085714D01*
X145302380Y-53466666D01*
X145350000Y-53561904D01*
X145397619Y-53609523D01*
X145492857Y-53657142D01*
X145635714Y-53657142D01*
X145730952Y-53609523D01*
X145778571Y-53561904D01*
X145826190Y-53466666D01*
X145826190Y-53085714D01*
X145302380Y-54514285D02*
X145302380Y-54323809D01*
X145350000Y-54228571D01*
X145397619Y-54180952D01*
X145540476Y-54085714D01*
X145730952Y-54038095D01*
X146111904Y-54038095D01*
X146207142Y-54085714D01*
X146254761Y-54133333D01*
X146302380Y-54228571D01*
X146302380Y-54419047D01*
X146254761Y-54514285D01*
X146207142Y-54561904D01*
X146111904Y-54609523D01*
X145873809Y-54609523D01*
X145778571Y-54561904D01*
X145730952Y-54514285D01*
X145683333Y-54419047D01*
X145683333Y-54228571D01*
X145730952Y-54133333D01*
X145778571Y-54085714D01*
X145873809Y-54038095D01*
X145397619Y-54990476D02*
X145350000Y-55038095D01*
X145302380Y-55133333D01*
X145302380Y-55371428D01*
X145350000Y-55466666D01*
X145397619Y-55514285D01*
X145492857Y-55561904D01*
X145588095Y-55561904D01*
X145730952Y-55514285D01*
X146302380Y-54942857D01*
X146302380Y-55561904D01*
%TO.C,R61*%
X149555357Y-37102380D02*
X149888690Y-36626190D01*
X150126785Y-37102380D02*
X150126785Y-36102380D01*
X149745833Y-36102380D01*
X149650595Y-36150000D01*
X149602976Y-36197619D01*
X149555357Y-36292857D01*
X149555357Y-36435714D01*
X149602976Y-36530952D01*
X149650595Y-36578571D01*
X149745833Y-36626190D01*
X150126785Y-36626190D01*
X148698214Y-36102380D02*
X148888690Y-36102380D01*
X148983928Y-36150000D01*
X149031547Y-36197619D01*
X149126785Y-36340476D01*
X149174404Y-36530952D01*
X149174404Y-36911904D01*
X149126785Y-37007142D01*
X149079166Y-37054761D01*
X148983928Y-37102380D01*
X148793452Y-37102380D01*
X148698214Y-37054761D01*
X148650595Y-37007142D01*
X148602976Y-36911904D01*
X148602976Y-36673809D01*
X148650595Y-36578571D01*
X148698214Y-36530952D01*
X148793452Y-36483333D01*
X148983928Y-36483333D01*
X149079166Y-36530952D01*
X149126785Y-36578571D01*
X149174404Y-36673809D01*
X147650595Y-37102380D02*
X148222023Y-37102380D01*
X147936309Y-37102380D02*
X147936309Y-36102380D01*
X148031547Y-36245238D01*
X148126785Y-36340476D01*
X148222023Y-36388095D01*
%TO.C,R60*%
X143942857Y-59252380D02*
X144276190Y-58776190D01*
X144514285Y-59252380D02*
X144514285Y-58252380D01*
X144133333Y-58252380D01*
X144038095Y-58300000D01*
X143990476Y-58347619D01*
X143942857Y-58442857D01*
X143942857Y-58585714D01*
X143990476Y-58680952D01*
X144038095Y-58728571D01*
X144133333Y-58776190D01*
X144514285Y-58776190D01*
X143085714Y-58252380D02*
X143276190Y-58252380D01*
X143371428Y-58300000D01*
X143419047Y-58347619D01*
X143514285Y-58490476D01*
X143561904Y-58680952D01*
X143561904Y-59061904D01*
X143514285Y-59157142D01*
X143466666Y-59204761D01*
X143371428Y-59252380D01*
X143180952Y-59252380D01*
X143085714Y-59204761D01*
X143038095Y-59157142D01*
X142990476Y-59061904D01*
X142990476Y-58823809D01*
X143038095Y-58728571D01*
X143085714Y-58680952D01*
X143180952Y-58633333D01*
X143371428Y-58633333D01*
X143466666Y-58680952D01*
X143514285Y-58728571D01*
X143561904Y-58823809D01*
X142371428Y-58252380D02*
X142276190Y-58252380D01*
X142180952Y-58300000D01*
X142133333Y-58347619D01*
X142085714Y-58442857D01*
X142038095Y-58633333D01*
X142038095Y-58871428D01*
X142085714Y-59061904D01*
X142133333Y-59157142D01*
X142180952Y-59204761D01*
X142276190Y-59252380D01*
X142371428Y-59252380D01*
X142466666Y-59204761D01*
X142514285Y-59157142D01*
X142561904Y-59061904D01*
X142609523Y-58871428D01*
X142609523Y-58633333D01*
X142561904Y-58442857D01*
X142514285Y-58347619D01*
X142466666Y-58300000D01*
X142371428Y-58252380D01*
%TO.C,R59*%
X138902380Y-60457142D02*
X138426190Y-60123809D01*
X138902380Y-59885714D02*
X137902380Y-59885714D01*
X137902380Y-60266666D01*
X137950000Y-60361904D01*
X137997619Y-60409523D01*
X138092857Y-60457142D01*
X138235714Y-60457142D01*
X138330952Y-60409523D01*
X138378571Y-60361904D01*
X138426190Y-60266666D01*
X138426190Y-59885714D01*
X137902380Y-61361904D02*
X137902380Y-60885714D01*
X138378571Y-60838095D01*
X138330952Y-60885714D01*
X138283333Y-60980952D01*
X138283333Y-61219047D01*
X138330952Y-61314285D01*
X138378571Y-61361904D01*
X138473809Y-61409523D01*
X138711904Y-61409523D01*
X138807142Y-61361904D01*
X138854761Y-61314285D01*
X138902380Y-61219047D01*
X138902380Y-60980952D01*
X138854761Y-60885714D01*
X138807142Y-60838095D01*
X138902380Y-61885714D02*
X138902380Y-62076190D01*
X138854761Y-62171428D01*
X138807142Y-62219047D01*
X138664285Y-62314285D01*
X138473809Y-62361904D01*
X138092857Y-62361904D01*
X137997619Y-62314285D01*
X137950000Y-62266666D01*
X137902380Y-62171428D01*
X137902380Y-61980952D01*
X137950000Y-61885714D01*
X137997619Y-61838095D01*
X138092857Y-61790476D01*
X138330952Y-61790476D01*
X138426190Y-61838095D01*
X138473809Y-61885714D01*
X138521428Y-61980952D01*
X138521428Y-62171428D01*
X138473809Y-62266666D01*
X138426190Y-62314285D01*
X138330952Y-62361904D01*
%TO.C,R58*%
X135252380Y-154457142D02*
X134776190Y-154123809D01*
X135252380Y-153885714D02*
X134252380Y-153885714D01*
X134252380Y-154266666D01*
X134300000Y-154361904D01*
X134347619Y-154409523D01*
X134442857Y-154457142D01*
X134585714Y-154457142D01*
X134680952Y-154409523D01*
X134728571Y-154361904D01*
X134776190Y-154266666D01*
X134776190Y-153885714D01*
X134252380Y-155361904D02*
X134252380Y-154885714D01*
X134728571Y-154838095D01*
X134680952Y-154885714D01*
X134633333Y-154980952D01*
X134633333Y-155219047D01*
X134680952Y-155314285D01*
X134728571Y-155361904D01*
X134823809Y-155409523D01*
X135061904Y-155409523D01*
X135157142Y-155361904D01*
X135204761Y-155314285D01*
X135252380Y-155219047D01*
X135252380Y-154980952D01*
X135204761Y-154885714D01*
X135157142Y-154838095D01*
X134680952Y-155980952D02*
X134633333Y-155885714D01*
X134585714Y-155838095D01*
X134490476Y-155790476D01*
X134442857Y-155790476D01*
X134347619Y-155838095D01*
X134300000Y-155885714D01*
X134252380Y-155980952D01*
X134252380Y-156171428D01*
X134300000Y-156266666D01*
X134347619Y-156314285D01*
X134442857Y-156361904D01*
X134490476Y-156361904D01*
X134585714Y-156314285D01*
X134633333Y-156266666D01*
X134680952Y-156171428D01*
X134680952Y-155980952D01*
X134728571Y-155885714D01*
X134776190Y-155838095D01*
X134871428Y-155790476D01*
X135061904Y-155790476D01*
X135157142Y-155838095D01*
X135204761Y-155885714D01*
X135252380Y-155980952D01*
X135252380Y-156171428D01*
X135204761Y-156266666D01*
X135157142Y-156314285D01*
X135061904Y-156361904D01*
X134871428Y-156361904D01*
X134776190Y-156314285D01*
X134728571Y-156266666D01*
X134680952Y-156171428D01*
%TO.C,R57*%
X138152380Y-153957142D02*
X137676190Y-153623809D01*
X138152380Y-153385714D02*
X137152380Y-153385714D01*
X137152380Y-153766666D01*
X137200000Y-153861904D01*
X137247619Y-153909523D01*
X137342857Y-153957142D01*
X137485714Y-153957142D01*
X137580952Y-153909523D01*
X137628571Y-153861904D01*
X137676190Y-153766666D01*
X137676190Y-153385714D01*
X137152380Y-154861904D02*
X137152380Y-154385714D01*
X137628571Y-154338095D01*
X137580952Y-154385714D01*
X137533333Y-154480952D01*
X137533333Y-154719047D01*
X137580952Y-154814285D01*
X137628571Y-154861904D01*
X137723809Y-154909523D01*
X137961904Y-154909523D01*
X138057142Y-154861904D01*
X138104761Y-154814285D01*
X138152380Y-154719047D01*
X138152380Y-154480952D01*
X138104761Y-154385714D01*
X138057142Y-154338095D01*
X137152380Y-155242857D02*
X137152380Y-155909523D01*
X138152380Y-155480952D01*
%TO.C,R56*%
X125052380Y-154557142D02*
X124576190Y-154223809D01*
X125052380Y-153985714D02*
X124052380Y-153985714D01*
X124052380Y-154366666D01*
X124100000Y-154461904D01*
X124147619Y-154509523D01*
X124242857Y-154557142D01*
X124385714Y-154557142D01*
X124480952Y-154509523D01*
X124528571Y-154461904D01*
X124576190Y-154366666D01*
X124576190Y-153985714D01*
X124052380Y-155461904D02*
X124052380Y-154985714D01*
X124528571Y-154938095D01*
X124480952Y-154985714D01*
X124433333Y-155080952D01*
X124433333Y-155319047D01*
X124480952Y-155414285D01*
X124528571Y-155461904D01*
X124623809Y-155509523D01*
X124861904Y-155509523D01*
X124957142Y-155461904D01*
X125004761Y-155414285D01*
X125052380Y-155319047D01*
X125052380Y-155080952D01*
X125004761Y-154985714D01*
X124957142Y-154938095D01*
X124052380Y-156366666D02*
X124052380Y-156176190D01*
X124100000Y-156080952D01*
X124147619Y-156033333D01*
X124290476Y-155938095D01*
X124480952Y-155890476D01*
X124861904Y-155890476D01*
X124957142Y-155938095D01*
X125004761Y-155985714D01*
X125052380Y-156080952D01*
X125052380Y-156271428D01*
X125004761Y-156366666D01*
X124957142Y-156414285D01*
X124861904Y-156461904D01*
X124623809Y-156461904D01*
X124528571Y-156414285D01*
X124480952Y-156366666D01*
X124433333Y-156271428D01*
X124433333Y-156080952D01*
X124480952Y-155985714D01*
X124528571Y-155938095D01*
X124623809Y-155890476D01*
%TO.C,R55*%
X128052380Y-154157142D02*
X127576190Y-153823809D01*
X128052380Y-153585714D02*
X127052380Y-153585714D01*
X127052380Y-153966666D01*
X127100000Y-154061904D01*
X127147619Y-154109523D01*
X127242857Y-154157142D01*
X127385714Y-154157142D01*
X127480952Y-154109523D01*
X127528571Y-154061904D01*
X127576190Y-153966666D01*
X127576190Y-153585714D01*
X127052380Y-155061904D02*
X127052380Y-154585714D01*
X127528571Y-154538095D01*
X127480952Y-154585714D01*
X127433333Y-154680952D01*
X127433333Y-154919047D01*
X127480952Y-155014285D01*
X127528571Y-155061904D01*
X127623809Y-155109523D01*
X127861904Y-155109523D01*
X127957142Y-155061904D01*
X128004761Y-155014285D01*
X128052380Y-154919047D01*
X128052380Y-154680952D01*
X128004761Y-154585714D01*
X127957142Y-154538095D01*
X127052380Y-156014285D02*
X127052380Y-155538095D01*
X127528571Y-155490476D01*
X127480952Y-155538095D01*
X127433333Y-155633333D01*
X127433333Y-155871428D01*
X127480952Y-155966666D01*
X127528571Y-156014285D01*
X127623809Y-156061904D01*
X127861904Y-156061904D01*
X127957142Y-156014285D01*
X128004761Y-155966666D01*
X128052380Y-155871428D01*
X128052380Y-155633333D01*
X128004761Y-155538095D01*
X127957142Y-155490476D01*
%TO.C,R54*%
X114852380Y-154557142D02*
X114376190Y-154223809D01*
X114852380Y-153985714D02*
X113852380Y-153985714D01*
X113852380Y-154366666D01*
X113900000Y-154461904D01*
X113947619Y-154509523D01*
X114042857Y-154557142D01*
X114185714Y-154557142D01*
X114280952Y-154509523D01*
X114328571Y-154461904D01*
X114376190Y-154366666D01*
X114376190Y-153985714D01*
X113852380Y-155461904D02*
X113852380Y-154985714D01*
X114328571Y-154938095D01*
X114280952Y-154985714D01*
X114233333Y-155080952D01*
X114233333Y-155319047D01*
X114280952Y-155414285D01*
X114328571Y-155461904D01*
X114423809Y-155509523D01*
X114661904Y-155509523D01*
X114757142Y-155461904D01*
X114804761Y-155414285D01*
X114852380Y-155319047D01*
X114852380Y-155080952D01*
X114804761Y-154985714D01*
X114757142Y-154938095D01*
X114185714Y-156366666D02*
X114852380Y-156366666D01*
X113804761Y-156128571D02*
X114519047Y-155890476D01*
X114519047Y-156509523D01*
%TO.C,R53*%
X117852380Y-154057142D02*
X117376190Y-153723809D01*
X117852380Y-153485714D02*
X116852380Y-153485714D01*
X116852380Y-153866666D01*
X116900000Y-153961904D01*
X116947619Y-154009523D01*
X117042857Y-154057142D01*
X117185714Y-154057142D01*
X117280952Y-154009523D01*
X117328571Y-153961904D01*
X117376190Y-153866666D01*
X117376190Y-153485714D01*
X116852380Y-154961904D02*
X116852380Y-154485714D01*
X117328571Y-154438095D01*
X117280952Y-154485714D01*
X117233333Y-154580952D01*
X117233333Y-154819047D01*
X117280952Y-154914285D01*
X117328571Y-154961904D01*
X117423809Y-155009523D01*
X117661904Y-155009523D01*
X117757142Y-154961904D01*
X117804761Y-154914285D01*
X117852380Y-154819047D01*
X117852380Y-154580952D01*
X117804761Y-154485714D01*
X117757142Y-154438095D01*
X116852380Y-155342857D02*
X116852380Y-155961904D01*
X117233333Y-155628571D01*
X117233333Y-155771428D01*
X117280952Y-155866666D01*
X117328571Y-155914285D01*
X117423809Y-155961904D01*
X117661904Y-155961904D01*
X117757142Y-155914285D01*
X117804761Y-155866666D01*
X117852380Y-155771428D01*
X117852380Y-155485714D01*
X117804761Y-155390476D01*
X117757142Y-155342857D01*
%TO.C,R52*%
X104652380Y-154457142D02*
X104176190Y-154123809D01*
X104652380Y-153885714D02*
X103652380Y-153885714D01*
X103652380Y-154266666D01*
X103700000Y-154361904D01*
X103747619Y-154409523D01*
X103842857Y-154457142D01*
X103985714Y-154457142D01*
X104080952Y-154409523D01*
X104128571Y-154361904D01*
X104176190Y-154266666D01*
X104176190Y-153885714D01*
X103652380Y-155361904D02*
X103652380Y-154885714D01*
X104128571Y-154838095D01*
X104080952Y-154885714D01*
X104033333Y-154980952D01*
X104033333Y-155219047D01*
X104080952Y-155314285D01*
X104128571Y-155361904D01*
X104223809Y-155409523D01*
X104461904Y-155409523D01*
X104557142Y-155361904D01*
X104604761Y-155314285D01*
X104652380Y-155219047D01*
X104652380Y-154980952D01*
X104604761Y-154885714D01*
X104557142Y-154838095D01*
X103747619Y-155790476D02*
X103700000Y-155838095D01*
X103652380Y-155933333D01*
X103652380Y-156171428D01*
X103700000Y-156266666D01*
X103747619Y-156314285D01*
X103842857Y-156361904D01*
X103938095Y-156361904D01*
X104080952Y-156314285D01*
X104652380Y-155742857D01*
X104652380Y-156361904D01*
%TO.C,R51*%
X107652380Y-154157142D02*
X107176190Y-153823809D01*
X107652380Y-153585714D02*
X106652380Y-153585714D01*
X106652380Y-153966666D01*
X106700000Y-154061904D01*
X106747619Y-154109523D01*
X106842857Y-154157142D01*
X106985714Y-154157142D01*
X107080952Y-154109523D01*
X107128571Y-154061904D01*
X107176190Y-153966666D01*
X107176190Y-153585714D01*
X106652380Y-155061904D02*
X106652380Y-154585714D01*
X107128571Y-154538095D01*
X107080952Y-154585714D01*
X107033333Y-154680952D01*
X107033333Y-154919047D01*
X107080952Y-155014285D01*
X107128571Y-155061904D01*
X107223809Y-155109523D01*
X107461904Y-155109523D01*
X107557142Y-155061904D01*
X107604761Y-155014285D01*
X107652380Y-154919047D01*
X107652380Y-154680952D01*
X107604761Y-154585714D01*
X107557142Y-154538095D01*
X107652380Y-156061904D02*
X107652380Y-155490476D01*
X107652380Y-155776190D02*
X106652380Y-155776190D01*
X106795238Y-155680952D01*
X106890476Y-155585714D01*
X106938095Y-155490476D01*
%TO.C,R50*%
X94452380Y-154557142D02*
X93976190Y-154223809D01*
X94452380Y-153985714D02*
X93452380Y-153985714D01*
X93452380Y-154366666D01*
X93500000Y-154461904D01*
X93547619Y-154509523D01*
X93642857Y-154557142D01*
X93785714Y-154557142D01*
X93880952Y-154509523D01*
X93928571Y-154461904D01*
X93976190Y-154366666D01*
X93976190Y-153985714D01*
X93452380Y-155461904D02*
X93452380Y-154985714D01*
X93928571Y-154938095D01*
X93880952Y-154985714D01*
X93833333Y-155080952D01*
X93833333Y-155319047D01*
X93880952Y-155414285D01*
X93928571Y-155461904D01*
X94023809Y-155509523D01*
X94261904Y-155509523D01*
X94357142Y-155461904D01*
X94404761Y-155414285D01*
X94452380Y-155319047D01*
X94452380Y-155080952D01*
X94404761Y-154985714D01*
X94357142Y-154938095D01*
X93452380Y-156128571D02*
X93452380Y-156223809D01*
X93500000Y-156319047D01*
X93547619Y-156366666D01*
X93642857Y-156414285D01*
X93833333Y-156461904D01*
X94071428Y-156461904D01*
X94261904Y-156414285D01*
X94357142Y-156366666D01*
X94404761Y-156319047D01*
X94452380Y-156223809D01*
X94452380Y-156128571D01*
X94404761Y-156033333D01*
X94357142Y-155985714D01*
X94261904Y-155938095D01*
X94071428Y-155890476D01*
X93833333Y-155890476D01*
X93642857Y-155938095D01*
X93547619Y-155985714D01*
X93500000Y-156033333D01*
X93452380Y-156128571D01*
%TO.C,R49*%
X212302380Y-92157142D02*
X211826190Y-91823809D01*
X212302380Y-91585714D02*
X211302380Y-91585714D01*
X211302380Y-91966666D01*
X211350000Y-92061904D01*
X211397619Y-92109523D01*
X211492857Y-92157142D01*
X211635714Y-92157142D01*
X211730952Y-92109523D01*
X211778571Y-92061904D01*
X211826190Y-91966666D01*
X211826190Y-91585714D01*
X211635714Y-93014285D02*
X212302380Y-93014285D01*
X211254761Y-92776190D02*
X211969047Y-92538095D01*
X211969047Y-93157142D01*
X212302380Y-93585714D02*
X212302380Y-93776190D01*
X212254761Y-93871428D01*
X212207142Y-93919047D01*
X212064285Y-94014285D01*
X211873809Y-94061904D01*
X211492857Y-94061904D01*
X211397619Y-94014285D01*
X211350000Y-93966666D01*
X211302380Y-93871428D01*
X211302380Y-93680952D01*
X211350000Y-93585714D01*
X211397619Y-93538095D01*
X211492857Y-93490476D01*
X211730952Y-93490476D01*
X211826190Y-93538095D01*
X211873809Y-93585714D01*
X211921428Y-93680952D01*
X211921428Y-93871428D01*
X211873809Y-93966666D01*
X211826190Y-94014285D01*
X211730952Y-94061904D01*
%TO.C,R48*%
X209102380Y-76057142D02*
X208626190Y-75723809D01*
X209102380Y-75485714D02*
X208102380Y-75485714D01*
X208102380Y-75866666D01*
X208150000Y-75961904D01*
X208197619Y-76009523D01*
X208292857Y-76057142D01*
X208435714Y-76057142D01*
X208530952Y-76009523D01*
X208578571Y-75961904D01*
X208626190Y-75866666D01*
X208626190Y-75485714D01*
X208435714Y-76914285D02*
X209102380Y-76914285D01*
X208054761Y-76676190D02*
X208769047Y-76438095D01*
X208769047Y-77057142D01*
X208530952Y-77580952D02*
X208483333Y-77485714D01*
X208435714Y-77438095D01*
X208340476Y-77390476D01*
X208292857Y-77390476D01*
X208197619Y-77438095D01*
X208150000Y-77485714D01*
X208102380Y-77580952D01*
X208102380Y-77771428D01*
X208150000Y-77866666D01*
X208197619Y-77914285D01*
X208292857Y-77961904D01*
X208340476Y-77961904D01*
X208435714Y-77914285D01*
X208483333Y-77866666D01*
X208530952Y-77771428D01*
X208530952Y-77580952D01*
X208578571Y-77485714D01*
X208626190Y-77438095D01*
X208721428Y-77390476D01*
X208911904Y-77390476D01*
X209007142Y-77438095D01*
X209054761Y-77485714D01*
X209102380Y-77580952D01*
X209102380Y-77771428D01*
X209054761Y-77866666D01*
X209007142Y-77914285D01*
X208911904Y-77961904D01*
X208721428Y-77961904D01*
X208626190Y-77914285D01*
X208578571Y-77866666D01*
X208530952Y-77771428D01*
%TO.C,R47*%
X201602380Y-77857142D02*
X201126190Y-77523809D01*
X201602380Y-77285714D02*
X200602380Y-77285714D01*
X200602380Y-77666666D01*
X200650000Y-77761904D01*
X200697619Y-77809523D01*
X200792857Y-77857142D01*
X200935714Y-77857142D01*
X201030952Y-77809523D01*
X201078571Y-77761904D01*
X201126190Y-77666666D01*
X201126190Y-77285714D01*
X200935714Y-78714285D02*
X201602380Y-78714285D01*
X200554761Y-78476190D02*
X201269047Y-78238095D01*
X201269047Y-78857142D01*
X200602380Y-79142857D02*
X200602380Y-79809523D01*
X201602380Y-79380952D01*
%TO.C,R46*%
X217242857Y-75552380D02*
X217576190Y-75076190D01*
X217814285Y-75552380D02*
X217814285Y-74552380D01*
X217433333Y-74552380D01*
X217338095Y-74600000D01*
X217290476Y-74647619D01*
X217242857Y-74742857D01*
X217242857Y-74885714D01*
X217290476Y-74980952D01*
X217338095Y-75028571D01*
X217433333Y-75076190D01*
X217814285Y-75076190D01*
X216385714Y-74885714D02*
X216385714Y-75552380D01*
X216623809Y-74504761D02*
X216861904Y-75219047D01*
X216242857Y-75219047D01*
X215433333Y-74552380D02*
X215623809Y-74552380D01*
X215719047Y-74600000D01*
X215766666Y-74647619D01*
X215861904Y-74790476D01*
X215909523Y-74980952D01*
X215909523Y-75361904D01*
X215861904Y-75457142D01*
X215814285Y-75504761D01*
X215719047Y-75552380D01*
X215528571Y-75552380D01*
X215433333Y-75504761D01*
X215385714Y-75457142D01*
X215338095Y-75361904D01*
X215338095Y-75123809D01*
X215385714Y-75028571D01*
X215433333Y-74980952D01*
X215528571Y-74933333D01*
X215719047Y-74933333D01*
X215814285Y-74980952D01*
X215861904Y-75028571D01*
X215909523Y-75123809D01*
%TO.C,R45*%
X209552380Y-64457142D02*
X209076190Y-64123809D01*
X209552380Y-63885714D02*
X208552380Y-63885714D01*
X208552380Y-64266666D01*
X208600000Y-64361904D01*
X208647619Y-64409523D01*
X208742857Y-64457142D01*
X208885714Y-64457142D01*
X208980952Y-64409523D01*
X209028571Y-64361904D01*
X209076190Y-64266666D01*
X209076190Y-63885714D01*
X208885714Y-65314285D02*
X209552380Y-65314285D01*
X208504761Y-65076190D02*
X209219047Y-64838095D01*
X209219047Y-65457142D01*
X208552380Y-66314285D02*
X208552380Y-65838095D01*
X209028571Y-65790476D01*
X208980952Y-65838095D01*
X208933333Y-65933333D01*
X208933333Y-66171428D01*
X208980952Y-66266666D01*
X209028571Y-66314285D01*
X209123809Y-66361904D01*
X209361904Y-66361904D01*
X209457142Y-66314285D01*
X209504761Y-66266666D01*
X209552380Y-66171428D01*
X209552380Y-65933333D01*
X209504761Y-65838095D01*
X209457142Y-65790476D01*
%TO.C,R44*%
X219652380Y-85657142D02*
X219176190Y-85323809D01*
X219652380Y-85085714D02*
X218652380Y-85085714D01*
X218652380Y-85466666D01*
X218700000Y-85561904D01*
X218747619Y-85609523D01*
X218842857Y-85657142D01*
X218985714Y-85657142D01*
X219080952Y-85609523D01*
X219128571Y-85561904D01*
X219176190Y-85466666D01*
X219176190Y-85085714D01*
X218985714Y-86514285D02*
X219652380Y-86514285D01*
X218604761Y-86276190D02*
X219319047Y-86038095D01*
X219319047Y-86657142D01*
X218985714Y-87466666D02*
X219652380Y-87466666D01*
X218604761Y-87228571D02*
X219319047Y-86990476D01*
X219319047Y-87609523D01*
%TO.C,R43*%
X186452380Y-78957142D02*
X185976190Y-78623809D01*
X186452380Y-78385714D02*
X185452380Y-78385714D01*
X185452380Y-78766666D01*
X185500000Y-78861904D01*
X185547619Y-78909523D01*
X185642857Y-78957142D01*
X185785714Y-78957142D01*
X185880952Y-78909523D01*
X185928571Y-78861904D01*
X185976190Y-78766666D01*
X185976190Y-78385714D01*
X185785714Y-79814285D02*
X186452380Y-79814285D01*
X185404761Y-79576190D02*
X186119047Y-79338095D01*
X186119047Y-79957142D01*
X185452380Y-80242857D02*
X185452380Y-80861904D01*
X185833333Y-80528571D01*
X185833333Y-80671428D01*
X185880952Y-80766666D01*
X185928571Y-80814285D01*
X186023809Y-80861904D01*
X186261904Y-80861904D01*
X186357142Y-80814285D01*
X186404761Y-80766666D01*
X186452380Y-80671428D01*
X186452380Y-80385714D01*
X186404761Y-80290476D01*
X186357142Y-80242857D01*
%TO.C,R42*%
X189042857Y-94502380D02*
X189376190Y-94026190D01*
X189614285Y-94502380D02*
X189614285Y-93502380D01*
X189233333Y-93502380D01*
X189138095Y-93550000D01*
X189090476Y-93597619D01*
X189042857Y-93692857D01*
X189042857Y-93835714D01*
X189090476Y-93930952D01*
X189138095Y-93978571D01*
X189233333Y-94026190D01*
X189614285Y-94026190D01*
X188185714Y-93835714D02*
X188185714Y-94502380D01*
X188423809Y-93454761D02*
X188661904Y-94169047D01*
X188042857Y-94169047D01*
X187709523Y-93597619D02*
X187661904Y-93550000D01*
X187566666Y-93502380D01*
X187328571Y-93502380D01*
X187233333Y-93550000D01*
X187185714Y-93597619D01*
X187138095Y-93692857D01*
X187138095Y-93788095D01*
X187185714Y-93930952D01*
X187757142Y-94502380D01*
X187138095Y-94502380D01*
%TO.C,R41*%
X188942857Y-104602380D02*
X189276190Y-104126190D01*
X189514285Y-104602380D02*
X189514285Y-103602380D01*
X189133333Y-103602380D01*
X189038095Y-103650000D01*
X188990476Y-103697619D01*
X188942857Y-103792857D01*
X188942857Y-103935714D01*
X188990476Y-104030952D01*
X189038095Y-104078571D01*
X189133333Y-104126190D01*
X189514285Y-104126190D01*
X188085714Y-103935714D02*
X188085714Y-104602380D01*
X188323809Y-103554761D02*
X188561904Y-104269047D01*
X187942857Y-104269047D01*
X187038095Y-104602380D02*
X187609523Y-104602380D01*
X187323809Y-104602380D02*
X187323809Y-103602380D01*
X187419047Y-103745238D01*
X187514285Y-103840476D01*
X187609523Y-103888095D01*
%TO.C,R40*%
X181542857Y-99652380D02*
X181876190Y-99176190D01*
X182114285Y-99652380D02*
X182114285Y-98652380D01*
X181733333Y-98652380D01*
X181638095Y-98700000D01*
X181590476Y-98747619D01*
X181542857Y-98842857D01*
X181542857Y-98985714D01*
X181590476Y-99080952D01*
X181638095Y-99128571D01*
X181733333Y-99176190D01*
X182114285Y-99176190D01*
X180685714Y-98985714D02*
X180685714Y-99652380D01*
X180923809Y-98604761D02*
X181161904Y-99319047D01*
X180542857Y-99319047D01*
X179971428Y-98652380D02*
X179876190Y-98652380D01*
X179780952Y-98700000D01*
X179733333Y-98747619D01*
X179685714Y-98842857D01*
X179638095Y-99033333D01*
X179638095Y-99271428D01*
X179685714Y-99461904D01*
X179733333Y-99557142D01*
X179780952Y-99604761D01*
X179876190Y-99652380D01*
X179971428Y-99652380D01*
X180066666Y-99604761D01*
X180114285Y-99557142D01*
X180161904Y-99461904D01*
X180209523Y-99271428D01*
X180209523Y-99033333D01*
X180161904Y-98842857D01*
X180114285Y-98747619D01*
X180066666Y-98700000D01*
X179971428Y-98652380D01*
%TO.C,R39*%
X181542857Y-109952380D02*
X181876190Y-109476190D01*
X182114285Y-109952380D02*
X182114285Y-108952380D01*
X181733333Y-108952380D01*
X181638095Y-109000000D01*
X181590476Y-109047619D01*
X181542857Y-109142857D01*
X181542857Y-109285714D01*
X181590476Y-109380952D01*
X181638095Y-109428571D01*
X181733333Y-109476190D01*
X182114285Y-109476190D01*
X181209523Y-108952380D02*
X180590476Y-108952380D01*
X180923809Y-109333333D01*
X180780952Y-109333333D01*
X180685714Y-109380952D01*
X180638095Y-109428571D01*
X180590476Y-109523809D01*
X180590476Y-109761904D01*
X180638095Y-109857142D01*
X180685714Y-109904761D01*
X180780952Y-109952380D01*
X181066666Y-109952380D01*
X181161904Y-109904761D01*
X181209523Y-109857142D01*
X180114285Y-109952380D02*
X179923809Y-109952380D01*
X179828571Y-109904761D01*
X179780952Y-109857142D01*
X179685714Y-109714285D01*
X179638095Y-109523809D01*
X179638095Y-109142857D01*
X179685714Y-109047619D01*
X179733333Y-109000000D01*
X179828571Y-108952380D01*
X180019047Y-108952380D01*
X180114285Y-109000000D01*
X180161904Y-109047619D01*
X180209523Y-109142857D01*
X180209523Y-109380952D01*
X180161904Y-109476190D01*
X180114285Y-109523809D01*
X180019047Y-109571428D01*
X179828571Y-109571428D01*
X179733333Y-109523809D01*
X179685714Y-109476190D01*
X179638095Y-109380952D01*
%TO.C,R38*%
X211752380Y-150257142D02*
X211276190Y-149923809D01*
X211752380Y-149685714D02*
X210752380Y-149685714D01*
X210752380Y-150066666D01*
X210800000Y-150161904D01*
X210847619Y-150209523D01*
X210942857Y-150257142D01*
X211085714Y-150257142D01*
X211180952Y-150209523D01*
X211228571Y-150161904D01*
X211276190Y-150066666D01*
X211276190Y-149685714D01*
X210752380Y-150590476D02*
X210752380Y-151209523D01*
X211133333Y-150876190D01*
X211133333Y-151019047D01*
X211180952Y-151114285D01*
X211228571Y-151161904D01*
X211323809Y-151209523D01*
X211561904Y-151209523D01*
X211657142Y-151161904D01*
X211704761Y-151114285D01*
X211752380Y-151019047D01*
X211752380Y-150733333D01*
X211704761Y-150638095D01*
X211657142Y-150590476D01*
X211180952Y-151780952D02*
X211133333Y-151685714D01*
X211085714Y-151638095D01*
X210990476Y-151590476D01*
X210942857Y-151590476D01*
X210847619Y-151638095D01*
X210800000Y-151685714D01*
X210752380Y-151780952D01*
X210752380Y-151971428D01*
X210800000Y-152066666D01*
X210847619Y-152114285D01*
X210942857Y-152161904D01*
X210990476Y-152161904D01*
X211085714Y-152114285D01*
X211133333Y-152066666D01*
X211180952Y-151971428D01*
X211180952Y-151780952D01*
X211228571Y-151685714D01*
X211276190Y-151638095D01*
X211371428Y-151590476D01*
X211561904Y-151590476D01*
X211657142Y-151638095D01*
X211704761Y-151685714D01*
X211752380Y-151780952D01*
X211752380Y-151971428D01*
X211704761Y-152066666D01*
X211657142Y-152114285D01*
X211561904Y-152161904D01*
X211371428Y-152161904D01*
X211276190Y-152114285D01*
X211228571Y-152066666D01*
X211180952Y-151971428D01*
%TO.C,R37*%
X218402380Y-129157142D02*
X217926190Y-128823809D01*
X218402380Y-128585714D02*
X217402380Y-128585714D01*
X217402380Y-128966666D01*
X217450000Y-129061904D01*
X217497619Y-129109523D01*
X217592857Y-129157142D01*
X217735714Y-129157142D01*
X217830952Y-129109523D01*
X217878571Y-129061904D01*
X217926190Y-128966666D01*
X217926190Y-128585714D01*
X217402380Y-129490476D02*
X217402380Y-130109523D01*
X217783333Y-129776190D01*
X217783333Y-129919047D01*
X217830952Y-130014285D01*
X217878571Y-130061904D01*
X217973809Y-130109523D01*
X218211904Y-130109523D01*
X218307142Y-130061904D01*
X218354761Y-130014285D01*
X218402380Y-129919047D01*
X218402380Y-129633333D01*
X218354761Y-129538095D01*
X218307142Y-129490476D01*
X217402380Y-130442857D02*
X217402380Y-131109523D01*
X218402380Y-130680952D01*
%TO.C,R36*%
X186002380Y-149857142D02*
X185526190Y-149523809D01*
X186002380Y-149285714D02*
X185002380Y-149285714D01*
X185002380Y-149666666D01*
X185050000Y-149761904D01*
X185097619Y-149809523D01*
X185192857Y-149857142D01*
X185335714Y-149857142D01*
X185430952Y-149809523D01*
X185478571Y-149761904D01*
X185526190Y-149666666D01*
X185526190Y-149285714D01*
X185002380Y-150190476D02*
X185002380Y-150809523D01*
X185383333Y-150476190D01*
X185383333Y-150619047D01*
X185430952Y-150714285D01*
X185478571Y-150761904D01*
X185573809Y-150809523D01*
X185811904Y-150809523D01*
X185907142Y-150761904D01*
X185954761Y-150714285D01*
X186002380Y-150619047D01*
X186002380Y-150333333D01*
X185954761Y-150238095D01*
X185907142Y-150190476D01*
X185002380Y-151666666D02*
X185002380Y-151476190D01*
X185050000Y-151380952D01*
X185097619Y-151333333D01*
X185240476Y-151238095D01*
X185430952Y-151190476D01*
X185811904Y-151190476D01*
X185907142Y-151238095D01*
X185954761Y-151285714D01*
X186002380Y-151380952D01*
X186002380Y-151571428D01*
X185954761Y-151666666D01*
X185907142Y-151714285D01*
X185811904Y-151761904D01*
X185573809Y-151761904D01*
X185478571Y-151714285D01*
X185430952Y-151666666D01*
X185383333Y-151571428D01*
X185383333Y-151380952D01*
X185430952Y-151285714D01*
X185478571Y-151238095D01*
X185573809Y-151190476D01*
%TO.C,R35*%
X199552380Y-144857142D02*
X199076190Y-144523809D01*
X199552380Y-144285714D02*
X198552380Y-144285714D01*
X198552380Y-144666666D01*
X198600000Y-144761904D01*
X198647619Y-144809523D01*
X198742857Y-144857142D01*
X198885714Y-144857142D01*
X198980952Y-144809523D01*
X199028571Y-144761904D01*
X199076190Y-144666666D01*
X199076190Y-144285714D01*
X198552380Y-145190476D02*
X198552380Y-145809523D01*
X198933333Y-145476190D01*
X198933333Y-145619047D01*
X198980952Y-145714285D01*
X199028571Y-145761904D01*
X199123809Y-145809523D01*
X199361904Y-145809523D01*
X199457142Y-145761904D01*
X199504761Y-145714285D01*
X199552380Y-145619047D01*
X199552380Y-145333333D01*
X199504761Y-145238095D01*
X199457142Y-145190476D01*
X198552380Y-146714285D02*
X198552380Y-146238095D01*
X199028571Y-146190476D01*
X198980952Y-146238095D01*
X198933333Y-146333333D01*
X198933333Y-146571428D01*
X198980952Y-146666666D01*
X199028571Y-146714285D01*
X199123809Y-146761904D01*
X199361904Y-146761904D01*
X199457142Y-146714285D01*
X199504761Y-146666666D01*
X199552380Y-146571428D01*
X199552380Y-146333333D01*
X199504761Y-146238095D01*
X199457142Y-146190476D01*
%TO.C,R34*%
X186002380Y-138344642D02*
X185526190Y-138011309D01*
X186002380Y-137773214D02*
X185002380Y-137773214D01*
X185002380Y-138154166D01*
X185050000Y-138249404D01*
X185097619Y-138297023D01*
X185192857Y-138344642D01*
X185335714Y-138344642D01*
X185430952Y-138297023D01*
X185478571Y-138249404D01*
X185526190Y-138154166D01*
X185526190Y-137773214D01*
X185002380Y-138677976D02*
X185002380Y-139297023D01*
X185383333Y-138963690D01*
X185383333Y-139106547D01*
X185430952Y-139201785D01*
X185478571Y-139249404D01*
X185573809Y-139297023D01*
X185811904Y-139297023D01*
X185907142Y-139249404D01*
X185954761Y-139201785D01*
X186002380Y-139106547D01*
X186002380Y-138820833D01*
X185954761Y-138725595D01*
X185907142Y-138677976D01*
X185335714Y-140154166D02*
X186002380Y-140154166D01*
X184954761Y-139916071D02*
X185669047Y-139677976D01*
X185669047Y-140297023D01*
%TO.C,R33*%
X200455357Y-136902380D02*
X200788690Y-136426190D01*
X201026785Y-136902380D02*
X201026785Y-135902380D01*
X200645833Y-135902380D01*
X200550595Y-135950000D01*
X200502976Y-135997619D01*
X200455357Y-136092857D01*
X200455357Y-136235714D01*
X200502976Y-136330952D01*
X200550595Y-136378571D01*
X200645833Y-136426190D01*
X201026785Y-136426190D01*
X200122023Y-135902380D02*
X199502976Y-135902380D01*
X199836309Y-136283333D01*
X199693452Y-136283333D01*
X199598214Y-136330952D01*
X199550595Y-136378571D01*
X199502976Y-136473809D01*
X199502976Y-136711904D01*
X199550595Y-136807142D01*
X199598214Y-136854761D01*
X199693452Y-136902380D01*
X199979166Y-136902380D01*
X200074404Y-136854761D01*
X200122023Y-136807142D01*
X199169642Y-135902380D02*
X198550595Y-135902380D01*
X198883928Y-136283333D01*
X198741071Y-136283333D01*
X198645833Y-136330952D01*
X198598214Y-136378571D01*
X198550595Y-136473809D01*
X198550595Y-136711904D01*
X198598214Y-136807142D01*
X198645833Y-136854761D01*
X198741071Y-136902380D01*
X199026785Y-136902380D01*
X199122023Y-136854761D01*
X199169642Y-136807142D01*
%TO.C,R32*%
X185802380Y-126757142D02*
X185326190Y-126423809D01*
X185802380Y-126185714D02*
X184802380Y-126185714D01*
X184802380Y-126566666D01*
X184850000Y-126661904D01*
X184897619Y-126709523D01*
X184992857Y-126757142D01*
X185135714Y-126757142D01*
X185230952Y-126709523D01*
X185278571Y-126661904D01*
X185326190Y-126566666D01*
X185326190Y-126185714D01*
X184802380Y-127090476D02*
X184802380Y-127709523D01*
X185183333Y-127376190D01*
X185183333Y-127519047D01*
X185230952Y-127614285D01*
X185278571Y-127661904D01*
X185373809Y-127709523D01*
X185611904Y-127709523D01*
X185707142Y-127661904D01*
X185754761Y-127614285D01*
X185802380Y-127519047D01*
X185802380Y-127233333D01*
X185754761Y-127138095D01*
X185707142Y-127090476D01*
X184897619Y-128090476D02*
X184850000Y-128138095D01*
X184802380Y-128233333D01*
X184802380Y-128471428D01*
X184850000Y-128566666D01*
X184897619Y-128614285D01*
X184992857Y-128661904D01*
X185088095Y-128661904D01*
X185230952Y-128614285D01*
X185802380Y-128042857D01*
X185802380Y-128661904D01*
%TO.C,R30*%
X204852380Y-126557142D02*
X204376190Y-126223809D01*
X204852380Y-125985714D02*
X203852380Y-125985714D01*
X203852380Y-126366666D01*
X203900000Y-126461904D01*
X203947619Y-126509523D01*
X204042857Y-126557142D01*
X204185714Y-126557142D01*
X204280952Y-126509523D01*
X204328571Y-126461904D01*
X204376190Y-126366666D01*
X204376190Y-125985714D01*
X203852380Y-126890476D02*
X203852380Y-127509523D01*
X204233333Y-127176190D01*
X204233333Y-127319047D01*
X204280952Y-127414285D01*
X204328571Y-127461904D01*
X204423809Y-127509523D01*
X204661904Y-127509523D01*
X204757142Y-127461904D01*
X204804761Y-127414285D01*
X204852380Y-127319047D01*
X204852380Y-127033333D01*
X204804761Y-126938095D01*
X204757142Y-126890476D01*
X203852380Y-128128571D02*
X203852380Y-128223809D01*
X203900000Y-128319047D01*
X203947619Y-128366666D01*
X204042857Y-128414285D01*
X204233333Y-128461904D01*
X204471428Y-128461904D01*
X204661904Y-128414285D01*
X204757142Y-128366666D01*
X204804761Y-128319047D01*
X204852380Y-128223809D01*
X204852380Y-128128571D01*
X204804761Y-128033333D01*
X204757142Y-127985714D01*
X204661904Y-127938095D01*
X204471428Y-127890476D01*
X204233333Y-127890476D01*
X204042857Y-127938095D01*
X203947619Y-127985714D01*
X203900000Y-128033333D01*
X203852380Y-128128571D01*
%TO.C,R28*%
X145502380Y-98257142D02*
X145026190Y-97923809D01*
X145502380Y-97685714D02*
X144502380Y-97685714D01*
X144502380Y-98066666D01*
X144550000Y-98161904D01*
X144597619Y-98209523D01*
X144692857Y-98257142D01*
X144835714Y-98257142D01*
X144930952Y-98209523D01*
X144978571Y-98161904D01*
X145026190Y-98066666D01*
X145026190Y-97685714D01*
X144597619Y-98638095D02*
X144550000Y-98685714D01*
X144502380Y-98780952D01*
X144502380Y-99019047D01*
X144550000Y-99114285D01*
X144597619Y-99161904D01*
X144692857Y-99209523D01*
X144788095Y-99209523D01*
X144930952Y-99161904D01*
X145502380Y-98590476D01*
X145502380Y-99209523D01*
X144930952Y-99780952D02*
X144883333Y-99685714D01*
X144835714Y-99638095D01*
X144740476Y-99590476D01*
X144692857Y-99590476D01*
X144597619Y-99638095D01*
X144550000Y-99685714D01*
X144502380Y-99780952D01*
X144502380Y-99971428D01*
X144550000Y-100066666D01*
X144597619Y-100114285D01*
X144692857Y-100161904D01*
X144740476Y-100161904D01*
X144835714Y-100114285D01*
X144883333Y-100066666D01*
X144930952Y-99971428D01*
X144930952Y-99780952D01*
X144978571Y-99685714D01*
X145026190Y-99638095D01*
X145121428Y-99590476D01*
X145311904Y-99590476D01*
X145407142Y-99638095D01*
X145454761Y-99685714D01*
X145502380Y-99780952D01*
X145502380Y-99971428D01*
X145454761Y-100066666D01*
X145407142Y-100114285D01*
X145311904Y-100161904D01*
X145121428Y-100161904D01*
X145026190Y-100114285D01*
X144978571Y-100066666D01*
X144930952Y-99971428D01*
%TO.C,R27*%
X152102380Y-98257142D02*
X151626190Y-97923809D01*
X152102380Y-97685714D02*
X151102380Y-97685714D01*
X151102380Y-98066666D01*
X151150000Y-98161904D01*
X151197619Y-98209523D01*
X151292857Y-98257142D01*
X151435714Y-98257142D01*
X151530952Y-98209523D01*
X151578571Y-98161904D01*
X151626190Y-98066666D01*
X151626190Y-97685714D01*
X151197619Y-98638095D02*
X151150000Y-98685714D01*
X151102380Y-98780952D01*
X151102380Y-99019047D01*
X151150000Y-99114285D01*
X151197619Y-99161904D01*
X151292857Y-99209523D01*
X151388095Y-99209523D01*
X151530952Y-99161904D01*
X152102380Y-98590476D01*
X152102380Y-99209523D01*
X151102380Y-99542857D02*
X151102380Y-100209523D01*
X152102380Y-99780952D01*
%TO.C,R26*%
X135202380Y-98057142D02*
X134726190Y-97723809D01*
X135202380Y-97485714D02*
X134202380Y-97485714D01*
X134202380Y-97866666D01*
X134250000Y-97961904D01*
X134297619Y-98009523D01*
X134392857Y-98057142D01*
X134535714Y-98057142D01*
X134630952Y-98009523D01*
X134678571Y-97961904D01*
X134726190Y-97866666D01*
X134726190Y-97485714D01*
X134297619Y-98438095D02*
X134250000Y-98485714D01*
X134202380Y-98580952D01*
X134202380Y-98819047D01*
X134250000Y-98914285D01*
X134297619Y-98961904D01*
X134392857Y-99009523D01*
X134488095Y-99009523D01*
X134630952Y-98961904D01*
X135202380Y-98390476D01*
X135202380Y-99009523D01*
X134202380Y-99866666D02*
X134202380Y-99676190D01*
X134250000Y-99580952D01*
X134297619Y-99533333D01*
X134440476Y-99438095D01*
X134630952Y-99390476D01*
X135011904Y-99390476D01*
X135107142Y-99438095D01*
X135154761Y-99485714D01*
X135202380Y-99580952D01*
X135202380Y-99771428D01*
X135154761Y-99866666D01*
X135107142Y-99914285D01*
X135011904Y-99961904D01*
X134773809Y-99961904D01*
X134678571Y-99914285D01*
X134630952Y-99866666D01*
X134583333Y-99771428D01*
X134583333Y-99580952D01*
X134630952Y-99485714D01*
X134678571Y-99438095D01*
X134773809Y-99390476D01*
%TO.C,R25*%
X135302380Y-88857142D02*
X134826190Y-88523809D01*
X135302380Y-88285714D02*
X134302380Y-88285714D01*
X134302380Y-88666666D01*
X134350000Y-88761904D01*
X134397619Y-88809523D01*
X134492857Y-88857142D01*
X134635714Y-88857142D01*
X134730952Y-88809523D01*
X134778571Y-88761904D01*
X134826190Y-88666666D01*
X134826190Y-88285714D01*
X134397619Y-89238095D02*
X134350000Y-89285714D01*
X134302380Y-89380952D01*
X134302380Y-89619047D01*
X134350000Y-89714285D01*
X134397619Y-89761904D01*
X134492857Y-89809523D01*
X134588095Y-89809523D01*
X134730952Y-89761904D01*
X135302380Y-89190476D01*
X135302380Y-89809523D01*
X134302380Y-90714285D02*
X134302380Y-90238095D01*
X134778571Y-90190476D01*
X134730952Y-90238095D01*
X134683333Y-90333333D01*
X134683333Y-90571428D01*
X134730952Y-90666666D01*
X134778571Y-90714285D01*
X134873809Y-90761904D01*
X135111904Y-90761904D01*
X135207142Y-90714285D01*
X135254761Y-90666666D01*
X135302380Y-90571428D01*
X135302380Y-90333333D01*
X135254761Y-90238095D01*
X135207142Y-90190476D01*
%TO.C,R24*%
X134802380Y-103457142D02*
X134326190Y-103123809D01*
X134802380Y-102885714D02*
X133802380Y-102885714D01*
X133802380Y-103266666D01*
X133850000Y-103361904D01*
X133897619Y-103409523D01*
X133992857Y-103457142D01*
X134135714Y-103457142D01*
X134230952Y-103409523D01*
X134278571Y-103361904D01*
X134326190Y-103266666D01*
X134326190Y-102885714D01*
X133897619Y-103838095D02*
X133850000Y-103885714D01*
X133802380Y-103980952D01*
X133802380Y-104219047D01*
X133850000Y-104314285D01*
X133897619Y-104361904D01*
X133992857Y-104409523D01*
X134088095Y-104409523D01*
X134230952Y-104361904D01*
X134802380Y-103790476D01*
X134802380Y-104409523D01*
X134135714Y-105266666D02*
X134802380Y-105266666D01*
X133754761Y-105028571D02*
X134469047Y-104790476D01*
X134469047Y-105409523D01*
%TO.C,R23*%
X140502380Y-84757142D02*
X140026190Y-84423809D01*
X140502380Y-84185714D02*
X139502380Y-84185714D01*
X139502380Y-84566666D01*
X139550000Y-84661904D01*
X139597619Y-84709523D01*
X139692857Y-84757142D01*
X139835714Y-84757142D01*
X139930952Y-84709523D01*
X139978571Y-84661904D01*
X140026190Y-84566666D01*
X140026190Y-84185714D01*
X139597619Y-85138095D02*
X139550000Y-85185714D01*
X139502380Y-85280952D01*
X139502380Y-85519047D01*
X139550000Y-85614285D01*
X139597619Y-85661904D01*
X139692857Y-85709523D01*
X139788095Y-85709523D01*
X139930952Y-85661904D01*
X140502380Y-85090476D01*
X140502380Y-85709523D01*
X139502380Y-86042857D02*
X139502380Y-86661904D01*
X139883333Y-86328571D01*
X139883333Y-86471428D01*
X139930952Y-86566666D01*
X139978571Y-86614285D01*
X140073809Y-86661904D01*
X140311904Y-86661904D01*
X140407142Y-86614285D01*
X140454761Y-86566666D01*
X140502380Y-86471428D01*
X140502380Y-86185714D01*
X140454761Y-86090476D01*
X140407142Y-86042857D01*
%TO.C,R22*%
X124902380Y-98057142D02*
X124426190Y-97723809D01*
X124902380Y-97485714D02*
X123902380Y-97485714D01*
X123902380Y-97866666D01*
X123950000Y-97961904D01*
X123997619Y-98009523D01*
X124092857Y-98057142D01*
X124235714Y-98057142D01*
X124330952Y-98009523D01*
X124378571Y-97961904D01*
X124426190Y-97866666D01*
X124426190Y-97485714D01*
X123997619Y-98438095D02*
X123950000Y-98485714D01*
X123902380Y-98580952D01*
X123902380Y-98819047D01*
X123950000Y-98914285D01*
X123997619Y-98961904D01*
X124092857Y-99009523D01*
X124188095Y-99009523D01*
X124330952Y-98961904D01*
X124902380Y-98390476D01*
X124902380Y-99009523D01*
X123997619Y-99390476D02*
X123950000Y-99438095D01*
X123902380Y-99533333D01*
X123902380Y-99771428D01*
X123950000Y-99866666D01*
X123997619Y-99914285D01*
X124092857Y-99961904D01*
X124188095Y-99961904D01*
X124330952Y-99914285D01*
X124902380Y-99342857D01*
X124902380Y-99961904D01*
%TO.C,R21*%
X124902380Y-89057142D02*
X124426190Y-88723809D01*
X124902380Y-88485714D02*
X123902380Y-88485714D01*
X123902380Y-88866666D01*
X123950000Y-88961904D01*
X123997619Y-89009523D01*
X124092857Y-89057142D01*
X124235714Y-89057142D01*
X124330952Y-89009523D01*
X124378571Y-88961904D01*
X124426190Y-88866666D01*
X124426190Y-88485714D01*
X123997619Y-89438095D02*
X123950000Y-89485714D01*
X123902380Y-89580952D01*
X123902380Y-89819047D01*
X123950000Y-89914285D01*
X123997619Y-89961904D01*
X124092857Y-90009523D01*
X124188095Y-90009523D01*
X124330952Y-89961904D01*
X124902380Y-89390476D01*
X124902380Y-90009523D01*
X124902380Y-90961904D02*
X124902380Y-90390476D01*
X124902380Y-90676190D02*
X123902380Y-90676190D01*
X124045238Y-90580952D01*
X124140476Y-90485714D01*
X124188095Y-90390476D01*
%TO.C,R20*%
X124602380Y-103357142D02*
X124126190Y-103023809D01*
X124602380Y-102785714D02*
X123602380Y-102785714D01*
X123602380Y-103166666D01*
X123650000Y-103261904D01*
X123697619Y-103309523D01*
X123792857Y-103357142D01*
X123935714Y-103357142D01*
X124030952Y-103309523D01*
X124078571Y-103261904D01*
X124126190Y-103166666D01*
X124126190Y-102785714D01*
X123697619Y-103738095D02*
X123650000Y-103785714D01*
X123602380Y-103880952D01*
X123602380Y-104119047D01*
X123650000Y-104214285D01*
X123697619Y-104261904D01*
X123792857Y-104309523D01*
X123888095Y-104309523D01*
X124030952Y-104261904D01*
X124602380Y-103690476D01*
X124602380Y-104309523D01*
X123602380Y-104928571D02*
X123602380Y-105023809D01*
X123650000Y-105119047D01*
X123697619Y-105166666D01*
X123792857Y-105214285D01*
X123983333Y-105261904D01*
X124221428Y-105261904D01*
X124411904Y-105214285D01*
X124507142Y-105166666D01*
X124554761Y-105119047D01*
X124602380Y-105023809D01*
X124602380Y-104928571D01*
X124554761Y-104833333D01*
X124507142Y-104785714D01*
X124411904Y-104738095D01*
X124221428Y-104690476D01*
X123983333Y-104690476D01*
X123792857Y-104738095D01*
X123697619Y-104785714D01*
X123650000Y-104833333D01*
X123602380Y-104928571D01*
%TO.C,R19*%
X130202380Y-84857142D02*
X129726190Y-84523809D01*
X130202380Y-84285714D02*
X129202380Y-84285714D01*
X129202380Y-84666666D01*
X129250000Y-84761904D01*
X129297619Y-84809523D01*
X129392857Y-84857142D01*
X129535714Y-84857142D01*
X129630952Y-84809523D01*
X129678571Y-84761904D01*
X129726190Y-84666666D01*
X129726190Y-84285714D01*
X130202380Y-85809523D02*
X130202380Y-85238095D01*
X130202380Y-85523809D02*
X129202380Y-85523809D01*
X129345238Y-85428571D01*
X129440476Y-85333333D01*
X129488095Y-85238095D01*
X130202380Y-86285714D02*
X130202380Y-86476190D01*
X130154761Y-86571428D01*
X130107142Y-86619047D01*
X129964285Y-86714285D01*
X129773809Y-86761904D01*
X129392857Y-86761904D01*
X129297619Y-86714285D01*
X129250000Y-86666666D01*
X129202380Y-86571428D01*
X129202380Y-86380952D01*
X129250000Y-86285714D01*
X129297619Y-86238095D01*
X129392857Y-86190476D01*
X129630952Y-86190476D01*
X129726190Y-86238095D01*
X129773809Y-86285714D01*
X129821428Y-86380952D01*
X129821428Y-86571428D01*
X129773809Y-86666666D01*
X129726190Y-86714285D01*
X129630952Y-86761904D01*
%TO.C,R18*%
X107452380Y-102257142D02*
X106976190Y-101923809D01*
X107452380Y-101685714D02*
X106452380Y-101685714D01*
X106452380Y-102066666D01*
X106500000Y-102161904D01*
X106547619Y-102209523D01*
X106642857Y-102257142D01*
X106785714Y-102257142D01*
X106880952Y-102209523D01*
X106928571Y-102161904D01*
X106976190Y-102066666D01*
X106976190Y-101685714D01*
X107452380Y-103209523D02*
X107452380Y-102638095D01*
X107452380Y-102923809D02*
X106452380Y-102923809D01*
X106595238Y-102828571D01*
X106690476Y-102733333D01*
X106738095Y-102638095D01*
X106880952Y-103780952D02*
X106833333Y-103685714D01*
X106785714Y-103638095D01*
X106690476Y-103590476D01*
X106642857Y-103590476D01*
X106547619Y-103638095D01*
X106500000Y-103685714D01*
X106452380Y-103780952D01*
X106452380Y-103971428D01*
X106500000Y-104066666D01*
X106547619Y-104114285D01*
X106642857Y-104161904D01*
X106690476Y-104161904D01*
X106785714Y-104114285D01*
X106833333Y-104066666D01*
X106880952Y-103971428D01*
X106880952Y-103780952D01*
X106928571Y-103685714D01*
X106976190Y-103638095D01*
X107071428Y-103590476D01*
X107261904Y-103590476D01*
X107357142Y-103638095D01*
X107404761Y-103685714D01*
X107452380Y-103780952D01*
X107452380Y-103971428D01*
X107404761Y-104066666D01*
X107357142Y-104114285D01*
X107261904Y-104161904D01*
X107071428Y-104161904D01*
X106976190Y-104114285D01*
X106928571Y-104066666D01*
X106880952Y-103971428D01*
%TO.C,R17*%
X89380357Y-88127380D02*
X89713690Y-87651190D01*
X89951785Y-88127380D02*
X89951785Y-87127380D01*
X89570833Y-87127380D01*
X89475595Y-87175000D01*
X89427976Y-87222619D01*
X89380357Y-87317857D01*
X89380357Y-87460714D01*
X89427976Y-87555952D01*
X89475595Y-87603571D01*
X89570833Y-87651190D01*
X89951785Y-87651190D01*
X88427976Y-88127380D02*
X88999404Y-88127380D01*
X88713690Y-88127380D02*
X88713690Y-87127380D01*
X88808928Y-87270238D01*
X88904166Y-87365476D01*
X88999404Y-87413095D01*
X88094642Y-87127380D02*
X87427976Y-87127380D01*
X87856547Y-88127380D01*
%TO.C,R16*%
X114302380Y-98057142D02*
X113826190Y-97723809D01*
X114302380Y-97485714D02*
X113302380Y-97485714D01*
X113302380Y-97866666D01*
X113350000Y-97961904D01*
X113397619Y-98009523D01*
X113492857Y-98057142D01*
X113635714Y-98057142D01*
X113730952Y-98009523D01*
X113778571Y-97961904D01*
X113826190Y-97866666D01*
X113826190Y-97485714D01*
X114302380Y-99009523D02*
X114302380Y-98438095D01*
X114302380Y-98723809D02*
X113302380Y-98723809D01*
X113445238Y-98628571D01*
X113540476Y-98533333D01*
X113588095Y-98438095D01*
X113302380Y-99866666D02*
X113302380Y-99676190D01*
X113350000Y-99580952D01*
X113397619Y-99533333D01*
X113540476Y-99438095D01*
X113730952Y-99390476D01*
X114111904Y-99390476D01*
X114207142Y-99438095D01*
X114254761Y-99485714D01*
X114302380Y-99580952D01*
X114302380Y-99771428D01*
X114254761Y-99866666D01*
X114207142Y-99914285D01*
X114111904Y-99961904D01*
X113873809Y-99961904D01*
X113778571Y-99914285D01*
X113730952Y-99866666D01*
X113683333Y-99771428D01*
X113683333Y-99580952D01*
X113730952Y-99485714D01*
X113778571Y-99438095D01*
X113873809Y-99390476D01*
%TO.C,R15*%
X114202380Y-88957142D02*
X113726190Y-88623809D01*
X114202380Y-88385714D02*
X113202380Y-88385714D01*
X113202380Y-88766666D01*
X113250000Y-88861904D01*
X113297619Y-88909523D01*
X113392857Y-88957142D01*
X113535714Y-88957142D01*
X113630952Y-88909523D01*
X113678571Y-88861904D01*
X113726190Y-88766666D01*
X113726190Y-88385714D01*
X114202380Y-89909523D02*
X114202380Y-89338095D01*
X114202380Y-89623809D02*
X113202380Y-89623809D01*
X113345238Y-89528571D01*
X113440476Y-89433333D01*
X113488095Y-89338095D01*
X113202380Y-90814285D02*
X113202380Y-90338095D01*
X113678571Y-90290476D01*
X113630952Y-90338095D01*
X113583333Y-90433333D01*
X113583333Y-90671428D01*
X113630952Y-90766666D01*
X113678571Y-90814285D01*
X113773809Y-90861904D01*
X114011904Y-90861904D01*
X114107142Y-90814285D01*
X114154761Y-90766666D01*
X114202380Y-90671428D01*
X114202380Y-90433333D01*
X114154761Y-90338095D01*
X114107142Y-90290476D01*
%TO.C,R12*%
X107452380Y-105857142D02*
X106976190Y-105523809D01*
X107452380Y-105285714D02*
X106452380Y-105285714D01*
X106452380Y-105666666D01*
X106500000Y-105761904D01*
X106547619Y-105809523D01*
X106642857Y-105857142D01*
X106785714Y-105857142D01*
X106880952Y-105809523D01*
X106928571Y-105761904D01*
X106976190Y-105666666D01*
X106976190Y-105285714D01*
X107452380Y-106809523D02*
X107452380Y-106238095D01*
X107452380Y-106523809D02*
X106452380Y-106523809D01*
X106595238Y-106428571D01*
X106690476Y-106333333D01*
X106738095Y-106238095D01*
X106547619Y-107190476D02*
X106500000Y-107238095D01*
X106452380Y-107333333D01*
X106452380Y-107571428D01*
X106500000Y-107666666D01*
X106547619Y-107714285D01*
X106642857Y-107761904D01*
X106738095Y-107761904D01*
X106880952Y-107714285D01*
X107452380Y-107142857D01*
X107452380Y-107761904D01*
%TO.C,R11*%
X87652380Y-91782142D02*
X87176190Y-91448809D01*
X87652380Y-91210714D02*
X86652380Y-91210714D01*
X86652380Y-91591666D01*
X86700000Y-91686904D01*
X86747619Y-91734523D01*
X86842857Y-91782142D01*
X86985714Y-91782142D01*
X87080952Y-91734523D01*
X87128571Y-91686904D01*
X87176190Y-91591666D01*
X87176190Y-91210714D01*
X87652380Y-92734523D02*
X87652380Y-92163095D01*
X87652380Y-92448809D02*
X86652380Y-92448809D01*
X86795238Y-92353571D01*
X86890476Y-92258333D01*
X86938095Y-92163095D01*
X87652380Y-93686904D02*
X87652380Y-93115476D01*
X87652380Y-93401190D02*
X86652380Y-93401190D01*
X86795238Y-93305952D01*
X86890476Y-93210714D01*
X86938095Y-93115476D01*
%TO.C,R10*%
X92742857Y-100402380D02*
X93076190Y-99926190D01*
X93314285Y-100402380D02*
X93314285Y-99402380D01*
X92933333Y-99402380D01*
X92838095Y-99450000D01*
X92790476Y-99497619D01*
X92742857Y-99592857D01*
X92742857Y-99735714D01*
X92790476Y-99830952D01*
X92838095Y-99878571D01*
X92933333Y-99926190D01*
X93314285Y-99926190D01*
X91790476Y-100402380D02*
X92361904Y-100402380D01*
X92076190Y-100402380D02*
X92076190Y-99402380D01*
X92171428Y-99545238D01*
X92266666Y-99640476D01*
X92361904Y-99688095D01*
X91171428Y-99402380D02*
X91076190Y-99402380D01*
X90980952Y-99450000D01*
X90933333Y-99497619D01*
X90885714Y-99592857D01*
X90838095Y-99783333D01*
X90838095Y-100021428D01*
X90885714Y-100211904D01*
X90933333Y-100307142D01*
X90980952Y-100354761D01*
X91076190Y-100402380D01*
X91171428Y-100402380D01*
X91266666Y-100354761D01*
X91314285Y-100307142D01*
X91361904Y-100211904D01*
X91409523Y-100021428D01*
X91409523Y-99783333D01*
X91361904Y-99592857D01*
X91314285Y-99497619D01*
X91266666Y-99450000D01*
X91171428Y-99402380D01*
%TO.C,R9*%
X88379166Y-111002380D02*
X88712500Y-110526190D01*
X88950595Y-111002380D02*
X88950595Y-110002380D01*
X88569642Y-110002380D01*
X88474404Y-110050000D01*
X88426785Y-110097619D01*
X88379166Y-110192857D01*
X88379166Y-110335714D01*
X88426785Y-110430952D01*
X88474404Y-110478571D01*
X88569642Y-110526190D01*
X88950595Y-110526190D01*
X87902976Y-111002380D02*
X87712500Y-111002380D01*
X87617261Y-110954761D01*
X87569642Y-110907142D01*
X87474404Y-110764285D01*
X87426785Y-110573809D01*
X87426785Y-110192857D01*
X87474404Y-110097619D01*
X87522023Y-110050000D01*
X87617261Y-110002380D01*
X87807738Y-110002380D01*
X87902976Y-110050000D01*
X87950595Y-110097619D01*
X87998214Y-110192857D01*
X87998214Y-110430952D01*
X87950595Y-110526190D01*
X87902976Y-110573809D01*
X87807738Y-110621428D01*
X87617261Y-110621428D01*
X87522023Y-110573809D01*
X87474404Y-110526190D01*
X87426785Y-110430952D01*
%TO.C,R8*%
X75066666Y-101602380D02*
X75400000Y-101126190D01*
X75638095Y-101602380D02*
X75638095Y-100602380D01*
X75257142Y-100602380D01*
X75161904Y-100650000D01*
X75114285Y-100697619D01*
X75066666Y-100792857D01*
X75066666Y-100935714D01*
X75114285Y-101030952D01*
X75161904Y-101078571D01*
X75257142Y-101126190D01*
X75638095Y-101126190D01*
X74495238Y-101030952D02*
X74590476Y-100983333D01*
X74638095Y-100935714D01*
X74685714Y-100840476D01*
X74685714Y-100792857D01*
X74638095Y-100697619D01*
X74590476Y-100650000D01*
X74495238Y-100602380D01*
X74304761Y-100602380D01*
X74209523Y-100650000D01*
X74161904Y-100697619D01*
X74114285Y-100792857D01*
X74114285Y-100840476D01*
X74161904Y-100935714D01*
X74209523Y-100983333D01*
X74304761Y-101030952D01*
X74495238Y-101030952D01*
X74590476Y-101078571D01*
X74638095Y-101126190D01*
X74685714Y-101221428D01*
X74685714Y-101411904D01*
X74638095Y-101507142D01*
X74590476Y-101554761D01*
X74495238Y-101602380D01*
X74304761Y-101602380D01*
X74209523Y-101554761D01*
X74161904Y-101507142D01*
X74114285Y-101411904D01*
X74114285Y-101221428D01*
X74161904Y-101126190D01*
X74209523Y-101078571D01*
X74304761Y-101030952D01*
%TO.C,R7*%
X75377380Y-92945833D02*
X74901190Y-92612500D01*
X75377380Y-92374404D02*
X74377380Y-92374404D01*
X74377380Y-92755357D01*
X74425000Y-92850595D01*
X74472619Y-92898214D01*
X74567857Y-92945833D01*
X74710714Y-92945833D01*
X74805952Y-92898214D01*
X74853571Y-92850595D01*
X74901190Y-92755357D01*
X74901190Y-92374404D01*
X74377380Y-93279166D02*
X74377380Y-93945833D01*
X75377380Y-93517261D01*
%TO.C,R6*%
X88641666Y-101877380D02*
X88975000Y-101401190D01*
X89213095Y-101877380D02*
X89213095Y-100877380D01*
X88832142Y-100877380D01*
X88736904Y-100925000D01*
X88689285Y-100972619D01*
X88641666Y-101067857D01*
X88641666Y-101210714D01*
X88689285Y-101305952D01*
X88736904Y-101353571D01*
X88832142Y-101401190D01*
X89213095Y-101401190D01*
X87784523Y-100877380D02*
X87975000Y-100877380D01*
X88070238Y-100925000D01*
X88117857Y-100972619D01*
X88213095Y-101115476D01*
X88260714Y-101305952D01*
X88260714Y-101686904D01*
X88213095Y-101782142D01*
X88165476Y-101829761D01*
X88070238Y-101877380D01*
X87879761Y-101877380D01*
X87784523Y-101829761D01*
X87736904Y-101782142D01*
X87689285Y-101686904D01*
X87689285Y-101448809D01*
X87736904Y-101353571D01*
X87784523Y-101305952D01*
X87879761Y-101258333D01*
X88070238Y-101258333D01*
X88165476Y-101305952D01*
X88213095Y-101353571D01*
X88260714Y-101448809D01*
%TO.C,R5*%
X82252380Y-99133333D02*
X81776190Y-98800000D01*
X82252380Y-98561904D02*
X81252380Y-98561904D01*
X81252380Y-98942857D01*
X81300000Y-99038095D01*
X81347619Y-99085714D01*
X81442857Y-99133333D01*
X81585714Y-99133333D01*
X81680952Y-99085714D01*
X81728571Y-99038095D01*
X81776190Y-98942857D01*
X81776190Y-98561904D01*
X81252380Y-100038095D02*
X81252380Y-99561904D01*
X81728571Y-99514285D01*
X81680952Y-99561904D01*
X81633333Y-99657142D01*
X81633333Y-99895238D01*
X81680952Y-99990476D01*
X81728571Y-100038095D01*
X81823809Y-100085714D01*
X82061904Y-100085714D01*
X82157142Y-100038095D01*
X82204761Y-99990476D01*
X82252380Y-99895238D01*
X82252380Y-99657142D01*
X82204761Y-99561904D01*
X82157142Y-99514285D01*
%TO.C,R3*%
X83327380Y-105483333D02*
X82851190Y-105150000D01*
X83327380Y-104911904D02*
X82327380Y-104911904D01*
X82327380Y-105292857D01*
X82375000Y-105388095D01*
X82422619Y-105435714D01*
X82517857Y-105483333D01*
X82660714Y-105483333D01*
X82755952Y-105435714D01*
X82803571Y-105388095D01*
X82851190Y-105292857D01*
X82851190Y-104911904D01*
X82327380Y-105816666D02*
X82327380Y-106435714D01*
X82708333Y-106102380D01*
X82708333Y-106245238D01*
X82755952Y-106340476D01*
X82803571Y-106388095D01*
X82898809Y-106435714D01*
X83136904Y-106435714D01*
X83232142Y-106388095D01*
X83279761Y-106340476D01*
X83327380Y-106245238D01*
X83327380Y-105959523D01*
X83279761Y-105864285D01*
X83232142Y-105816666D01*
%TO.C,R2*%
X190366666Y-81002380D02*
X190700000Y-80526190D01*
X190938095Y-81002380D02*
X190938095Y-80002380D01*
X190557142Y-80002380D01*
X190461904Y-80050000D01*
X190414285Y-80097619D01*
X190366666Y-80192857D01*
X190366666Y-80335714D01*
X190414285Y-80430952D01*
X190461904Y-80478571D01*
X190557142Y-80526190D01*
X190938095Y-80526190D01*
X189985714Y-80097619D02*
X189938095Y-80050000D01*
X189842857Y-80002380D01*
X189604761Y-80002380D01*
X189509523Y-80050000D01*
X189461904Y-80097619D01*
X189414285Y-80192857D01*
X189414285Y-80288095D01*
X189461904Y-80430952D01*
X190033333Y-81002380D01*
X189414285Y-81002380D01*
%TO.C,R1*%
X174466666Y-94702380D02*
X174800000Y-94226190D01*
X175038095Y-94702380D02*
X175038095Y-93702380D01*
X174657142Y-93702380D01*
X174561904Y-93750000D01*
X174514285Y-93797619D01*
X174466666Y-93892857D01*
X174466666Y-94035714D01*
X174514285Y-94130952D01*
X174561904Y-94178571D01*
X174657142Y-94226190D01*
X175038095Y-94226190D01*
X173514285Y-94702380D02*
X174085714Y-94702380D01*
X173800000Y-94702380D02*
X173800000Y-93702380D01*
X173895238Y-93845238D01*
X173990476Y-93940476D01*
X174085714Y-93988095D01*
%TO.C,Q8*%
X97295238Y-138347619D02*
X97390476Y-138300000D01*
X97485714Y-138204761D01*
X97628571Y-138061904D01*
X97723809Y-138014285D01*
X97819047Y-138014285D01*
X97771428Y-138252380D02*
X97866666Y-138204761D01*
X97961904Y-138109523D01*
X98009523Y-137919047D01*
X98009523Y-137585714D01*
X97961904Y-137395238D01*
X97866666Y-137300000D01*
X97771428Y-137252380D01*
X97580952Y-137252380D01*
X97485714Y-137300000D01*
X97390476Y-137395238D01*
X97342857Y-137585714D01*
X97342857Y-137919047D01*
X97390476Y-138109523D01*
X97485714Y-138204761D01*
X97580952Y-138252380D01*
X97771428Y-138252380D01*
X96771428Y-137680952D02*
X96866666Y-137633333D01*
X96914285Y-137585714D01*
X96961904Y-137490476D01*
X96961904Y-137442857D01*
X96914285Y-137347619D01*
X96866666Y-137300000D01*
X96771428Y-137252380D01*
X96580952Y-137252380D01*
X96485714Y-137300000D01*
X96438095Y-137347619D01*
X96390476Y-137442857D01*
X96390476Y-137490476D01*
X96438095Y-137585714D01*
X96485714Y-137633333D01*
X96580952Y-137680952D01*
X96771428Y-137680952D01*
X96866666Y-137728571D01*
X96914285Y-137776190D01*
X96961904Y-137871428D01*
X96961904Y-138061904D01*
X96914285Y-138157142D01*
X96866666Y-138204761D01*
X96771428Y-138252380D01*
X96580952Y-138252380D01*
X96485714Y-138204761D01*
X96438095Y-138157142D01*
X96390476Y-138061904D01*
X96390476Y-137871428D01*
X96438095Y-137776190D01*
X96485714Y-137728571D01*
X96580952Y-137680952D01*
%TO.C,Q7*%
X98295238Y-121947619D02*
X98390476Y-121900000D01*
X98485714Y-121804761D01*
X98628571Y-121661904D01*
X98723809Y-121614285D01*
X98819047Y-121614285D01*
X98771428Y-121852380D02*
X98866666Y-121804761D01*
X98961904Y-121709523D01*
X99009523Y-121519047D01*
X99009523Y-121185714D01*
X98961904Y-120995238D01*
X98866666Y-120900000D01*
X98771428Y-120852380D01*
X98580952Y-120852380D01*
X98485714Y-120900000D01*
X98390476Y-120995238D01*
X98342857Y-121185714D01*
X98342857Y-121519047D01*
X98390476Y-121709523D01*
X98485714Y-121804761D01*
X98580952Y-121852380D01*
X98771428Y-121852380D01*
X98009523Y-120852380D02*
X97342857Y-120852380D01*
X97771428Y-121852380D01*
%TO.C,Q6*%
X92695238Y-146947619D02*
X92790476Y-146900000D01*
X92885714Y-146804761D01*
X93028571Y-146661904D01*
X93123809Y-146614285D01*
X93219047Y-146614285D01*
X93171428Y-146852380D02*
X93266666Y-146804761D01*
X93361904Y-146709523D01*
X93409523Y-146519047D01*
X93409523Y-146185714D01*
X93361904Y-145995238D01*
X93266666Y-145900000D01*
X93171428Y-145852380D01*
X92980952Y-145852380D01*
X92885714Y-145900000D01*
X92790476Y-145995238D01*
X92742857Y-146185714D01*
X92742857Y-146519047D01*
X92790476Y-146709523D01*
X92885714Y-146804761D01*
X92980952Y-146852380D01*
X93171428Y-146852380D01*
X91885714Y-145852380D02*
X92076190Y-145852380D01*
X92171428Y-145900000D01*
X92219047Y-145947619D01*
X92314285Y-146090476D01*
X92361904Y-146280952D01*
X92361904Y-146661904D01*
X92314285Y-146757142D01*
X92266666Y-146804761D01*
X92171428Y-146852380D01*
X91980952Y-146852380D01*
X91885714Y-146804761D01*
X91838095Y-146757142D01*
X91790476Y-146661904D01*
X91790476Y-146423809D01*
X91838095Y-146328571D01*
X91885714Y-146280952D01*
X91980952Y-146233333D01*
X92171428Y-146233333D01*
X92266666Y-146280952D01*
X92314285Y-146328571D01*
X92361904Y-146423809D01*
%TO.C,Q5*%
X75047619Y-135204761D02*
X75000000Y-135109523D01*
X74904761Y-135014285D01*
X74761904Y-134871428D01*
X74714285Y-134776190D01*
X74714285Y-134680952D01*
X74952380Y-134728571D02*
X74904761Y-134633333D01*
X74809523Y-134538095D01*
X74619047Y-134490476D01*
X74285714Y-134490476D01*
X74095238Y-134538095D01*
X74000000Y-134633333D01*
X73952380Y-134728571D01*
X73952380Y-134919047D01*
X74000000Y-135014285D01*
X74095238Y-135109523D01*
X74285714Y-135157142D01*
X74619047Y-135157142D01*
X74809523Y-135109523D01*
X74904761Y-135014285D01*
X74952380Y-134919047D01*
X74952380Y-134728571D01*
X73952380Y-136061904D02*
X73952380Y-135585714D01*
X74428571Y-135538095D01*
X74380952Y-135585714D01*
X74333333Y-135680952D01*
X74333333Y-135919047D01*
X74380952Y-136014285D01*
X74428571Y-136061904D01*
X74523809Y-136109523D01*
X74761904Y-136109523D01*
X74857142Y-136061904D01*
X74904761Y-136014285D01*
X74952380Y-135919047D01*
X74952380Y-135680952D01*
X74904761Y-135585714D01*
X74857142Y-135538095D01*
%TO.C,Q4*%
X96995238Y-99547619D02*
X97090476Y-99500000D01*
X97185714Y-99404761D01*
X97328571Y-99261904D01*
X97423809Y-99214285D01*
X97519047Y-99214285D01*
X97471428Y-99452380D02*
X97566666Y-99404761D01*
X97661904Y-99309523D01*
X97709523Y-99119047D01*
X97709523Y-98785714D01*
X97661904Y-98595238D01*
X97566666Y-98500000D01*
X97471428Y-98452380D01*
X97280952Y-98452380D01*
X97185714Y-98500000D01*
X97090476Y-98595238D01*
X97042857Y-98785714D01*
X97042857Y-99119047D01*
X97090476Y-99309523D01*
X97185714Y-99404761D01*
X97280952Y-99452380D01*
X97471428Y-99452380D01*
X96185714Y-98785714D02*
X96185714Y-99452380D01*
X96423809Y-98404761D02*
X96661904Y-99119047D01*
X96042857Y-99119047D01*
%TO.C,Q3*%
X98195238Y-83147619D02*
X98290476Y-83100000D01*
X98385714Y-83004761D01*
X98528571Y-82861904D01*
X98623809Y-82814285D01*
X98719047Y-82814285D01*
X98671428Y-83052380D02*
X98766666Y-83004761D01*
X98861904Y-82909523D01*
X98909523Y-82719047D01*
X98909523Y-82385714D01*
X98861904Y-82195238D01*
X98766666Y-82100000D01*
X98671428Y-82052380D01*
X98480952Y-82052380D01*
X98385714Y-82100000D01*
X98290476Y-82195238D01*
X98242857Y-82385714D01*
X98242857Y-82719047D01*
X98290476Y-82909523D01*
X98385714Y-83004761D01*
X98480952Y-83052380D01*
X98671428Y-83052380D01*
X97909523Y-82052380D02*
X97290476Y-82052380D01*
X97623809Y-82433333D01*
X97480952Y-82433333D01*
X97385714Y-82480952D01*
X97338095Y-82528571D01*
X97290476Y-82623809D01*
X97290476Y-82861904D01*
X97338095Y-82957142D01*
X97385714Y-83004761D01*
X97480952Y-83052380D01*
X97766666Y-83052380D01*
X97861904Y-83004761D01*
X97909523Y-82957142D01*
%TO.C,Q2*%
X92620238Y-107747619D02*
X92715476Y-107700000D01*
X92810714Y-107604761D01*
X92953571Y-107461904D01*
X93048809Y-107414285D01*
X93144047Y-107414285D01*
X93096428Y-107652380D02*
X93191666Y-107604761D01*
X93286904Y-107509523D01*
X93334523Y-107319047D01*
X93334523Y-106985714D01*
X93286904Y-106795238D01*
X93191666Y-106700000D01*
X93096428Y-106652380D01*
X92905952Y-106652380D01*
X92810714Y-106700000D01*
X92715476Y-106795238D01*
X92667857Y-106985714D01*
X92667857Y-107319047D01*
X92715476Y-107509523D01*
X92810714Y-107604761D01*
X92905952Y-107652380D01*
X93096428Y-107652380D01*
X92286904Y-106747619D02*
X92239285Y-106700000D01*
X92144047Y-106652380D01*
X91905952Y-106652380D01*
X91810714Y-106700000D01*
X91763095Y-106747619D01*
X91715476Y-106842857D01*
X91715476Y-106938095D01*
X91763095Y-107080952D01*
X92334523Y-107652380D01*
X91715476Y-107652380D01*
%TO.C,Q1*%
X74647619Y-96954761D02*
X74600000Y-96859523D01*
X74504761Y-96764285D01*
X74361904Y-96621428D01*
X74314285Y-96526190D01*
X74314285Y-96430952D01*
X74552380Y-96478571D02*
X74504761Y-96383333D01*
X74409523Y-96288095D01*
X74219047Y-96240476D01*
X73885714Y-96240476D01*
X73695238Y-96288095D01*
X73600000Y-96383333D01*
X73552380Y-96478571D01*
X73552380Y-96669047D01*
X73600000Y-96764285D01*
X73695238Y-96859523D01*
X73885714Y-96907142D01*
X74219047Y-96907142D01*
X74409523Y-96859523D01*
X74504761Y-96764285D01*
X74552380Y-96669047D01*
X74552380Y-96478571D01*
X74552380Y-97859523D02*
X74552380Y-97288095D01*
X74552380Y-97573809D02*
X73552380Y-97573809D01*
X73695238Y-97478571D01*
X73790476Y-97383333D01*
X73838095Y-97288095D01*
%TO.C,IC5*%
X100676190Y-147852380D02*
X100676190Y-146852380D01*
X99628571Y-147757142D02*
X99676190Y-147804761D01*
X99819047Y-147852380D01*
X99914285Y-147852380D01*
X100057142Y-147804761D01*
X100152380Y-147709523D01*
X100200000Y-147614285D01*
X100247619Y-147423809D01*
X100247619Y-147280952D01*
X100200000Y-147090476D01*
X100152380Y-146995238D01*
X100057142Y-146900000D01*
X99914285Y-146852380D01*
X99819047Y-146852380D01*
X99676190Y-146900000D01*
X99628571Y-146947619D01*
X98723809Y-146852380D02*
X99200000Y-146852380D01*
X99247619Y-147328571D01*
X99200000Y-147280952D01*
X99104761Y-147233333D01*
X98866666Y-147233333D01*
X98771428Y-147280952D01*
X98723809Y-147328571D01*
X98676190Y-147423809D01*
X98676190Y-147661904D01*
X98723809Y-147757142D01*
X98771428Y-147804761D01*
X98866666Y-147852380D01*
X99104761Y-147852380D01*
X99200000Y-147804761D01*
X99247619Y-147757142D01*
%TO.C,IC4*%
X85876190Y-134252380D02*
X85876190Y-133252380D01*
X84828571Y-134157142D02*
X84876190Y-134204761D01*
X85019047Y-134252380D01*
X85114285Y-134252380D01*
X85257142Y-134204761D01*
X85352380Y-134109523D01*
X85400000Y-134014285D01*
X85447619Y-133823809D01*
X85447619Y-133680952D01*
X85400000Y-133490476D01*
X85352380Y-133395238D01*
X85257142Y-133300000D01*
X85114285Y-133252380D01*
X85019047Y-133252380D01*
X84876190Y-133300000D01*
X84828571Y-133347619D01*
X83971428Y-133585714D02*
X83971428Y-134252380D01*
X84209523Y-133204761D02*
X84447619Y-133919047D01*
X83828571Y-133919047D01*
%TO.C,IC3*%
X149876190Y-62252380D02*
X149876190Y-61252380D01*
X148828571Y-62157142D02*
X148876190Y-62204761D01*
X149019047Y-62252380D01*
X149114285Y-62252380D01*
X149257142Y-62204761D01*
X149352380Y-62109523D01*
X149400000Y-62014285D01*
X149447619Y-61823809D01*
X149447619Y-61680952D01*
X149400000Y-61490476D01*
X149352380Y-61395238D01*
X149257142Y-61300000D01*
X149114285Y-61252380D01*
X149019047Y-61252380D01*
X148876190Y-61300000D01*
X148828571Y-61347619D01*
X148495238Y-61252380D02*
X147876190Y-61252380D01*
X148209523Y-61633333D01*
X148066666Y-61633333D01*
X147971428Y-61680952D01*
X147923809Y-61728571D01*
X147876190Y-61823809D01*
X147876190Y-62061904D01*
X147923809Y-62157142D01*
X147971428Y-62204761D01*
X148066666Y-62252380D01*
X148352380Y-62252380D01*
X148447619Y-62204761D01*
X148495238Y-62157142D01*
%TO.C,IC2*%
X100226190Y-109152380D02*
X100226190Y-108152380D01*
X99178571Y-109057142D02*
X99226190Y-109104761D01*
X99369047Y-109152380D01*
X99464285Y-109152380D01*
X99607142Y-109104761D01*
X99702380Y-109009523D01*
X99750000Y-108914285D01*
X99797619Y-108723809D01*
X99797619Y-108580952D01*
X99750000Y-108390476D01*
X99702380Y-108295238D01*
X99607142Y-108200000D01*
X99464285Y-108152380D01*
X99369047Y-108152380D01*
X99226190Y-108200000D01*
X99178571Y-108247619D01*
X98797619Y-108247619D02*
X98750000Y-108200000D01*
X98654761Y-108152380D01*
X98416666Y-108152380D01*
X98321428Y-108200000D01*
X98273809Y-108247619D01*
X98226190Y-108342857D01*
X98226190Y-108438095D01*
X98273809Y-108580952D01*
X98845238Y-109152380D01*
X98226190Y-109152380D01*
%TO.C,IC1*%
X85876190Y-95377380D02*
X85876190Y-94377380D01*
X84828571Y-95282142D02*
X84876190Y-95329761D01*
X85019047Y-95377380D01*
X85114285Y-95377380D01*
X85257142Y-95329761D01*
X85352380Y-95234523D01*
X85400000Y-95139285D01*
X85447619Y-94948809D01*
X85447619Y-94805952D01*
X85400000Y-94615476D01*
X85352380Y-94520238D01*
X85257142Y-94425000D01*
X85114285Y-94377380D01*
X85019047Y-94377380D01*
X84876190Y-94425000D01*
X84828571Y-94472619D01*
X83876190Y-95377380D02*
X84447619Y-95377380D01*
X84161904Y-95377380D02*
X84161904Y-94377380D01*
X84257142Y-94520238D01*
X84352380Y-94615476D01*
X84447619Y-94663095D01*
%TO.C,C32*%
X176957142Y-159757142D02*
X177004761Y-159709523D01*
X177052380Y-159566666D01*
X177052380Y-159471428D01*
X177004761Y-159328571D01*
X176909523Y-159233333D01*
X176814285Y-159185714D01*
X176623809Y-159138095D01*
X176480952Y-159138095D01*
X176290476Y-159185714D01*
X176195238Y-159233333D01*
X176100000Y-159328571D01*
X176052380Y-159471428D01*
X176052380Y-159566666D01*
X176100000Y-159709523D01*
X176147619Y-159757142D01*
X176052380Y-160090476D02*
X176052380Y-160709523D01*
X176433333Y-160376190D01*
X176433333Y-160519047D01*
X176480952Y-160614285D01*
X176528571Y-160661904D01*
X176623809Y-160709523D01*
X176861904Y-160709523D01*
X176957142Y-160661904D01*
X177004761Y-160614285D01*
X177052380Y-160519047D01*
X177052380Y-160233333D01*
X177004761Y-160138095D01*
X176957142Y-160090476D01*
X176147619Y-161090476D02*
X176100000Y-161138095D01*
X176052380Y-161233333D01*
X176052380Y-161471428D01*
X176100000Y-161566666D01*
X176147619Y-161614285D01*
X176242857Y-161661904D01*
X176338095Y-161661904D01*
X176480952Y-161614285D01*
X177052380Y-161042857D01*
X177052380Y-161661904D01*
%TO.C,C31*%
X169377142Y-156257142D02*
X169424761Y-156209523D01*
X169472380Y-156066666D01*
X169472380Y-155971428D01*
X169424761Y-155828571D01*
X169329523Y-155733333D01*
X169234285Y-155685714D01*
X169043809Y-155638095D01*
X168900952Y-155638095D01*
X168710476Y-155685714D01*
X168615238Y-155733333D01*
X168520000Y-155828571D01*
X168472380Y-155971428D01*
X168472380Y-156066666D01*
X168520000Y-156209523D01*
X168567619Y-156257142D01*
X168472380Y-156590476D02*
X168472380Y-157209523D01*
X168853333Y-156876190D01*
X168853333Y-157019047D01*
X168900952Y-157114285D01*
X168948571Y-157161904D01*
X169043809Y-157209523D01*
X169281904Y-157209523D01*
X169377142Y-157161904D01*
X169424761Y-157114285D01*
X169472380Y-157019047D01*
X169472380Y-156733333D01*
X169424761Y-156638095D01*
X169377142Y-156590476D01*
X169472380Y-158161904D02*
X169472380Y-157590476D01*
X169472380Y-157876190D02*
X168472380Y-157876190D01*
X168615238Y-157780952D01*
X168710476Y-157685714D01*
X168758095Y-157590476D01*
%TO.C,C30*%
X170342857Y-162537142D02*
X170390476Y-162584761D01*
X170533333Y-162632380D01*
X170628571Y-162632380D01*
X170771428Y-162584761D01*
X170866666Y-162489523D01*
X170914285Y-162394285D01*
X170961904Y-162203809D01*
X170961904Y-162060952D01*
X170914285Y-161870476D01*
X170866666Y-161775238D01*
X170771428Y-161680000D01*
X170628571Y-161632380D01*
X170533333Y-161632380D01*
X170390476Y-161680000D01*
X170342857Y-161727619D01*
X170009523Y-161632380D02*
X169390476Y-161632380D01*
X169723809Y-162013333D01*
X169580952Y-162013333D01*
X169485714Y-162060952D01*
X169438095Y-162108571D01*
X169390476Y-162203809D01*
X169390476Y-162441904D01*
X169438095Y-162537142D01*
X169485714Y-162584761D01*
X169580952Y-162632380D01*
X169866666Y-162632380D01*
X169961904Y-162584761D01*
X170009523Y-162537142D01*
X168771428Y-161632380D02*
X168676190Y-161632380D01*
X168580952Y-161680000D01*
X168533333Y-161727619D01*
X168485714Y-161822857D01*
X168438095Y-162013333D01*
X168438095Y-162251428D01*
X168485714Y-162441904D01*
X168533333Y-162537142D01*
X168580952Y-162584761D01*
X168676190Y-162632380D01*
X168771428Y-162632380D01*
X168866666Y-162584761D01*
X168914285Y-162537142D01*
X168961904Y-162441904D01*
X169009523Y-162251428D01*
X169009523Y-162013333D01*
X168961904Y-161822857D01*
X168914285Y-161727619D01*
X168866666Y-161680000D01*
X168771428Y-161632380D01*
%TO.C,C29*%
X82157142Y-134557142D02*
X82204761Y-134509523D01*
X82252380Y-134366666D01*
X82252380Y-134271428D01*
X82204761Y-134128571D01*
X82109523Y-134033333D01*
X82014285Y-133985714D01*
X81823809Y-133938095D01*
X81680952Y-133938095D01*
X81490476Y-133985714D01*
X81395238Y-134033333D01*
X81300000Y-134128571D01*
X81252380Y-134271428D01*
X81252380Y-134366666D01*
X81300000Y-134509523D01*
X81347619Y-134557142D01*
X81347619Y-134938095D02*
X81300000Y-134985714D01*
X81252380Y-135080952D01*
X81252380Y-135319047D01*
X81300000Y-135414285D01*
X81347619Y-135461904D01*
X81442857Y-135509523D01*
X81538095Y-135509523D01*
X81680952Y-135461904D01*
X82252380Y-134890476D01*
X82252380Y-135509523D01*
X82252380Y-135985714D02*
X82252380Y-136176190D01*
X82204761Y-136271428D01*
X82157142Y-136319047D01*
X82014285Y-136414285D01*
X81823809Y-136461904D01*
X81442857Y-136461904D01*
X81347619Y-136414285D01*
X81300000Y-136366666D01*
X81252380Y-136271428D01*
X81252380Y-136080952D01*
X81300000Y-135985714D01*
X81347619Y-135938095D01*
X81442857Y-135890476D01*
X81680952Y-135890476D01*
X81776190Y-135938095D01*
X81823809Y-135985714D01*
X81871428Y-136080952D01*
X81871428Y-136271428D01*
X81823809Y-136366666D01*
X81776190Y-136414285D01*
X81680952Y-136461904D01*
%TO.C,C28*%
X79357142Y-126057142D02*
X79404761Y-126009523D01*
X79452380Y-125866666D01*
X79452380Y-125771428D01*
X79404761Y-125628571D01*
X79309523Y-125533333D01*
X79214285Y-125485714D01*
X79023809Y-125438095D01*
X78880952Y-125438095D01*
X78690476Y-125485714D01*
X78595238Y-125533333D01*
X78500000Y-125628571D01*
X78452380Y-125771428D01*
X78452380Y-125866666D01*
X78500000Y-126009523D01*
X78547619Y-126057142D01*
X78547619Y-126438095D02*
X78500000Y-126485714D01*
X78452380Y-126580952D01*
X78452380Y-126819047D01*
X78500000Y-126914285D01*
X78547619Y-126961904D01*
X78642857Y-127009523D01*
X78738095Y-127009523D01*
X78880952Y-126961904D01*
X79452380Y-126390476D01*
X79452380Y-127009523D01*
X78880952Y-127580952D02*
X78833333Y-127485714D01*
X78785714Y-127438095D01*
X78690476Y-127390476D01*
X78642857Y-127390476D01*
X78547619Y-127438095D01*
X78500000Y-127485714D01*
X78452380Y-127580952D01*
X78452380Y-127771428D01*
X78500000Y-127866666D01*
X78547619Y-127914285D01*
X78642857Y-127961904D01*
X78690476Y-127961904D01*
X78785714Y-127914285D01*
X78833333Y-127866666D01*
X78880952Y-127771428D01*
X78880952Y-127580952D01*
X78928571Y-127485714D01*
X78976190Y-127438095D01*
X79071428Y-127390476D01*
X79261904Y-127390476D01*
X79357142Y-127438095D01*
X79404761Y-127485714D01*
X79452380Y-127580952D01*
X79452380Y-127771428D01*
X79404761Y-127866666D01*
X79357142Y-127914285D01*
X79261904Y-127961904D01*
X79071428Y-127961904D01*
X78976190Y-127914285D01*
X78928571Y-127866666D01*
X78880952Y-127771428D01*
%TO.C,C27*%
X83942857Y-140657142D02*
X83990476Y-140704761D01*
X84133333Y-140752380D01*
X84228571Y-140752380D01*
X84371428Y-140704761D01*
X84466666Y-140609523D01*
X84514285Y-140514285D01*
X84561904Y-140323809D01*
X84561904Y-140180952D01*
X84514285Y-139990476D01*
X84466666Y-139895238D01*
X84371428Y-139800000D01*
X84228571Y-139752380D01*
X84133333Y-139752380D01*
X83990476Y-139800000D01*
X83942857Y-139847619D01*
X83561904Y-139847619D02*
X83514285Y-139800000D01*
X83419047Y-139752380D01*
X83180952Y-139752380D01*
X83085714Y-139800000D01*
X83038095Y-139847619D01*
X82990476Y-139942857D01*
X82990476Y-140038095D01*
X83038095Y-140180952D01*
X83609523Y-140752380D01*
X82990476Y-140752380D01*
X82657142Y-139752380D02*
X81990476Y-139752380D01*
X82419047Y-140752380D01*
%TO.C,C26*%
X79542857Y-151337142D02*
X79590476Y-151384761D01*
X79733333Y-151432380D01*
X79828571Y-151432380D01*
X79971428Y-151384761D01*
X80066666Y-151289523D01*
X80114285Y-151194285D01*
X80161904Y-151003809D01*
X80161904Y-150860952D01*
X80114285Y-150670476D01*
X80066666Y-150575238D01*
X79971428Y-150480000D01*
X79828571Y-150432380D01*
X79733333Y-150432380D01*
X79590476Y-150480000D01*
X79542857Y-150527619D01*
X79161904Y-150527619D02*
X79114285Y-150480000D01*
X79019047Y-150432380D01*
X78780952Y-150432380D01*
X78685714Y-150480000D01*
X78638095Y-150527619D01*
X78590476Y-150622857D01*
X78590476Y-150718095D01*
X78638095Y-150860952D01*
X79209523Y-151432380D01*
X78590476Y-151432380D01*
X77733333Y-150432380D02*
X77923809Y-150432380D01*
X78019047Y-150480000D01*
X78066666Y-150527619D01*
X78161904Y-150670476D01*
X78209523Y-150860952D01*
X78209523Y-151241904D01*
X78161904Y-151337142D01*
X78114285Y-151384761D01*
X78019047Y-151432380D01*
X77828571Y-151432380D01*
X77733333Y-151384761D01*
X77685714Y-151337142D01*
X77638095Y-151241904D01*
X77638095Y-151003809D01*
X77685714Y-150908571D01*
X77733333Y-150860952D01*
X77828571Y-150813333D01*
X78019047Y-150813333D01*
X78114285Y-150860952D01*
X78161904Y-150908571D01*
X78209523Y-151003809D01*
%TO.C,C25*%
X158357142Y-59757142D02*
X158404761Y-59709523D01*
X158452380Y-59566666D01*
X158452380Y-59471428D01*
X158404761Y-59328571D01*
X158309523Y-59233333D01*
X158214285Y-59185714D01*
X158023809Y-59138095D01*
X157880952Y-59138095D01*
X157690476Y-59185714D01*
X157595238Y-59233333D01*
X157500000Y-59328571D01*
X157452380Y-59471428D01*
X157452380Y-59566666D01*
X157500000Y-59709523D01*
X157547619Y-59757142D01*
X157547619Y-60138095D02*
X157500000Y-60185714D01*
X157452380Y-60280952D01*
X157452380Y-60519047D01*
X157500000Y-60614285D01*
X157547619Y-60661904D01*
X157642857Y-60709523D01*
X157738095Y-60709523D01*
X157880952Y-60661904D01*
X158452380Y-60090476D01*
X158452380Y-60709523D01*
X157452380Y-61614285D02*
X157452380Y-61138095D01*
X157928571Y-61090476D01*
X157880952Y-61138095D01*
X157833333Y-61233333D01*
X157833333Y-61471428D01*
X157880952Y-61566666D01*
X157928571Y-61614285D01*
X158023809Y-61661904D01*
X158261904Y-61661904D01*
X158357142Y-61614285D01*
X158404761Y-61566666D01*
X158452380Y-61471428D01*
X158452380Y-61233333D01*
X158404761Y-61138095D01*
X158357142Y-61090476D01*
%TO.C,C24*%
X143942857Y-63457142D02*
X143990476Y-63504761D01*
X144133333Y-63552380D01*
X144228571Y-63552380D01*
X144371428Y-63504761D01*
X144466666Y-63409523D01*
X144514285Y-63314285D01*
X144561904Y-63123809D01*
X144561904Y-62980952D01*
X144514285Y-62790476D01*
X144466666Y-62695238D01*
X144371428Y-62600000D01*
X144228571Y-62552380D01*
X144133333Y-62552380D01*
X143990476Y-62600000D01*
X143942857Y-62647619D01*
X143561904Y-62647619D02*
X143514285Y-62600000D01*
X143419047Y-62552380D01*
X143180952Y-62552380D01*
X143085714Y-62600000D01*
X143038095Y-62647619D01*
X142990476Y-62742857D01*
X142990476Y-62838095D01*
X143038095Y-62980952D01*
X143609523Y-63552380D01*
X142990476Y-63552380D01*
X142133333Y-62885714D02*
X142133333Y-63552380D01*
X142371428Y-62504761D02*
X142609523Y-63219047D01*
X141990476Y-63219047D01*
%TO.C,C23*%
X211442857Y-99277142D02*
X211490476Y-99324761D01*
X211633333Y-99372380D01*
X211728571Y-99372380D01*
X211871428Y-99324761D01*
X211966666Y-99229523D01*
X212014285Y-99134285D01*
X212061904Y-98943809D01*
X212061904Y-98800952D01*
X212014285Y-98610476D01*
X211966666Y-98515238D01*
X211871428Y-98420000D01*
X211728571Y-98372380D01*
X211633333Y-98372380D01*
X211490476Y-98420000D01*
X211442857Y-98467619D01*
X211061904Y-98467619D02*
X211014285Y-98420000D01*
X210919047Y-98372380D01*
X210680952Y-98372380D01*
X210585714Y-98420000D01*
X210538095Y-98467619D01*
X210490476Y-98562857D01*
X210490476Y-98658095D01*
X210538095Y-98800952D01*
X211109523Y-99372380D01*
X210490476Y-99372380D01*
X210157142Y-98372380D02*
X209538095Y-98372380D01*
X209871428Y-98753333D01*
X209728571Y-98753333D01*
X209633333Y-98800952D01*
X209585714Y-98848571D01*
X209538095Y-98943809D01*
X209538095Y-99181904D01*
X209585714Y-99277142D01*
X209633333Y-99324761D01*
X209728571Y-99372380D01*
X210014285Y-99372380D01*
X210109523Y-99324761D01*
X210157142Y-99277142D01*
%TO.C,C22*%
X215257142Y-82857142D02*
X215304761Y-82809523D01*
X215352380Y-82666666D01*
X215352380Y-82571428D01*
X215304761Y-82428571D01*
X215209523Y-82333333D01*
X215114285Y-82285714D01*
X214923809Y-82238095D01*
X214780952Y-82238095D01*
X214590476Y-82285714D01*
X214495238Y-82333333D01*
X214400000Y-82428571D01*
X214352380Y-82571428D01*
X214352380Y-82666666D01*
X214400000Y-82809523D01*
X214447619Y-82857142D01*
X214447619Y-83238095D02*
X214400000Y-83285714D01*
X214352380Y-83380952D01*
X214352380Y-83619047D01*
X214400000Y-83714285D01*
X214447619Y-83761904D01*
X214542857Y-83809523D01*
X214638095Y-83809523D01*
X214780952Y-83761904D01*
X215352380Y-83190476D01*
X215352380Y-83809523D01*
X214447619Y-84190476D02*
X214400000Y-84238095D01*
X214352380Y-84333333D01*
X214352380Y-84571428D01*
X214400000Y-84666666D01*
X214447619Y-84714285D01*
X214542857Y-84761904D01*
X214638095Y-84761904D01*
X214780952Y-84714285D01*
X215352380Y-84142857D01*
X215352380Y-84761904D01*
%TO.C,C21*%
X201477142Y-89357142D02*
X201524761Y-89309523D01*
X201572380Y-89166666D01*
X201572380Y-89071428D01*
X201524761Y-88928571D01*
X201429523Y-88833333D01*
X201334285Y-88785714D01*
X201143809Y-88738095D01*
X201000952Y-88738095D01*
X200810476Y-88785714D01*
X200715238Y-88833333D01*
X200620000Y-88928571D01*
X200572380Y-89071428D01*
X200572380Y-89166666D01*
X200620000Y-89309523D01*
X200667619Y-89357142D01*
X200667619Y-89738095D02*
X200620000Y-89785714D01*
X200572380Y-89880952D01*
X200572380Y-90119047D01*
X200620000Y-90214285D01*
X200667619Y-90261904D01*
X200762857Y-90309523D01*
X200858095Y-90309523D01*
X201000952Y-90261904D01*
X201572380Y-89690476D01*
X201572380Y-90309523D01*
X201572380Y-91261904D02*
X201572380Y-90690476D01*
X201572380Y-90976190D02*
X200572380Y-90976190D01*
X200715238Y-90880952D01*
X200810476Y-90785714D01*
X200858095Y-90690476D01*
%TO.C,C20*%
X182842857Y-80242857D02*
X182795238Y-80290476D01*
X182747619Y-80433333D01*
X182747619Y-80528571D01*
X182795238Y-80671428D01*
X182890476Y-80766666D01*
X182985714Y-80814285D01*
X183176190Y-80861904D01*
X183319047Y-80861904D01*
X183509523Y-80814285D01*
X183604761Y-80766666D01*
X183700000Y-80671428D01*
X183747619Y-80528571D01*
X183747619Y-80433333D01*
X183700000Y-80290476D01*
X183652380Y-80242857D01*
X183652380Y-79861904D02*
X183700000Y-79814285D01*
X183747619Y-79719047D01*
X183747619Y-79480952D01*
X183700000Y-79385714D01*
X183652380Y-79338095D01*
X183557142Y-79290476D01*
X183461904Y-79290476D01*
X183319047Y-79338095D01*
X182747619Y-79909523D01*
X182747619Y-79290476D01*
X183747619Y-78671428D02*
X183747619Y-78576190D01*
X183700000Y-78480952D01*
X183652380Y-78433333D01*
X183557142Y-78385714D01*
X183366666Y-78338095D01*
X183128571Y-78338095D01*
X182938095Y-78385714D01*
X182842857Y-78433333D01*
X182795238Y-78480952D01*
X182747619Y-78576190D01*
X182747619Y-78671428D01*
X182795238Y-78766666D01*
X182842857Y-78814285D01*
X182938095Y-78861904D01*
X183128571Y-78909523D01*
X183366666Y-78909523D01*
X183557142Y-78861904D01*
X183652380Y-78814285D01*
X183700000Y-78766666D01*
X183747619Y-78671428D01*
%TO.C,C19*%
X184057142Y-88357142D02*
X184104761Y-88309523D01*
X184152380Y-88166666D01*
X184152380Y-88071428D01*
X184104761Y-87928571D01*
X184009523Y-87833333D01*
X183914285Y-87785714D01*
X183723809Y-87738095D01*
X183580952Y-87738095D01*
X183390476Y-87785714D01*
X183295238Y-87833333D01*
X183200000Y-87928571D01*
X183152380Y-88071428D01*
X183152380Y-88166666D01*
X183200000Y-88309523D01*
X183247619Y-88357142D01*
X184152380Y-89309523D02*
X184152380Y-88738095D01*
X184152380Y-89023809D02*
X183152380Y-89023809D01*
X183295238Y-88928571D01*
X183390476Y-88833333D01*
X183438095Y-88738095D01*
X184152380Y-89785714D02*
X184152380Y-89976190D01*
X184104761Y-90071428D01*
X184057142Y-90119047D01*
X183914285Y-90214285D01*
X183723809Y-90261904D01*
X183342857Y-90261904D01*
X183247619Y-90214285D01*
X183200000Y-90166666D01*
X183152380Y-90071428D01*
X183152380Y-89880952D01*
X183200000Y-89785714D01*
X183247619Y-89738095D01*
X183342857Y-89690476D01*
X183580952Y-89690476D01*
X183676190Y-89738095D01*
X183723809Y-89785714D01*
X183771428Y-89880952D01*
X183771428Y-90071428D01*
X183723809Y-90166666D01*
X183676190Y-90214285D01*
X183580952Y-90261904D01*
%TO.C,C18*%
X180342857Y-80242857D02*
X180295238Y-80290476D01*
X180247619Y-80433333D01*
X180247619Y-80528571D01*
X180295238Y-80671428D01*
X180390476Y-80766666D01*
X180485714Y-80814285D01*
X180676190Y-80861904D01*
X180819047Y-80861904D01*
X181009523Y-80814285D01*
X181104761Y-80766666D01*
X181200000Y-80671428D01*
X181247619Y-80528571D01*
X181247619Y-80433333D01*
X181200000Y-80290476D01*
X181152380Y-80242857D01*
X180247619Y-79290476D02*
X180247619Y-79861904D01*
X180247619Y-79576190D02*
X181247619Y-79576190D01*
X181104761Y-79671428D01*
X181009523Y-79766666D01*
X180961904Y-79861904D01*
X180819047Y-78719047D02*
X180866666Y-78814285D01*
X180914285Y-78861904D01*
X181009523Y-78909523D01*
X181057142Y-78909523D01*
X181152380Y-78861904D01*
X181200000Y-78814285D01*
X181247619Y-78719047D01*
X181247619Y-78528571D01*
X181200000Y-78433333D01*
X181152380Y-78385714D01*
X181057142Y-78338095D01*
X181009523Y-78338095D01*
X180914285Y-78385714D01*
X180866666Y-78433333D01*
X180819047Y-78528571D01*
X180819047Y-78719047D01*
X180771428Y-78814285D01*
X180723809Y-78861904D01*
X180628571Y-78909523D01*
X180438095Y-78909523D01*
X180342857Y-78861904D01*
X180295238Y-78814285D01*
X180247619Y-78719047D01*
X180247619Y-78528571D01*
X180295238Y-78433333D01*
X180342857Y-78385714D01*
X180438095Y-78338095D01*
X180628571Y-78338095D01*
X180723809Y-78385714D01*
X180771428Y-78433333D01*
X180819047Y-78528571D01*
%TO.C,C17*%
X193342857Y-86457142D02*
X193390476Y-86504761D01*
X193533333Y-86552380D01*
X193628571Y-86552380D01*
X193771428Y-86504761D01*
X193866666Y-86409523D01*
X193914285Y-86314285D01*
X193961904Y-86123809D01*
X193961904Y-85980952D01*
X193914285Y-85790476D01*
X193866666Y-85695238D01*
X193771428Y-85600000D01*
X193628571Y-85552380D01*
X193533333Y-85552380D01*
X193390476Y-85600000D01*
X193342857Y-85647619D01*
X192390476Y-86552380D02*
X192961904Y-86552380D01*
X192676190Y-86552380D02*
X192676190Y-85552380D01*
X192771428Y-85695238D01*
X192866666Y-85790476D01*
X192961904Y-85838095D01*
X192057142Y-85552380D02*
X191390476Y-85552380D01*
X191819047Y-86552380D01*
%TO.C,C9*%
X212466666Y-159537142D02*
X212514285Y-159584761D01*
X212657142Y-159632380D01*
X212752380Y-159632380D01*
X212895238Y-159584761D01*
X212990476Y-159489523D01*
X213038095Y-159394285D01*
X213085714Y-159203809D01*
X213085714Y-159060952D01*
X213038095Y-158870476D01*
X212990476Y-158775238D01*
X212895238Y-158680000D01*
X212752380Y-158632380D01*
X212657142Y-158632380D01*
X212514285Y-158680000D01*
X212466666Y-158727619D01*
X211990476Y-159632380D02*
X211800000Y-159632380D01*
X211704761Y-159584761D01*
X211657142Y-159537142D01*
X211561904Y-159394285D01*
X211514285Y-159203809D01*
X211514285Y-158822857D01*
X211561904Y-158727619D01*
X211609523Y-158680000D01*
X211704761Y-158632380D01*
X211895238Y-158632380D01*
X211990476Y-158680000D01*
X212038095Y-158727619D01*
X212085714Y-158822857D01*
X212085714Y-159060952D01*
X212038095Y-159156190D01*
X211990476Y-159203809D01*
X211895238Y-159251428D01*
X211704761Y-159251428D01*
X211609523Y-159203809D01*
X211561904Y-159156190D01*
X211514285Y-159060952D01*
%TO.C,C8*%
X208657142Y-136133333D02*
X208704761Y-136085714D01*
X208752380Y-135942857D01*
X208752380Y-135847619D01*
X208704761Y-135704761D01*
X208609523Y-135609523D01*
X208514285Y-135561904D01*
X208323809Y-135514285D01*
X208180952Y-135514285D01*
X207990476Y-135561904D01*
X207895238Y-135609523D01*
X207800000Y-135704761D01*
X207752380Y-135847619D01*
X207752380Y-135942857D01*
X207800000Y-136085714D01*
X207847619Y-136133333D01*
X208180952Y-136704761D02*
X208133333Y-136609523D01*
X208085714Y-136561904D01*
X207990476Y-136514285D01*
X207942857Y-136514285D01*
X207847619Y-136561904D01*
X207800000Y-136609523D01*
X207752380Y-136704761D01*
X207752380Y-136895238D01*
X207800000Y-136990476D01*
X207847619Y-137038095D01*
X207942857Y-137085714D01*
X207990476Y-137085714D01*
X208085714Y-137038095D01*
X208133333Y-136990476D01*
X208180952Y-136895238D01*
X208180952Y-136704761D01*
X208228571Y-136609523D01*
X208276190Y-136561904D01*
X208371428Y-136514285D01*
X208561904Y-136514285D01*
X208657142Y-136561904D01*
X208704761Y-136609523D01*
X208752380Y-136704761D01*
X208752380Y-136895238D01*
X208704761Y-136990476D01*
X208657142Y-137038095D01*
X208561904Y-137085714D01*
X208371428Y-137085714D01*
X208276190Y-137038095D01*
X208228571Y-136990476D01*
X208180952Y-136895238D01*
%TO.C,C7*%
X208757142Y-145233333D02*
X208804761Y-145185714D01*
X208852380Y-145042857D01*
X208852380Y-144947619D01*
X208804761Y-144804761D01*
X208709523Y-144709523D01*
X208614285Y-144661904D01*
X208423809Y-144614285D01*
X208280952Y-144614285D01*
X208090476Y-144661904D01*
X207995238Y-144709523D01*
X207900000Y-144804761D01*
X207852380Y-144947619D01*
X207852380Y-145042857D01*
X207900000Y-145185714D01*
X207947619Y-145233333D01*
X207852380Y-145566666D02*
X207852380Y-146233333D01*
X208852380Y-145804761D01*
%TO.C,C6*%
X218766666Y-157757142D02*
X218814285Y-157804761D01*
X218957142Y-157852380D01*
X219052380Y-157852380D01*
X219195238Y-157804761D01*
X219290476Y-157709523D01*
X219338095Y-157614285D01*
X219385714Y-157423809D01*
X219385714Y-157280952D01*
X219338095Y-157090476D01*
X219290476Y-156995238D01*
X219195238Y-156900000D01*
X219052380Y-156852380D01*
X218957142Y-156852380D01*
X218814285Y-156900000D01*
X218766666Y-156947619D01*
X217909523Y-156852380D02*
X218100000Y-156852380D01*
X218195238Y-156900000D01*
X218242857Y-156947619D01*
X218338095Y-157090476D01*
X218385714Y-157280952D01*
X218385714Y-157661904D01*
X218338095Y-157757142D01*
X218290476Y-157804761D01*
X218195238Y-157852380D01*
X218004761Y-157852380D01*
X217909523Y-157804761D01*
X217861904Y-157757142D01*
X217814285Y-157661904D01*
X217814285Y-157423809D01*
X217861904Y-157328571D01*
X217909523Y-157280952D01*
X218004761Y-157233333D01*
X218195238Y-157233333D01*
X218290476Y-157280952D01*
X218338095Y-157328571D01*
X218385714Y-157423809D01*
%TO.C,C5*%
X218666666Y-150777142D02*
X218714285Y-150824761D01*
X218857142Y-150872380D01*
X218952380Y-150872380D01*
X219095238Y-150824761D01*
X219190476Y-150729523D01*
X219238095Y-150634285D01*
X219285714Y-150443809D01*
X219285714Y-150300952D01*
X219238095Y-150110476D01*
X219190476Y-150015238D01*
X219095238Y-149920000D01*
X218952380Y-149872380D01*
X218857142Y-149872380D01*
X218714285Y-149920000D01*
X218666666Y-149967619D01*
X217761904Y-149872380D02*
X218238095Y-149872380D01*
X218285714Y-150348571D01*
X218238095Y-150300952D01*
X218142857Y-150253333D01*
X217904761Y-150253333D01*
X217809523Y-150300952D01*
X217761904Y-150348571D01*
X217714285Y-150443809D01*
X217714285Y-150681904D01*
X217761904Y-150777142D01*
X217809523Y-150824761D01*
X217904761Y-150872380D01*
X218142857Y-150872380D01*
X218238095Y-150824761D01*
X218285714Y-150777142D01*
%TO.C,C4*%
X81766666Y-95257142D02*
X81814285Y-95304761D01*
X81957142Y-95352380D01*
X82052380Y-95352380D01*
X82195238Y-95304761D01*
X82290476Y-95209523D01*
X82338095Y-95114285D01*
X82385714Y-94923809D01*
X82385714Y-94780952D01*
X82338095Y-94590476D01*
X82290476Y-94495238D01*
X82195238Y-94400000D01*
X82052380Y-94352380D01*
X81957142Y-94352380D01*
X81814285Y-94400000D01*
X81766666Y-94447619D01*
X80909523Y-94685714D02*
X80909523Y-95352380D01*
X81147619Y-94304761D02*
X81385714Y-95019047D01*
X80766666Y-95019047D01*
%TO.C,C3*%
X76957142Y-86233333D02*
X77004761Y-86185714D01*
X77052380Y-86042857D01*
X77052380Y-85947619D01*
X77004761Y-85804761D01*
X76909523Y-85709523D01*
X76814285Y-85661904D01*
X76623809Y-85614285D01*
X76480952Y-85614285D01*
X76290476Y-85661904D01*
X76195238Y-85709523D01*
X76100000Y-85804761D01*
X76052380Y-85947619D01*
X76052380Y-86042857D01*
X76100000Y-86185714D01*
X76147619Y-86233333D01*
X76052380Y-86566666D02*
X76052380Y-87185714D01*
X76433333Y-86852380D01*
X76433333Y-86995238D01*
X76480952Y-87090476D01*
X76528571Y-87138095D01*
X76623809Y-87185714D01*
X76861904Y-87185714D01*
X76957142Y-87138095D01*
X77004761Y-87090476D01*
X77052380Y-86995238D01*
X77052380Y-86709523D01*
X77004761Y-86614285D01*
X76957142Y-86566666D01*
%TO.C,C2*%
X82186666Y-101417142D02*
X82234285Y-101464761D01*
X82377142Y-101512380D01*
X82472380Y-101512380D01*
X82615238Y-101464761D01*
X82710476Y-101369523D01*
X82758095Y-101274285D01*
X82805714Y-101083809D01*
X82805714Y-100940952D01*
X82758095Y-100750476D01*
X82710476Y-100655238D01*
X82615238Y-100560000D01*
X82472380Y-100512380D01*
X82377142Y-100512380D01*
X82234285Y-100560000D01*
X82186666Y-100607619D01*
X81805714Y-100607619D02*
X81758095Y-100560000D01*
X81662857Y-100512380D01*
X81424761Y-100512380D01*
X81329523Y-100560000D01*
X81281904Y-100607619D01*
X81234285Y-100702857D01*
X81234285Y-100798095D01*
X81281904Y-100940952D01*
X81853333Y-101512380D01*
X81234285Y-101512380D01*
%TO.C,C1*%
X78057142Y-114233333D02*
X78104761Y-114185714D01*
X78152380Y-114042857D01*
X78152380Y-113947619D01*
X78104761Y-113804761D01*
X78009523Y-113709523D01*
X77914285Y-113661904D01*
X77723809Y-113614285D01*
X77580952Y-113614285D01*
X77390476Y-113661904D01*
X77295238Y-113709523D01*
X77200000Y-113804761D01*
X77152380Y-113947619D01*
X77152380Y-114042857D01*
X77200000Y-114185714D01*
X77247619Y-114233333D01*
X78152380Y-115185714D02*
X78152380Y-114614285D01*
X78152380Y-114900000D02*
X77152380Y-114900000D01*
X77295238Y-114804761D01*
X77390476Y-114709523D01*
X77438095Y-114614285D01*
%TD*%
M02*
