M48
INCH,TZ
T1C0.0157
T2C0.0315
T3C0.0354
T4C0.0394
T5C0.0472
T6C0.0512
T7C0.0551
T8C0.0591
%
G90
G05
T1
X75984Y-34567
X75984Y-37480
T2
X48394Y-32283
X48394Y-35283
X49394Y-32283
X49394Y-35283
X50394Y-32283
X50394Y-35283
X50787Y-46063
X50787Y-47063
X50787Y-48063
X50787Y-49063
X53787Y-46063
X53787Y-47063
X53787Y-48063
X53787Y-49063
X54587Y-55193
X54587Y-58193
X55217Y-45374
X55587Y-58193
X56693Y-50543
X56693Y-53543
X57693Y-50543
X57693Y-53543
X58587Y-58193
X58693Y-50543
X58693Y-53543
X59217Y-45374
X59587Y-58193
X59693Y-50543
X59693Y-53543
X60587Y-55193
X60587Y-58193
X62142Y-35039
X62205Y-33465
X63394Y-51181
X63394Y-54181
X64114Y-55587
X64114Y-58587
X64173Y-33465
X64394Y-51181
X64394Y-54181
X65114Y-58587
X66142Y-35039
X68114Y-58587
X69114Y-58587
X69394Y-51181
X69394Y-54181
X70114Y-55587
X70114Y-58587
X70394Y-51181
X70394Y-54181
X71850Y-46850
X71850Y-48819
X74803Y-49315
X74803Y-55315
T3
X63929Y-29921
X64929Y-29921
X65929Y-29921
X66929Y-29921
T4
X55512Y-35039
X57480Y-35039
X64443Y-40717
X64443Y-42717
X64443Y-44717
X64443Y-46717
X64443Y-48717
X69443Y-40717
X69443Y-42717
X69443Y-44717
X69443Y-46717
X69443Y-48717
X74213Y-43504
X74213Y-47441
T5
X55906Y-40945
X58858Y-40945
X79134Y-43701
X79134Y-54528
T6
X54236Y-30315
X56236Y-30315
X58236Y-30315
X60236Y-30315
X61417Y-37008
X67417Y-37008
T7
X50394Y-51575
X54394Y-51575
X61811Y-39764
X61811Y-43764
X71850Y-40685
X71850Y-44685
X72197Y-29921
X72197Y-32598
X72197Y-35354
X72197Y-38110
X73697Y-29921
X73697Y-32598
X73697Y-35354
X73697Y-38110
X76697Y-29921
X76697Y-32598
X76697Y-35354
X76697Y-38110
X78197Y-29921
X78197Y-32598
X78197Y-35354
X78197Y-38110
T8
X50787Y-37795
X50787Y-40594
T0
M30
