%TF.GenerationSoftware,KiCad,Pcbnew,(5.1.10-1-10_14)*%
%TF.CreationDate,2022-04-01T14:18:11+03:00*%
%TF.ProjectId,Convertor_15v_to_20v:500v,436f6e76-6572-4746-9f72-5f3135765f74,rev?*%
%TF.SameCoordinates,Original*%
%TF.FileFunction,Legend,Top*%
%TF.FilePolarity,Positive*%
%FSLAX46Y46*%
G04 Gerber Fmt 4.6, Leading zero omitted, Abs format (unit mm)*
G04 Created by KiCad (PCBNEW (5.1.10-1-10_14)) date 2022-04-01 14:18:11*
%MOMM*%
%LPD*%
G01*
G04 APERTURE LIST*
%ADD10C,0.120000*%
%ADD11C,0.150000*%
G04 APERTURE END LIST*
D10*
%TO.C,U10*%
X201160000Y-72190000D02*
X201160000Y-73460000D01*
X180840000Y-72190000D02*
X201160000Y-72190000D01*
X180840000Y-73460000D02*
X180840000Y-72190000D01*
X180840000Y-78540000D02*
X180840000Y-73460000D01*
X201160000Y-78540000D02*
X180840000Y-78540000D01*
X201160000Y-73460000D02*
X201160000Y-78540000D01*
X180840000Y-73460000D02*
X201160000Y-73460000D01*
%TO.C,U9*%
X201160000Y-78990000D02*
X201160000Y-80260000D01*
X180840000Y-78990000D02*
X201160000Y-78990000D01*
X180840000Y-80260000D02*
X180840000Y-78990000D01*
X180840000Y-85340000D02*
X180840000Y-80260000D01*
X201160000Y-85340000D02*
X180840000Y-85340000D01*
X201160000Y-80260000D02*
X201160000Y-85340000D01*
X180840000Y-80260000D02*
X201160000Y-80260000D01*
%TO.C,U8*%
X129330000Y-88460000D02*
X129330000Y-86810000D01*
X121590000Y-88460000D02*
X129330000Y-88460000D01*
X121590000Y-83160000D02*
X121590000Y-88460000D01*
X129330000Y-83160000D02*
X121590000Y-83160000D01*
X129330000Y-84810000D02*
X129330000Y-83160000D01*
X129330000Y-86810000D02*
G75*
G02*
X129330000Y-84810000I0J1000000D01*
G01*
%TO.C,U7*%
X201160000Y-92990000D02*
X201160000Y-94260000D01*
X180840000Y-92990000D02*
X201160000Y-92990000D01*
X180840000Y-94260000D02*
X180840000Y-92990000D01*
X180840000Y-99340000D02*
X180840000Y-94260000D01*
X201160000Y-99340000D02*
X180840000Y-99340000D01*
X201160000Y-94260000D02*
X201160000Y-99340000D01*
X180840000Y-94260000D02*
X201160000Y-94260000D01*
%TO.C,U6*%
X201160000Y-85990000D02*
X201160000Y-87260000D01*
X180840000Y-85990000D02*
X201160000Y-85990000D01*
X180840000Y-87260000D02*
X180840000Y-85990000D01*
X180840000Y-92340000D02*
X180840000Y-87260000D01*
X201160000Y-92340000D02*
X180840000Y-92340000D01*
X201160000Y-87260000D02*
X201160000Y-92340000D01*
X180840000Y-87260000D02*
X201160000Y-87260000D01*
%TO.C,U5*%
X162850000Y-147540000D02*
X178090000Y-147540000D01*
X178090000Y-147540000D02*
X178090000Y-142460000D01*
X178090000Y-142460000D02*
X162850000Y-142460000D01*
X162850000Y-142460000D02*
X162850000Y-143730000D01*
X162850000Y-147540000D02*
X162850000Y-146270000D01*
X162850000Y-143730000D02*
G75*
G02*
X162850000Y-146270000I0J-1270000D01*
G01*
%TO.C,U4*%
X180130000Y-136460000D02*
X180130000Y-134810000D01*
X159690000Y-136460000D02*
X180130000Y-136460000D01*
X159690000Y-131160000D02*
X159690000Y-136460000D01*
X180130000Y-131160000D02*
X159690000Y-131160000D01*
X180130000Y-132810000D02*
X180130000Y-131160000D01*
X180130000Y-134810000D02*
G75*
G02*
X180130000Y-132810000I0J1000000D01*
G01*
%TO.C,U3*%
X138650000Y-146540000D02*
X153890000Y-146540000D01*
X153890000Y-146540000D02*
X153890000Y-141460000D01*
X153890000Y-141460000D02*
X138650000Y-141460000D01*
X138650000Y-141460000D02*
X138650000Y-142730000D01*
X138650000Y-146540000D02*
X138650000Y-145270000D01*
X138650000Y-142730000D02*
G75*
G02*
X138650000Y-145270000I0J-1270000D01*
G01*
%TO.C,U2*%
X135460000Y-115670000D02*
X133810000Y-115670000D01*
X135460000Y-125950000D02*
X135460000Y-115670000D01*
X130160000Y-125950000D02*
X135460000Y-125950000D01*
X130160000Y-115670000D02*
X130160000Y-125950000D01*
X131810000Y-115670000D02*
X130160000Y-115670000D01*
X133810000Y-115670000D02*
G75*
G02*
X131810000Y-115670000I-1000000J0D01*
G01*
%TO.C,U1*%
X142670000Y-129540000D02*
X142670000Y-131190000D01*
X152950000Y-129540000D02*
X142670000Y-129540000D01*
X152950000Y-134840000D02*
X152950000Y-129540000D01*
X142670000Y-134840000D02*
X152950000Y-134840000D01*
X142670000Y-133190000D02*
X142670000Y-134840000D01*
X142670000Y-131190000D02*
G75*
G02*
X142670000Y-133190000I0J-1000000D01*
G01*
%TO.C,R12*%
X190000000Y-126300000D02*
X190000000Y-128260000D01*
X190000000Y-139460000D02*
X190000000Y-137500000D01*
X188280000Y-128260000D02*
X188280000Y-137500000D01*
X191720000Y-128260000D02*
X188280000Y-128260000D01*
X191720000Y-137500000D02*
X191720000Y-128260000D01*
X188280000Y-137500000D02*
X191720000Y-137500000D01*
%TO.C,R7*%
X149370000Y-115250000D02*
X148600000Y-115250000D01*
X141290000Y-115250000D02*
X142060000Y-115250000D01*
X148600000Y-113880000D02*
X142060000Y-113880000D01*
X148600000Y-116620000D02*
X148600000Y-113880000D01*
X142060000Y-116620000D02*
X148600000Y-116620000D01*
X142060000Y-113880000D02*
X142060000Y-116620000D01*
%TO.C,R5*%
X158880000Y-89000000D02*
X159650000Y-89000000D01*
X166960000Y-89000000D02*
X166190000Y-89000000D01*
X159650000Y-90370000D02*
X166190000Y-90370000D01*
X159650000Y-87630000D02*
X159650000Y-90370000D01*
X166190000Y-87630000D02*
X159650000Y-87630000D01*
X166190000Y-90370000D02*
X166190000Y-87630000D01*
%TO.C,L1*%
X137250000Y-95880000D02*
X137250000Y-103230000D01*
X120750000Y-95880000D02*
X120750000Y-103230000D01*
X130755000Y-103230000D02*
X137250000Y-103230000D01*
X120750000Y-103230000D02*
X127245000Y-103230000D01*
X130755000Y-95880000D02*
X137250000Y-95880000D01*
X120750000Y-95880000D02*
X127245000Y-95880000D01*
%TO.C,J2*%
X161110000Y-72444000D02*
X161110000Y-78540000D01*
X171270000Y-72444000D02*
X161110000Y-72444000D01*
X171270000Y-78540000D02*
X171270000Y-72444000D01*
X171270000Y-77778000D02*
X161110000Y-77778000D01*
X161110000Y-78540000D02*
X171270000Y-78540000D01*
%TO.C,J1*%
X155840000Y-72100000D02*
X155340000Y-72100000D01*
X155840000Y-72840000D02*
X155840000Y-72100000D01*
X138987000Y-75977000D02*
X139034000Y-75931000D01*
X136690000Y-78275000D02*
X136725000Y-78239000D01*
X138794000Y-75761000D02*
X138829000Y-75726000D01*
X136485000Y-78069000D02*
X136532000Y-78023000D01*
X144067000Y-75977000D02*
X144114000Y-75931000D01*
X141770000Y-78275000D02*
X141805000Y-78239000D01*
X143874000Y-75761000D02*
X143909000Y-75726000D01*
X141565000Y-78069000D02*
X141612000Y-78023000D01*
X149147000Y-75977000D02*
X149194000Y-75931000D01*
X146850000Y-78275000D02*
X146885000Y-78239000D01*
X148954000Y-75761000D02*
X148989000Y-75726000D01*
X146645000Y-78069000D02*
X146692000Y-78023000D01*
X135160000Y-82261000D02*
X135160000Y-72340000D01*
X155600000Y-82261000D02*
X155600000Y-72340000D01*
X155600000Y-72340000D02*
X135160000Y-72340000D01*
X155600000Y-82261000D02*
X135160000Y-82261000D01*
X155600000Y-79301000D02*
X135160000Y-79301000D01*
X155600000Y-74400000D02*
X135160000Y-74400000D01*
X155600000Y-72900000D02*
X135160000Y-72900000D01*
X139440000Y-77000000D02*
G75*
G03*
X139440000Y-77000000I-1680000J0D01*
G01*
X144520000Y-77000000D02*
G75*
G03*
X144520000Y-77000000I-1680000J0D01*
G01*
X149600000Y-77000000D02*
G75*
G03*
X149600000Y-77000000I-1680000J0D01*
G01*
X152971195Y-75319747D02*
G75*
G02*
X153684000Y-75465000I28805J-1680253D01*
G01*
X154535426Y-76316958D02*
G75*
G02*
X154535000Y-77684000I-1535426J-683042D01*
G01*
X153683042Y-78535426D02*
G75*
G02*
X152316000Y-78535000I-683042J1535426D01*
G01*
X151464574Y-77683042D02*
G75*
G02*
X151465000Y-76316000I1535426J683042D01*
G01*
X152316682Y-75465244D02*
G75*
G02*
X153000000Y-75320000I683318J-1534756D01*
G01*
%TO.C,T1*%
X179433000Y-128058000D02*
X160383000Y-128058000D01*
X179433000Y-98848000D02*
X179433000Y-128058000D01*
X160383000Y-98848000D02*
X179433000Y-98848000D01*
X160383000Y-128058000D02*
X160383000Y-98848000D01*
%TO.C,D4*%
X180530000Y-111655000D02*
X184470000Y-111655000D01*
X180530000Y-111415000D02*
X184470000Y-111415000D01*
X180530000Y-111535000D02*
X184470000Y-111535000D01*
X184470000Y-103850000D02*
X184140000Y-103850000D01*
X184470000Y-112990000D02*
X184470000Y-103850000D01*
X184140000Y-112990000D02*
X184470000Y-112990000D01*
X180530000Y-103850000D02*
X180860000Y-103850000D01*
X180530000Y-112990000D02*
X180530000Y-103850000D01*
X180860000Y-112990000D02*
X180530000Y-112990000D01*
%TO.C,D3*%
X158970000Y-102845000D02*
X155030000Y-102845000D01*
X158970000Y-103085000D02*
X155030000Y-103085000D01*
X158970000Y-102965000D02*
X155030000Y-102965000D01*
X155030000Y-110650000D02*
X155360000Y-110650000D01*
X155030000Y-101510000D02*
X155030000Y-110650000D01*
X155360000Y-101510000D02*
X155030000Y-101510000D01*
X158970000Y-110650000D02*
X158640000Y-110650000D01*
X158970000Y-101510000D02*
X158970000Y-110650000D01*
X158640000Y-101510000D02*
X158970000Y-101510000D01*
%TO.C,D2*%
X160350000Y-91230000D02*
X160350000Y-96770000D01*
X160590000Y-91230000D02*
X160590000Y-96770000D01*
X160470000Y-91230000D02*
X160470000Y-96770000D01*
X169700000Y-94000000D02*
X168240000Y-94000000D01*
X157540000Y-94000000D02*
X159000000Y-94000000D01*
X168240000Y-91230000D02*
X159000000Y-91230000D01*
X168240000Y-96770000D02*
X168240000Y-91230000D01*
X159000000Y-96770000D02*
X168240000Y-96770000D01*
X159000000Y-91230000D02*
X159000000Y-96770000D01*
%TO.C,D1*%
X129845000Y-129030000D02*
X129845000Y-132970000D01*
X130085000Y-129030000D02*
X130085000Y-132970000D01*
X129965000Y-129030000D02*
X129965000Y-132970000D01*
X137650000Y-132970000D02*
X137650000Y-132640000D01*
X128510000Y-132970000D02*
X137650000Y-132970000D01*
X128510000Y-132640000D02*
X128510000Y-132970000D01*
X137650000Y-129030000D02*
X137650000Y-129360000D01*
X128510000Y-129030000D02*
X137650000Y-129030000D01*
X128510000Y-129360000D02*
X128510000Y-129030000D01*
%TO.C,C11*%
X199815000Y-139370000D02*
X193980000Y-139370000D01*
X208020000Y-139370000D02*
X202185000Y-139370000D01*
X199815000Y-110130000D02*
X193980000Y-110130000D01*
X208020000Y-110130000D02*
X202185000Y-110130000D01*
X193980000Y-110130000D02*
X193980000Y-139370000D01*
X208020000Y-110130000D02*
X208020000Y-139370000D01*
%TO.C,C9*%
X184370000Y-125120000D02*
X180630000Y-125120000D01*
X184370000Y-117880000D02*
X180630000Y-117880000D01*
X180630000Y-117880000D02*
X180630000Y-125120000D01*
X184370000Y-117880000D02*
X184370000Y-125120000D01*
%TO.C,C8*%
X185880000Y-108630000D02*
X191120000Y-108630000D01*
X185880000Y-122370000D02*
X191120000Y-122370000D01*
X191120000Y-122370000D02*
X191120000Y-108630000D01*
X185880000Y-122370000D02*
X185880000Y-108630000D01*
%TO.C,C5*%
X156880000Y-86870000D02*
X156880000Y-83130000D01*
X164120000Y-86870000D02*
X164120000Y-83130000D01*
X164120000Y-83130000D02*
X156880000Y-83130000D01*
X164120000Y-86870000D02*
X156880000Y-86870000D01*
%TO.C,C4*%
X138830457Y-99305000D02*
X138830457Y-100705000D01*
X138130457Y-100005000D02*
X139530457Y-100005000D01*
X152831000Y-103286000D02*
X152831000Y-104714000D01*
X152791000Y-102975000D02*
X152791000Y-105025000D01*
X152751000Y-102738000D02*
X152751000Y-105262000D01*
X152711000Y-102539000D02*
X152711000Y-105461000D01*
X152671000Y-102364000D02*
X152671000Y-105636000D01*
X152631000Y-102206000D02*
X152631000Y-105794000D01*
X152591000Y-102062000D02*
X152591000Y-105938000D01*
X152551000Y-101929000D02*
X152551000Y-106071000D01*
X152511000Y-101804000D02*
X152511000Y-106196000D01*
X152471000Y-101687000D02*
X152471000Y-106313000D01*
X152431000Y-101575000D02*
X152431000Y-106425000D01*
X152391000Y-101470000D02*
X152391000Y-106530000D01*
X152351000Y-101368000D02*
X152351000Y-106632000D01*
X152311000Y-101272000D02*
X152311000Y-106728000D01*
X152271000Y-101179000D02*
X152271000Y-106821000D01*
X152231000Y-101089000D02*
X152231000Y-106911000D01*
X152191000Y-101003000D02*
X152191000Y-106997000D01*
X152151000Y-100920000D02*
X152151000Y-107080000D01*
X152111000Y-100839000D02*
X152111000Y-107161000D01*
X152071000Y-100760000D02*
X152071000Y-107240000D01*
X152031000Y-100685000D02*
X152031000Y-107315000D01*
X151991000Y-100611000D02*
X151991000Y-107389000D01*
X151951000Y-100539000D02*
X151951000Y-107461000D01*
X151911000Y-100469000D02*
X151911000Y-107531000D01*
X151871000Y-100401000D02*
X151871000Y-107599000D01*
X151831000Y-100334000D02*
X151831000Y-107666000D01*
X151791000Y-100270000D02*
X151791000Y-107730000D01*
X151751000Y-100206000D02*
X151751000Y-107794000D01*
X151711000Y-100144000D02*
X151711000Y-107856000D01*
X151671000Y-100084000D02*
X151671000Y-107916000D01*
X151631000Y-100025000D02*
X151631000Y-107975000D01*
X151591000Y-99967000D02*
X151591000Y-108033000D01*
X151551000Y-99910000D02*
X151551000Y-108090000D01*
X151511000Y-99854000D02*
X151511000Y-108146000D01*
X151471000Y-99800000D02*
X151471000Y-108200000D01*
X151431000Y-99746000D02*
X151431000Y-108254000D01*
X151391000Y-99694000D02*
X151391000Y-108306000D01*
X151351000Y-99642000D02*
X151351000Y-108358000D01*
X151311000Y-99592000D02*
X151311000Y-108408000D01*
X151271000Y-99542000D02*
X151271000Y-108458000D01*
X151231000Y-99494000D02*
X151231000Y-108506000D01*
X151191000Y-99446000D02*
X151191000Y-108554000D01*
X151151000Y-99399000D02*
X151151000Y-108601000D01*
X151111000Y-99353000D02*
X151111000Y-108647000D01*
X151071000Y-99307000D02*
X151071000Y-108693000D01*
X151031000Y-99263000D02*
X151031000Y-108737000D01*
X150991000Y-99219000D02*
X150991000Y-108781000D01*
X150951000Y-99176000D02*
X150951000Y-108824000D01*
X150911000Y-105440000D02*
X150911000Y-108866000D01*
X150911000Y-99134000D02*
X150911000Y-102560000D01*
X150871000Y-105440000D02*
X150871000Y-108908000D01*
X150871000Y-99092000D02*
X150871000Y-102560000D01*
X150831000Y-105440000D02*
X150831000Y-108949000D01*
X150831000Y-99051000D02*
X150831000Y-102560000D01*
X150791000Y-105440000D02*
X150791000Y-108990000D01*
X150791000Y-99010000D02*
X150791000Y-102560000D01*
X150751000Y-105440000D02*
X150751000Y-109029000D01*
X150751000Y-98971000D02*
X150751000Y-102560000D01*
X150711000Y-105440000D02*
X150711000Y-109069000D01*
X150711000Y-98931000D02*
X150711000Y-102560000D01*
X150671000Y-105440000D02*
X150671000Y-109107000D01*
X150671000Y-98893000D02*
X150671000Y-102560000D01*
X150631000Y-105440000D02*
X150631000Y-109145000D01*
X150631000Y-98855000D02*
X150631000Y-102560000D01*
X150591000Y-105440000D02*
X150591000Y-109182000D01*
X150591000Y-98818000D02*
X150591000Y-102560000D01*
X150551000Y-105440000D02*
X150551000Y-109219000D01*
X150551000Y-98781000D02*
X150551000Y-102560000D01*
X150511000Y-105440000D02*
X150511000Y-109255000D01*
X150511000Y-98745000D02*
X150511000Y-102560000D01*
X150471000Y-105440000D02*
X150471000Y-109291000D01*
X150471000Y-98709000D02*
X150471000Y-102560000D01*
X150431000Y-105440000D02*
X150431000Y-109326000D01*
X150431000Y-98674000D02*
X150431000Y-102560000D01*
X150391000Y-105440000D02*
X150391000Y-109361000D01*
X150391000Y-98639000D02*
X150391000Y-102560000D01*
X150351000Y-105440000D02*
X150351000Y-109395000D01*
X150351000Y-98605000D02*
X150351000Y-102560000D01*
X150311000Y-105440000D02*
X150311000Y-109429000D01*
X150311000Y-98571000D02*
X150311000Y-102560000D01*
X150271000Y-105440000D02*
X150271000Y-109462000D01*
X150271000Y-98538000D02*
X150271000Y-102560000D01*
X150231000Y-105440000D02*
X150231000Y-109494000D01*
X150231000Y-98506000D02*
X150231000Y-102560000D01*
X150191000Y-105440000D02*
X150191000Y-109527000D01*
X150191000Y-98473000D02*
X150191000Y-102560000D01*
X150151000Y-105440000D02*
X150151000Y-109558000D01*
X150151000Y-98442000D02*
X150151000Y-102560000D01*
X150111000Y-105440000D02*
X150111000Y-109589000D01*
X150111000Y-98411000D02*
X150111000Y-102560000D01*
X150071000Y-105440000D02*
X150071000Y-109620000D01*
X150071000Y-98380000D02*
X150071000Y-102560000D01*
X150031000Y-105440000D02*
X150031000Y-109650000D01*
X150031000Y-98350000D02*
X150031000Y-102560000D01*
X149991000Y-105440000D02*
X149991000Y-109680000D01*
X149991000Y-98320000D02*
X149991000Y-102560000D01*
X149951000Y-105440000D02*
X149951000Y-109710000D01*
X149951000Y-98290000D02*
X149951000Y-102560000D01*
X149911000Y-105440000D02*
X149911000Y-109739000D01*
X149911000Y-98261000D02*
X149911000Y-102560000D01*
X149871000Y-105440000D02*
X149871000Y-109767000D01*
X149871000Y-98233000D02*
X149871000Y-102560000D01*
X149831000Y-105440000D02*
X149831000Y-109796000D01*
X149831000Y-98204000D02*
X149831000Y-102560000D01*
X149791000Y-105440000D02*
X149791000Y-109823000D01*
X149791000Y-98177000D02*
X149791000Y-102560000D01*
X149751000Y-105440000D02*
X149751000Y-109851000D01*
X149751000Y-98149000D02*
X149751000Y-102560000D01*
X149711000Y-105440000D02*
X149711000Y-109878000D01*
X149711000Y-98122000D02*
X149711000Y-102560000D01*
X149671000Y-105440000D02*
X149671000Y-109904000D01*
X149671000Y-98096000D02*
X149671000Y-102560000D01*
X149631000Y-105440000D02*
X149631000Y-109930000D01*
X149631000Y-98070000D02*
X149631000Y-102560000D01*
X149591000Y-105440000D02*
X149591000Y-109956000D01*
X149591000Y-98044000D02*
X149591000Y-102560000D01*
X149551000Y-105440000D02*
X149551000Y-109982000D01*
X149551000Y-98018000D02*
X149551000Y-102560000D01*
X149511000Y-105440000D02*
X149511000Y-110007000D01*
X149511000Y-97993000D02*
X149511000Y-102560000D01*
X149471000Y-105440000D02*
X149471000Y-110031000D01*
X149471000Y-97969000D02*
X149471000Y-102560000D01*
X149431000Y-105440000D02*
X149431000Y-110056000D01*
X149431000Y-97944000D02*
X149431000Y-102560000D01*
X149391000Y-105440000D02*
X149391000Y-110080000D01*
X149391000Y-97920000D02*
X149391000Y-102560000D01*
X149351000Y-105440000D02*
X149351000Y-110103000D01*
X149351000Y-97897000D02*
X149351000Y-102560000D01*
X149311000Y-105440000D02*
X149311000Y-110127000D01*
X149311000Y-97873000D02*
X149311000Y-102560000D01*
X149271000Y-105440000D02*
X149271000Y-110150000D01*
X149271000Y-97850000D02*
X149271000Y-102560000D01*
X149231000Y-105440000D02*
X149231000Y-110172000D01*
X149231000Y-97828000D02*
X149231000Y-102560000D01*
X149191000Y-105440000D02*
X149191000Y-110194000D01*
X149191000Y-97806000D02*
X149191000Y-102560000D01*
X149151000Y-105440000D02*
X149151000Y-110216000D01*
X149151000Y-97784000D02*
X149151000Y-102560000D01*
X149111000Y-105440000D02*
X149111000Y-110238000D01*
X149111000Y-97762000D02*
X149111000Y-102560000D01*
X149071000Y-105440000D02*
X149071000Y-110259000D01*
X149071000Y-97741000D02*
X149071000Y-102560000D01*
X149031000Y-105440000D02*
X149031000Y-110280000D01*
X149031000Y-97720000D02*
X149031000Y-102560000D01*
X148991000Y-105440000D02*
X148991000Y-110301000D01*
X148991000Y-97699000D02*
X148991000Y-102560000D01*
X148951000Y-105440000D02*
X148951000Y-110321000D01*
X148951000Y-97679000D02*
X148951000Y-102560000D01*
X148911000Y-105440000D02*
X148911000Y-110341000D01*
X148911000Y-97659000D02*
X148911000Y-102560000D01*
X148871000Y-105440000D02*
X148871000Y-110360000D01*
X148871000Y-97640000D02*
X148871000Y-102560000D01*
X148831000Y-105440000D02*
X148831000Y-110380000D01*
X148831000Y-97620000D02*
X148831000Y-102560000D01*
X148791000Y-105440000D02*
X148791000Y-110399000D01*
X148791000Y-97601000D02*
X148791000Y-102560000D01*
X148751000Y-105440000D02*
X148751000Y-110418000D01*
X148751000Y-97582000D02*
X148751000Y-102560000D01*
X148711000Y-105440000D02*
X148711000Y-110436000D01*
X148711000Y-97564000D02*
X148711000Y-102560000D01*
X148671000Y-105440000D02*
X148671000Y-110454000D01*
X148671000Y-97546000D02*
X148671000Y-102560000D01*
X148631000Y-105440000D02*
X148631000Y-110472000D01*
X148631000Y-97528000D02*
X148631000Y-102560000D01*
X148591000Y-105440000D02*
X148591000Y-110490000D01*
X148591000Y-97510000D02*
X148591000Y-102560000D01*
X148551000Y-105440000D02*
X148551000Y-110507000D01*
X148551000Y-97493000D02*
X148551000Y-102560000D01*
X148511000Y-105440000D02*
X148511000Y-110524000D01*
X148511000Y-97476000D02*
X148511000Y-102560000D01*
X148471000Y-105440000D02*
X148471000Y-110540000D01*
X148471000Y-97460000D02*
X148471000Y-102560000D01*
X148431000Y-105440000D02*
X148431000Y-110557000D01*
X148431000Y-97443000D02*
X148431000Y-102560000D01*
X148391000Y-105440000D02*
X148391000Y-110573000D01*
X148391000Y-97427000D02*
X148391000Y-102560000D01*
X148351000Y-105440000D02*
X148351000Y-110589000D01*
X148351000Y-97411000D02*
X148351000Y-102560000D01*
X148311000Y-105440000D02*
X148311000Y-110604000D01*
X148311000Y-97396000D02*
X148311000Y-102560000D01*
X148271000Y-105440000D02*
X148271000Y-110620000D01*
X148271000Y-97380000D02*
X148271000Y-102560000D01*
X148231000Y-105440000D02*
X148231000Y-110635000D01*
X148231000Y-97365000D02*
X148231000Y-102560000D01*
X148191000Y-105440000D02*
X148191000Y-110649000D01*
X148191000Y-97351000D02*
X148191000Y-102560000D01*
X148151000Y-105440000D02*
X148151000Y-110664000D01*
X148151000Y-97336000D02*
X148151000Y-102560000D01*
X148111000Y-105440000D02*
X148111000Y-110678000D01*
X148111000Y-97322000D02*
X148111000Y-102560000D01*
X148071000Y-105440000D02*
X148071000Y-110692000D01*
X148071000Y-97308000D02*
X148071000Y-102560000D01*
X148031000Y-97294000D02*
X148031000Y-110706000D01*
X147991000Y-97281000D02*
X147991000Y-110719000D01*
X147951000Y-97268000D02*
X147951000Y-110732000D01*
X147911000Y-97255000D02*
X147911000Y-110745000D01*
X147871000Y-97242000D02*
X147871000Y-110758000D01*
X147831000Y-97230000D02*
X147831000Y-110770000D01*
X147791000Y-97218000D02*
X147791000Y-110782000D01*
X147751000Y-97206000D02*
X147751000Y-110794000D01*
X147711000Y-97195000D02*
X147711000Y-110805000D01*
X147671000Y-97183000D02*
X147671000Y-110817000D01*
X147631000Y-97172000D02*
X147631000Y-110828000D01*
X147591000Y-97161000D02*
X147591000Y-110839000D01*
X147551000Y-97151000D02*
X147551000Y-110849000D01*
X147511000Y-97140000D02*
X147511000Y-110860000D01*
X147471000Y-97130000D02*
X147471000Y-110870000D01*
X147431000Y-97121000D02*
X147431000Y-110879000D01*
X147391000Y-97111000D02*
X147391000Y-110889000D01*
X147351000Y-97102000D02*
X147351000Y-110898000D01*
X147311000Y-97093000D02*
X147311000Y-110907000D01*
X147271000Y-97084000D02*
X147271000Y-110916000D01*
X147231000Y-97075000D02*
X147231000Y-110925000D01*
X147191000Y-97067000D02*
X147191000Y-110933000D01*
X147151000Y-97058000D02*
X147151000Y-110942000D01*
X147111000Y-97051000D02*
X147111000Y-110949000D01*
X147071000Y-97043000D02*
X147071000Y-110957000D01*
X147031000Y-97036000D02*
X147031000Y-110964000D01*
X146991000Y-97028000D02*
X146991000Y-110972000D01*
X146951000Y-97021000D02*
X146951000Y-110979000D01*
X146911000Y-97015000D02*
X146911000Y-110985000D01*
X146871000Y-97008000D02*
X146871000Y-110992000D01*
X146831000Y-97002000D02*
X146831000Y-110998000D01*
X146791000Y-96996000D02*
X146791000Y-111004000D01*
X146751000Y-96990000D02*
X146751000Y-111010000D01*
X146711000Y-96985000D02*
X146711000Y-111015000D01*
X146671000Y-96979000D02*
X146671000Y-111021000D01*
X146631000Y-96974000D02*
X146631000Y-111026000D01*
X146591000Y-96969000D02*
X146591000Y-111031000D01*
X146551000Y-96965000D02*
X146551000Y-111035000D01*
X146511000Y-96960000D02*
X146511000Y-111040000D01*
X146471000Y-96956000D02*
X146471000Y-111044000D01*
X146430000Y-96952000D02*
X146430000Y-111048000D01*
X146390000Y-96948000D02*
X146390000Y-111052000D01*
X146350000Y-96945000D02*
X146350000Y-111055000D01*
X146310000Y-96942000D02*
X146310000Y-111058000D01*
X146270000Y-96939000D02*
X146270000Y-111061000D01*
X146230000Y-96936000D02*
X146230000Y-111064000D01*
X146190000Y-96933000D02*
X146190000Y-111067000D01*
X146150000Y-96931000D02*
X146150000Y-111069000D01*
X146110000Y-96929000D02*
X146110000Y-111071000D01*
X146070000Y-96927000D02*
X146070000Y-111073000D01*
X146030000Y-96925000D02*
X146030000Y-111075000D01*
X145990000Y-96924000D02*
X145990000Y-111076000D01*
X145950000Y-96922000D02*
X145950000Y-111078000D01*
X145910000Y-96921000D02*
X145910000Y-111079000D01*
X145870000Y-96921000D02*
X145870000Y-111079000D01*
X145830000Y-96920000D02*
X145830000Y-111080000D01*
X145790000Y-96920000D02*
X145790000Y-111080000D01*
X145750000Y-96920000D02*
X145750000Y-111080000D01*
X152870000Y-104000000D02*
G75*
G03*
X152870000Y-104000000I-7120000J0D01*
G01*
%TO.C,C1*%
X138520354Y-85625000D02*
X138520354Y-86625000D01*
X138020354Y-86125000D02*
X139020354Y-86125000D01*
X148581000Y-88401000D02*
X148581000Y-89599000D01*
X148541000Y-88138000D02*
X148541000Y-89862000D01*
X148501000Y-87938000D02*
X148501000Y-90062000D01*
X148461000Y-87770000D02*
X148461000Y-90230000D01*
X148421000Y-87622000D02*
X148421000Y-90378000D01*
X148381000Y-87490000D02*
X148381000Y-90510000D01*
X148341000Y-87370000D02*
X148341000Y-90630000D01*
X148301000Y-87258000D02*
X148301000Y-90742000D01*
X148261000Y-87154000D02*
X148261000Y-90846000D01*
X148221000Y-87056000D02*
X148221000Y-90944000D01*
X148181000Y-86963000D02*
X148181000Y-91037000D01*
X148141000Y-86875000D02*
X148141000Y-91125000D01*
X148101000Y-86791000D02*
X148101000Y-91209000D01*
X148061000Y-86711000D02*
X148061000Y-91289000D01*
X148021000Y-86635000D02*
X148021000Y-91365000D01*
X147981000Y-86561000D02*
X147981000Y-91439000D01*
X147941000Y-86490000D02*
X147941000Y-91510000D01*
X147901000Y-86421000D02*
X147901000Y-91579000D01*
X147861000Y-86355000D02*
X147861000Y-91645000D01*
X147821000Y-86291000D02*
X147821000Y-91709000D01*
X147781000Y-86230000D02*
X147781000Y-91770000D01*
X147741000Y-86170000D02*
X147741000Y-91830000D01*
X147701000Y-86111000D02*
X147701000Y-91889000D01*
X147661000Y-86055000D02*
X147661000Y-91945000D01*
X147621000Y-86000000D02*
X147621000Y-92000000D01*
X147581000Y-85946000D02*
X147581000Y-92054000D01*
X147541000Y-85894000D02*
X147541000Y-92106000D01*
X147501000Y-85844000D02*
X147501000Y-92156000D01*
X147461000Y-85794000D02*
X147461000Y-92206000D01*
X147421000Y-85746000D02*
X147421000Y-92254000D01*
X147381000Y-85699000D02*
X147381000Y-92301000D01*
X147341000Y-85653000D02*
X147341000Y-92347000D01*
X147301000Y-85608000D02*
X147301000Y-92392000D01*
X147261000Y-85564000D02*
X147261000Y-92436000D01*
X147221000Y-90241000D02*
X147221000Y-92478000D01*
X147221000Y-85522000D02*
X147221000Y-87759000D01*
X147181000Y-90241000D02*
X147181000Y-92520000D01*
X147181000Y-85480000D02*
X147181000Y-87759000D01*
X147141000Y-90241000D02*
X147141000Y-92561000D01*
X147141000Y-85439000D02*
X147141000Y-87759000D01*
X147101000Y-90241000D02*
X147101000Y-92601000D01*
X147101000Y-85399000D02*
X147101000Y-87759000D01*
X147061000Y-90241000D02*
X147061000Y-92640000D01*
X147061000Y-85360000D02*
X147061000Y-87759000D01*
X147021000Y-90241000D02*
X147021000Y-92679000D01*
X147021000Y-85321000D02*
X147021000Y-87759000D01*
X146981000Y-90241000D02*
X146981000Y-92716000D01*
X146981000Y-85284000D02*
X146981000Y-87759000D01*
X146941000Y-90241000D02*
X146941000Y-92753000D01*
X146941000Y-85247000D02*
X146941000Y-87759000D01*
X146901000Y-90241000D02*
X146901000Y-92789000D01*
X146901000Y-85211000D02*
X146901000Y-87759000D01*
X146861000Y-90241000D02*
X146861000Y-92824000D01*
X146861000Y-85176000D02*
X146861000Y-87759000D01*
X146821000Y-90241000D02*
X146821000Y-92858000D01*
X146821000Y-85142000D02*
X146821000Y-87759000D01*
X146781000Y-90241000D02*
X146781000Y-92892000D01*
X146781000Y-85108000D02*
X146781000Y-87759000D01*
X146741000Y-90241000D02*
X146741000Y-92925000D01*
X146741000Y-85075000D02*
X146741000Y-87759000D01*
X146701000Y-90241000D02*
X146701000Y-92957000D01*
X146701000Y-85043000D02*
X146701000Y-87759000D01*
X146661000Y-90241000D02*
X146661000Y-92989000D01*
X146661000Y-85011000D02*
X146661000Y-87759000D01*
X146621000Y-90241000D02*
X146621000Y-93020000D01*
X146621000Y-84980000D02*
X146621000Y-87759000D01*
X146581000Y-90241000D02*
X146581000Y-93050000D01*
X146581000Y-84950000D02*
X146581000Y-87759000D01*
X146541000Y-90241000D02*
X146541000Y-93080000D01*
X146541000Y-84920000D02*
X146541000Y-87759000D01*
X146501000Y-90241000D02*
X146501000Y-93110000D01*
X146501000Y-84890000D02*
X146501000Y-87759000D01*
X146461000Y-90241000D02*
X146461000Y-93138000D01*
X146461000Y-84862000D02*
X146461000Y-87759000D01*
X146421000Y-90241000D02*
X146421000Y-93166000D01*
X146421000Y-84834000D02*
X146421000Y-87759000D01*
X146381000Y-90241000D02*
X146381000Y-93194000D01*
X146381000Y-84806000D02*
X146381000Y-87759000D01*
X146341000Y-90241000D02*
X146341000Y-93221000D01*
X146341000Y-84779000D02*
X146341000Y-87759000D01*
X146301000Y-90241000D02*
X146301000Y-93247000D01*
X146301000Y-84753000D02*
X146301000Y-87759000D01*
X146261000Y-90241000D02*
X146261000Y-93273000D01*
X146261000Y-84727000D02*
X146261000Y-87759000D01*
X146221000Y-90241000D02*
X146221000Y-93298000D01*
X146221000Y-84702000D02*
X146221000Y-87759000D01*
X146181000Y-90241000D02*
X146181000Y-93323000D01*
X146181000Y-84677000D02*
X146181000Y-87759000D01*
X146141000Y-90241000D02*
X146141000Y-93347000D01*
X146141000Y-84653000D02*
X146141000Y-87759000D01*
X146101000Y-90241000D02*
X146101000Y-93371000D01*
X146101000Y-84629000D02*
X146101000Y-87759000D01*
X146061000Y-90241000D02*
X146061000Y-93395000D01*
X146061000Y-84605000D02*
X146061000Y-87759000D01*
X146021000Y-90241000D02*
X146021000Y-93417000D01*
X146021000Y-84583000D02*
X146021000Y-87759000D01*
X145981000Y-90241000D02*
X145981000Y-93440000D01*
X145981000Y-84560000D02*
X145981000Y-87759000D01*
X145941000Y-90241000D02*
X145941000Y-93462000D01*
X145941000Y-84538000D02*
X145941000Y-87759000D01*
X145901000Y-90241000D02*
X145901000Y-93483000D01*
X145901000Y-84517000D02*
X145901000Y-87759000D01*
X145861000Y-90241000D02*
X145861000Y-93504000D01*
X145861000Y-84496000D02*
X145861000Y-87759000D01*
X145821000Y-90241000D02*
X145821000Y-93525000D01*
X145821000Y-84475000D02*
X145821000Y-87759000D01*
X145781000Y-90241000D02*
X145781000Y-93545000D01*
X145781000Y-84455000D02*
X145781000Y-87759000D01*
X145741000Y-90241000D02*
X145741000Y-93564000D01*
X145741000Y-84436000D02*
X145741000Y-87759000D01*
X145701000Y-90241000D02*
X145701000Y-93584000D01*
X145701000Y-84416000D02*
X145701000Y-87759000D01*
X145661000Y-90241000D02*
X145661000Y-93603000D01*
X145661000Y-84397000D02*
X145661000Y-87759000D01*
X145621000Y-90241000D02*
X145621000Y-93621000D01*
X145621000Y-84379000D02*
X145621000Y-87759000D01*
X145581000Y-90241000D02*
X145581000Y-93639000D01*
X145581000Y-84361000D02*
X145581000Y-87759000D01*
X145541000Y-90241000D02*
X145541000Y-93657000D01*
X145541000Y-84343000D02*
X145541000Y-87759000D01*
X145501000Y-90241000D02*
X145501000Y-93674000D01*
X145501000Y-84326000D02*
X145501000Y-87759000D01*
X145461000Y-90241000D02*
X145461000Y-93690000D01*
X145461000Y-84310000D02*
X145461000Y-87759000D01*
X145421000Y-90241000D02*
X145421000Y-93707000D01*
X145421000Y-84293000D02*
X145421000Y-87759000D01*
X145381000Y-90241000D02*
X145381000Y-93723000D01*
X145381000Y-84277000D02*
X145381000Y-87759000D01*
X145341000Y-90241000D02*
X145341000Y-93738000D01*
X145341000Y-84262000D02*
X145341000Y-87759000D01*
X145301000Y-90241000D02*
X145301000Y-93754000D01*
X145301000Y-84246000D02*
X145301000Y-87759000D01*
X145261000Y-90241000D02*
X145261000Y-93768000D01*
X145261000Y-84232000D02*
X145261000Y-87759000D01*
X145221000Y-90241000D02*
X145221000Y-93783000D01*
X145221000Y-84217000D02*
X145221000Y-87759000D01*
X145181000Y-90241000D02*
X145181000Y-93797000D01*
X145181000Y-84203000D02*
X145181000Y-87759000D01*
X145141000Y-90241000D02*
X145141000Y-93811000D01*
X145141000Y-84189000D02*
X145141000Y-87759000D01*
X145101000Y-90241000D02*
X145101000Y-93824000D01*
X145101000Y-84176000D02*
X145101000Y-87759000D01*
X145061000Y-90241000D02*
X145061000Y-93837000D01*
X145061000Y-84163000D02*
X145061000Y-87759000D01*
X145021000Y-90241000D02*
X145021000Y-93850000D01*
X145021000Y-84150000D02*
X145021000Y-87759000D01*
X144981000Y-90241000D02*
X144981000Y-93862000D01*
X144981000Y-84138000D02*
X144981000Y-87759000D01*
X144941000Y-90241000D02*
X144941000Y-93874000D01*
X144941000Y-84126000D02*
X144941000Y-87759000D01*
X144901000Y-90241000D02*
X144901000Y-93885000D01*
X144901000Y-84115000D02*
X144901000Y-87759000D01*
X144861000Y-90241000D02*
X144861000Y-93897000D01*
X144861000Y-84103000D02*
X144861000Y-87759000D01*
X144821000Y-90241000D02*
X144821000Y-93907000D01*
X144821000Y-84093000D02*
X144821000Y-87759000D01*
X144781000Y-90241000D02*
X144781000Y-93918000D01*
X144781000Y-84082000D02*
X144781000Y-87759000D01*
X144741000Y-84072000D02*
X144741000Y-93928000D01*
X144701000Y-84062000D02*
X144701000Y-93938000D01*
X144661000Y-84053000D02*
X144661000Y-93947000D01*
X144621000Y-84044000D02*
X144621000Y-93956000D01*
X144581000Y-84035000D02*
X144581000Y-93965000D01*
X144541000Y-84026000D02*
X144541000Y-93974000D01*
X144501000Y-84018000D02*
X144501000Y-93982000D01*
X144461000Y-84010000D02*
X144461000Y-93990000D01*
X144421000Y-84003000D02*
X144421000Y-93997000D01*
X144381000Y-83996000D02*
X144381000Y-94004000D01*
X144341000Y-83989000D02*
X144341000Y-94011000D01*
X144301000Y-83982000D02*
X144301000Y-94018000D01*
X144261000Y-83976000D02*
X144261000Y-94024000D01*
X144221000Y-83970000D02*
X144221000Y-94030000D01*
X144180000Y-83965000D02*
X144180000Y-94035000D01*
X144140000Y-83960000D02*
X144140000Y-94040000D01*
X144100000Y-83955000D02*
X144100000Y-94045000D01*
X144060000Y-83950000D02*
X144060000Y-94050000D01*
X144020000Y-83946000D02*
X144020000Y-94054000D01*
X143980000Y-83942000D02*
X143980000Y-94058000D01*
X143940000Y-83938000D02*
X143940000Y-94062000D01*
X143900000Y-83935000D02*
X143900000Y-94065000D01*
X143860000Y-83932000D02*
X143860000Y-94068000D01*
X143820000Y-83930000D02*
X143820000Y-94070000D01*
X143780000Y-83927000D02*
X143780000Y-94073000D01*
X143740000Y-83925000D02*
X143740000Y-94075000D01*
X143700000Y-83923000D02*
X143700000Y-94077000D01*
X143660000Y-83922000D02*
X143660000Y-94078000D01*
X143620000Y-83921000D02*
X143620000Y-94079000D01*
X143580000Y-83920000D02*
X143580000Y-94080000D01*
X143540000Y-83920000D02*
X143540000Y-94080000D01*
X143500000Y-83920000D02*
X143500000Y-94080000D01*
X148620000Y-89000000D02*
G75*
G03*
X148620000Y-89000000I-5120000J0D01*
G01*
%TO.C,H4*%
D11*
X205238095Y-153052380D02*
X205238095Y-152052380D01*
X205238095Y-152528571D02*
X205809523Y-152528571D01*
X205809523Y-153052380D02*
X205809523Y-152052380D01*
X206714285Y-152385714D02*
X206714285Y-153052380D01*
X206476190Y-152004761D02*
X206238095Y-152719047D01*
X206857142Y-152719047D01*
%TO.C,H3*%
X205038095Y-70252380D02*
X205038095Y-69252380D01*
X205038095Y-69728571D02*
X205609523Y-69728571D01*
X205609523Y-70252380D02*
X205609523Y-69252380D01*
X205990476Y-69252380D02*
X206609523Y-69252380D01*
X206276190Y-69633333D01*
X206419047Y-69633333D01*
X206514285Y-69680952D01*
X206561904Y-69728571D01*
X206609523Y-69823809D01*
X206609523Y-70061904D01*
X206561904Y-70157142D01*
X206514285Y-70204761D01*
X206419047Y-70252380D01*
X206133333Y-70252380D01*
X206038095Y-70204761D01*
X205990476Y-70157142D01*
%TO.C,H2*%
X123238095Y-153252380D02*
X123238095Y-152252380D01*
X123238095Y-152728571D02*
X123809523Y-152728571D01*
X123809523Y-153252380D02*
X123809523Y-152252380D01*
X124238095Y-152347619D02*
X124285714Y-152300000D01*
X124380952Y-152252380D01*
X124619047Y-152252380D01*
X124714285Y-152300000D01*
X124761904Y-152347619D01*
X124809523Y-152442857D01*
X124809523Y-152538095D01*
X124761904Y-152680952D01*
X124190476Y-153252380D01*
X124809523Y-153252380D01*
%TO.C,H1*%
X123238095Y-70252380D02*
X123238095Y-69252380D01*
X123238095Y-69728571D02*
X123809523Y-69728571D01*
X123809523Y-70252380D02*
X123809523Y-69252380D01*
X124809523Y-70252380D02*
X124238095Y-70252380D01*
X124523809Y-70252380D02*
X124523809Y-69252380D01*
X124428571Y-69395238D01*
X124333333Y-69490476D01*
X124238095Y-69538095D01*
%TO.C,U10*%
X189761904Y-75452380D02*
X189761904Y-76261904D01*
X189809523Y-76357142D01*
X189857142Y-76404761D01*
X189952380Y-76452380D01*
X190142857Y-76452380D01*
X190238095Y-76404761D01*
X190285714Y-76357142D01*
X190333333Y-76261904D01*
X190333333Y-75452380D01*
X191333333Y-76452380D02*
X190761904Y-76452380D01*
X191047619Y-76452380D02*
X191047619Y-75452380D01*
X190952380Y-75595238D01*
X190857142Y-75690476D01*
X190761904Y-75738095D01*
X191952380Y-75452380D02*
X192047619Y-75452380D01*
X192142857Y-75500000D01*
X192190476Y-75547619D01*
X192238095Y-75642857D01*
X192285714Y-75833333D01*
X192285714Y-76071428D01*
X192238095Y-76261904D01*
X192190476Y-76357142D01*
X192142857Y-76404761D01*
X192047619Y-76452380D01*
X191952380Y-76452380D01*
X191857142Y-76404761D01*
X191809523Y-76357142D01*
X191761904Y-76261904D01*
X191714285Y-76071428D01*
X191714285Y-75833333D01*
X191761904Y-75642857D01*
X191809523Y-75547619D01*
X191857142Y-75500000D01*
X191952380Y-75452380D01*
%TO.C,U9*%
X190238095Y-82252380D02*
X190238095Y-83061904D01*
X190285714Y-83157142D01*
X190333333Y-83204761D01*
X190428571Y-83252380D01*
X190619047Y-83252380D01*
X190714285Y-83204761D01*
X190761904Y-83157142D01*
X190809523Y-83061904D01*
X190809523Y-82252380D01*
X191333333Y-83252380D02*
X191523809Y-83252380D01*
X191619047Y-83204761D01*
X191666666Y-83157142D01*
X191761904Y-83014285D01*
X191809523Y-82823809D01*
X191809523Y-82442857D01*
X191761904Y-82347619D01*
X191714285Y-82300000D01*
X191619047Y-82252380D01*
X191428571Y-82252380D01*
X191333333Y-82300000D01*
X191285714Y-82347619D01*
X191238095Y-82442857D01*
X191238095Y-82680952D01*
X191285714Y-82776190D01*
X191333333Y-82823809D01*
X191428571Y-82871428D01*
X191619047Y-82871428D01*
X191714285Y-82823809D01*
X191761904Y-82776190D01*
X191809523Y-82680952D01*
%TO.C,U8*%
X129782380Y-86571904D02*
X130591904Y-86571904D01*
X130687142Y-86524285D01*
X130734761Y-86476666D01*
X130782380Y-86381428D01*
X130782380Y-86190952D01*
X130734761Y-86095714D01*
X130687142Y-86048095D01*
X130591904Y-86000476D01*
X129782380Y-86000476D01*
X130210952Y-85381428D02*
X130163333Y-85476666D01*
X130115714Y-85524285D01*
X130020476Y-85571904D01*
X129972857Y-85571904D01*
X129877619Y-85524285D01*
X129830000Y-85476666D01*
X129782380Y-85381428D01*
X129782380Y-85190952D01*
X129830000Y-85095714D01*
X129877619Y-85048095D01*
X129972857Y-85000476D01*
X130020476Y-85000476D01*
X130115714Y-85048095D01*
X130163333Y-85095714D01*
X130210952Y-85190952D01*
X130210952Y-85381428D01*
X130258571Y-85476666D01*
X130306190Y-85524285D01*
X130401428Y-85571904D01*
X130591904Y-85571904D01*
X130687142Y-85524285D01*
X130734761Y-85476666D01*
X130782380Y-85381428D01*
X130782380Y-85190952D01*
X130734761Y-85095714D01*
X130687142Y-85048095D01*
X130591904Y-85000476D01*
X130401428Y-85000476D01*
X130306190Y-85048095D01*
X130258571Y-85095714D01*
X130210952Y-85190952D01*
%TO.C,U7*%
X190238095Y-96252380D02*
X190238095Y-97061904D01*
X190285714Y-97157142D01*
X190333333Y-97204761D01*
X190428571Y-97252380D01*
X190619047Y-97252380D01*
X190714285Y-97204761D01*
X190761904Y-97157142D01*
X190809523Y-97061904D01*
X190809523Y-96252380D01*
X191190476Y-96252380D02*
X191857142Y-96252380D01*
X191428571Y-97252380D01*
%TO.C,U6*%
X190238095Y-89252380D02*
X190238095Y-90061904D01*
X190285714Y-90157142D01*
X190333333Y-90204761D01*
X190428571Y-90252380D01*
X190619047Y-90252380D01*
X190714285Y-90204761D01*
X190761904Y-90157142D01*
X190809523Y-90061904D01*
X190809523Y-89252380D01*
X191714285Y-89252380D02*
X191523809Y-89252380D01*
X191428571Y-89300000D01*
X191380952Y-89347619D01*
X191285714Y-89490476D01*
X191238095Y-89680952D01*
X191238095Y-90061904D01*
X191285714Y-90157142D01*
X191333333Y-90204761D01*
X191428571Y-90252380D01*
X191619047Y-90252380D01*
X191714285Y-90204761D01*
X191761904Y-90157142D01*
X191809523Y-90061904D01*
X191809523Y-89823809D01*
X191761904Y-89728571D01*
X191714285Y-89680952D01*
X191619047Y-89633333D01*
X191428571Y-89633333D01*
X191333333Y-89680952D01*
X191285714Y-89728571D01*
X191238095Y-89823809D01*
%TO.C,U5*%
X160252380Y-145361904D02*
X161061904Y-145361904D01*
X161157142Y-145314285D01*
X161204761Y-145266666D01*
X161252380Y-145171428D01*
X161252380Y-144980952D01*
X161204761Y-144885714D01*
X161157142Y-144838095D01*
X161061904Y-144790476D01*
X160252380Y-144790476D01*
X160252380Y-143838095D02*
X160252380Y-144314285D01*
X160728571Y-144361904D01*
X160680952Y-144314285D01*
X160633333Y-144219047D01*
X160633333Y-143980952D01*
X160680952Y-143885714D01*
X160728571Y-143838095D01*
X160823809Y-143790476D01*
X161061904Y-143790476D01*
X161157142Y-143838095D01*
X161204761Y-143885714D01*
X161252380Y-143980952D01*
X161252380Y-144219047D01*
X161204761Y-144314285D01*
X161157142Y-144361904D01*
%TO.C,U4*%
X180582380Y-134571904D02*
X181391904Y-134571904D01*
X181487142Y-134524285D01*
X181534761Y-134476666D01*
X181582380Y-134381428D01*
X181582380Y-134190952D01*
X181534761Y-134095714D01*
X181487142Y-134048095D01*
X181391904Y-134000476D01*
X180582380Y-134000476D01*
X180915714Y-133095714D02*
X181582380Y-133095714D01*
X180534761Y-133333809D02*
X181249047Y-133571904D01*
X181249047Y-132952857D01*
%TO.C,U3*%
X136052380Y-144761904D02*
X136861904Y-144761904D01*
X136957142Y-144714285D01*
X137004761Y-144666666D01*
X137052380Y-144571428D01*
X137052380Y-144380952D01*
X137004761Y-144285714D01*
X136957142Y-144238095D01*
X136861904Y-144190476D01*
X136052380Y-144190476D01*
X136052380Y-143809523D02*
X136052380Y-143190476D01*
X136433333Y-143523809D01*
X136433333Y-143380952D01*
X136480952Y-143285714D01*
X136528571Y-143238095D01*
X136623809Y-143190476D01*
X136861904Y-143190476D01*
X136957142Y-143238095D01*
X137004761Y-143285714D01*
X137052380Y-143380952D01*
X137052380Y-143666666D01*
X137004761Y-143761904D01*
X136957142Y-143809523D01*
%TO.C,U2*%
X127638095Y-114122380D02*
X127638095Y-114931904D01*
X127685714Y-115027142D01*
X127733333Y-115074761D01*
X127828571Y-115122380D01*
X128019047Y-115122380D01*
X128114285Y-115074761D01*
X128161904Y-115027142D01*
X128209523Y-114931904D01*
X128209523Y-114122380D01*
X128638095Y-114217619D02*
X128685714Y-114170000D01*
X128780952Y-114122380D01*
X129019047Y-114122380D01*
X129114285Y-114170000D01*
X129161904Y-114217619D01*
X129209523Y-114312857D01*
X129209523Y-114408095D01*
X129161904Y-114550952D01*
X128590476Y-115122380D01*
X129209523Y-115122380D01*
%TO.C,U1*%
X141122380Y-132951904D02*
X141931904Y-132951904D01*
X142027142Y-132904285D01*
X142074761Y-132856666D01*
X142122380Y-132761428D01*
X142122380Y-132570952D01*
X142074761Y-132475714D01*
X142027142Y-132428095D01*
X141931904Y-132380476D01*
X141122380Y-132380476D01*
X142122380Y-131380476D02*
X142122380Y-131951904D01*
X142122380Y-131666190D02*
X141122380Y-131666190D01*
X141265238Y-131761428D01*
X141360476Y-131856666D01*
X141408095Y-131951904D01*
%TO.C,R12*%
X187732380Y-133522857D02*
X187256190Y-133856190D01*
X187732380Y-134094285D02*
X186732380Y-134094285D01*
X186732380Y-133713333D01*
X186780000Y-133618095D01*
X186827619Y-133570476D01*
X186922857Y-133522857D01*
X187065714Y-133522857D01*
X187160952Y-133570476D01*
X187208571Y-133618095D01*
X187256190Y-133713333D01*
X187256190Y-134094285D01*
X187732380Y-132570476D02*
X187732380Y-133141904D01*
X187732380Y-132856190D02*
X186732380Y-132856190D01*
X186875238Y-132951428D01*
X186970476Y-133046666D01*
X187018095Y-133141904D01*
X186827619Y-132189523D02*
X186780000Y-132141904D01*
X186732380Y-132046666D01*
X186732380Y-131808571D01*
X186780000Y-131713333D01*
X186827619Y-131665714D01*
X186922857Y-131618095D01*
X187018095Y-131618095D01*
X187160952Y-131665714D01*
X187732380Y-132237142D01*
X187732380Y-131618095D01*
%TO.C,R7*%
X145163333Y-113332380D02*
X144830000Y-112856190D01*
X144591904Y-113332380D02*
X144591904Y-112332380D01*
X144972857Y-112332380D01*
X145068095Y-112380000D01*
X145115714Y-112427619D01*
X145163333Y-112522857D01*
X145163333Y-112665714D01*
X145115714Y-112760952D01*
X145068095Y-112808571D01*
X144972857Y-112856190D01*
X144591904Y-112856190D01*
X145496666Y-112332380D02*
X146163333Y-112332380D01*
X145734761Y-113332380D01*
%TO.C,R5*%
X166833333Y-87252380D02*
X166500000Y-86776190D01*
X166261904Y-87252380D02*
X166261904Y-86252380D01*
X166642857Y-86252380D01*
X166738095Y-86300000D01*
X166785714Y-86347619D01*
X166833333Y-86442857D01*
X166833333Y-86585714D01*
X166785714Y-86680952D01*
X166738095Y-86728571D01*
X166642857Y-86776190D01*
X166261904Y-86776190D01*
X167738095Y-86252380D02*
X167261904Y-86252380D01*
X167214285Y-86728571D01*
X167261904Y-86680952D01*
X167357142Y-86633333D01*
X167595238Y-86633333D01*
X167690476Y-86680952D01*
X167738095Y-86728571D01*
X167785714Y-86823809D01*
X167785714Y-87061904D01*
X167738095Y-87157142D01*
X167690476Y-87204761D01*
X167595238Y-87252380D01*
X167357142Y-87252380D01*
X167261904Y-87204761D01*
X167214285Y-87157142D01*
%TO.C,L1*%
X128833333Y-93702380D02*
X128357142Y-93702380D01*
X128357142Y-92702380D01*
X129690476Y-93702380D02*
X129119047Y-93702380D01*
X129404761Y-93702380D02*
X129404761Y-92702380D01*
X129309523Y-92845238D01*
X129214285Y-92940476D01*
X129119047Y-92988095D01*
%TO.C,J2*%
X172066666Y-75252380D02*
X172066666Y-75966666D01*
X172019047Y-76109523D01*
X171923809Y-76204761D01*
X171780952Y-76252380D01*
X171685714Y-76252380D01*
X172495238Y-75347619D02*
X172542857Y-75300000D01*
X172638095Y-75252380D01*
X172876190Y-75252380D01*
X172971428Y-75300000D01*
X173019047Y-75347619D01*
X173066666Y-75442857D01*
X173066666Y-75538095D01*
X173019047Y-75680952D01*
X172447619Y-76252380D01*
X173066666Y-76252380D01*
%TO.C,J1*%
X156666666Y-76452380D02*
X156666666Y-77166666D01*
X156619047Y-77309523D01*
X156523809Y-77404761D01*
X156380952Y-77452380D01*
X156285714Y-77452380D01*
X157666666Y-77452380D02*
X157095238Y-77452380D01*
X157380952Y-77452380D02*
X157380952Y-76452380D01*
X157285714Y-76595238D01*
X157190476Y-76690476D01*
X157095238Y-76738095D01*
%TO.C,T1*%
X176238095Y-97252380D02*
X176809523Y-97252380D01*
X176523809Y-98252380D02*
X176523809Y-97252380D01*
X177666666Y-98252380D02*
X177095238Y-98252380D01*
X177380952Y-98252380D02*
X177380952Y-97252380D01*
X177285714Y-97395238D01*
X177190476Y-97490476D01*
X177095238Y-97538095D01*
%TO.C,D4*%
X185852380Y-107138095D02*
X184852380Y-107138095D01*
X184852380Y-106900000D01*
X184900000Y-106757142D01*
X184995238Y-106661904D01*
X185090476Y-106614285D01*
X185280952Y-106566666D01*
X185423809Y-106566666D01*
X185614285Y-106614285D01*
X185709523Y-106661904D01*
X185804761Y-106757142D01*
X185852380Y-106900000D01*
X185852380Y-107138095D01*
X185185714Y-105709523D02*
X185852380Y-105709523D01*
X184804761Y-105947619D02*
X185519047Y-106185714D01*
X185519047Y-105566666D01*
X180552380Y-113761904D02*
X179552380Y-113761904D01*
X180552380Y-113190476D02*
X179980952Y-113619047D01*
X179552380Y-113190476D02*
X180123809Y-113761904D01*
%TO.C,D3*%
X154652380Y-108738095D02*
X153652380Y-108738095D01*
X153652380Y-108500000D01*
X153700000Y-108357142D01*
X153795238Y-108261904D01*
X153890476Y-108214285D01*
X154080952Y-108166666D01*
X154223809Y-108166666D01*
X154414285Y-108214285D01*
X154509523Y-108261904D01*
X154604761Y-108357142D01*
X154652380Y-108500000D01*
X154652380Y-108738095D01*
X153652380Y-107833333D02*
X153652380Y-107214285D01*
X154033333Y-107547619D01*
X154033333Y-107404761D01*
X154080952Y-107309523D01*
X154128571Y-107261904D01*
X154223809Y-107214285D01*
X154461904Y-107214285D01*
X154557142Y-107261904D01*
X154604761Y-107309523D01*
X154652380Y-107404761D01*
X154652380Y-107690476D01*
X154604761Y-107785714D01*
X154557142Y-107833333D01*
X159852380Y-100661904D02*
X158852380Y-100661904D01*
X159852380Y-100090476D02*
X159280952Y-100519047D01*
X158852380Y-100090476D02*
X159423809Y-100661904D01*
%TO.C,D2*%
X170861904Y-90852380D02*
X170861904Y-89852380D01*
X171100000Y-89852380D01*
X171242857Y-89900000D01*
X171338095Y-89995238D01*
X171385714Y-90090476D01*
X171433333Y-90280952D01*
X171433333Y-90423809D01*
X171385714Y-90614285D01*
X171338095Y-90709523D01*
X171242857Y-90804761D01*
X171100000Y-90852380D01*
X170861904Y-90852380D01*
X171814285Y-89947619D02*
X171861904Y-89900000D01*
X171957142Y-89852380D01*
X172195238Y-89852380D01*
X172290476Y-89900000D01*
X172338095Y-89947619D01*
X172385714Y-90042857D01*
X172385714Y-90138095D01*
X172338095Y-90280952D01*
X171766666Y-90852380D01*
X172385714Y-90852380D01*
X155738095Y-92152380D02*
X155738095Y-91152380D01*
X156309523Y-92152380D02*
X155880952Y-91580952D01*
X156309523Y-91152380D02*
X155738095Y-91723809D01*
%TO.C,D1*%
X132341904Y-128482380D02*
X132341904Y-127482380D01*
X132580000Y-127482380D01*
X132722857Y-127530000D01*
X132818095Y-127625238D01*
X132865714Y-127720476D01*
X132913333Y-127910952D01*
X132913333Y-128053809D01*
X132865714Y-128244285D01*
X132818095Y-128339523D01*
X132722857Y-128434761D01*
X132580000Y-128482380D01*
X132341904Y-128482380D01*
X133865714Y-128482380D02*
X133294285Y-128482380D01*
X133580000Y-128482380D02*
X133580000Y-127482380D01*
X133484761Y-127625238D01*
X133389523Y-127720476D01*
X133294285Y-127768095D01*
X127738095Y-129052380D02*
X127738095Y-128052380D01*
X128309523Y-129052380D02*
X127880952Y-128480952D01*
X128309523Y-128052380D02*
X127738095Y-128623809D01*
%TO.C,C11*%
X197757142Y-108957142D02*
X197709523Y-109004761D01*
X197566666Y-109052380D01*
X197471428Y-109052380D01*
X197328571Y-109004761D01*
X197233333Y-108909523D01*
X197185714Y-108814285D01*
X197138095Y-108623809D01*
X197138095Y-108480952D01*
X197185714Y-108290476D01*
X197233333Y-108195238D01*
X197328571Y-108100000D01*
X197471428Y-108052380D01*
X197566666Y-108052380D01*
X197709523Y-108100000D01*
X197757142Y-108147619D01*
X198709523Y-109052380D02*
X198138095Y-109052380D01*
X198423809Y-109052380D02*
X198423809Y-108052380D01*
X198328571Y-108195238D01*
X198233333Y-108290476D01*
X198138095Y-108338095D01*
X199661904Y-109052380D02*
X199090476Y-109052380D01*
X199376190Y-109052380D02*
X199376190Y-108052380D01*
X199280952Y-108195238D01*
X199185714Y-108290476D01*
X199090476Y-108338095D01*
%TO.C,C9*%
X185857142Y-121666666D02*
X185904761Y-121714285D01*
X185952380Y-121857142D01*
X185952380Y-121952380D01*
X185904761Y-122095238D01*
X185809523Y-122190476D01*
X185714285Y-122238095D01*
X185523809Y-122285714D01*
X185380952Y-122285714D01*
X185190476Y-122238095D01*
X185095238Y-122190476D01*
X185000000Y-122095238D01*
X184952380Y-121952380D01*
X184952380Y-121857142D01*
X185000000Y-121714285D01*
X185047619Y-121666666D01*
X185952380Y-121190476D02*
X185952380Y-121000000D01*
X185904761Y-120904761D01*
X185857142Y-120857142D01*
X185714285Y-120761904D01*
X185523809Y-120714285D01*
X185142857Y-120714285D01*
X185047619Y-120761904D01*
X185000000Y-120809523D01*
X184952380Y-120904761D01*
X184952380Y-121095238D01*
X185000000Y-121190476D01*
X185047619Y-121238095D01*
X185142857Y-121285714D01*
X185380952Y-121285714D01*
X185476190Y-121238095D01*
X185523809Y-121190476D01*
X185571428Y-121095238D01*
X185571428Y-120904761D01*
X185523809Y-120809523D01*
X185476190Y-120761904D01*
X185380952Y-120714285D01*
%TO.C,C8*%
X185157142Y-116366666D02*
X185204761Y-116414285D01*
X185252380Y-116557142D01*
X185252380Y-116652380D01*
X185204761Y-116795238D01*
X185109523Y-116890476D01*
X185014285Y-116938095D01*
X184823809Y-116985714D01*
X184680952Y-116985714D01*
X184490476Y-116938095D01*
X184395238Y-116890476D01*
X184300000Y-116795238D01*
X184252380Y-116652380D01*
X184252380Y-116557142D01*
X184300000Y-116414285D01*
X184347619Y-116366666D01*
X184680952Y-115795238D02*
X184633333Y-115890476D01*
X184585714Y-115938095D01*
X184490476Y-115985714D01*
X184442857Y-115985714D01*
X184347619Y-115938095D01*
X184300000Y-115890476D01*
X184252380Y-115795238D01*
X184252380Y-115604761D01*
X184300000Y-115509523D01*
X184347619Y-115461904D01*
X184442857Y-115414285D01*
X184490476Y-115414285D01*
X184585714Y-115461904D01*
X184633333Y-115509523D01*
X184680952Y-115604761D01*
X184680952Y-115795238D01*
X184728571Y-115890476D01*
X184776190Y-115938095D01*
X184871428Y-115985714D01*
X185061904Y-115985714D01*
X185157142Y-115938095D01*
X185204761Y-115890476D01*
X185252380Y-115795238D01*
X185252380Y-115604761D01*
X185204761Y-115509523D01*
X185157142Y-115461904D01*
X185061904Y-115414285D01*
X184871428Y-115414285D01*
X184776190Y-115461904D01*
X184728571Y-115509523D01*
X184680952Y-115604761D01*
%TO.C,C5*%
X160233333Y-82557142D02*
X160185714Y-82604761D01*
X160042857Y-82652380D01*
X159947619Y-82652380D01*
X159804761Y-82604761D01*
X159709523Y-82509523D01*
X159661904Y-82414285D01*
X159614285Y-82223809D01*
X159614285Y-82080952D01*
X159661904Y-81890476D01*
X159709523Y-81795238D01*
X159804761Y-81700000D01*
X159947619Y-81652380D01*
X160042857Y-81652380D01*
X160185714Y-81700000D01*
X160233333Y-81747619D01*
X161138095Y-81652380D02*
X160661904Y-81652380D01*
X160614285Y-82128571D01*
X160661904Y-82080952D01*
X160757142Y-82033333D01*
X160995238Y-82033333D01*
X161090476Y-82080952D01*
X161138095Y-82128571D01*
X161185714Y-82223809D01*
X161185714Y-82461904D01*
X161138095Y-82557142D01*
X161090476Y-82604761D01*
X160995238Y-82652380D01*
X160757142Y-82652380D01*
X160661904Y-82604761D01*
X160614285Y-82557142D01*
%TO.C,C4*%
X150233333Y-96957142D02*
X150185714Y-97004761D01*
X150042857Y-97052380D01*
X149947619Y-97052380D01*
X149804761Y-97004761D01*
X149709523Y-96909523D01*
X149661904Y-96814285D01*
X149614285Y-96623809D01*
X149614285Y-96480952D01*
X149661904Y-96290476D01*
X149709523Y-96195238D01*
X149804761Y-96100000D01*
X149947619Y-96052380D01*
X150042857Y-96052380D01*
X150185714Y-96100000D01*
X150233333Y-96147619D01*
X151090476Y-96385714D02*
X151090476Y-97052380D01*
X150852380Y-96004761D02*
X150614285Y-96719047D01*
X151233333Y-96719047D01*
%TO.C,C1*%
X149033333Y-85157142D02*
X148985714Y-85204761D01*
X148842857Y-85252380D01*
X148747619Y-85252380D01*
X148604761Y-85204761D01*
X148509523Y-85109523D01*
X148461904Y-85014285D01*
X148414285Y-84823809D01*
X148414285Y-84680952D01*
X148461904Y-84490476D01*
X148509523Y-84395238D01*
X148604761Y-84300000D01*
X148747619Y-84252380D01*
X148842857Y-84252380D01*
X148985714Y-84300000D01*
X149033333Y-84347619D01*
X149985714Y-85252380D02*
X149414285Y-85252380D01*
X149700000Y-85252380D02*
X149700000Y-84252380D01*
X149604761Y-84395238D01*
X149509523Y-84490476D01*
X149414285Y-84538095D01*
%TD*%
M02*
