%TF.GenerationSoftware,KiCad,Pcbnew,(5.1.10-1-10_14)*%
%TF.CreationDate,2022-04-01T14:18:11+03:00*%
%TF.ProjectId,Convertor_15v_to_20v:500v,436f6e76-6572-4746-9f72-5f3135765f74,rev?*%
%TF.SameCoordinates,Original*%
%TF.FileFunction,Soldermask,Bot*%
%TF.FilePolarity,Negative*%
%FSLAX46Y46*%
G04 Gerber Fmt 4.6, Leading zero omitted, Abs format (unit mm)*
G04 Created by KiCad (PCBNEW (5.1.10-1-10_14)) date 2022-04-01 14:18:11*
%MOMM*%
%LPD*%
G01*
G04 APERTURE LIST*
%ADD10C,3.200000*%
%ADD11C,2.500000*%
%ADD12R,2.500000X2.500000*%
%ADD13O,1.600000X1.600000*%
%ADD14R,1.600000X1.600000*%
%ADD15C,1.524000*%
%ADD16R,1.524000X1.524000*%
%ADD17C,1.600000*%
%ADD18R,6.400000X5.800000*%
%ADD19R,2.200000X1.200000*%
%ADD20C,3.000000*%
%ADD21C,1.800000*%
%ADD22R,1.800000X1.800000*%
%ADD23C,2.600000*%
%ADD24R,2.600000X2.600000*%
%ADD25O,2.800000X2.800000*%
%ADD26R,2.800000X2.800000*%
%ADD27O,2.600000X2.600000*%
%ADD28C,2.400000*%
%ADD29C,2.000000*%
%ADD30R,2.400000X2.400000*%
%ADD31R,2.000000X2.000000*%
G04 APERTURE END LIST*
%TO.C,R10*%
G36*
G01*
X177600000Y-135049999D02*
X177600000Y-135950001D01*
G75*
G02*
X177350001Y-136200000I-249999J0D01*
G01*
X176824999Y-136200000D01*
G75*
G02*
X176575000Y-135950001I0J249999D01*
G01*
X176575000Y-135049999D01*
G75*
G02*
X176824999Y-134800000I249999J0D01*
G01*
X177350001Y-134800000D01*
G75*
G02*
X177600000Y-135049999I0J-249999D01*
G01*
G37*
G36*
G01*
X179425000Y-135049999D02*
X179425000Y-135950001D01*
G75*
G02*
X179175001Y-136200000I-249999J0D01*
G01*
X178649999Y-136200000D01*
G75*
G02*
X178400000Y-135950001I0J249999D01*
G01*
X178400000Y-135049999D01*
G75*
G02*
X178649999Y-134800000I249999J0D01*
G01*
X179175001Y-134800000D01*
G75*
G02*
X179425000Y-135049999I0J-249999D01*
G01*
G37*
%TD*%
D10*
%TO.C,H4*%
X206000000Y-147000000D03*
%TD*%
%TO.C,H3*%
X206000000Y-75000000D03*
%TD*%
%TO.C,H2*%
X124000000Y-147000000D03*
%TD*%
%TO.C,H1*%
X124000000Y-75000000D03*
%TD*%
D11*
%TO.C,U10*%
X198620000Y-76000000D03*
X194810000Y-76000000D03*
X187190000Y-76000000D03*
D12*
X183380000Y-76000000D03*
%TD*%
D11*
%TO.C,U9*%
X198620000Y-82800000D03*
X194810000Y-82800000D03*
X187190000Y-82800000D03*
D12*
X183380000Y-82800000D03*
%TD*%
D13*
%TO.C,U8*%
X128000000Y-89620000D03*
X122920000Y-82000000D03*
X125460000Y-89620000D03*
X125460000Y-82000000D03*
X122920000Y-89620000D03*
D14*
X128000000Y-82000000D03*
%TD*%
D11*
%TO.C,U7*%
X198620000Y-96800000D03*
X194810000Y-96800000D03*
X187190000Y-96800000D03*
D12*
X183380000Y-96800000D03*
%TD*%
D11*
%TO.C,U6*%
X198620000Y-89800000D03*
X194810000Y-89800000D03*
X187190000Y-89800000D03*
D12*
X183380000Y-89800000D03*
%TD*%
D15*
%TO.C,U5*%
X162850000Y-141190000D03*
X178090000Y-141190000D03*
X178090000Y-148810000D03*
X175550000Y-148810000D03*
X173010000Y-148810000D03*
X165390000Y-148810000D03*
D16*
X162850000Y-148810000D03*
%TD*%
D17*
%TO.C,U4*%
X178800000Y-137620000D03*
X161020000Y-130000000D03*
X176260000Y-137620000D03*
X163560000Y-130000000D03*
X163560000Y-137620000D03*
X176260000Y-130000000D03*
X161020000Y-137620000D03*
D14*
X178800000Y-130000000D03*
%TD*%
D15*
%TO.C,U3*%
X138650000Y-140190000D03*
X153890000Y-140190000D03*
X153890000Y-147810000D03*
X151350000Y-147810000D03*
X148810000Y-147810000D03*
X141190000Y-147810000D03*
D16*
X138650000Y-147810000D03*
%TD*%
D13*
%TO.C,U2*%
X136620000Y-117000000D03*
X129000000Y-124620000D03*
X136620000Y-119540000D03*
X129000000Y-122080000D03*
X136620000Y-122080000D03*
X129000000Y-119540000D03*
X136620000Y-124620000D03*
D14*
X129000000Y-117000000D03*
%TD*%
D13*
%TO.C,U1*%
X144000000Y-128380000D03*
X151620000Y-136000000D03*
X146540000Y-128380000D03*
X149080000Y-136000000D03*
X149080000Y-128380000D03*
X146540000Y-136000000D03*
X151620000Y-128380000D03*
D14*
X144000000Y-136000000D03*
%TD*%
%TO.C,R18*%
G36*
G01*
X194200000Y-79250001D02*
X194200000Y-78349999D01*
G75*
G02*
X194449999Y-78100000I249999J0D01*
G01*
X194975001Y-78100000D01*
G75*
G02*
X195225000Y-78349999I0J-249999D01*
G01*
X195225000Y-79250001D01*
G75*
G02*
X194975001Y-79500000I-249999J0D01*
G01*
X194449999Y-79500000D01*
G75*
G02*
X194200000Y-79250001I0J249999D01*
G01*
G37*
G36*
G01*
X192375000Y-79250001D02*
X192375000Y-78349999D01*
G75*
G02*
X192624999Y-78100000I249999J0D01*
G01*
X193150001Y-78100000D01*
G75*
G02*
X193400000Y-78349999I0J-249999D01*
G01*
X193400000Y-79250001D01*
G75*
G02*
X193150001Y-79500000I-249999J0D01*
G01*
X192624999Y-79500000D01*
G75*
G02*
X192375000Y-79250001I0J249999D01*
G01*
G37*
%TD*%
%TO.C,R16*%
G36*
G01*
X193600000Y-85549999D02*
X193600000Y-86450001D01*
G75*
G02*
X193350001Y-86700000I-249999J0D01*
G01*
X192824999Y-86700000D01*
G75*
G02*
X192575000Y-86450001I0J249999D01*
G01*
X192575000Y-85549999D01*
G75*
G02*
X192824999Y-85300000I249999J0D01*
G01*
X193350001Y-85300000D01*
G75*
G02*
X193600000Y-85549999I0J-249999D01*
G01*
G37*
G36*
G01*
X195425000Y-85549999D02*
X195425000Y-86450001D01*
G75*
G02*
X195175001Y-86700000I-249999J0D01*
G01*
X194649999Y-86700000D01*
G75*
G02*
X194400000Y-86450001I0J249999D01*
G01*
X194400000Y-85549999D01*
G75*
G02*
X194649999Y-85300000I249999J0D01*
G01*
X195175001Y-85300000D01*
G75*
G02*
X195425000Y-85549999I0J-249999D01*
G01*
G37*
%TD*%
%TO.C,R15*%
G36*
G01*
X130299999Y-77600000D02*
X131200001Y-77600000D01*
G75*
G02*
X131450000Y-77849999I0J-249999D01*
G01*
X131450000Y-78375001D01*
G75*
G02*
X131200001Y-78625000I-249999J0D01*
G01*
X130299999Y-78625000D01*
G75*
G02*
X130050000Y-78375001I0J249999D01*
G01*
X130050000Y-77849999D01*
G75*
G02*
X130299999Y-77600000I249999J0D01*
G01*
G37*
G36*
G01*
X130299999Y-75775000D02*
X131200001Y-75775000D01*
G75*
G02*
X131450000Y-76024999I0J-249999D01*
G01*
X131450000Y-76550001D01*
G75*
G02*
X131200001Y-76800000I-249999J0D01*
G01*
X130299999Y-76800000D01*
G75*
G02*
X130050000Y-76550001I0J249999D01*
G01*
X130050000Y-76024999D01*
G75*
G02*
X130299999Y-75775000I249999J0D01*
G01*
G37*
%TD*%
%TO.C,R14*%
G36*
G01*
X194400000Y-100050001D02*
X194400000Y-99149999D01*
G75*
G02*
X194649999Y-98900000I249999J0D01*
G01*
X195175001Y-98900000D01*
G75*
G02*
X195425000Y-99149999I0J-249999D01*
G01*
X195425000Y-100050001D01*
G75*
G02*
X195175001Y-100300000I-249999J0D01*
G01*
X194649999Y-100300000D01*
G75*
G02*
X194400000Y-100050001I0J249999D01*
G01*
G37*
G36*
G01*
X192575000Y-100050001D02*
X192575000Y-99149999D01*
G75*
G02*
X192824999Y-98900000I249999J0D01*
G01*
X193350001Y-98900000D01*
G75*
G02*
X193600000Y-99149999I0J-249999D01*
G01*
X193600000Y-100050001D01*
G75*
G02*
X193350001Y-100300000I-249999J0D01*
G01*
X192824999Y-100300000D01*
G75*
G02*
X192575000Y-100050001I0J249999D01*
G01*
G37*
%TD*%
%TO.C,R13*%
G36*
G01*
X193400000Y-92349999D02*
X193400000Y-93250001D01*
G75*
G02*
X193150001Y-93500000I-249999J0D01*
G01*
X192624999Y-93500000D01*
G75*
G02*
X192375000Y-93250001I0J249999D01*
G01*
X192375000Y-92349999D01*
G75*
G02*
X192624999Y-92100000I249999J0D01*
G01*
X193150001Y-92100000D01*
G75*
G02*
X193400000Y-92349999I0J-249999D01*
G01*
G37*
G36*
G01*
X195225000Y-92349999D02*
X195225000Y-93250001D01*
G75*
G02*
X194975001Y-93500000I-249999J0D01*
G01*
X194449999Y-93500000D01*
G75*
G02*
X194200000Y-93250001I0J249999D01*
G01*
X194200000Y-92349999D01*
G75*
G02*
X194449999Y-92100000I249999J0D01*
G01*
X194975001Y-92100000D01*
G75*
G02*
X195225000Y-92349999I0J-249999D01*
G01*
G37*
%TD*%
D13*
%TO.C,R12*%
X190000000Y-125260000D03*
D17*
X190000000Y-140500000D03*
%TD*%
%TO.C,R11*%
G36*
G01*
X183400000Y-132450001D02*
X183400000Y-131549999D01*
G75*
G02*
X183649999Y-131300000I249999J0D01*
G01*
X184175001Y-131300000D01*
G75*
G02*
X184425000Y-131549999I0J-249999D01*
G01*
X184425000Y-132450001D01*
G75*
G02*
X184175001Y-132700000I-249999J0D01*
G01*
X183649999Y-132700000D01*
G75*
G02*
X183400000Y-132450001I0J249999D01*
G01*
G37*
G36*
G01*
X181575000Y-132450001D02*
X181575000Y-131549999D01*
G75*
G02*
X181824999Y-131300000I249999J0D01*
G01*
X182350001Y-131300000D01*
G75*
G02*
X182600000Y-131549999I0J-249999D01*
G01*
X182600000Y-132450001D01*
G75*
G02*
X182350001Y-132700000I-249999J0D01*
G01*
X181824999Y-132700000D01*
G75*
G02*
X181575000Y-132450001I0J249999D01*
G01*
G37*
%TD*%
%TO.C,R9*%
G36*
G01*
X192700001Y-120850000D02*
X191799999Y-120850000D01*
G75*
G02*
X191550000Y-120600001I0J249999D01*
G01*
X191550000Y-120074999D01*
G75*
G02*
X191799999Y-119825000I249999J0D01*
G01*
X192700001Y-119825000D01*
G75*
G02*
X192950000Y-120074999I0J-249999D01*
G01*
X192950000Y-120600001D01*
G75*
G02*
X192700001Y-120850000I-249999J0D01*
G01*
G37*
G36*
G01*
X192700001Y-122675000D02*
X191799999Y-122675000D01*
G75*
G02*
X191550000Y-122425001I0J249999D01*
G01*
X191550000Y-121899999D01*
G75*
G02*
X191799999Y-121650000I249999J0D01*
G01*
X192700001Y-121650000D01*
G75*
G02*
X192950000Y-121899999I0J-249999D01*
G01*
X192950000Y-122425001D01*
G75*
G02*
X192700001Y-122675000I-249999J0D01*
G01*
G37*
%TD*%
%TO.C,R8*%
G36*
G01*
X188850001Y-105600000D02*
X187949999Y-105600000D01*
G75*
G02*
X187700000Y-105350001I0J249999D01*
G01*
X187700000Y-104824999D01*
G75*
G02*
X187949999Y-104575000I249999J0D01*
G01*
X188850001Y-104575000D01*
G75*
G02*
X189100000Y-104824999I0J-249999D01*
G01*
X189100000Y-105350001D01*
G75*
G02*
X188850001Y-105600000I-249999J0D01*
G01*
G37*
G36*
G01*
X188850001Y-107425000D02*
X187949999Y-107425000D01*
G75*
G02*
X187700000Y-107175001I0J249999D01*
G01*
X187700000Y-106649999D01*
G75*
G02*
X187949999Y-106400000I249999J0D01*
G01*
X188850001Y-106400000D01*
G75*
G02*
X189100000Y-106649999I0J-249999D01*
G01*
X189100000Y-107175001D01*
G75*
G02*
X188850001Y-107425000I-249999J0D01*
G01*
G37*
%TD*%
D13*
%TO.C,R7*%
X150410000Y-115250000D03*
D17*
X140250000Y-115250000D03*
%TD*%
%TO.C,R6*%
G36*
G01*
X144100000Y-122799999D02*
X144100000Y-123700001D01*
G75*
G02*
X143850001Y-123950000I-249999J0D01*
G01*
X143324999Y-123950000D01*
G75*
G02*
X143075000Y-123700001I0J249999D01*
G01*
X143075000Y-122799999D01*
G75*
G02*
X143324999Y-122550000I249999J0D01*
G01*
X143850001Y-122550000D01*
G75*
G02*
X144100000Y-122799999I0J-249999D01*
G01*
G37*
G36*
G01*
X145925000Y-122799999D02*
X145925000Y-123700001D01*
G75*
G02*
X145675001Y-123950000I-249999J0D01*
G01*
X145149999Y-123950000D01*
G75*
G02*
X144900000Y-123700001I0J249999D01*
G01*
X144900000Y-122799999D01*
G75*
G02*
X145149999Y-122550000I249999J0D01*
G01*
X145675001Y-122550000D01*
G75*
G02*
X145925000Y-122799999I0J-249999D01*
G01*
G37*
%TD*%
D13*
%TO.C,R5*%
X157840000Y-89000000D03*
D17*
X168000000Y-89000000D03*
%TD*%
%TO.C,R4*%
G36*
G01*
X146950001Y-138850000D02*
X146049999Y-138850000D01*
G75*
G02*
X145800000Y-138600001I0J249999D01*
G01*
X145800000Y-138074999D01*
G75*
G02*
X146049999Y-137825000I249999J0D01*
G01*
X146950001Y-137825000D01*
G75*
G02*
X147200000Y-138074999I0J-249999D01*
G01*
X147200000Y-138600001D01*
G75*
G02*
X146950001Y-138850000I-249999J0D01*
G01*
G37*
G36*
G01*
X146950001Y-140675000D02*
X146049999Y-140675000D01*
G75*
G02*
X145800000Y-140425001I0J249999D01*
G01*
X145800000Y-139899999D01*
G75*
G02*
X146049999Y-139650000I249999J0D01*
G01*
X146950001Y-139650000D01*
G75*
G02*
X147200000Y-139899999I0J-249999D01*
G01*
X147200000Y-140425001D01*
G75*
G02*
X146950001Y-140675000I-249999J0D01*
G01*
G37*
%TD*%
%TO.C,R3*%
G36*
G01*
X133200000Y-118650001D02*
X133200000Y-117749999D01*
G75*
G02*
X133449999Y-117500000I249999J0D01*
G01*
X133975001Y-117500000D01*
G75*
G02*
X134225000Y-117749999I0J-249999D01*
G01*
X134225000Y-118650001D01*
G75*
G02*
X133975001Y-118900000I-249999J0D01*
G01*
X133449999Y-118900000D01*
G75*
G02*
X133200000Y-118650001I0J249999D01*
G01*
G37*
G36*
G01*
X131375000Y-118650001D02*
X131375000Y-117749999D01*
G75*
G02*
X131624999Y-117500000I249999J0D01*
G01*
X132150001Y-117500000D01*
G75*
G02*
X132400000Y-117749999I0J-249999D01*
G01*
X132400000Y-118650001D01*
G75*
G02*
X132150001Y-118900000I-249999J0D01*
G01*
X131624999Y-118900000D01*
G75*
G02*
X131375000Y-118650001I0J249999D01*
G01*
G37*
%TD*%
%TO.C,R2*%
G36*
G01*
X125349999Y-121800000D02*
X126250001Y-121800000D01*
G75*
G02*
X126500000Y-122049999I0J-249999D01*
G01*
X126500000Y-122575001D01*
G75*
G02*
X126250001Y-122825000I-249999J0D01*
G01*
X125349999Y-122825000D01*
G75*
G02*
X125100000Y-122575001I0J249999D01*
G01*
X125100000Y-122049999D01*
G75*
G02*
X125349999Y-121800000I249999J0D01*
G01*
G37*
G36*
G01*
X125349999Y-119975000D02*
X126250001Y-119975000D01*
G75*
G02*
X126500000Y-120224999I0J-249999D01*
G01*
X126500000Y-120750001D01*
G75*
G02*
X126250001Y-121000000I-249999J0D01*
G01*
X125349999Y-121000000D01*
G75*
G02*
X125100000Y-120750001I0J249999D01*
G01*
X125100000Y-120224999D01*
G75*
G02*
X125349999Y-119975000I249999J0D01*
G01*
G37*
%TD*%
%TO.C,R1*%
G36*
G01*
X125349999Y-117800000D02*
X126250001Y-117800000D01*
G75*
G02*
X126500000Y-118049999I0J-249999D01*
G01*
X126500000Y-118575001D01*
G75*
G02*
X126250001Y-118825000I-249999J0D01*
G01*
X125349999Y-118825000D01*
G75*
G02*
X125100000Y-118575001I0J249999D01*
G01*
X125100000Y-118049999D01*
G75*
G02*
X125349999Y-117800000I249999J0D01*
G01*
G37*
G36*
G01*
X125349999Y-115975000D02*
X126250001Y-115975000D01*
G75*
G02*
X126500000Y-116224999I0J-249999D01*
G01*
X126500000Y-116750001D01*
G75*
G02*
X126250001Y-117000000I-249999J0D01*
G01*
X125349999Y-117000000D01*
G75*
G02*
X125100000Y-116750001I0J249999D01*
G01*
X125100000Y-116224999D01*
G75*
G02*
X125349999Y-115975000I249999J0D01*
G01*
G37*
%TD*%
D18*
%TO.C,Q1*%
X156000000Y-121000000D03*
D19*
X149700000Y-118720000D03*
X149700000Y-123280000D03*
%TD*%
D20*
%TO.C,L1*%
X129000000Y-103110000D03*
X129000000Y-96000000D03*
%TD*%
D21*
%TO.C,J2*%
X162380000Y-76000000D03*
X167460000Y-76000000D03*
D22*
X170000000Y-76000000D03*
D21*
X164920000Y-76000000D03*
%TD*%
D23*
%TO.C,J1*%
X137760000Y-77000000D03*
X142840000Y-77000000D03*
X147920000Y-77000000D03*
D24*
X153000000Y-77000000D03*
%TD*%
D22*
%TO.C,T1*%
X163685000Y-103420000D03*
D21*
X163685000Y-108500000D03*
X163685000Y-113580000D03*
X163685000Y-118660000D03*
X163685000Y-123740000D03*
X176385000Y-123740000D03*
X176385000Y-118660000D03*
X176385000Y-113580000D03*
X176385000Y-108500000D03*
X176385000Y-103420000D03*
%TD*%
D25*
%TO.C,D4*%
X182500000Y-103340000D03*
D26*
X182500000Y-113500000D03*
%TD*%
D25*
%TO.C,D3*%
X157000000Y-111160000D03*
D26*
X157000000Y-101000000D03*
%TD*%
D27*
%TO.C,D2*%
X171240000Y-94000000D03*
D24*
X156000000Y-94000000D03*
%TD*%
D25*
%TO.C,D1*%
X138160000Y-131000000D03*
D26*
X128000000Y-131000000D03*
%TD*%
%TO.C,C14*%
G36*
G01*
X173550000Y-143775000D02*
X173550000Y-144725000D01*
G75*
G02*
X173300000Y-144975000I-250000J0D01*
G01*
X172800000Y-144975000D01*
G75*
G02*
X172550000Y-144725000I0J250000D01*
G01*
X172550000Y-143775000D01*
G75*
G02*
X172800000Y-143525000I250000J0D01*
G01*
X173300000Y-143525000D01*
G75*
G02*
X173550000Y-143775000I0J-250000D01*
G01*
G37*
G36*
G01*
X175450000Y-143775000D02*
X175450000Y-144725000D01*
G75*
G02*
X175200000Y-144975000I-250000J0D01*
G01*
X174700000Y-144975000D01*
G75*
G02*
X174450000Y-144725000I0J250000D01*
G01*
X174450000Y-143775000D01*
G75*
G02*
X174700000Y-143525000I250000J0D01*
G01*
X175200000Y-143525000D01*
G75*
G02*
X175450000Y-143775000I0J-250000D01*
G01*
G37*
%TD*%
%TO.C,C13*%
G36*
G01*
X173550000Y-146025000D02*
X173550000Y-146975000D01*
G75*
G02*
X173300000Y-147225000I-250000J0D01*
G01*
X172800000Y-147225000D01*
G75*
G02*
X172550000Y-146975000I0J250000D01*
G01*
X172550000Y-146025000D01*
G75*
G02*
X172800000Y-145775000I250000J0D01*
G01*
X173300000Y-145775000D01*
G75*
G02*
X173550000Y-146025000I0J-250000D01*
G01*
G37*
G36*
G01*
X175450000Y-146025000D02*
X175450000Y-146975000D01*
G75*
G02*
X175200000Y-147225000I-250000J0D01*
G01*
X174700000Y-147225000D01*
G75*
G02*
X174450000Y-146975000I0J250000D01*
G01*
X174450000Y-146025000D01*
G75*
G02*
X174700000Y-145775000I250000J0D01*
G01*
X175200000Y-145775000D01*
G75*
G02*
X175450000Y-146025000I0J-250000D01*
G01*
G37*
%TD*%
%TO.C,C12*%
G36*
G01*
X164450000Y-146725000D02*
X164450000Y-145775000D01*
G75*
G02*
X164700000Y-145525000I250000J0D01*
G01*
X165200000Y-145525000D01*
G75*
G02*
X165450000Y-145775000I0J-250000D01*
G01*
X165450000Y-146725000D01*
G75*
G02*
X165200000Y-146975000I-250000J0D01*
G01*
X164700000Y-146975000D01*
G75*
G02*
X164450000Y-146725000I0J250000D01*
G01*
G37*
G36*
G01*
X162550000Y-146725000D02*
X162550000Y-145775000D01*
G75*
G02*
X162800000Y-145525000I250000J0D01*
G01*
X163300000Y-145525000D01*
G75*
G02*
X163550000Y-145775000I0J-250000D01*
G01*
X163550000Y-146725000D01*
G75*
G02*
X163300000Y-146975000I-250000J0D01*
G01*
X162800000Y-146975000D01*
G75*
G02*
X162550000Y-146725000I0J250000D01*
G01*
G37*
%TD*%
D28*
%TO.C,C11*%
X201000000Y-138500000D03*
X201000000Y-111000000D03*
%TD*%
%TO.C,C10*%
G36*
G01*
X149454999Y-142775000D02*
X149454999Y-143725000D01*
G75*
G02*
X149204999Y-143975000I-250000J0D01*
G01*
X148704999Y-143975000D01*
G75*
G02*
X148454999Y-143725000I0J250000D01*
G01*
X148454999Y-142775000D01*
G75*
G02*
X148704999Y-142525000I250000J0D01*
G01*
X149204999Y-142525000D01*
G75*
G02*
X149454999Y-142775000I0J-250000D01*
G01*
G37*
G36*
G01*
X151354999Y-142775000D02*
X151354999Y-143725000D01*
G75*
G02*
X151104999Y-143975000I-250000J0D01*
G01*
X150604999Y-143975000D01*
G75*
G02*
X150354999Y-143725000I0J250000D01*
G01*
X150354999Y-142775000D01*
G75*
G02*
X150604999Y-142525000I250000J0D01*
G01*
X151104999Y-142525000D01*
G75*
G02*
X151354999Y-142775000I0J-250000D01*
G01*
G37*
%TD*%
D17*
%TO.C,C9*%
X182500000Y-124000000D03*
X182500000Y-119000000D03*
%TD*%
D29*
%TO.C,C8*%
X188500000Y-110500000D03*
X188500000Y-120500000D03*
%TD*%
%TO.C,C7*%
G36*
G01*
X149454999Y-145090001D02*
X149454999Y-146040001D01*
G75*
G02*
X149204999Y-146290001I-250000J0D01*
G01*
X148704999Y-146290001D01*
G75*
G02*
X148454999Y-146040001I0J250000D01*
G01*
X148454999Y-145090001D01*
G75*
G02*
X148704999Y-144840001I250000J0D01*
G01*
X149204999Y-144840001D01*
G75*
G02*
X149454999Y-145090001I0J-250000D01*
G01*
G37*
G36*
G01*
X151354999Y-145090001D02*
X151354999Y-146040001D01*
G75*
G02*
X151104999Y-146290001I-250000J0D01*
G01*
X150604999Y-146290001D01*
G75*
G02*
X150354999Y-146040001I0J250000D01*
G01*
X150354999Y-145090001D01*
G75*
G02*
X150604999Y-144840001I250000J0D01*
G01*
X151104999Y-144840001D01*
G75*
G02*
X151354999Y-145090001I0J-250000D01*
G01*
G37*
%TD*%
%TO.C,C6*%
G36*
G01*
X140450000Y-145975000D02*
X140450000Y-145025000D01*
G75*
G02*
X140700000Y-144775000I250000J0D01*
G01*
X141200000Y-144775000D01*
G75*
G02*
X141450000Y-145025000I0J-250000D01*
G01*
X141450000Y-145975000D01*
G75*
G02*
X141200000Y-146225000I-250000J0D01*
G01*
X140700000Y-146225000D01*
G75*
G02*
X140450000Y-145975000I0J250000D01*
G01*
G37*
G36*
G01*
X138550000Y-145975000D02*
X138550000Y-145025000D01*
G75*
G02*
X138800000Y-144775000I250000J0D01*
G01*
X139300000Y-144775000D01*
G75*
G02*
X139550000Y-145025000I0J-250000D01*
G01*
X139550000Y-145975000D01*
G75*
G02*
X139300000Y-146225000I-250000J0D01*
G01*
X138800000Y-146225000D01*
G75*
G02*
X138550000Y-145975000I0J250000D01*
G01*
G37*
%TD*%
D17*
%TO.C,C5*%
X158000000Y-85000000D03*
X163000000Y-85000000D03*
%TD*%
D28*
%TO.C,C4*%
X149500000Y-104000000D03*
D30*
X142000000Y-104000000D03*
%TD*%
%TO.C,C3*%
G36*
G01*
X131675000Y-112950000D02*
X130725000Y-112950000D01*
G75*
G02*
X130475000Y-112700000I0J250000D01*
G01*
X130475000Y-112200000D01*
G75*
G02*
X130725000Y-111950000I250000J0D01*
G01*
X131675000Y-111950000D01*
G75*
G02*
X131925000Y-112200000I0J-250000D01*
G01*
X131925000Y-112700000D01*
G75*
G02*
X131675000Y-112950000I-250000J0D01*
G01*
G37*
G36*
G01*
X131675000Y-114850000D02*
X130725000Y-114850000D01*
G75*
G02*
X130475000Y-114600000I0J250000D01*
G01*
X130475000Y-114100000D01*
G75*
G02*
X130725000Y-113850000I250000J0D01*
G01*
X131675000Y-113850000D01*
G75*
G02*
X131925000Y-114100000I0J-250000D01*
G01*
X131925000Y-114600000D01*
G75*
G02*
X131675000Y-114850000I-250000J0D01*
G01*
G37*
%TD*%
%TO.C,C2*%
G36*
G01*
X135075000Y-112950000D02*
X134125000Y-112950000D01*
G75*
G02*
X133875000Y-112700000I0J250000D01*
G01*
X133875000Y-112200000D01*
G75*
G02*
X134125000Y-111950000I250000J0D01*
G01*
X135075000Y-111950000D01*
G75*
G02*
X135325000Y-112200000I0J-250000D01*
G01*
X135325000Y-112700000D01*
G75*
G02*
X135075000Y-112950000I-250000J0D01*
G01*
G37*
G36*
G01*
X135075000Y-114850000D02*
X134125000Y-114850000D01*
G75*
G02*
X133875000Y-114600000I0J250000D01*
G01*
X133875000Y-114100000D01*
G75*
G02*
X134125000Y-113850000I250000J0D01*
G01*
X135075000Y-113850000D01*
G75*
G02*
X135325000Y-114100000I0J-250000D01*
G01*
X135325000Y-114600000D01*
G75*
G02*
X135075000Y-114850000I-250000J0D01*
G01*
G37*
%TD*%
D29*
%TO.C,C1*%
X146000000Y-89000000D03*
D31*
X141000000Y-89000000D03*
%TD*%
M02*
