%TF.GenerationSoftware,KiCad,Pcbnew,(5.1.10-1-10_14)*%
%TF.CreationDate,2022-04-01T14:18:11+03:00*%
%TF.ProjectId,Convertor_15v_to_20v:500v,436f6e76-6572-4746-9f72-5f3135765f74,rev?*%
%TF.SameCoordinates,Original*%
%TF.FileFunction,Legend,Bot*%
%TF.FilePolarity,Positive*%
%FSLAX46Y46*%
G04 Gerber Fmt 4.6, Leading zero omitted, Abs format (unit mm)*
G04 Created by KiCad (PCBNEW (5.1.10-1-10_14)) date 2022-04-01 14:18:11*
%MOMM*%
%LPD*%
G01*
G04 APERTURE LIST*
%ADD10C,0.150000*%
%ADD11C,0.120000*%
G04 APERTURE END LIST*
D10*
X142871428Y-79438095D02*
X142871428Y-80200000D01*
X143252380Y-79819047D02*
X142490476Y-79819047D01*
X143252380Y-81200000D02*
X143252380Y-80628571D01*
X143252380Y-80914285D02*
X142252380Y-80914285D01*
X142395238Y-80819047D01*
X142490476Y-80723809D01*
X142538095Y-80628571D01*
X142252380Y-82104761D02*
X142252380Y-81628571D01*
X142728571Y-81580952D01*
X142680952Y-81628571D01*
X142633333Y-81723809D01*
X142633333Y-81961904D01*
X142680952Y-82057142D01*
X142728571Y-82104761D01*
X142823809Y-82152380D01*
X143061904Y-82152380D01*
X143157142Y-82104761D01*
X143204761Y-82057142D01*
X143252380Y-81961904D01*
X143252380Y-81723809D01*
X143204761Y-81628571D01*
X143157142Y-81580952D01*
X142252380Y-82438095D02*
X143252380Y-82771428D01*
X142252380Y-83104761D01*
X138252380Y-79809523D02*
X137252380Y-79809523D01*
X137252380Y-80047619D01*
X137300000Y-80190476D01*
X137395238Y-80285714D01*
X137490476Y-80333333D01*
X137680952Y-80380952D01*
X137823809Y-80380952D01*
X138014285Y-80333333D01*
X138109523Y-80285714D01*
X138204761Y-80190476D01*
X138252380Y-80047619D01*
X138252380Y-79809523D01*
X137966666Y-80761904D02*
X137966666Y-81238095D01*
X138252380Y-80666666D02*
X137252380Y-81000000D01*
X138252380Y-81333333D01*
X138157142Y-82238095D02*
X138204761Y-82190476D01*
X138252380Y-82047619D01*
X138252380Y-81952380D01*
X138204761Y-81809523D01*
X138109523Y-81714285D01*
X138014285Y-81666666D01*
X137823809Y-81619047D01*
X137680952Y-81619047D01*
X137490476Y-81666666D01*
X137395238Y-81714285D01*
X137300000Y-81809523D01*
X137252380Y-81952380D01*
X137252380Y-82047619D01*
X137300000Y-82190476D01*
X137347619Y-82238095D01*
X152452380Y-80000000D02*
X152452380Y-80190476D01*
X152500000Y-80285714D01*
X152595238Y-80380952D01*
X152785714Y-80428571D01*
X153119047Y-80428571D01*
X153309523Y-80380952D01*
X153404761Y-80285714D01*
X153452380Y-80190476D01*
X153452380Y-80000000D01*
X153404761Y-79904761D01*
X153309523Y-79809523D01*
X153119047Y-79761904D01*
X152785714Y-79761904D01*
X152595238Y-79809523D01*
X152500000Y-79904761D01*
X152452380Y-80000000D01*
X152452380Y-80857142D02*
X153261904Y-80857142D01*
X153357142Y-80904761D01*
X153404761Y-80952380D01*
X153452380Y-81047619D01*
X153452380Y-81238095D01*
X153404761Y-81333333D01*
X153357142Y-81380952D01*
X153261904Y-81428571D01*
X152452380Y-81428571D01*
X152452380Y-81761904D02*
X152452380Y-82333333D01*
X153452380Y-82047619D02*
X152452380Y-82047619D01*
X147500000Y-80238095D02*
X147452380Y-80142857D01*
X147452380Y-80000000D01*
X147500000Y-79857142D01*
X147595238Y-79761904D01*
X147690476Y-79714285D01*
X147880952Y-79666666D01*
X148023809Y-79666666D01*
X148214285Y-79714285D01*
X148309523Y-79761904D01*
X148404761Y-79857142D01*
X148452380Y-80000000D01*
X148452380Y-80095238D01*
X148404761Y-80238095D01*
X148357142Y-80285714D01*
X148023809Y-80285714D01*
X148023809Y-80095238D01*
X148452380Y-80714285D02*
X147452380Y-80714285D01*
X148452380Y-81285714D01*
X147452380Y-81285714D01*
X148452380Y-81761904D02*
X147452380Y-81761904D01*
X147452380Y-82000000D01*
X147500000Y-82142857D01*
X147595238Y-82238095D01*
X147690476Y-82285714D01*
X147880952Y-82333333D01*
X148023809Y-82333333D01*
X148214285Y-82285714D01*
X148309523Y-82238095D01*
X148404761Y-82142857D01*
X148452380Y-82000000D01*
X148452380Y-81761904D01*
D11*
%TO.C,R10*%
X178227064Y-136235000D02*
X177772936Y-136235000D01*
X178227064Y-134765000D02*
X177772936Y-134765000D01*
%TO.C,R18*%
X193572936Y-78065000D02*
X194027064Y-78065000D01*
X193572936Y-79535000D02*
X194027064Y-79535000D01*
%TO.C,R16*%
X194227064Y-86735000D02*
X193772936Y-86735000D01*
X194227064Y-85265000D02*
X193772936Y-85265000D01*
%TO.C,R15*%
X131485000Y-76972936D02*
X131485000Y-77427064D01*
X130015000Y-76972936D02*
X130015000Y-77427064D01*
%TO.C,R14*%
X193772936Y-98865000D02*
X194227064Y-98865000D01*
X193772936Y-100335000D02*
X194227064Y-100335000D01*
%TO.C,R13*%
X194027064Y-93535000D02*
X193572936Y-93535000D01*
X194027064Y-92065000D02*
X193572936Y-92065000D01*
%TO.C,R11*%
X182772936Y-131265000D02*
X183227064Y-131265000D01*
X182772936Y-132735000D02*
X183227064Y-132735000D01*
%TO.C,R9*%
X191515000Y-121477064D02*
X191515000Y-121022936D01*
X192985000Y-121477064D02*
X192985000Y-121022936D01*
%TO.C,R8*%
X187665000Y-106227064D02*
X187665000Y-105772936D01*
X189135000Y-106227064D02*
X189135000Y-105772936D01*
%TO.C,R6*%
X144727064Y-123985000D02*
X144272936Y-123985000D01*
X144727064Y-122515000D02*
X144272936Y-122515000D01*
%TO.C,R4*%
X145765000Y-139477064D02*
X145765000Y-139022936D01*
X147235000Y-139477064D02*
X147235000Y-139022936D01*
%TO.C,R3*%
X132572936Y-117465000D02*
X133027064Y-117465000D01*
X132572936Y-118935000D02*
X133027064Y-118935000D01*
%TO.C,R2*%
X126535000Y-121172936D02*
X126535000Y-121627064D01*
X125065000Y-121172936D02*
X125065000Y-121627064D01*
%TO.C,R1*%
X126535000Y-117172936D02*
X126535000Y-117627064D01*
X125065000Y-117172936D02*
X125065000Y-117627064D01*
%TO.C,Q1*%
X151430000Y-117820000D02*
X150330000Y-117820000D01*
X151430000Y-117550000D02*
X151430000Y-117820000D01*
X152930000Y-117550000D02*
X151430000Y-117550000D01*
X151430000Y-124180000D02*
X148600000Y-124180000D01*
X151430000Y-124450000D02*
X151430000Y-124180000D01*
X152930000Y-124450000D02*
X151430000Y-124450000D01*
%TO.C,C14*%
X174261252Y-144985000D02*
X173738748Y-144985000D01*
X174261252Y-143515000D02*
X173738748Y-143515000D01*
%TO.C,C13*%
X174261252Y-147235000D02*
X173738748Y-147235000D01*
X174261252Y-145765000D02*
X173738748Y-145765000D01*
%TO.C,C12*%
X163738748Y-145515000D02*
X164261252Y-145515000D01*
X163738748Y-146985000D02*
X164261252Y-146985000D01*
%TO.C,C10*%
X150166251Y-143985000D02*
X149643747Y-143985000D01*
X150166251Y-142515000D02*
X149643747Y-142515000D01*
%TO.C,C7*%
X150166251Y-146300001D02*
X149643747Y-146300001D01*
X150166251Y-144830001D02*
X149643747Y-144830001D01*
%TO.C,C6*%
X139738748Y-144765000D02*
X140261252Y-144765000D01*
X139738748Y-146235000D02*
X140261252Y-146235000D01*
%TO.C,C3*%
X130465000Y-113661252D02*
X130465000Y-113138748D01*
X131935000Y-113661252D02*
X131935000Y-113138748D01*
%TO.C,C2*%
X133865000Y-113661252D02*
X133865000Y-113138748D01*
X135335000Y-113661252D02*
X135335000Y-113138748D01*
%TO.C,R10*%
D10*
X178642857Y-134302380D02*
X178976190Y-133826190D01*
X179214285Y-134302380D02*
X179214285Y-133302380D01*
X178833333Y-133302380D01*
X178738095Y-133350000D01*
X178690476Y-133397619D01*
X178642857Y-133492857D01*
X178642857Y-133635714D01*
X178690476Y-133730952D01*
X178738095Y-133778571D01*
X178833333Y-133826190D01*
X179214285Y-133826190D01*
X177690476Y-134302380D02*
X178261904Y-134302380D01*
X177976190Y-134302380D02*
X177976190Y-133302380D01*
X178071428Y-133445238D01*
X178166666Y-133540476D01*
X178261904Y-133588095D01*
X177071428Y-133302380D02*
X176976190Y-133302380D01*
X176880952Y-133350000D01*
X176833333Y-133397619D01*
X176785714Y-133492857D01*
X176738095Y-133683333D01*
X176738095Y-133921428D01*
X176785714Y-134111904D01*
X176833333Y-134207142D01*
X176880952Y-134254761D01*
X176976190Y-134302380D01*
X177071428Y-134302380D01*
X177166666Y-134254761D01*
X177214285Y-134207142D01*
X177261904Y-134111904D01*
X177309523Y-133921428D01*
X177309523Y-133683333D01*
X177261904Y-133492857D01*
X177214285Y-133397619D01*
X177166666Y-133350000D01*
X177071428Y-133302380D01*
%TO.C,R18*%
X197642857Y-79252380D02*
X197976190Y-78776190D01*
X198214285Y-79252380D02*
X198214285Y-78252380D01*
X197833333Y-78252380D01*
X197738095Y-78300000D01*
X197690476Y-78347619D01*
X197642857Y-78442857D01*
X197642857Y-78585714D01*
X197690476Y-78680952D01*
X197738095Y-78728571D01*
X197833333Y-78776190D01*
X198214285Y-78776190D01*
X196690476Y-79252380D02*
X197261904Y-79252380D01*
X196976190Y-79252380D02*
X196976190Y-78252380D01*
X197071428Y-78395238D01*
X197166666Y-78490476D01*
X197261904Y-78538095D01*
X196119047Y-78680952D02*
X196214285Y-78633333D01*
X196261904Y-78585714D01*
X196309523Y-78490476D01*
X196309523Y-78442857D01*
X196261904Y-78347619D01*
X196214285Y-78300000D01*
X196119047Y-78252380D01*
X195928571Y-78252380D01*
X195833333Y-78300000D01*
X195785714Y-78347619D01*
X195738095Y-78442857D01*
X195738095Y-78490476D01*
X195785714Y-78585714D01*
X195833333Y-78633333D01*
X195928571Y-78680952D01*
X196119047Y-78680952D01*
X196214285Y-78728571D01*
X196261904Y-78776190D01*
X196309523Y-78871428D01*
X196309523Y-79061904D01*
X196261904Y-79157142D01*
X196214285Y-79204761D01*
X196119047Y-79252380D01*
X195928571Y-79252380D01*
X195833333Y-79204761D01*
X195785714Y-79157142D01*
X195738095Y-79061904D01*
X195738095Y-78871428D01*
X195785714Y-78776190D01*
X195833333Y-78728571D01*
X195928571Y-78680952D01*
%TO.C,R16*%
X198042857Y-86452380D02*
X198376190Y-85976190D01*
X198614285Y-86452380D02*
X198614285Y-85452380D01*
X198233333Y-85452380D01*
X198138095Y-85500000D01*
X198090476Y-85547619D01*
X198042857Y-85642857D01*
X198042857Y-85785714D01*
X198090476Y-85880952D01*
X198138095Y-85928571D01*
X198233333Y-85976190D01*
X198614285Y-85976190D01*
X197090476Y-86452380D02*
X197661904Y-86452380D01*
X197376190Y-86452380D02*
X197376190Y-85452380D01*
X197471428Y-85595238D01*
X197566666Y-85690476D01*
X197661904Y-85738095D01*
X196233333Y-85452380D02*
X196423809Y-85452380D01*
X196519047Y-85500000D01*
X196566666Y-85547619D01*
X196661904Y-85690476D01*
X196709523Y-85880952D01*
X196709523Y-86261904D01*
X196661904Y-86357142D01*
X196614285Y-86404761D01*
X196519047Y-86452380D01*
X196328571Y-86452380D01*
X196233333Y-86404761D01*
X196185714Y-86357142D01*
X196138095Y-86261904D01*
X196138095Y-86023809D01*
X196185714Y-85928571D01*
X196233333Y-85880952D01*
X196328571Y-85833333D01*
X196519047Y-85833333D01*
X196614285Y-85880952D01*
X196661904Y-85928571D01*
X196709523Y-86023809D01*
%TO.C,R15*%
X129552380Y-76557142D02*
X129076190Y-76223809D01*
X129552380Y-75985714D02*
X128552380Y-75985714D01*
X128552380Y-76366666D01*
X128600000Y-76461904D01*
X128647619Y-76509523D01*
X128742857Y-76557142D01*
X128885714Y-76557142D01*
X128980952Y-76509523D01*
X129028571Y-76461904D01*
X129076190Y-76366666D01*
X129076190Y-75985714D01*
X129552380Y-77509523D02*
X129552380Y-76938095D01*
X129552380Y-77223809D02*
X128552380Y-77223809D01*
X128695238Y-77128571D01*
X128790476Y-77033333D01*
X128838095Y-76938095D01*
X128552380Y-78414285D02*
X128552380Y-77938095D01*
X129028571Y-77890476D01*
X128980952Y-77938095D01*
X128933333Y-78033333D01*
X128933333Y-78271428D01*
X128980952Y-78366666D01*
X129028571Y-78414285D01*
X129123809Y-78461904D01*
X129361904Y-78461904D01*
X129457142Y-78414285D01*
X129504761Y-78366666D01*
X129552380Y-78271428D01*
X129552380Y-78033333D01*
X129504761Y-77938095D01*
X129457142Y-77890476D01*
%TO.C,R14*%
X197842857Y-100052380D02*
X198176190Y-99576190D01*
X198414285Y-100052380D02*
X198414285Y-99052380D01*
X198033333Y-99052380D01*
X197938095Y-99100000D01*
X197890476Y-99147619D01*
X197842857Y-99242857D01*
X197842857Y-99385714D01*
X197890476Y-99480952D01*
X197938095Y-99528571D01*
X198033333Y-99576190D01*
X198414285Y-99576190D01*
X196890476Y-100052380D02*
X197461904Y-100052380D01*
X197176190Y-100052380D02*
X197176190Y-99052380D01*
X197271428Y-99195238D01*
X197366666Y-99290476D01*
X197461904Y-99338095D01*
X196033333Y-99385714D02*
X196033333Y-100052380D01*
X196271428Y-99004761D02*
X196509523Y-99719047D01*
X195890476Y-99719047D01*
%TO.C,R13*%
X197842857Y-93252380D02*
X198176190Y-92776190D01*
X198414285Y-93252380D02*
X198414285Y-92252380D01*
X198033333Y-92252380D01*
X197938095Y-92300000D01*
X197890476Y-92347619D01*
X197842857Y-92442857D01*
X197842857Y-92585714D01*
X197890476Y-92680952D01*
X197938095Y-92728571D01*
X198033333Y-92776190D01*
X198414285Y-92776190D01*
X196890476Y-93252380D02*
X197461904Y-93252380D01*
X197176190Y-93252380D02*
X197176190Y-92252380D01*
X197271428Y-92395238D01*
X197366666Y-92490476D01*
X197461904Y-92538095D01*
X196557142Y-92252380D02*
X195938095Y-92252380D01*
X196271428Y-92633333D01*
X196128571Y-92633333D01*
X196033333Y-92680952D01*
X195985714Y-92728571D01*
X195938095Y-92823809D01*
X195938095Y-93061904D01*
X195985714Y-93157142D01*
X196033333Y-93204761D01*
X196128571Y-93252380D01*
X196414285Y-93252380D01*
X196509523Y-93204761D01*
X196557142Y-93157142D01*
%TO.C,R11*%
X183642857Y-134102380D02*
X183976190Y-133626190D01*
X184214285Y-134102380D02*
X184214285Y-133102380D01*
X183833333Y-133102380D01*
X183738095Y-133150000D01*
X183690476Y-133197619D01*
X183642857Y-133292857D01*
X183642857Y-133435714D01*
X183690476Y-133530952D01*
X183738095Y-133578571D01*
X183833333Y-133626190D01*
X184214285Y-133626190D01*
X182690476Y-134102380D02*
X183261904Y-134102380D01*
X182976190Y-134102380D02*
X182976190Y-133102380D01*
X183071428Y-133245238D01*
X183166666Y-133340476D01*
X183261904Y-133388095D01*
X181738095Y-134102380D02*
X182309523Y-134102380D01*
X182023809Y-134102380D02*
X182023809Y-133102380D01*
X182119047Y-133245238D01*
X182214285Y-133340476D01*
X182309523Y-133388095D01*
%TO.C,R9*%
X194352380Y-121083333D02*
X193876190Y-120750000D01*
X194352380Y-120511904D02*
X193352380Y-120511904D01*
X193352380Y-120892857D01*
X193400000Y-120988095D01*
X193447619Y-121035714D01*
X193542857Y-121083333D01*
X193685714Y-121083333D01*
X193780952Y-121035714D01*
X193828571Y-120988095D01*
X193876190Y-120892857D01*
X193876190Y-120511904D01*
X194352380Y-121559523D02*
X194352380Y-121750000D01*
X194304761Y-121845238D01*
X194257142Y-121892857D01*
X194114285Y-121988095D01*
X193923809Y-122035714D01*
X193542857Y-122035714D01*
X193447619Y-121988095D01*
X193400000Y-121940476D01*
X193352380Y-121845238D01*
X193352380Y-121654761D01*
X193400000Y-121559523D01*
X193447619Y-121511904D01*
X193542857Y-121464285D01*
X193780952Y-121464285D01*
X193876190Y-121511904D01*
X193923809Y-121559523D01*
X193971428Y-121654761D01*
X193971428Y-121845238D01*
X193923809Y-121940476D01*
X193876190Y-121988095D01*
X193780952Y-122035714D01*
%TO.C,R8*%
X190502380Y-105833333D02*
X190026190Y-105500000D01*
X190502380Y-105261904D02*
X189502380Y-105261904D01*
X189502380Y-105642857D01*
X189550000Y-105738095D01*
X189597619Y-105785714D01*
X189692857Y-105833333D01*
X189835714Y-105833333D01*
X189930952Y-105785714D01*
X189978571Y-105738095D01*
X190026190Y-105642857D01*
X190026190Y-105261904D01*
X189930952Y-106404761D02*
X189883333Y-106309523D01*
X189835714Y-106261904D01*
X189740476Y-106214285D01*
X189692857Y-106214285D01*
X189597619Y-106261904D01*
X189550000Y-106309523D01*
X189502380Y-106404761D01*
X189502380Y-106595238D01*
X189550000Y-106690476D01*
X189597619Y-106738095D01*
X189692857Y-106785714D01*
X189740476Y-106785714D01*
X189835714Y-106738095D01*
X189883333Y-106690476D01*
X189930952Y-106595238D01*
X189930952Y-106404761D01*
X189978571Y-106309523D01*
X190026190Y-106261904D01*
X190121428Y-106214285D01*
X190311904Y-106214285D01*
X190407142Y-106261904D01*
X190454761Y-106309523D01*
X190502380Y-106404761D01*
X190502380Y-106595238D01*
X190454761Y-106690476D01*
X190407142Y-106738095D01*
X190311904Y-106785714D01*
X190121428Y-106785714D01*
X190026190Y-106738095D01*
X189978571Y-106690476D01*
X189930952Y-106595238D01*
%TO.C,R6*%
X144666666Y-122052380D02*
X145000000Y-121576190D01*
X145238095Y-122052380D02*
X145238095Y-121052380D01*
X144857142Y-121052380D01*
X144761904Y-121100000D01*
X144714285Y-121147619D01*
X144666666Y-121242857D01*
X144666666Y-121385714D01*
X144714285Y-121480952D01*
X144761904Y-121528571D01*
X144857142Y-121576190D01*
X145238095Y-121576190D01*
X143809523Y-121052380D02*
X144000000Y-121052380D01*
X144095238Y-121100000D01*
X144142857Y-121147619D01*
X144238095Y-121290476D01*
X144285714Y-121480952D01*
X144285714Y-121861904D01*
X144238095Y-121957142D01*
X144190476Y-122004761D01*
X144095238Y-122052380D01*
X143904761Y-122052380D01*
X143809523Y-122004761D01*
X143761904Y-121957142D01*
X143714285Y-121861904D01*
X143714285Y-121623809D01*
X143761904Y-121528571D01*
X143809523Y-121480952D01*
X143904761Y-121433333D01*
X144095238Y-121433333D01*
X144190476Y-121480952D01*
X144238095Y-121528571D01*
X144285714Y-121623809D01*
%TO.C,R4*%
X148602380Y-139083333D02*
X148126190Y-138750000D01*
X148602380Y-138511904D02*
X147602380Y-138511904D01*
X147602380Y-138892857D01*
X147650000Y-138988095D01*
X147697619Y-139035714D01*
X147792857Y-139083333D01*
X147935714Y-139083333D01*
X148030952Y-139035714D01*
X148078571Y-138988095D01*
X148126190Y-138892857D01*
X148126190Y-138511904D01*
X147935714Y-139940476D02*
X148602380Y-139940476D01*
X147554761Y-139702380D02*
X148269047Y-139464285D01*
X148269047Y-140083333D01*
%TO.C,R3*%
X132966666Y-120452380D02*
X133300000Y-119976190D01*
X133538095Y-120452380D02*
X133538095Y-119452380D01*
X133157142Y-119452380D01*
X133061904Y-119500000D01*
X133014285Y-119547619D01*
X132966666Y-119642857D01*
X132966666Y-119785714D01*
X133014285Y-119880952D01*
X133061904Y-119928571D01*
X133157142Y-119976190D01*
X133538095Y-119976190D01*
X132633333Y-119452380D02*
X132014285Y-119452380D01*
X132347619Y-119833333D01*
X132204761Y-119833333D01*
X132109523Y-119880952D01*
X132061904Y-119928571D01*
X132014285Y-120023809D01*
X132014285Y-120261904D01*
X132061904Y-120357142D01*
X132109523Y-120404761D01*
X132204761Y-120452380D01*
X132490476Y-120452380D01*
X132585714Y-120404761D01*
X132633333Y-120357142D01*
%TO.C,R2*%
X124602380Y-121233333D02*
X124126190Y-120900000D01*
X124602380Y-120661904D02*
X123602380Y-120661904D01*
X123602380Y-121042857D01*
X123650000Y-121138095D01*
X123697619Y-121185714D01*
X123792857Y-121233333D01*
X123935714Y-121233333D01*
X124030952Y-121185714D01*
X124078571Y-121138095D01*
X124126190Y-121042857D01*
X124126190Y-120661904D01*
X123697619Y-121614285D02*
X123650000Y-121661904D01*
X123602380Y-121757142D01*
X123602380Y-121995238D01*
X123650000Y-122090476D01*
X123697619Y-122138095D01*
X123792857Y-122185714D01*
X123888095Y-122185714D01*
X124030952Y-122138095D01*
X124602380Y-121566666D01*
X124602380Y-122185714D01*
%TO.C,R1*%
X124602380Y-117233333D02*
X124126190Y-116900000D01*
X124602380Y-116661904D02*
X123602380Y-116661904D01*
X123602380Y-117042857D01*
X123650000Y-117138095D01*
X123697619Y-117185714D01*
X123792857Y-117233333D01*
X123935714Y-117233333D01*
X124030952Y-117185714D01*
X124078571Y-117138095D01*
X124126190Y-117042857D01*
X124126190Y-116661904D01*
X124602380Y-118185714D02*
X124602380Y-117614285D01*
X124602380Y-117900000D02*
X123602380Y-117900000D01*
X123745238Y-117804761D01*
X123840476Y-117709523D01*
X123888095Y-117614285D01*
%TO.C,Q1*%
X153995238Y-126047619D02*
X154090476Y-126000000D01*
X154185714Y-125904761D01*
X154328571Y-125761904D01*
X154423809Y-125714285D01*
X154519047Y-125714285D01*
X154471428Y-125952380D02*
X154566666Y-125904761D01*
X154661904Y-125809523D01*
X154709523Y-125619047D01*
X154709523Y-125285714D01*
X154661904Y-125095238D01*
X154566666Y-125000000D01*
X154471428Y-124952380D01*
X154280952Y-124952380D01*
X154185714Y-125000000D01*
X154090476Y-125095238D01*
X154042857Y-125285714D01*
X154042857Y-125619047D01*
X154090476Y-125809523D01*
X154185714Y-125904761D01*
X154280952Y-125952380D01*
X154471428Y-125952380D01*
X153090476Y-125952380D02*
X153661904Y-125952380D01*
X153376190Y-125952380D02*
X153376190Y-124952380D01*
X153471428Y-125095238D01*
X153566666Y-125190476D01*
X153661904Y-125238095D01*
%TO.C,C14*%
X178042857Y-144557142D02*
X178090476Y-144604761D01*
X178233333Y-144652380D01*
X178328571Y-144652380D01*
X178471428Y-144604761D01*
X178566666Y-144509523D01*
X178614285Y-144414285D01*
X178661904Y-144223809D01*
X178661904Y-144080952D01*
X178614285Y-143890476D01*
X178566666Y-143795238D01*
X178471428Y-143700000D01*
X178328571Y-143652380D01*
X178233333Y-143652380D01*
X178090476Y-143700000D01*
X178042857Y-143747619D01*
X177090476Y-144652380D02*
X177661904Y-144652380D01*
X177376190Y-144652380D02*
X177376190Y-143652380D01*
X177471428Y-143795238D01*
X177566666Y-143890476D01*
X177661904Y-143938095D01*
X176233333Y-143985714D02*
X176233333Y-144652380D01*
X176471428Y-143604761D02*
X176709523Y-144319047D01*
X176090476Y-144319047D01*
%TO.C,C13*%
X178142857Y-146857142D02*
X178190476Y-146904761D01*
X178333333Y-146952380D01*
X178428571Y-146952380D01*
X178571428Y-146904761D01*
X178666666Y-146809523D01*
X178714285Y-146714285D01*
X178761904Y-146523809D01*
X178761904Y-146380952D01*
X178714285Y-146190476D01*
X178666666Y-146095238D01*
X178571428Y-146000000D01*
X178428571Y-145952380D01*
X178333333Y-145952380D01*
X178190476Y-146000000D01*
X178142857Y-146047619D01*
X177190476Y-146952380D02*
X177761904Y-146952380D01*
X177476190Y-146952380D02*
X177476190Y-145952380D01*
X177571428Y-146095238D01*
X177666666Y-146190476D01*
X177761904Y-146238095D01*
X176857142Y-145952380D02*
X176238095Y-145952380D01*
X176571428Y-146333333D01*
X176428571Y-146333333D01*
X176333333Y-146380952D01*
X176285714Y-146428571D01*
X176238095Y-146523809D01*
X176238095Y-146761904D01*
X176285714Y-146857142D01*
X176333333Y-146904761D01*
X176428571Y-146952380D01*
X176714285Y-146952380D01*
X176809523Y-146904761D01*
X176857142Y-146857142D01*
%TO.C,C12*%
X168142857Y-146757142D02*
X168190476Y-146804761D01*
X168333333Y-146852380D01*
X168428571Y-146852380D01*
X168571428Y-146804761D01*
X168666666Y-146709523D01*
X168714285Y-146614285D01*
X168761904Y-146423809D01*
X168761904Y-146280952D01*
X168714285Y-146090476D01*
X168666666Y-145995238D01*
X168571428Y-145900000D01*
X168428571Y-145852380D01*
X168333333Y-145852380D01*
X168190476Y-145900000D01*
X168142857Y-145947619D01*
X167190476Y-146852380D02*
X167761904Y-146852380D01*
X167476190Y-146852380D02*
X167476190Y-145852380D01*
X167571428Y-145995238D01*
X167666666Y-146090476D01*
X167761904Y-146138095D01*
X166809523Y-145947619D02*
X166761904Y-145900000D01*
X166666666Y-145852380D01*
X166428571Y-145852380D01*
X166333333Y-145900000D01*
X166285714Y-145947619D01*
X166238095Y-146042857D01*
X166238095Y-146138095D01*
X166285714Y-146280952D01*
X166857142Y-146852380D01*
X166238095Y-146852380D01*
%TO.C,C10*%
X153842857Y-143757142D02*
X153890476Y-143804761D01*
X154033333Y-143852380D01*
X154128571Y-143852380D01*
X154271428Y-143804761D01*
X154366666Y-143709523D01*
X154414285Y-143614285D01*
X154461904Y-143423809D01*
X154461904Y-143280952D01*
X154414285Y-143090476D01*
X154366666Y-142995238D01*
X154271428Y-142900000D01*
X154128571Y-142852380D01*
X154033333Y-142852380D01*
X153890476Y-142900000D01*
X153842857Y-142947619D01*
X152890476Y-143852380D02*
X153461904Y-143852380D01*
X153176190Y-143852380D02*
X153176190Y-142852380D01*
X153271428Y-142995238D01*
X153366666Y-143090476D01*
X153461904Y-143138095D01*
X152271428Y-142852380D02*
X152176190Y-142852380D01*
X152080952Y-142900000D01*
X152033333Y-142947619D01*
X151985714Y-143042857D01*
X151938095Y-143233333D01*
X151938095Y-143471428D01*
X151985714Y-143661904D01*
X152033333Y-143757142D01*
X152080952Y-143804761D01*
X152176190Y-143852380D01*
X152271428Y-143852380D01*
X152366666Y-143804761D01*
X152414285Y-143757142D01*
X152461904Y-143661904D01*
X152509523Y-143471428D01*
X152509523Y-143233333D01*
X152461904Y-143042857D01*
X152414285Y-142947619D01*
X152366666Y-142900000D01*
X152271428Y-142852380D01*
%TO.C,C7*%
X153166666Y-145857142D02*
X153214285Y-145904761D01*
X153357142Y-145952380D01*
X153452380Y-145952380D01*
X153595238Y-145904761D01*
X153690476Y-145809523D01*
X153738095Y-145714285D01*
X153785714Y-145523809D01*
X153785714Y-145380952D01*
X153738095Y-145190476D01*
X153690476Y-145095238D01*
X153595238Y-145000000D01*
X153452380Y-144952380D01*
X153357142Y-144952380D01*
X153214285Y-145000000D01*
X153166666Y-145047619D01*
X152833333Y-144952380D02*
X152166666Y-144952380D01*
X152595238Y-145952380D01*
%TO.C,C6*%
X143166666Y-145857142D02*
X143214285Y-145904761D01*
X143357142Y-145952380D01*
X143452380Y-145952380D01*
X143595238Y-145904761D01*
X143690476Y-145809523D01*
X143738095Y-145714285D01*
X143785714Y-145523809D01*
X143785714Y-145380952D01*
X143738095Y-145190476D01*
X143690476Y-145095238D01*
X143595238Y-145000000D01*
X143452380Y-144952380D01*
X143357142Y-144952380D01*
X143214285Y-145000000D01*
X143166666Y-145047619D01*
X142309523Y-144952380D02*
X142500000Y-144952380D01*
X142595238Y-145000000D01*
X142642857Y-145047619D01*
X142738095Y-145190476D01*
X142785714Y-145380952D01*
X142785714Y-145761904D01*
X142738095Y-145857142D01*
X142690476Y-145904761D01*
X142595238Y-145952380D01*
X142404761Y-145952380D01*
X142309523Y-145904761D01*
X142261904Y-145857142D01*
X142214285Y-145761904D01*
X142214285Y-145523809D01*
X142261904Y-145428571D01*
X142309523Y-145380952D01*
X142404761Y-145333333D01*
X142595238Y-145333333D01*
X142690476Y-145380952D01*
X142738095Y-145428571D01*
X142785714Y-145523809D01*
%TO.C,C3*%
X131557142Y-110433333D02*
X131604761Y-110385714D01*
X131652380Y-110242857D01*
X131652380Y-110147619D01*
X131604761Y-110004761D01*
X131509523Y-109909523D01*
X131414285Y-109861904D01*
X131223809Y-109814285D01*
X131080952Y-109814285D01*
X130890476Y-109861904D01*
X130795238Y-109909523D01*
X130700000Y-110004761D01*
X130652380Y-110147619D01*
X130652380Y-110242857D01*
X130700000Y-110385714D01*
X130747619Y-110433333D01*
X130652380Y-110766666D02*
X130652380Y-111385714D01*
X131033333Y-111052380D01*
X131033333Y-111195238D01*
X131080952Y-111290476D01*
X131128571Y-111338095D01*
X131223809Y-111385714D01*
X131461904Y-111385714D01*
X131557142Y-111338095D01*
X131604761Y-111290476D01*
X131652380Y-111195238D01*
X131652380Y-110909523D01*
X131604761Y-110814285D01*
X131557142Y-110766666D01*
%TO.C,C2*%
X134957142Y-110433333D02*
X135004761Y-110385714D01*
X135052380Y-110242857D01*
X135052380Y-110147619D01*
X135004761Y-110004761D01*
X134909523Y-109909523D01*
X134814285Y-109861904D01*
X134623809Y-109814285D01*
X134480952Y-109814285D01*
X134290476Y-109861904D01*
X134195238Y-109909523D01*
X134100000Y-110004761D01*
X134052380Y-110147619D01*
X134052380Y-110242857D01*
X134100000Y-110385714D01*
X134147619Y-110433333D01*
X134147619Y-110814285D02*
X134100000Y-110861904D01*
X134052380Y-110957142D01*
X134052380Y-111195238D01*
X134100000Y-111290476D01*
X134147619Y-111338095D01*
X134242857Y-111385714D01*
X134338095Y-111385714D01*
X134480952Y-111338095D01*
X135052380Y-110766666D01*
X135052380Y-111385714D01*
%TD*%
M02*
