%TF.GenerationSoftware,KiCad,Pcbnew,(5.1.10-1-10_14)*%
%TF.CreationDate,2022-04-01T14:18:11+03:00*%
%TF.ProjectId,Convertor_15v_to_20v:500v,436f6e76-6572-4746-9f72-5f3135765f74,rev?*%
%TF.SameCoordinates,Original*%
%TF.FileFunction,Copper,L1,Top*%
%TF.FilePolarity,Positive*%
%FSLAX46Y46*%
G04 Gerber Fmt 4.6, Leading zero omitted, Abs format (unit mm)*
G04 Created by KiCad (PCBNEW (5.1.10-1-10_14)) date 2022-04-01 14:18:11*
%MOMM*%
%LPD*%
G01*
G04 APERTURE LIST*
%TA.AperFunction,ComponentPad*%
%ADD10C,2.500000*%
%TD*%
%TA.AperFunction,ComponentPad*%
%ADD11R,2.500000X2.500000*%
%TD*%
%TA.AperFunction,ComponentPad*%
%ADD12O,1.600000X1.600000*%
%TD*%
%TA.AperFunction,ComponentPad*%
%ADD13R,1.600000X1.600000*%
%TD*%
%TA.AperFunction,ComponentPad*%
%ADD14C,1.524000*%
%TD*%
%TA.AperFunction,ComponentPad*%
%ADD15R,1.524000X1.524000*%
%TD*%
%TA.AperFunction,ComponentPad*%
%ADD16C,1.600000*%
%TD*%
%TA.AperFunction,ComponentPad*%
%ADD17C,3.000000*%
%TD*%
%TA.AperFunction,ComponentPad*%
%ADD18C,1.800000*%
%TD*%
%TA.AperFunction,ComponentPad*%
%ADD19R,1.800000X1.800000*%
%TD*%
%TA.AperFunction,ComponentPad*%
%ADD20C,2.600000*%
%TD*%
%TA.AperFunction,ComponentPad*%
%ADD21R,2.600000X2.600000*%
%TD*%
%TA.AperFunction,ComponentPad*%
%ADD22O,2.800000X2.800000*%
%TD*%
%TA.AperFunction,ComponentPad*%
%ADD23R,2.800000X2.800000*%
%TD*%
%TA.AperFunction,ComponentPad*%
%ADD24O,2.600000X2.600000*%
%TD*%
%TA.AperFunction,ComponentPad*%
%ADD25C,2.400000*%
%TD*%
%TA.AperFunction,ComponentPad*%
%ADD26C,2.000000*%
%TD*%
%TA.AperFunction,ComponentPad*%
%ADD27R,2.400000X2.400000*%
%TD*%
%TA.AperFunction,ComponentPad*%
%ADD28R,2.000000X2.000000*%
%TD*%
%TA.AperFunction,ViaPad*%
%ADD29C,0.800000*%
%TD*%
%TA.AperFunction,Conductor*%
%ADD30C,0.800000*%
%TD*%
%TA.AperFunction,Conductor*%
%ADD31C,1.000000*%
%TD*%
%TA.AperFunction,Conductor*%
%ADD32C,0.600000*%
%TD*%
%TA.AperFunction,Conductor*%
%ADD33C,1.200000*%
%TD*%
G04 APERTURE END LIST*
D10*
%TO.P,U10,4*%
%TO.N,common_anode*%
X198620000Y-76000000D03*
%TO.P,U10,3*%
%TO.N,Net-(R18-Pad2)*%
X194810000Y-76000000D03*
%TO.P,U10,2*%
%TO.N,GND2*%
X187190000Y-76000000D03*
D11*
%TO.P,U10,1*%
%TO.N,GND*%
X183380000Y-76000000D03*
%TD*%
D10*
%TO.P,U9,4*%
%TO.N,common_anode*%
X198620000Y-82800000D03*
%TO.P,U9,3*%
%TO.N,Net-(R16-Pad1)*%
X194810000Y-82800000D03*
%TO.P,U9,2*%
%TO.N,HV_output*%
X187190000Y-82800000D03*
D11*
%TO.P,U9,1*%
%TO.N,GND2*%
X183380000Y-82800000D03*
%TD*%
D12*
%TO.P,U8,6*%
%TO.N,dac_input*%
X128000000Y-89620000D03*
%TO.P,U8,3*%
%TO.N,N/C*%
X122920000Y-82000000D03*
%TO.P,U8,5*%
X125460000Y-89620000D03*
%TO.P,U8,2*%
%TO.N,Net-(R15-Pad2)*%
X125460000Y-82000000D03*
%TO.P,U8,4*%
%TO.N,dac_in*%
X122920000Y-89620000D03*
D13*
%TO.P,U8,1*%
%TO.N,common_anode*%
X128000000Y-82000000D03*
%TD*%
D10*
%TO.P,U7,4*%
%TO.N,common_anode*%
X198620000Y-96800000D03*
%TO.P,U7,3*%
%TO.N,Net-(R14-Pad2)*%
X194810000Y-96800000D03*
%TO.P,U7,2*%
%TO.N,GND*%
X187190000Y-96800000D03*
D11*
%TO.P,U7,1*%
%TO.N,Net-(C11-Pad1)*%
X183380000Y-96800000D03*
%TD*%
D10*
%TO.P,U6,4*%
%TO.N,common_anode*%
X198620000Y-89800000D03*
%TO.P,U6,3*%
%TO.N,Net-(R13-Pad1)*%
X194810000Y-89800000D03*
%TO.P,U6,2*%
%TO.N,Net-(C11-Pad1)*%
X187190000Y-89800000D03*
D11*
%TO.P,U6,1*%
%TO.N,HV_output*%
X183380000Y-89800000D03*
%TD*%
D14*
%TO.P,U5,14*%
%TO.N,N/C*%
X162850000Y-141190000D03*
%TO.P,U5,8*%
X178090000Y-141190000D03*
%TO.P,U5,7*%
%TO.N,Net-(C14-Pad1)*%
X178090000Y-148810000D03*
%TO.P,U5,6*%
%TO.N,Net-(C13-Pad1)*%
X175550000Y-148810000D03*
%TO.P,U5,5*%
%TO.N,GND2*%
X173010000Y-148810000D03*
%TO.P,U5,2*%
%TO.N,GND*%
X165390000Y-148810000D03*
D15*
%TO.P,U5,1*%
%TO.N,+15V*%
X162850000Y-148810000D03*
%TD*%
D16*
%TO.P,U4,8*%
%TO.N,GND2*%
X178800000Y-137620000D03*
%TO.P,U4,4*%
%TO.N,GND*%
X161020000Y-130000000D03*
%TO.P,U4,7*%
%TO.N,feedback*%
X176260000Y-137620000D03*
%TO.P,U4,3*%
%TO.N,Net-(U1-Pad3)*%
X163560000Y-130000000D03*
%TO.P,U4,6*%
%TO.N,Net-(C10-Pad1)*%
X163560000Y-137620000D03*
%TO.P,U4,2*%
%TO.N,Net-(C14-Pad1)*%
X176260000Y-130000000D03*
%TO.P,U4,5*%
%TO.N,Net-(C7-Pad1)*%
X161020000Y-137620000D03*
D13*
%TO.P,U4,1*%
%TO.N,Net-(C13-Pad1)*%
X178800000Y-130000000D03*
%TD*%
D14*
%TO.P,U3,14*%
%TO.N,N/C*%
X138650000Y-140190000D03*
%TO.P,U3,8*%
X153890000Y-140190000D03*
%TO.P,U3,7*%
%TO.N,Net-(C10-Pad1)*%
X153890000Y-147810000D03*
%TO.P,U3,6*%
%TO.N,Net-(C7-Pad1)*%
X151350000Y-147810000D03*
%TO.P,U3,5*%
%TO.N,GND*%
X148810000Y-147810000D03*
%TO.P,U3,2*%
X141190000Y-147810000D03*
D15*
%TO.P,U3,1*%
%TO.N,+15V*%
X138650000Y-147810000D03*
%TD*%
D12*
%TO.P,U2,8*%
%TO.N,Net-(C2-Pad1)*%
X136620000Y-117000000D03*
%TO.P,U2,4*%
%TO.N,Net-(C3-Pad1)*%
X129000000Y-124620000D03*
%TO.P,U2,7*%
%TO.N,+15V*%
X136620000Y-119540000D03*
%TO.P,U2,3*%
%TO.N,Net-(Q1-Pad3)*%
X129000000Y-122080000D03*
%TO.P,U2,6*%
%TO.N,Net-(R6-Pad2)*%
X136620000Y-122080000D03*
%TO.P,U2,2*%
%TO.N,Net-(R1-Pad2)*%
X129000000Y-119540000D03*
%TO.P,U2,5*%
%TO.N,GND*%
X136620000Y-124620000D03*
D13*
%TO.P,U2,1*%
%TO.N,N/C*%
X129000000Y-117000000D03*
%TD*%
D12*
%TO.P,U1,8*%
%TO.N,N/C*%
X144000000Y-128380000D03*
%TO.P,U1,4*%
%TO.N,Net-(C10-Pad1)*%
X151620000Y-136000000D03*
%TO.P,U1,7*%
%TO.N,Net-(C7-Pad1)*%
X146540000Y-128380000D03*
%TO.P,U1,3*%
%TO.N,Net-(U1-Pad3)*%
X149080000Y-136000000D03*
%TO.P,U1,6*%
%TO.N,Net-(D1-Pad2)*%
X149080000Y-128380000D03*
%TO.P,U1,2*%
%TO.N,dac_in*%
X146540000Y-136000000D03*
%TO.P,U1,5*%
%TO.N,N/C*%
X151620000Y-128380000D03*
D13*
%TO.P,U1,1*%
X144000000Y-136000000D03*
%TD*%
D12*
%TO.P,R12,2*%
%TO.N,Net-(C11-Pad1)*%
X190000000Y-125260000D03*
D16*
%TO.P,R12,1*%
%TO.N,GND2*%
X190000000Y-140500000D03*
%TD*%
D12*
%TO.P,R7,2*%
%TO.N,Net-(Q1-Pad3)*%
X150410000Y-115250000D03*
D16*
%TO.P,R7,1*%
%TO.N,GND*%
X140250000Y-115250000D03*
%TD*%
D12*
%TO.P,R5,2*%
%TO.N,Net-(C5-Pad2)*%
X157840000Y-89000000D03*
D16*
%TO.P,R5,1*%
%TO.N,Net-(C4-Pad1)*%
X168000000Y-89000000D03*
%TD*%
D17*
%TO.P,L1,2*%
%TO.N,Net-(C4-Pad1)*%
X129000000Y-103110000D03*
%TO.P,L1,1*%
%TO.N,+15V*%
X129000000Y-96000000D03*
%TD*%
D18*
%TO.P,J2,4*%
%TO.N,set_negativ*%
X162380000Y-76000000D03*
%TO.P,J2,2*%
%TO.N,dac_relay*%
X167460000Y-76000000D03*
D19*
%TO.P,J2,1*%
%TO.N,common_anode*%
X170000000Y-76000000D03*
D18*
%TO.P,J2,3*%
%TO.N,set_positive*%
X164920000Y-76000000D03*
%TD*%
D20*
%TO.P,J1,4*%
%TO.N,dac_input*%
X137760000Y-77000000D03*
%TO.P,J1,3*%
%TO.N,+15V*%
X142840000Y-77000000D03*
%TO.P,J1,2*%
%TO.N,GND*%
X147920000Y-77000000D03*
D21*
%TO.P,J1,1*%
%TO.N,HV_output*%
X153000000Y-77000000D03*
%TD*%
D19*
%TO.P,T1,1*%
%TO.N,Net-(C4-Pad1)*%
X163685000Y-103420000D03*
D18*
%TO.P,T1,2*%
%TO.N,N/C*%
X163685000Y-108500000D03*
%TO.P,T1,3*%
X163685000Y-113580000D03*
%TO.P,T1,4*%
X163685000Y-118660000D03*
%TO.P,T1,5*%
%TO.N,Net-(D3-Pad2)*%
X163685000Y-123740000D03*
%TO.P,T1,6*%
%TO.N,GND2*%
X176385000Y-123740000D03*
%TO.P,T1,7*%
%TO.N,N/C*%
X176385000Y-118660000D03*
%TO.P,T1,8*%
X176385000Y-113580000D03*
%TO.P,T1,9*%
X176385000Y-108500000D03*
%TO.P,T1,10*%
%TO.N,Net-(D4-Pad2)*%
X176385000Y-103420000D03*
%TD*%
D22*
%TO.P,D4,2*%
%TO.N,Net-(D4-Pad2)*%
X182500000Y-103340000D03*
D23*
%TO.P,D4,1*%
%TO.N,Net-(C8-Pad1)*%
X182500000Y-113500000D03*
%TD*%
D22*
%TO.P,D3,2*%
%TO.N,Net-(D3-Pad2)*%
X157000000Y-111160000D03*
D23*
%TO.P,D3,1*%
%TO.N,Net-(C5-Pad2)*%
X157000000Y-101000000D03*
%TD*%
D24*
%TO.P,D2,2*%
%TO.N,Net-(C4-Pad1)*%
X171240000Y-94000000D03*
D21*
%TO.P,D2,1*%
%TO.N,Net-(C5-Pad2)*%
X156000000Y-94000000D03*
%TD*%
D22*
%TO.P,D1,2*%
%TO.N,Net-(D1-Pad2)*%
X138160000Y-131000000D03*
D23*
%TO.P,D1,1*%
%TO.N,Net-(D1-Pad1)*%
X128000000Y-131000000D03*
%TD*%
D25*
%TO.P,C11,2*%
%TO.N,GND2*%
X201000000Y-138500000D03*
%TO.P,C11,1*%
%TO.N,Net-(C11-Pad1)*%
X201000000Y-111000000D03*
%TD*%
D16*
%TO.P,C9,2*%
%TO.N,GND2*%
X182500000Y-124000000D03*
%TO.P,C9,1*%
%TO.N,Net-(C8-Pad1)*%
X182500000Y-119000000D03*
%TD*%
D26*
%TO.P,C8,2*%
%TO.N,Net-(C8-Pad2)*%
X188500000Y-110500000D03*
%TO.P,C8,1*%
%TO.N,Net-(C8-Pad1)*%
X188500000Y-120500000D03*
%TD*%
D16*
%TO.P,C5,2*%
%TO.N,Net-(C5-Pad2)*%
X158000000Y-85000000D03*
%TO.P,C5,1*%
%TO.N,Net-(C4-Pad1)*%
X163000000Y-85000000D03*
%TD*%
D25*
%TO.P,C4,2*%
%TO.N,GND*%
X149500000Y-104000000D03*
D27*
%TO.P,C4,1*%
%TO.N,Net-(C4-Pad1)*%
X142000000Y-104000000D03*
%TD*%
D26*
%TO.P,C1,2*%
%TO.N,GND*%
X146000000Y-89000000D03*
D28*
%TO.P,C1,1*%
%TO.N,+15V*%
X141000000Y-89000000D03*
%TD*%
D29*
%TO.N,set_negativ*%
X193000000Y-87800000D03*
X193000000Y-95200000D03*
%TD*%
D30*
%TO.N,GND*%
X183380000Y-76000000D02*
X180600000Y-76000000D01*
X187190000Y-96800000D02*
X187190000Y-94390000D01*
X187190000Y-94390000D02*
X186200000Y-93400000D01*
X186200000Y-93400000D02*
X180800000Y-93400000D01*
X180800000Y-93400000D02*
X178300000Y-90900000D01*
X180600000Y-76000000D02*
X178300000Y-78300000D01*
X178000000Y-81000000D02*
X178300000Y-80700000D01*
X147920000Y-79120000D02*
X149800000Y-81000000D01*
X149800000Y-81000000D02*
X178000000Y-81000000D01*
X147920000Y-77000000D02*
X147920000Y-79120000D01*
X178300000Y-80700000D02*
X178300000Y-78300000D01*
X178300000Y-90900000D02*
X178300000Y-80700000D01*
D31*
%TO.N,+15V*%
X136620000Y-119540000D02*
X134940000Y-119540000D01*
X134940000Y-119540000D02*
X131800000Y-116400000D01*
X131800000Y-116400000D02*
X131800000Y-112000000D01*
X126799999Y-98200001D02*
X129000000Y-96000000D01*
X126799999Y-106999999D02*
X126799999Y-98200001D01*
X131800000Y-112000000D02*
X126799999Y-106999999D01*
D32*
%TO.N,Net-(C7-Pad1)*%
X154495761Y-149072001D02*
X159200000Y-144367762D01*
X152612001Y-149072001D02*
X154495761Y-149072001D01*
X151350000Y-147810000D02*
X152612001Y-149072001D01*
X159200000Y-139440000D02*
X161020000Y-137620000D01*
X159200000Y-139800000D02*
X159200000Y-139440000D01*
X159200000Y-144367762D02*
X159200000Y-139800000D01*
X148760000Y-130600000D02*
X146540000Y-128380000D01*
X154400000Y-130600000D02*
X148760000Y-130600000D01*
X159200000Y-135400000D02*
X154400000Y-130600000D01*
X159200000Y-139440000D02*
X159200000Y-135400000D01*
D33*
%TO.N,GND2*%
X182240000Y-123740000D02*
X182500000Y-124000000D01*
X176385000Y-123740000D02*
X182240000Y-123740000D01*
X182500000Y-133000000D02*
X190000000Y-140500000D01*
X182500000Y-124000000D02*
X182500000Y-133000000D01*
X182500000Y-133920000D02*
X182500000Y-133000000D01*
X178800000Y-137620000D02*
X182500000Y-133920000D01*
D30*
X183380000Y-82800000D02*
X183380000Y-84780000D01*
X183380000Y-84780000D02*
X185000000Y-86400000D01*
X185000000Y-86400000D02*
X190000000Y-86400000D01*
X190000000Y-86400000D02*
X190000000Y-106200000D01*
X190000000Y-106200000D02*
X191800000Y-108000000D01*
X191800000Y-108000000D02*
X191800000Y-112400000D01*
X191800000Y-112400000D02*
X185400000Y-118800000D01*
X185400000Y-121100000D02*
X182500000Y-124000000D01*
X185400000Y-118800000D02*
X185400000Y-121100000D01*
D32*
%TO.N,Net-(C13-Pad1)*%
X174788001Y-148048001D02*
X174788001Y-134011999D01*
X174788001Y-134011999D02*
X178800000Y-130000000D01*
X175550000Y-148810000D02*
X174788001Y-148048001D01*
%TO.N,set_negativ*%
X171799999Y-77400001D02*
X176299990Y-72900010D01*
X163780001Y-77400001D02*
X171799999Y-77400001D01*
X162380000Y-76000000D02*
X163780001Y-77400001D01*
X176299990Y-72900010D02*
X190900010Y-72900010D01*
X190900010Y-72900010D02*
X193000000Y-75000000D01*
X193000000Y-75000000D02*
X193000000Y-87800000D01*
X193000000Y-87800000D02*
X193000000Y-95200000D01*
D30*
%TO.N,common_anode*%
X128000000Y-76000000D02*
X128000000Y-82000000D01*
X132000000Y-72000000D02*
X128000000Y-76000000D01*
X198620000Y-72645010D02*
X197974990Y-72000000D01*
X198620000Y-76000000D02*
X198620000Y-72645010D01*
X170000000Y-72600000D02*
X170600000Y-72000000D01*
X170000000Y-76000000D02*
X170000000Y-72600000D01*
X170600000Y-72000000D02*
X132000000Y-72000000D01*
X197974990Y-72000000D02*
X170600000Y-72000000D01*
D32*
%TO.N,Net-(Q1-Pad3)*%
X141400000Y-126200000D02*
X150410000Y-117190000D01*
X150410000Y-117190000D02*
X150410000Y-115250000D01*
X129000000Y-122080000D02*
X132840001Y-125920001D01*
X132920001Y-125920001D02*
X133200000Y-126200000D01*
X132840001Y-125920001D02*
X132920001Y-125920001D01*
X133200000Y-126200000D02*
X141400000Y-126200000D01*
D30*
%TO.N,dac_in*%
X122920000Y-131720000D02*
X122920000Y-89620000D01*
X145139999Y-134599999D02*
X125799999Y-134599999D01*
X125799999Y-134599999D02*
X122920000Y-131720000D01*
X146540000Y-136000000D02*
X145139999Y-134599999D01*
%TD*%
M02*
