%TF.GenerationSoftware,KiCad,Pcbnew,(5.1.10-1-10_14)*%
%TF.CreationDate,2022-04-01T14:18:11+03:00*%
%TF.ProjectId,Convertor_15v_to_20v:500v,436f6e76-6572-4746-9f72-5f3135765f74,rev?*%
%TF.SameCoordinates,Original*%
%TF.FileFunction,Soldermask,Top*%
%TF.FilePolarity,Negative*%
%FSLAX46Y46*%
G04 Gerber Fmt 4.6, Leading zero omitted, Abs format (unit mm)*
G04 Created by KiCad (PCBNEW (5.1.10-1-10_14)) date 2022-04-01 14:18:11*
%MOMM*%
%LPD*%
G01*
G04 APERTURE LIST*
%ADD10C,3.200000*%
%ADD11C,2.500000*%
%ADD12R,2.500000X2.500000*%
%ADD13O,1.600000X1.600000*%
%ADD14R,1.600000X1.600000*%
%ADD15C,1.524000*%
%ADD16R,1.524000X1.524000*%
%ADD17C,1.600000*%
%ADD18C,3.000000*%
%ADD19C,1.800000*%
%ADD20R,1.800000X1.800000*%
%ADD21C,2.600000*%
%ADD22R,2.600000X2.600000*%
%ADD23O,2.800000X2.800000*%
%ADD24R,2.800000X2.800000*%
%ADD25O,2.600000X2.600000*%
%ADD26C,2.400000*%
%ADD27C,2.000000*%
%ADD28R,2.400000X2.400000*%
%ADD29R,2.000000X2.000000*%
G04 APERTURE END LIST*
D10*
%TO.C,H4*%
X206000000Y-147000000D03*
%TD*%
%TO.C,H3*%
X206000000Y-75000000D03*
%TD*%
%TO.C,H2*%
X124000000Y-147000000D03*
%TD*%
%TO.C,H1*%
X124000000Y-75000000D03*
%TD*%
D11*
%TO.C,U10*%
X198620000Y-76000000D03*
X194810000Y-76000000D03*
X187190000Y-76000000D03*
D12*
X183380000Y-76000000D03*
%TD*%
D11*
%TO.C,U9*%
X198620000Y-82800000D03*
X194810000Y-82800000D03*
X187190000Y-82800000D03*
D12*
X183380000Y-82800000D03*
%TD*%
D13*
%TO.C,U8*%
X128000000Y-89620000D03*
X122920000Y-82000000D03*
X125460000Y-89620000D03*
X125460000Y-82000000D03*
X122920000Y-89620000D03*
D14*
X128000000Y-82000000D03*
%TD*%
D11*
%TO.C,U7*%
X198620000Y-96800000D03*
X194810000Y-96800000D03*
X187190000Y-96800000D03*
D12*
X183380000Y-96800000D03*
%TD*%
D11*
%TO.C,U6*%
X198620000Y-89800000D03*
X194810000Y-89800000D03*
X187190000Y-89800000D03*
D12*
X183380000Y-89800000D03*
%TD*%
D15*
%TO.C,U5*%
X162850000Y-141190000D03*
X178090000Y-141190000D03*
X178090000Y-148810000D03*
X175550000Y-148810000D03*
X173010000Y-148810000D03*
X165390000Y-148810000D03*
D16*
X162850000Y-148810000D03*
%TD*%
D17*
%TO.C,U4*%
X178800000Y-137620000D03*
X161020000Y-130000000D03*
X176260000Y-137620000D03*
X163560000Y-130000000D03*
X163560000Y-137620000D03*
X176260000Y-130000000D03*
X161020000Y-137620000D03*
D14*
X178800000Y-130000000D03*
%TD*%
D15*
%TO.C,U3*%
X138650000Y-140190000D03*
X153890000Y-140190000D03*
X153890000Y-147810000D03*
X151350000Y-147810000D03*
X148810000Y-147810000D03*
X141190000Y-147810000D03*
D16*
X138650000Y-147810000D03*
%TD*%
D13*
%TO.C,U2*%
X136620000Y-117000000D03*
X129000000Y-124620000D03*
X136620000Y-119540000D03*
X129000000Y-122080000D03*
X136620000Y-122080000D03*
X129000000Y-119540000D03*
X136620000Y-124620000D03*
D14*
X129000000Y-117000000D03*
%TD*%
D13*
%TO.C,U1*%
X144000000Y-128380000D03*
X151620000Y-136000000D03*
X146540000Y-128380000D03*
X149080000Y-136000000D03*
X149080000Y-128380000D03*
X146540000Y-136000000D03*
X151620000Y-128380000D03*
D14*
X144000000Y-136000000D03*
%TD*%
D13*
%TO.C,R12*%
X190000000Y-125260000D03*
D17*
X190000000Y-140500000D03*
%TD*%
D13*
%TO.C,R7*%
X150410000Y-115250000D03*
D17*
X140250000Y-115250000D03*
%TD*%
D13*
%TO.C,R5*%
X157840000Y-89000000D03*
D17*
X168000000Y-89000000D03*
%TD*%
D18*
%TO.C,L1*%
X129000000Y-103110000D03*
X129000000Y-96000000D03*
%TD*%
D19*
%TO.C,J2*%
X162380000Y-76000000D03*
X167460000Y-76000000D03*
D20*
X170000000Y-76000000D03*
D19*
X164920000Y-76000000D03*
%TD*%
D21*
%TO.C,J1*%
X137760000Y-77000000D03*
X142840000Y-77000000D03*
X147920000Y-77000000D03*
D22*
X153000000Y-77000000D03*
%TD*%
D20*
%TO.C,T1*%
X163685000Y-103420000D03*
D19*
X163685000Y-108500000D03*
X163685000Y-113580000D03*
X163685000Y-118660000D03*
X163685000Y-123740000D03*
X176385000Y-123740000D03*
X176385000Y-118660000D03*
X176385000Y-113580000D03*
X176385000Y-108500000D03*
X176385000Y-103420000D03*
%TD*%
D23*
%TO.C,D4*%
X182500000Y-103340000D03*
D24*
X182500000Y-113500000D03*
%TD*%
D23*
%TO.C,D3*%
X157000000Y-111160000D03*
D24*
X157000000Y-101000000D03*
%TD*%
D25*
%TO.C,D2*%
X171240000Y-94000000D03*
D22*
X156000000Y-94000000D03*
%TD*%
D23*
%TO.C,D1*%
X138160000Y-131000000D03*
D24*
X128000000Y-131000000D03*
%TD*%
D26*
%TO.C,C11*%
X201000000Y-138500000D03*
X201000000Y-111000000D03*
%TD*%
D17*
%TO.C,C9*%
X182500000Y-124000000D03*
X182500000Y-119000000D03*
%TD*%
D27*
%TO.C,C8*%
X188500000Y-110500000D03*
X188500000Y-120500000D03*
%TD*%
D17*
%TO.C,C5*%
X158000000Y-85000000D03*
X163000000Y-85000000D03*
%TD*%
D26*
%TO.C,C4*%
X149500000Y-104000000D03*
D28*
X142000000Y-104000000D03*
%TD*%
D27*
%TO.C,C1*%
X146000000Y-89000000D03*
D29*
X141000000Y-89000000D03*
%TD*%
M02*
