%TF.GenerationSoftware,KiCad,Pcbnew,(5.1.10-1-10_14)*%
%TF.CreationDate,2022-04-01T14:18:11+03:00*%
%TF.ProjectId,Convertor_15v_to_20v:500v,436f6e76-6572-4746-9f72-5f3135765f74,rev?*%
%TF.SameCoordinates,Original*%
%TF.FileFunction,Copper,L2,Bot*%
%TF.FilePolarity,Positive*%
%FSLAX46Y46*%
G04 Gerber Fmt 4.6, Leading zero omitted, Abs format (unit mm)*
G04 Created by KiCad (PCBNEW (5.1.10-1-10_14)) date 2022-04-01 14:18:11*
%MOMM*%
%LPD*%
G01*
G04 APERTURE LIST*
%TA.AperFunction,ComponentPad*%
%ADD10C,2.500000*%
%TD*%
%TA.AperFunction,ComponentPad*%
%ADD11R,2.500000X2.500000*%
%TD*%
%TA.AperFunction,ComponentPad*%
%ADD12O,1.600000X1.600000*%
%TD*%
%TA.AperFunction,ComponentPad*%
%ADD13R,1.600000X1.600000*%
%TD*%
%TA.AperFunction,ComponentPad*%
%ADD14C,1.524000*%
%TD*%
%TA.AperFunction,ComponentPad*%
%ADD15R,1.524000X1.524000*%
%TD*%
%TA.AperFunction,ComponentPad*%
%ADD16C,1.600000*%
%TD*%
%TA.AperFunction,SMDPad,CuDef*%
%ADD17R,6.400000X5.800000*%
%TD*%
%TA.AperFunction,SMDPad,CuDef*%
%ADD18R,2.200000X1.200000*%
%TD*%
%TA.AperFunction,ComponentPad*%
%ADD19C,3.000000*%
%TD*%
%TA.AperFunction,ComponentPad*%
%ADD20C,1.800000*%
%TD*%
%TA.AperFunction,ComponentPad*%
%ADD21R,1.800000X1.800000*%
%TD*%
%TA.AperFunction,ComponentPad*%
%ADD22C,2.600000*%
%TD*%
%TA.AperFunction,ComponentPad*%
%ADD23R,2.600000X2.600000*%
%TD*%
%TA.AperFunction,ComponentPad*%
%ADD24O,2.800000X2.800000*%
%TD*%
%TA.AperFunction,ComponentPad*%
%ADD25R,2.800000X2.800000*%
%TD*%
%TA.AperFunction,ComponentPad*%
%ADD26O,2.600000X2.600000*%
%TD*%
%TA.AperFunction,ComponentPad*%
%ADD27C,2.400000*%
%TD*%
%TA.AperFunction,ComponentPad*%
%ADD28C,2.000000*%
%TD*%
%TA.AperFunction,ComponentPad*%
%ADD29R,2.400000X2.400000*%
%TD*%
%TA.AperFunction,ComponentPad*%
%ADD30R,2.000000X2.000000*%
%TD*%
%TA.AperFunction,ViaPad*%
%ADD31C,0.800000*%
%TD*%
%TA.AperFunction,Conductor*%
%ADD32C,2.000000*%
%TD*%
%TA.AperFunction,Conductor*%
%ADD33C,0.800000*%
%TD*%
%TA.AperFunction,Conductor*%
%ADD34C,0.600000*%
%TD*%
%TA.AperFunction,Conductor*%
%ADD35C,1.400000*%
%TD*%
%TA.AperFunction,Conductor*%
%ADD36C,0.254000*%
%TD*%
%TA.AperFunction,Conductor*%
%ADD37C,0.100000*%
%TD*%
G04 APERTURE END LIST*
%TO.P,R10,2*%
%TO.N,feedback*%
%TA.AperFunction,SMDPad,CuDef*%
G36*
G01*
X177600000Y-135049999D02*
X177600000Y-135950001D01*
G75*
G02*
X177350001Y-136200000I-249999J0D01*
G01*
X176824999Y-136200000D01*
G75*
G02*
X176575000Y-135950001I0J249999D01*
G01*
X176575000Y-135049999D01*
G75*
G02*
X176824999Y-134800000I249999J0D01*
G01*
X177350001Y-134800000D01*
G75*
G02*
X177600000Y-135049999I0J-249999D01*
G01*
G37*
%TD.AperFunction*%
%TO.P,R10,1*%
%TO.N,GND2*%
%TA.AperFunction,SMDPad,CuDef*%
G36*
G01*
X179425000Y-135049999D02*
X179425000Y-135950001D01*
G75*
G02*
X179175001Y-136200000I-249999J0D01*
G01*
X178649999Y-136200000D01*
G75*
G02*
X178400000Y-135950001I0J249999D01*
G01*
X178400000Y-135049999D01*
G75*
G02*
X178649999Y-134800000I249999J0D01*
G01*
X179175001Y-134800000D01*
G75*
G02*
X179425000Y-135049999I0J-249999D01*
G01*
G37*
%TD.AperFunction*%
%TD*%
D10*
%TO.P,U10,4*%
%TO.N,common_anode*%
X198620000Y-76000000D03*
%TO.P,U10,3*%
%TO.N,Net-(R18-Pad2)*%
X194810000Y-76000000D03*
%TO.P,U10,2*%
%TO.N,GND2*%
X187190000Y-76000000D03*
D11*
%TO.P,U10,1*%
%TO.N,GND*%
X183380000Y-76000000D03*
%TD*%
D10*
%TO.P,U9,4*%
%TO.N,common_anode*%
X198620000Y-82800000D03*
%TO.P,U9,3*%
%TO.N,Net-(R16-Pad1)*%
X194810000Y-82800000D03*
%TO.P,U9,2*%
%TO.N,HV_output*%
X187190000Y-82800000D03*
D11*
%TO.P,U9,1*%
%TO.N,GND2*%
X183380000Y-82800000D03*
%TD*%
D12*
%TO.P,U8,6*%
%TO.N,dac_input*%
X128000000Y-89620000D03*
%TO.P,U8,3*%
%TO.N,N/C*%
X122920000Y-82000000D03*
%TO.P,U8,5*%
X125460000Y-89620000D03*
%TO.P,U8,2*%
%TO.N,Net-(R15-Pad2)*%
X125460000Y-82000000D03*
%TO.P,U8,4*%
%TO.N,dac_in*%
X122920000Y-89620000D03*
D13*
%TO.P,U8,1*%
%TO.N,common_anode*%
X128000000Y-82000000D03*
%TD*%
D10*
%TO.P,U7,4*%
%TO.N,common_anode*%
X198620000Y-96800000D03*
%TO.P,U7,3*%
%TO.N,Net-(R14-Pad2)*%
X194810000Y-96800000D03*
%TO.P,U7,2*%
%TO.N,GND*%
X187190000Y-96800000D03*
D11*
%TO.P,U7,1*%
%TO.N,Net-(C11-Pad1)*%
X183380000Y-96800000D03*
%TD*%
D10*
%TO.P,U6,4*%
%TO.N,common_anode*%
X198620000Y-89800000D03*
%TO.P,U6,3*%
%TO.N,Net-(R13-Pad1)*%
X194810000Y-89800000D03*
%TO.P,U6,2*%
%TO.N,Net-(C11-Pad1)*%
X187190000Y-89800000D03*
D11*
%TO.P,U6,1*%
%TO.N,HV_output*%
X183380000Y-89800000D03*
%TD*%
D14*
%TO.P,U5,14*%
%TO.N,N/C*%
X162850000Y-141190000D03*
%TO.P,U5,8*%
X178090000Y-141190000D03*
%TO.P,U5,7*%
%TO.N,Net-(C14-Pad1)*%
X178090000Y-148810000D03*
%TO.P,U5,6*%
%TO.N,Net-(C13-Pad1)*%
X175550000Y-148810000D03*
%TO.P,U5,5*%
%TO.N,GND2*%
X173010000Y-148810000D03*
%TO.P,U5,2*%
%TO.N,GND*%
X165390000Y-148810000D03*
D15*
%TO.P,U5,1*%
%TO.N,+15V*%
X162850000Y-148810000D03*
%TD*%
D16*
%TO.P,U4,8*%
%TO.N,GND2*%
X178800000Y-137620000D03*
%TO.P,U4,4*%
%TO.N,GND*%
X161020000Y-130000000D03*
%TO.P,U4,7*%
%TO.N,feedback*%
X176260000Y-137620000D03*
%TO.P,U4,3*%
%TO.N,Net-(U1-Pad3)*%
X163560000Y-130000000D03*
%TO.P,U4,6*%
%TO.N,Net-(C10-Pad1)*%
X163560000Y-137620000D03*
%TO.P,U4,2*%
%TO.N,Net-(C14-Pad1)*%
X176260000Y-130000000D03*
%TO.P,U4,5*%
%TO.N,Net-(C7-Pad1)*%
X161020000Y-137620000D03*
D13*
%TO.P,U4,1*%
%TO.N,Net-(C13-Pad1)*%
X178800000Y-130000000D03*
%TD*%
D14*
%TO.P,U3,14*%
%TO.N,N/C*%
X138650000Y-140190000D03*
%TO.P,U3,8*%
X153890000Y-140190000D03*
%TO.P,U3,7*%
%TO.N,Net-(C10-Pad1)*%
X153890000Y-147810000D03*
%TO.P,U3,6*%
%TO.N,Net-(C7-Pad1)*%
X151350000Y-147810000D03*
%TO.P,U3,5*%
%TO.N,GND*%
X148810000Y-147810000D03*
%TO.P,U3,2*%
X141190000Y-147810000D03*
D15*
%TO.P,U3,1*%
%TO.N,+15V*%
X138650000Y-147810000D03*
%TD*%
D12*
%TO.P,U2,8*%
%TO.N,Net-(C2-Pad1)*%
X136620000Y-117000000D03*
%TO.P,U2,4*%
%TO.N,Net-(C3-Pad1)*%
X129000000Y-124620000D03*
%TO.P,U2,7*%
%TO.N,+15V*%
X136620000Y-119540000D03*
%TO.P,U2,3*%
%TO.N,Net-(Q1-Pad3)*%
X129000000Y-122080000D03*
%TO.P,U2,6*%
%TO.N,Net-(R6-Pad2)*%
X136620000Y-122080000D03*
%TO.P,U2,2*%
%TO.N,Net-(R1-Pad2)*%
X129000000Y-119540000D03*
%TO.P,U2,5*%
%TO.N,GND*%
X136620000Y-124620000D03*
D13*
%TO.P,U2,1*%
%TO.N,N/C*%
X129000000Y-117000000D03*
%TD*%
D12*
%TO.P,U1,8*%
%TO.N,N/C*%
X144000000Y-128380000D03*
%TO.P,U1,4*%
%TO.N,Net-(C10-Pad1)*%
X151620000Y-136000000D03*
%TO.P,U1,7*%
%TO.N,Net-(C7-Pad1)*%
X146540000Y-128380000D03*
%TO.P,U1,3*%
%TO.N,Net-(U1-Pad3)*%
X149080000Y-136000000D03*
%TO.P,U1,6*%
%TO.N,Net-(D1-Pad2)*%
X149080000Y-128380000D03*
%TO.P,U1,2*%
%TO.N,dac_in*%
X146540000Y-136000000D03*
%TO.P,U1,5*%
%TO.N,N/C*%
X151620000Y-128380000D03*
D13*
%TO.P,U1,1*%
X144000000Y-136000000D03*
%TD*%
%TO.P,R18,2*%
%TO.N,Net-(R18-Pad2)*%
%TA.AperFunction,SMDPad,CuDef*%
G36*
G01*
X194200000Y-79250001D02*
X194200000Y-78349999D01*
G75*
G02*
X194449999Y-78100000I249999J0D01*
G01*
X194975001Y-78100000D01*
G75*
G02*
X195225000Y-78349999I0J-249999D01*
G01*
X195225000Y-79250001D01*
G75*
G02*
X194975001Y-79500000I-249999J0D01*
G01*
X194449999Y-79500000D01*
G75*
G02*
X194200000Y-79250001I0J249999D01*
G01*
G37*
%TD.AperFunction*%
%TO.P,R18,1*%
%TO.N,set_positive*%
%TA.AperFunction,SMDPad,CuDef*%
G36*
G01*
X192375000Y-79250001D02*
X192375000Y-78349999D01*
G75*
G02*
X192624999Y-78100000I249999J0D01*
G01*
X193150001Y-78100000D01*
G75*
G02*
X193400000Y-78349999I0J-249999D01*
G01*
X193400000Y-79250001D01*
G75*
G02*
X193150001Y-79500000I-249999J0D01*
G01*
X192624999Y-79500000D01*
G75*
G02*
X192375000Y-79250001I0J249999D01*
G01*
G37*
%TD.AperFunction*%
%TD*%
%TO.P,R16,2*%
%TO.N,set_negativ*%
%TA.AperFunction,SMDPad,CuDef*%
G36*
G01*
X193600000Y-85549999D02*
X193600000Y-86450001D01*
G75*
G02*
X193350001Y-86700000I-249999J0D01*
G01*
X192824999Y-86700000D01*
G75*
G02*
X192575000Y-86450001I0J249999D01*
G01*
X192575000Y-85549999D01*
G75*
G02*
X192824999Y-85300000I249999J0D01*
G01*
X193350001Y-85300000D01*
G75*
G02*
X193600000Y-85549999I0J-249999D01*
G01*
G37*
%TD.AperFunction*%
%TO.P,R16,1*%
%TO.N,Net-(R16-Pad1)*%
%TA.AperFunction,SMDPad,CuDef*%
G36*
G01*
X195425000Y-85549999D02*
X195425000Y-86450001D01*
G75*
G02*
X195175001Y-86700000I-249999J0D01*
G01*
X194649999Y-86700000D01*
G75*
G02*
X194400000Y-86450001I0J249999D01*
G01*
X194400000Y-85549999D01*
G75*
G02*
X194649999Y-85300000I249999J0D01*
G01*
X195175001Y-85300000D01*
G75*
G02*
X195425000Y-85549999I0J-249999D01*
G01*
G37*
%TD.AperFunction*%
%TD*%
%TO.P,R15,2*%
%TO.N,Net-(R15-Pad2)*%
%TA.AperFunction,SMDPad,CuDef*%
G36*
G01*
X130299999Y-77600000D02*
X131200001Y-77600000D01*
G75*
G02*
X131450000Y-77849999I0J-249999D01*
G01*
X131450000Y-78375001D01*
G75*
G02*
X131200001Y-78625000I-249999J0D01*
G01*
X130299999Y-78625000D01*
G75*
G02*
X130050000Y-78375001I0J249999D01*
G01*
X130050000Y-77849999D01*
G75*
G02*
X130299999Y-77600000I249999J0D01*
G01*
G37*
%TD.AperFunction*%
%TO.P,R15,1*%
%TO.N,dac_relay*%
%TA.AperFunction,SMDPad,CuDef*%
G36*
G01*
X130299999Y-75775000D02*
X131200001Y-75775000D01*
G75*
G02*
X131450000Y-76024999I0J-249999D01*
G01*
X131450000Y-76550001D01*
G75*
G02*
X131200001Y-76800000I-249999J0D01*
G01*
X130299999Y-76800000D01*
G75*
G02*
X130050000Y-76550001I0J249999D01*
G01*
X130050000Y-76024999D01*
G75*
G02*
X130299999Y-75775000I249999J0D01*
G01*
G37*
%TD.AperFunction*%
%TD*%
%TO.P,R14,2*%
%TO.N,Net-(R14-Pad2)*%
%TA.AperFunction,SMDPad,CuDef*%
G36*
G01*
X194400000Y-100050001D02*
X194400000Y-99149999D01*
G75*
G02*
X194649999Y-98900000I249999J0D01*
G01*
X195175001Y-98900000D01*
G75*
G02*
X195425000Y-99149999I0J-249999D01*
G01*
X195425000Y-100050001D01*
G75*
G02*
X195175001Y-100300000I-249999J0D01*
G01*
X194649999Y-100300000D01*
G75*
G02*
X194400000Y-100050001I0J249999D01*
G01*
G37*
%TD.AperFunction*%
%TO.P,R14,1*%
%TO.N,set_negativ*%
%TA.AperFunction,SMDPad,CuDef*%
G36*
G01*
X192575000Y-100050001D02*
X192575000Y-99149999D01*
G75*
G02*
X192824999Y-98900000I249999J0D01*
G01*
X193350001Y-98900000D01*
G75*
G02*
X193600000Y-99149999I0J-249999D01*
G01*
X193600000Y-100050001D01*
G75*
G02*
X193350001Y-100300000I-249999J0D01*
G01*
X192824999Y-100300000D01*
G75*
G02*
X192575000Y-100050001I0J249999D01*
G01*
G37*
%TD.AperFunction*%
%TD*%
%TO.P,R13,2*%
%TO.N,set_positive*%
%TA.AperFunction,SMDPad,CuDef*%
G36*
G01*
X193400000Y-92349999D02*
X193400000Y-93250001D01*
G75*
G02*
X193150001Y-93500000I-249999J0D01*
G01*
X192624999Y-93500000D01*
G75*
G02*
X192375000Y-93250001I0J249999D01*
G01*
X192375000Y-92349999D01*
G75*
G02*
X192624999Y-92100000I249999J0D01*
G01*
X193150001Y-92100000D01*
G75*
G02*
X193400000Y-92349999I0J-249999D01*
G01*
G37*
%TD.AperFunction*%
%TO.P,R13,1*%
%TO.N,Net-(R13-Pad1)*%
%TA.AperFunction,SMDPad,CuDef*%
G36*
G01*
X195225000Y-92349999D02*
X195225000Y-93250001D01*
G75*
G02*
X194975001Y-93500000I-249999J0D01*
G01*
X194449999Y-93500000D01*
G75*
G02*
X194200000Y-93250001I0J249999D01*
G01*
X194200000Y-92349999D01*
G75*
G02*
X194449999Y-92100000I249999J0D01*
G01*
X194975001Y-92100000D01*
G75*
G02*
X195225000Y-92349999I0J-249999D01*
G01*
G37*
%TD.AperFunction*%
%TD*%
D12*
%TO.P,R12,2*%
%TO.N,Net-(C11-Pad1)*%
X190000000Y-125260000D03*
D16*
%TO.P,R12,1*%
%TO.N,GND2*%
X190000000Y-140500000D03*
%TD*%
%TO.P,R11,2*%
%TO.N,Net-(C11-Pad1)*%
%TA.AperFunction,SMDPad,CuDef*%
G36*
G01*
X183400000Y-132450001D02*
X183400000Y-131549999D01*
G75*
G02*
X183649999Y-131300000I249999J0D01*
G01*
X184175001Y-131300000D01*
G75*
G02*
X184425000Y-131549999I0J-249999D01*
G01*
X184425000Y-132450001D01*
G75*
G02*
X184175001Y-132700000I-249999J0D01*
G01*
X183649999Y-132700000D01*
G75*
G02*
X183400000Y-132450001I0J249999D01*
G01*
G37*
%TD.AperFunction*%
%TO.P,R11,1*%
%TO.N,feedback*%
%TA.AperFunction,SMDPad,CuDef*%
G36*
G01*
X181575000Y-132450001D02*
X181575000Y-131549999D01*
G75*
G02*
X181824999Y-131300000I249999J0D01*
G01*
X182350001Y-131300000D01*
G75*
G02*
X182600000Y-131549999I0J-249999D01*
G01*
X182600000Y-132450001D01*
G75*
G02*
X182350001Y-132700000I-249999J0D01*
G01*
X181824999Y-132700000D01*
G75*
G02*
X181575000Y-132450001I0J249999D01*
G01*
G37*
%TD.AperFunction*%
%TD*%
%TO.P,R9,2*%
%TO.N,Net-(C8-Pad1)*%
%TA.AperFunction,SMDPad,CuDef*%
G36*
G01*
X192700001Y-120850000D02*
X191799999Y-120850000D01*
G75*
G02*
X191550000Y-120600001I0J249999D01*
G01*
X191550000Y-120074999D01*
G75*
G02*
X191799999Y-119825000I249999J0D01*
G01*
X192700001Y-119825000D01*
G75*
G02*
X192950000Y-120074999I0J-249999D01*
G01*
X192950000Y-120600001D01*
G75*
G02*
X192700001Y-120850000I-249999J0D01*
G01*
G37*
%TD.AperFunction*%
%TO.P,R9,1*%
%TO.N,Net-(C11-Pad1)*%
%TA.AperFunction,SMDPad,CuDef*%
G36*
G01*
X192700001Y-122675000D02*
X191799999Y-122675000D01*
G75*
G02*
X191550000Y-122425001I0J249999D01*
G01*
X191550000Y-121899999D01*
G75*
G02*
X191799999Y-121650000I249999J0D01*
G01*
X192700001Y-121650000D01*
G75*
G02*
X192950000Y-121899999I0J-249999D01*
G01*
X192950000Y-122425001D01*
G75*
G02*
X192700001Y-122675000I-249999J0D01*
G01*
G37*
%TD.AperFunction*%
%TD*%
%TO.P,R8,2*%
%TO.N,Net-(D4-Pad2)*%
%TA.AperFunction,SMDPad,CuDef*%
G36*
G01*
X188850001Y-105600000D02*
X187949999Y-105600000D01*
G75*
G02*
X187700000Y-105350001I0J249999D01*
G01*
X187700000Y-104824999D01*
G75*
G02*
X187949999Y-104575000I249999J0D01*
G01*
X188850001Y-104575000D01*
G75*
G02*
X189100000Y-104824999I0J-249999D01*
G01*
X189100000Y-105350001D01*
G75*
G02*
X188850001Y-105600000I-249999J0D01*
G01*
G37*
%TD.AperFunction*%
%TO.P,R8,1*%
%TO.N,Net-(C8-Pad2)*%
%TA.AperFunction,SMDPad,CuDef*%
G36*
G01*
X188850001Y-107425000D02*
X187949999Y-107425000D01*
G75*
G02*
X187700000Y-107175001I0J249999D01*
G01*
X187700000Y-106649999D01*
G75*
G02*
X187949999Y-106400000I249999J0D01*
G01*
X188850001Y-106400000D01*
G75*
G02*
X189100000Y-106649999I0J-249999D01*
G01*
X189100000Y-107175001D01*
G75*
G02*
X188850001Y-107425000I-249999J0D01*
G01*
G37*
%TD.AperFunction*%
%TD*%
D12*
%TO.P,R7,2*%
%TO.N,Net-(Q1-Pad3)*%
X150410000Y-115250000D03*
D16*
%TO.P,R7,1*%
%TO.N,GND*%
X140250000Y-115250000D03*
%TD*%
%TO.P,R6,2*%
%TO.N,Net-(R6-Pad2)*%
%TA.AperFunction,SMDPad,CuDef*%
G36*
G01*
X144100000Y-122799999D02*
X144100000Y-123700001D01*
G75*
G02*
X143850001Y-123950000I-249999J0D01*
G01*
X143324999Y-123950000D01*
G75*
G02*
X143075000Y-123700001I0J249999D01*
G01*
X143075000Y-122799999D01*
G75*
G02*
X143324999Y-122550000I249999J0D01*
G01*
X143850001Y-122550000D01*
G75*
G02*
X144100000Y-122799999I0J-249999D01*
G01*
G37*
%TD.AperFunction*%
%TO.P,R6,1*%
%TO.N,Net-(Q1-Pad1)*%
%TA.AperFunction,SMDPad,CuDef*%
G36*
G01*
X145925000Y-122799999D02*
X145925000Y-123700001D01*
G75*
G02*
X145675001Y-123950000I-249999J0D01*
G01*
X145149999Y-123950000D01*
G75*
G02*
X144900000Y-123700001I0J249999D01*
G01*
X144900000Y-122799999D01*
G75*
G02*
X145149999Y-122550000I249999J0D01*
G01*
X145675001Y-122550000D01*
G75*
G02*
X145925000Y-122799999I0J-249999D01*
G01*
G37*
%TD.AperFunction*%
%TD*%
D12*
%TO.P,R5,2*%
%TO.N,Net-(C5-Pad2)*%
X157840000Y-89000000D03*
D16*
%TO.P,R5,1*%
%TO.N,Net-(C4-Pad1)*%
X168000000Y-89000000D03*
%TD*%
%TO.P,R4,2*%
%TO.N,dac_in*%
%TA.AperFunction,SMDPad,CuDef*%
G36*
G01*
X146950001Y-138850000D02*
X146049999Y-138850000D01*
G75*
G02*
X145800000Y-138600001I0J249999D01*
G01*
X145800000Y-138074999D01*
G75*
G02*
X146049999Y-137825000I249999J0D01*
G01*
X146950001Y-137825000D01*
G75*
G02*
X147200000Y-138074999I0J-249999D01*
G01*
X147200000Y-138600001D01*
G75*
G02*
X146950001Y-138850000I-249999J0D01*
G01*
G37*
%TD.AperFunction*%
%TO.P,R4,1*%
%TO.N,GND*%
%TA.AperFunction,SMDPad,CuDef*%
G36*
G01*
X146950001Y-140675000D02*
X146049999Y-140675000D01*
G75*
G02*
X145800000Y-140425001I0J249999D01*
G01*
X145800000Y-139899999D01*
G75*
G02*
X146049999Y-139650000I249999J0D01*
G01*
X146950001Y-139650000D01*
G75*
G02*
X147200000Y-139899999I0J-249999D01*
G01*
X147200000Y-140425001D01*
G75*
G02*
X146950001Y-140675000I-249999J0D01*
G01*
G37*
%TD.AperFunction*%
%TD*%
%TO.P,R3,2*%
%TO.N,Net-(C2-Pad1)*%
%TA.AperFunction,SMDPad,CuDef*%
G36*
G01*
X133200000Y-118650001D02*
X133200000Y-117749999D01*
G75*
G02*
X133449999Y-117500000I249999J0D01*
G01*
X133975001Y-117500000D01*
G75*
G02*
X134225000Y-117749999I0J-249999D01*
G01*
X134225000Y-118650001D01*
G75*
G02*
X133975001Y-118900000I-249999J0D01*
G01*
X133449999Y-118900000D01*
G75*
G02*
X133200000Y-118650001I0J249999D01*
G01*
G37*
%TD.AperFunction*%
%TO.P,R3,1*%
%TO.N,Net-(C3-Pad1)*%
%TA.AperFunction,SMDPad,CuDef*%
G36*
G01*
X131375000Y-118650001D02*
X131375000Y-117749999D01*
G75*
G02*
X131624999Y-117500000I249999J0D01*
G01*
X132150001Y-117500000D01*
G75*
G02*
X132400000Y-117749999I0J-249999D01*
G01*
X132400000Y-118650001D01*
G75*
G02*
X132150001Y-118900000I-249999J0D01*
G01*
X131624999Y-118900000D01*
G75*
G02*
X131375000Y-118650001I0J249999D01*
G01*
G37*
%TD.AperFunction*%
%TD*%
%TO.P,R2,2*%
%TO.N,Net-(D1-Pad1)*%
%TA.AperFunction,SMDPad,CuDef*%
G36*
G01*
X125349999Y-121800000D02*
X126250001Y-121800000D01*
G75*
G02*
X126500000Y-122049999I0J-249999D01*
G01*
X126500000Y-122575001D01*
G75*
G02*
X126250001Y-122825000I-249999J0D01*
G01*
X125349999Y-122825000D01*
G75*
G02*
X125100000Y-122575001I0J249999D01*
G01*
X125100000Y-122049999D01*
G75*
G02*
X125349999Y-121800000I249999J0D01*
G01*
G37*
%TD.AperFunction*%
%TO.P,R2,1*%
%TO.N,Net-(R1-Pad2)*%
%TA.AperFunction,SMDPad,CuDef*%
G36*
G01*
X125349999Y-119975000D02*
X126250001Y-119975000D01*
G75*
G02*
X126500000Y-120224999I0J-249999D01*
G01*
X126500000Y-120750001D01*
G75*
G02*
X126250001Y-121000000I-249999J0D01*
G01*
X125349999Y-121000000D01*
G75*
G02*
X125100000Y-120750001I0J249999D01*
G01*
X125100000Y-120224999D01*
G75*
G02*
X125349999Y-119975000I249999J0D01*
G01*
G37*
%TD.AperFunction*%
%TD*%
%TO.P,R1,2*%
%TO.N,Net-(R1-Pad2)*%
%TA.AperFunction,SMDPad,CuDef*%
G36*
G01*
X125349999Y-117800000D02*
X126250001Y-117800000D01*
G75*
G02*
X126500000Y-118049999I0J-249999D01*
G01*
X126500000Y-118575001D01*
G75*
G02*
X126250001Y-118825000I-249999J0D01*
G01*
X125349999Y-118825000D01*
G75*
G02*
X125100000Y-118575001I0J249999D01*
G01*
X125100000Y-118049999D01*
G75*
G02*
X125349999Y-117800000I249999J0D01*
G01*
G37*
%TD.AperFunction*%
%TO.P,R1,1*%
%TO.N,GND*%
%TA.AperFunction,SMDPad,CuDef*%
G36*
G01*
X125349999Y-115975000D02*
X126250001Y-115975000D01*
G75*
G02*
X126500000Y-116224999I0J-249999D01*
G01*
X126500000Y-116750001D01*
G75*
G02*
X126250001Y-117000000I-249999J0D01*
G01*
X125349999Y-117000000D01*
G75*
G02*
X125100000Y-116750001I0J249999D01*
G01*
X125100000Y-116224999D01*
G75*
G02*
X125349999Y-115975000I249999J0D01*
G01*
G37*
%TD.AperFunction*%
%TD*%
D17*
%TO.P,Q1,2*%
%TO.N,Net-(D3-Pad2)*%
X156000000Y-121000000D03*
D18*
%TO.P,Q1,3*%
%TO.N,Net-(Q1-Pad3)*%
X149700000Y-118720000D03*
%TO.P,Q1,1*%
%TO.N,Net-(Q1-Pad1)*%
X149700000Y-123280000D03*
%TD*%
D19*
%TO.P,L1,2*%
%TO.N,Net-(C4-Pad1)*%
X129000000Y-103110000D03*
%TO.P,L1,1*%
%TO.N,+15V*%
X129000000Y-96000000D03*
%TD*%
D20*
%TO.P,J2,4*%
%TO.N,set_negativ*%
X162380000Y-76000000D03*
%TO.P,J2,2*%
%TO.N,dac_relay*%
X167460000Y-76000000D03*
D21*
%TO.P,J2,1*%
%TO.N,common_anode*%
X170000000Y-76000000D03*
D20*
%TO.P,J2,3*%
%TO.N,set_positive*%
X164920000Y-76000000D03*
%TD*%
D22*
%TO.P,J1,4*%
%TO.N,dac_input*%
X137760000Y-77000000D03*
%TO.P,J1,3*%
%TO.N,+15V*%
X142840000Y-77000000D03*
%TO.P,J1,2*%
%TO.N,GND*%
X147920000Y-77000000D03*
D23*
%TO.P,J1,1*%
%TO.N,HV_output*%
X153000000Y-77000000D03*
%TD*%
D21*
%TO.P,T1,1*%
%TO.N,Net-(C4-Pad1)*%
X163685000Y-103420000D03*
D20*
%TO.P,T1,2*%
%TO.N,N/C*%
X163685000Y-108500000D03*
%TO.P,T1,3*%
X163685000Y-113580000D03*
%TO.P,T1,4*%
X163685000Y-118660000D03*
%TO.P,T1,5*%
%TO.N,Net-(D3-Pad2)*%
X163685000Y-123740000D03*
%TO.P,T1,6*%
%TO.N,GND2*%
X176385000Y-123740000D03*
%TO.P,T1,7*%
%TO.N,N/C*%
X176385000Y-118660000D03*
%TO.P,T1,8*%
X176385000Y-113580000D03*
%TO.P,T1,9*%
X176385000Y-108500000D03*
%TO.P,T1,10*%
%TO.N,Net-(D4-Pad2)*%
X176385000Y-103420000D03*
%TD*%
D24*
%TO.P,D4,2*%
%TO.N,Net-(D4-Pad2)*%
X182500000Y-103340000D03*
D25*
%TO.P,D4,1*%
%TO.N,Net-(C8-Pad1)*%
X182500000Y-113500000D03*
%TD*%
D24*
%TO.P,D3,2*%
%TO.N,Net-(D3-Pad2)*%
X157000000Y-111160000D03*
D25*
%TO.P,D3,1*%
%TO.N,Net-(C5-Pad2)*%
X157000000Y-101000000D03*
%TD*%
D26*
%TO.P,D2,2*%
%TO.N,Net-(C4-Pad1)*%
X171240000Y-94000000D03*
D23*
%TO.P,D2,1*%
%TO.N,Net-(C5-Pad2)*%
X156000000Y-94000000D03*
%TD*%
D24*
%TO.P,D1,2*%
%TO.N,Net-(D1-Pad2)*%
X138160000Y-131000000D03*
D25*
%TO.P,D1,1*%
%TO.N,Net-(D1-Pad1)*%
X128000000Y-131000000D03*
%TD*%
%TO.P,C14,2*%
%TO.N,GND2*%
%TA.AperFunction,SMDPad,CuDef*%
G36*
G01*
X173550000Y-143775000D02*
X173550000Y-144725000D01*
G75*
G02*
X173300000Y-144975000I-250000J0D01*
G01*
X172800000Y-144975000D01*
G75*
G02*
X172550000Y-144725000I0J250000D01*
G01*
X172550000Y-143775000D01*
G75*
G02*
X172800000Y-143525000I250000J0D01*
G01*
X173300000Y-143525000D01*
G75*
G02*
X173550000Y-143775000I0J-250000D01*
G01*
G37*
%TD.AperFunction*%
%TO.P,C14,1*%
%TO.N,Net-(C14-Pad1)*%
%TA.AperFunction,SMDPad,CuDef*%
G36*
G01*
X175450000Y-143775000D02*
X175450000Y-144725000D01*
G75*
G02*
X175200000Y-144975000I-250000J0D01*
G01*
X174700000Y-144975000D01*
G75*
G02*
X174450000Y-144725000I0J250000D01*
G01*
X174450000Y-143775000D01*
G75*
G02*
X174700000Y-143525000I250000J0D01*
G01*
X175200000Y-143525000D01*
G75*
G02*
X175450000Y-143775000I0J-250000D01*
G01*
G37*
%TD.AperFunction*%
%TD*%
%TO.P,C13,2*%
%TO.N,GND2*%
%TA.AperFunction,SMDPad,CuDef*%
G36*
G01*
X173550000Y-146025000D02*
X173550000Y-146975000D01*
G75*
G02*
X173300000Y-147225000I-250000J0D01*
G01*
X172800000Y-147225000D01*
G75*
G02*
X172550000Y-146975000I0J250000D01*
G01*
X172550000Y-146025000D01*
G75*
G02*
X172800000Y-145775000I250000J0D01*
G01*
X173300000Y-145775000D01*
G75*
G02*
X173550000Y-146025000I0J-250000D01*
G01*
G37*
%TD.AperFunction*%
%TO.P,C13,1*%
%TO.N,Net-(C13-Pad1)*%
%TA.AperFunction,SMDPad,CuDef*%
G36*
G01*
X175450000Y-146025000D02*
X175450000Y-146975000D01*
G75*
G02*
X175200000Y-147225000I-250000J0D01*
G01*
X174700000Y-147225000D01*
G75*
G02*
X174450000Y-146975000I0J250000D01*
G01*
X174450000Y-146025000D01*
G75*
G02*
X174700000Y-145775000I250000J0D01*
G01*
X175200000Y-145775000D01*
G75*
G02*
X175450000Y-146025000I0J-250000D01*
G01*
G37*
%TD.AperFunction*%
%TD*%
%TO.P,C12,2*%
%TO.N,GND*%
%TA.AperFunction,SMDPad,CuDef*%
G36*
G01*
X164450000Y-146725000D02*
X164450000Y-145775000D01*
G75*
G02*
X164700000Y-145525000I250000J0D01*
G01*
X165200000Y-145525000D01*
G75*
G02*
X165450000Y-145775000I0J-250000D01*
G01*
X165450000Y-146725000D01*
G75*
G02*
X165200000Y-146975000I-250000J0D01*
G01*
X164700000Y-146975000D01*
G75*
G02*
X164450000Y-146725000I0J250000D01*
G01*
G37*
%TD.AperFunction*%
%TO.P,C12,1*%
%TO.N,+15V*%
%TA.AperFunction,SMDPad,CuDef*%
G36*
G01*
X162550000Y-146725000D02*
X162550000Y-145775000D01*
G75*
G02*
X162800000Y-145525000I250000J0D01*
G01*
X163300000Y-145525000D01*
G75*
G02*
X163550000Y-145775000I0J-250000D01*
G01*
X163550000Y-146725000D01*
G75*
G02*
X163300000Y-146975000I-250000J0D01*
G01*
X162800000Y-146975000D01*
G75*
G02*
X162550000Y-146725000I0J250000D01*
G01*
G37*
%TD.AperFunction*%
%TD*%
D27*
%TO.P,C11,2*%
%TO.N,GND2*%
X201000000Y-138500000D03*
%TO.P,C11,1*%
%TO.N,Net-(C11-Pad1)*%
X201000000Y-111000000D03*
%TD*%
%TO.P,C10,2*%
%TO.N,GND*%
%TA.AperFunction,SMDPad,CuDef*%
G36*
G01*
X149454999Y-142775000D02*
X149454999Y-143725000D01*
G75*
G02*
X149204999Y-143975000I-250000J0D01*
G01*
X148704999Y-143975000D01*
G75*
G02*
X148454999Y-143725000I0J250000D01*
G01*
X148454999Y-142775000D01*
G75*
G02*
X148704999Y-142525000I250000J0D01*
G01*
X149204999Y-142525000D01*
G75*
G02*
X149454999Y-142775000I0J-250000D01*
G01*
G37*
%TD.AperFunction*%
%TO.P,C10,1*%
%TO.N,Net-(C10-Pad1)*%
%TA.AperFunction,SMDPad,CuDef*%
G36*
G01*
X151354999Y-142775000D02*
X151354999Y-143725000D01*
G75*
G02*
X151104999Y-143975000I-250000J0D01*
G01*
X150604999Y-143975000D01*
G75*
G02*
X150354999Y-143725000I0J250000D01*
G01*
X150354999Y-142775000D01*
G75*
G02*
X150604999Y-142525000I250000J0D01*
G01*
X151104999Y-142525000D01*
G75*
G02*
X151354999Y-142775000I0J-250000D01*
G01*
G37*
%TD.AperFunction*%
%TD*%
D16*
%TO.P,C9,2*%
%TO.N,GND2*%
X182500000Y-124000000D03*
%TO.P,C9,1*%
%TO.N,Net-(C8-Pad1)*%
X182500000Y-119000000D03*
%TD*%
D28*
%TO.P,C8,2*%
%TO.N,Net-(C8-Pad2)*%
X188500000Y-110500000D03*
%TO.P,C8,1*%
%TO.N,Net-(C8-Pad1)*%
X188500000Y-120500000D03*
%TD*%
%TO.P,C7,2*%
%TO.N,GND*%
%TA.AperFunction,SMDPad,CuDef*%
G36*
G01*
X149454999Y-145090001D02*
X149454999Y-146040001D01*
G75*
G02*
X149204999Y-146290001I-250000J0D01*
G01*
X148704999Y-146290001D01*
G75*
G02*
X148454999Y-146040001I0J250000D01*
G01*
X148454999Y-145090001D01*
G75*
G02*
X148704999Y-144840001I250000J0D01*
G01*
X149204999Y-144840001D01*
G75*
G02*
X149454999Y-145090001I0J-250000D01*
G01*
G37*
%TD.AperFunction*%
%TO.P,C7,1*%
%TO.N,Net-(C7-Pad1)*%
%TA.AperFunction,SMDPad,CuDef*%
G36*
G01*
X151354999Y-145090001D02*
X151354999Y-146040001D01*
G75*
G02*
X151104999Y-146290001I-250000J0D01*
G01*
X150604999Y-146290001D01*
G75*
G02*
X150354999Y-146040001I0J250000D01*
G01*
X150354999Y-145090001D01*
G75*
G02*
X150604999Y-144840001I250000J0D01*
G01*
X151104999Y-144840001D01*
G75*
G02*
X151354999Y-145090001I0J-250000D01*
G01*
G37*
%TD.AperFunction*%
%TD*%
%TO.P,C6,2*%
%TO.N,GND*%
%TA.AperFunction,SMDPad,CuDef*%
G36*
G01*
X140450000Y-145975000D02*
X140450000Y-145025000D01*
G75*
G02*
X140700000Y-144775000I250000J0D01*
G01*
X141200000Y-144775000D01*
G75*
G02*
X141450000Y-145025000I0J-250000D01*
G01*
X141450000Y-145975000D01*
G75*
G02*
X141200000Y-146225000I-250000J0D01*
G01*
X140700000Y-146225000D01*
G75*
G02*
X140450000Y-145975000I0J250000D01*
G01*
G37*
%TD.AperFunction*%
%TO.P,C6,1*%
%TO.N,+15V*%
%TA.AperFunction,SMDPad,CuDef*%
G36*
G01*
X138550000Y-145975000D02*
X138550000Y-145025000D01*
G75*
G02*
X138800000Y-144775000I250000J0D01*
G01*
X139300000Y-144775000D01*
G75*
G02*
X139550000Y-145025000I0J-250000D01*
G01*
X139550000Y-145975000D01*
G75*
G02*
X139300000Y-146225000I-250000J0D01*
G01*
X138800000Y-146225000D01*
G75*
G02*
X138550000Y-145975000I0J250000D01*
G01*
G37*
%TD.AperFunction*%
%TD*%
D16*
%TO.P,C5,2*%
%TO.N,Net-(C5-Pad2)*%
X158000000Y-85000000D03*
%TO.P,C5,1*%
%TO.N,Net-(C4-Pad1)*%
X163000000Y-85000000D03*
%TD*%
D27*
%TO.P,C4,2*%
%TO.N,GND*%
X149500000Y-104000000D03*
D29*
%TO.P,C4,1*%
%TO.N,Net-(C4-Pad1)*%
X142000000Y-104000000D03*
%TD*%
%TO.P,C3,2*%
%TO.N,GND*%
%TA.AperFunction,SMDPad,CuDef*%
G36*
G01*
X131675000Y-112950000D02*
X130725000Y-112950000D01*
G75*
G02*
X130475000Y-112700000I0J250000D01*
G01*
X130475000Y-112200000D01*
G75*
G02*
X130725000Y-111950000I250000J0D01*
G01*
X131675000Y-111950000D01*
G75*
G02*
X131925000Y-112200000I0J-250000D01*
G01*
X131925000Y-112700000D01*
G75*
G02*
X131675000Y-112950000I-250000J0D01*
G01*
G37*
%TD.AperFunction*%
%TO.P,C3,1*%
%TO.N,Net-(C3-Pad1)*%
%TA.AperFunction,SMDPad,CuDef*%
G36*
G01*
X131675000Y-114850000D02*
X130725000Y-114850000D01*
G75*
G02*
X130475000Y-114600000I0J250000D01*
G01*
X130475000Y-114100000D01*
G75*
G02*
X130725000Y-113850000I250000J0D01*
G01*
X131675000Y-113850000D01*
G75*
G02*
X131925000Y-114100000I0J-250000D01*
G01*
X131925000Y-114600000D01*
G75*
G02*
X131675000Y-114850000I-250000J0D01*
G01*
G37*
%TD.AperFunction*%
%TD*%
%TO.P,C2,2*%
%TO.N,GND*%
%TA.AperFunction,SMDPad,CuDef*%
G36*
G01*
X135075000Y-112950000D02*
X134125000Y-112950000D01*
G75*
G02*
X133875000Y-112700000I0J250000D01*
G01*
X133875000Y-112200000D01*
G75*
G02*
X134125000Y-111950000I250000J0D01*
G01*
X135075000Y-111950000D01*
G75*
G02*
X135325000Y-112200000I0J-250000D01*
G01*
X135325000Y-112700000D01*
G75*
G02*
X135075000Y-112950000I-250000J0D01*
G01*
G37*
%TD.AperFunction*%
%TO.P,C2,1*%
%TO.N,Net-(C2-Pad1)*%
%TA.AperFunction,SMDPad,CuDef*%
G36*
G01*
X135075000Y-114850000D02*
X134125000Y-114850000D01*
G75*
G02*
X133875000Y-114600000I0J250000D01*
G01*
X133875000Y-114100000D01*
G75*
G02*
X134125000Y-113850000I250000J0D01*
G01*
X135075000Y-113850000D01*
G75*
G02*
X135325000Y-114100000I0J-250000D01*
G01*
X135325000Y-114600000D01*
G75*
G02*
X135075000Y-114850000I-250000J0D01*
G01*
G37*
%TD.AperFunction*%
%TD*%
D28*
%TO.P,C1,2*%
%TO.N,GND*%
X146000000Y-89000000D03*
D30*
%TO.P,C1,1*%
%TO.N,+15V*%
X141000000Y-89000000D03*
%TD*%
D31*
%TO.N,set_negativ*%
X193000000Y-87800000D03*
X193000000Y-95200000D03*
%TD*%
D32*
%TO.N,+15V*%
X142840000Y-77000000D02*
X142840000Y-82960000D01*
X141000000Y-84800000D02*
X141000000Y-89000000D01*
X142840000Y-82960000D02*
X141000000Y-84800000D01*
X136000000Y-89000000D02*
X129000000Y-96000000D01*
X141000000Y-89000000D02*
X136000000Y-89000000D01*
D33*
X163050000Y-148610000D02*
X162850000Y-148810000D01*
X163050000Y-146250000D02*
X163050000Y-148610000D01*
X162850000Y-148810000D02*
X161660000Y-150000000D01*
X140840000Y-150000000D02*
X138650000Y-147810000D01*
X161660000Y-150000000D02*
X140840000Y-150000000D01*
X138650000Y-145900000D02*
X139050000Y-145500000D01*
X138650000Y-147810000D02*
X138650000Y-146550000D01*
X138650000Y-146550000D02*
X138650000Y-145450000D01*
X138650000Y-146550000D02*
X138650000Y-145900000D01*
X138650000Y-145450000D02*
X135000000Y-141800000D01*
X135000000Y-121160000D02*
X136620000Y-119540000D01*
X135000000Y-141800000D02*
X135000000Y-121160000D01*
D34*
%TO.N,Net-(C2-Pad1)*%
X133712500Y-118200000D02*
X134400000Y-118200000D01*
X135600000Y-117000000D02*
X136620000Y-117000000D01*
X134600000Y-118000000D02*
X135600000Y-117000000D01*
X134600000Y-114550000D02*
X134600000Y-118000000D01*
X134400000Y-118200000D02*
X134600000Y-118000000D01*
%TO.N,Net-(C3-Pad1)*%
X131887500Y-115037500D02*
X131200000Y-114350000D01*
X131887500Y-118200000D02*
X131887500Y-115037500D01*
X131887500Y-118200000D02*
X131887500Y-122512500D01*
X129780000Y-124620000D02*
X129000000Y-124620000D01*
X131887500Y-122512500D02*
X129780000Y-124620000D01*
D32*
%TO.N,Net-(C4-Pad1)*%
X129890000Y-104000000D02*
X129000000Y-103110000D01*
X142000000Y-104000000D02*
X129890000Y-104000000D01*
X142000000Y-104000000D02*
X142000000Y-105400000D01*
X142000000Y-105400000D02*
X145400000Y-108800000D01*
X145400000Y-108800000D02*
X153400000Y-108800000D01*
X153400000Y-108800000D02*
X156400000Y-105800000D01*
X161305000Y-105800000D02*
X163685000Y-103420000D01*
X156400000Y-105800000D02*
X161305000Y-105800000D01*
X164000000Y-85000000D02*
X168000000Y-89000000D01*
X163000000Y-85000000D02*
X164000000Y-85000000D01*
X171240000Y-92240000D02*
X168000000Y-89000000D01*
X171240000Y-94000000D02*
X171240000Y-92240000D01*
X171240000Y-95865000D02*
X163685000Y-103420000D01*
X171240000Y-94000000D02*
X171240000Y-95865000D01*
D35*
%TO.N,Net-(C5-Pad2)*%
X158000000Y-88840000D02*
X157840000Y-89000000D01*
X158000000Y-85000000D02*
X158000000Y-88840000D01*
X157840000Y-92160000D02*
X156000000Y-94000000D01*
X157840000Y-89000000D02*
X157840000Y-92160000D01*
X156000000Y-100000000D02*
X157000000Y-101000000D01*
X156000000Y-94000000D02*
X156000000Y-100000000D01*
D34*
%TO.N,Net-(C7-Pad1)*%
X151350000Y-146060002D02*
X150854999Y-145565001D01*
X151350000Y-147810000D02*
X151350000Y-146060002D01*
%TO.N,Net-(C8-Pad2)*%
X188500000Y-107012500D02*
X188400000Y-106912500D01*
X188500000Y-110500000D02*
X188500000Y-107012500D01*
D33*
%TO.N,Net-(C8-Pad1)*%
X188662500Y-120337500D02*
X188500000Y-120500000D01*
X192250000Y-120337500D02*
X188662500Y-120337500D01*
X184000000Y-120500000D02*
X182500000Y-119000000D01*
X188500000Y-120500000D02*
X184000000Y-120500000D01*
X182500000Y-119000000D02*
X182500000Y-113500000D01*
D34*
%TO.N,GND2*%
X173010000Y-144290000D02*
X173050000Y-144250000D01*
X173010000Y-148810000D02*
X173010000Y-144290000D01*
D35*
X192000000Y-138500000D02*
X190000000Y-140500000D01*
X201000000Y-138500000D02*
X192000000Y-138500000D01*
D33*
X190000000Y-140500000D02*
X180125010Y-150374990D01*
X174574990Y-150374990D02*
X173010000Y-148810000D01*
X180125010Y-150374990D02*
X174574990Y-150374990D01*
X187090000Y-76000000D02*
X187090000Y-78310000D01*
X183380000Y-82020000D02*
X183380000Y-82800000D01*
X187090000Y-78310000D02*
X183380000Y-82020000D01*
D34*
X178912500Y-137507500D02*
X178800000Y-137620000D01*
X178912500Y-135500000D02*
X178912500Y-137507500D01*
%TO.N,Net-(C10-Pad1)*%
X153890000Y-147810000D02*
X153890000Y-145890000D01*
X151250000Y-143250000D02*
X150854999Y-143250000D01*
X153890000Y-145890000D02*
X151250000Y-143250000D01*
X150854999Y-143250000D02*
X150854999Y-138745001D01*
X151620000Y-137980000D02*
X151620000Y-136000000D01*
X150854999Y-138745001D02*
X151620000Y-137980000D01*
X161940000Y-136000000D02*
X151620000Y-136000000D01*
X163560000Y-137620000D02*
X161940000Y-136000000D01*
D33*
%TO.N,Net-(C11-Pad1)*%
X190000000Y-125260000D02*
X191860000Y-123400000D01*
X191860000Y-123400000D02*
X191860000Y-123340000D01*
X192250000Y-122950000D02*
X192250000Y-122162500D01*
X191860000Y-123340000D02*
X192250000Y-122950000D01*
X201000000Y-111000000D02*
X201000000Y-115600000D01*
X194437500Y-122162500D02*
X192250000Y-122162500D01*
X201000000Y-115600000D02*
X194437500Y-122162500D01*
X187190000Y-89800000D02*
X187190000Y-92010000D01*
X183380000Y-95820000D02*
X183380000Y-96800000D01*
X187190000Y-92010000D02*
X183380000Y-95820000D01*
X201000000Y-111000000D02*
X199000000Y-111000000D01*
X199000000Y-111000000D02*
X188200000Y-100200000D01*
X188200000Y-100200000D02*
X183800000Y-100200000D01*
X183380000Y-99780000D02*
X183380000Y-96800000D01*
X183800000Y-100200000D02*
X183380000Y-99780000D01*
X183912500Y-132000000D02*
X186000000Y-132000000D01*
X190000000Y-128000000D02*
X190000000Y-125260000D01*
X186000000Y-132000000D02*
X190000000Y-128000000D01*
D34*
%TO.N,Net-(C13-Pad1)*%
X175550000Y-147100000D02*
X174950000Y-146500000D01*
X175550000Y-148810000D02*
X175550000Y-147100000D01*
%TO.N,Net-(C14-Pad1)*%
X178090000Y-147390000D02*
X174950000Y-144250000D01*
X178090000Y-148810000D02*
X178090000Y-147390000D01*
X174950000Y-131310000D02*
X176260000Y-130000000D01*
X174950000Y-144250000D02*
X174950000Y-131310000D01*
%TO.N,Net-(D1-Pad2)*%
X149080000Y-128380000D02*
X149080000Y-130720000D01*
X148800000Y-131000000D02*
X138160000Y-131000000D01*
X149080000Y-130720000D02*
X148800000Y-131000000D01*
D33*
%TO.N,Net-(D1-Pad1)*%
X128000000Y-131000000D02*
X126600000Y-131000000D01*
X126600000Y-131000000D02*
X125800000Y-130200000D01*
X125800000Y-130200000D02*
X125800000Y-122800000D01*
D32*
%TO.N,Net-(D3-Pad2)*%
X157000000Y-120000000D02*
X156000000Y-121000000D01*
X157000000Y-111160000D02*
X157000000Y-120000000D01*
X158740000Y-123740000D02*
X156000000Y-121000000D01*
X163685000Y-123740000D02*
X158740000Y-123740000D01*
D33*
%TO.N,Net-(D4-Pad2)*%
X182420000Y-103420000D02*
X182500000Y-103340000D01*
X176385000Y-103420000D02*
X182420000Y-103420000D01*
D34*
X188400000Y-105087500D02*
X188400000Y-103800000D01*
X188400000Y-103800000D02*
X188000000Y-103400000D01*
X182560000Y-103400000D02*
X182500000Y-103340000D01*
X188000000Y-103400000D02*
X182560000Y-103400000D01*
D33*
%TO.N,dac_input*%
X128000000Y-89620000D02*
X131980000Y-89620000D01*
X137760000Y-83840000D02*
X137760000Y-77000000D01*
X131980000Y-89620000D02*
X137760000Y-83840000D01*
%TO.N,HV_output*%
X187190000Y-82800000D02*
X187190000Y-84810000D01*
X183380000Y-88620000D02*
X183380000Y-89800000D01*
X187190000Y-84810000D02*
X183380000Y-88620000D01*
X153000000Y-77000000D02*
X153400000Y-77000000D01*
X153400000Y-77000000D02*
X157600000Y-81200000D01*
X174780000Y-81200000D02*
X183380000Y-89800000D01*
X157600000Y-81200000D02*
X174780000Y-81200000D01*
D34*
%TO.N,set_negativ*%
X193000000Y-99512500D02*
X193087500Y-99600000D01*
X193000000Y-95200000D02*
X193000000Y-99512500D01*
X193000000Y-86087500D02*
X193087500Y-86000000D01*
X193000000Y-87800000D02*
X193000000Y-86087500D01*
%TO.N,dac_relay*%
X130750000Y-76287500D02*
X134237500Y-72800000D01*
X134237500Y-72800000D02*
X166000000Y-72800000D01*
X167460000Y-74260000D02*
X167460000Y-76000000D01*
X166000000Y-72800000D02*
X167460000Y-74260000D01*
D33*
%TO.N,common_anode*%
X198620000Y-96800000D02*
X198620000Y-76000000D01*
D34*
%TO.N,set_positive*%
X192887500Y-92800000D02*
X191400000Y-91312500D01*
X191400000Y-91312500D02*
X191400000Y-79600000D01*
X192200000Y-78800000D02*
X192887500Y-78800000D01*
X191400000Y-79600000D02*
X192200000Y-78800000D01*
X171300001Y-77400001D02*
X166320001Y-77400001D01*
X173000000Y-75700002D02*
X171300001Y-77400001D01*
X166320001Y-77400001D02*
X164920000Y-76000000D01*
X192887500Y-75287500D02*
X190400000Y-72800000D01*
X192887500Y-78800000D02*
X192887500Y-75287500D01*
X173000000Y-75700002D02*
X173000000Y-75600000D01*
X173000000Y-75600000D02*
X175800000Y-72800000D01*
X175800000Y-72800000D02*
X190400000Y-72800000D01*
D35*
%TO.N,Net-(Q1-Pad3)*%
X149700000Y-115960000D02*
X150410000Y-115250000D01*
X149700000Y-118720000D02*
X149700000Y-115960000D01*
D34*
%TO.N,Net-(Q1-Pad1)*%
X145442500Y-123280000D02*
X145412500Y-123250000D01*
X149700000Y-123280000D02*
X145442500Y-123280000D01*
D33*
%TO.N,Net-(R1-Pad2)*%
X128860000Y-119400000D02*
X129000000Y-119540000D01*
X125800000Y-118312500D02*
X125800000Y-119400000D01*
X125800000Y-119400000D02*
X128860000Y-119400000D01*
X125800000Y-119400000D02*
X125800000Y-120487500D01*
D34*
%TO.N,dac_in*%
X146500000Y-136040000D02*
X146540000Y-136000000D01*
X146500000Y-138337500D02*
X146500000Y-136040000D01*
%TO.N,Net-(R6-Pad2)*%
X143587500Y-123250000D02*
X139250000Y-123250000D01*
X138080000Y-122080000D02*
X136620000Y-122080000D01*
X139250000Y-123250000D02*
X138080000Y-122080000D01*
D33*
%TO.N,feedback*%
X182087500Y-132000000D02*
X180000000Y-132000000D01*
X177087500Y-134912500D02*
X177087500Y-135500000D01*
X180000000Y-132000000D02*
X177087500Y-134912500D01*
X176260000Y-136327500D02*
X177087500Y-135500000D01*
X176260000Y-137620000D02*
X176260000Y-136327500D01*
D34*
%TO.N,Net-(R13-Pad1)*%
X194810000Y-92702500D02*
X194712500Y-92800000D01*
X194810000Y-89800000D02*
X194810000Y-92702500D01*
%TO.N,Net-(R14-Pad2)*%
X194810000Y-99497500D02*
X194912500Y-99600000D01*
X194810000Y-96800000D02*
X194810000Y-99497500D01*
%TO.N,Net-(R15-Pad2)*%
X130750000Y-78112500D02*
X128287500Y-78112500D01*
X125460000Y-80940000D02*
X125460000Y-82000000D01*
X128287500Y-78112500D02*
X125460000Y-80940000D01*
%TO.N,Net-(R16-Pad1)*%
X194810000Y-85897500D02*
X194912500Y-86000000D01*
X194810000Y-82800000D02*
X194810000Y-85897500D01*
%TO.N,Net-(R18-Pad2)*%
X194810000Y-78702500D02*
X194712500Y-78800000D01*
X194810000Y-76000000D02*
X194810000Y-78702500D01*
%TO.N,Net-(U1-Pad3)*%
X163560000Y-130000000D02*
X163560000Y-132240000D01*
X163560000Y-132240000D02*
X162000000Y-133800000D01*
X162000000Y-133800000D02*
X150000000Y-133800000D01*
X149080000Y-134720000D02*
X149080000Y-136000000D01*
X150000000Y-133800000D02*
X149080000Y-134720000D01*
%TD*%
D36*
%TO.N,GND*%
X149873000Y-84000000D02*
X149875440Y-84024776D01*
X149882667Y-84048601D01*
X149894403Y-84070557D01*
X149910197Y-84089803D01*
X149929443Y-84105597D01*
X149951399Y-84117333D01*
X149975224Y-84124560D01*
X150000000Y-84127000D01*
X156857461Y-84127000D01*
X156728320Y-84320273D01*
X156620147Y-84581426D01*
X156565000Y-84858665D01*
X156565000Y-85141335D01*
X156620147Y-85418574D01*
X156665000Y-85526859D01*
X156665001Y-88175580D01*
X156568320Y-88320273D01*
X156460147Y-88581426D01*
X156405000Y-88858665D01*
X156405000Y-89141335D01*
X156460147Y-89418574D01*
X156505000Y-89526859D01*
X156505001Y-91607024D01*
X156050097Y-92061928D01*
X154700000Y-92061928D01*
X154575518Y-92074188D01*
X154455820Y-92110498D01*
X154345506Y-92169463D01*
X154248815Y-92248815D01*
X154169463Y-92345506D01*
X154110498Y-92455820D01*
X154074188Y-92575518D01*
X154061928Y-92700000D01*
X154061928Y-95300000D01*
X154074188Y-95424482D01*
X154110498Y-95544180D01*
X154169463Y-95654494D01*
X154248815Y-95751185D01*
X154345506Y-95830537D01*
X154455820Y-95889502D01*
X154575518Y-95925812D01*
X154665000Y-95934625D01*
X154665001Y-99934412D01*
X154658541Y-100000000D01*
X154684317Y-100261705D01*
X154752552Y-100486645D01*
X154760654Y-100513354D01*
X154884619Y-100745275D01*
X154961928Y-100839477D01*
X154961928Y-102400000D01*
X154974188Y-102524482D01*
X155010498Y-102644180D01*
X155069463Y-102754494D01*
X155148815Y-102851185D01*
X155245506Y-102930537D01*
X155355820Y-102989502D01*
X155475518Y-103025812D01*
X155600000Y-103038072D01*
X158400000Y-103038072D01*
X158524482Y-103025812D01*
X158644180Y-102989502D01*
X158754494Y-102930537D01*
X158851185Y-102851185D01*
X158930537Y-102754494D01*
X158989502Y-102644180D01*
X159025812Y-102524482D01*
X159038072Y-102400000D01*
X159038072Y-99600000D01*
X159025812Y-99475518D01*
X158989502Y-99355820D01*
X158930537Y-99245506D01*
X158851185Y-99148815D01*
X158754494Y-99069463D01*
X158644180Y-99010498D01*
X158524482Y-98974188D01*
X158400000Y-98961928D01*
X157335000Y-98961928D01*
X157335000Y-95934625D01*
X157424482Y-95925812D01*
X157544180Y-95889502D01*
X157654494Y-95830537D01*
X157751185Y-95751185D01*
X157830537Y-95654494D01*
X157889502Y-95544180D01*
X157925812Y-95424482D01*
X157938072Y-95300000D01*
X157938072Y-93949903D01*
X158737613Y-93150362D01*
X158788555Y-93108555D01*
X158955382Y-92905275D01*
X159079347Y-92673354D01*
X159155683Y-92421706D01*
X159175000Y-92225579D01*
X159181459Y-92160000D01*
X159175000Y-92094421D01*
X159175000Y-89526859D01*
X159219853Y-89418574D01*
X159228961Y-89372784D01*
X159239347Y-89353354D01*
X159315683Y-89101706D01*
X159335000Y-88905579D01*
X159341459Y-88840001D01*
X159335000Y-88774422D01*
X159335000Y-85526859D01*
X159379853Y-85418574D01*
X159435000Y-85141335D01*
X159435000Y-84858665D01*
X159379853Y-84581426D01*
X159271680Y-84320273D01*
X159142539Y-84127000D01*
X161612721Y-84127000D01*
X161482148Y-84371285D01*
X161388657Y-84679484D01*
X161357089Y-85000000D01*
X161388657Y-85320516D01*
X161482148Y-85628715D01*
X161633969Y-85912752D01*
X161838286Y-86161714D01*
X162087248Y-86366031D01*
X162371285Y-86517852D01*
X162679484Y-86611343D01*
X162919678Y-86635000D01*
X163322762Y-86635000D01*
X166900676Y-90212915D01*
X166900681Y-90212919D01*
X169605000Y-92917239D01*
X169605000Y-92964042D01*
X169525225Y-93083434D01*
X169379361Y-93435581D01*
X169305000Y-93809419D01*
X169305000Y-94190581D01*
X169379361Y-94564419D01*
X169525225Y-94916566D01*
X169605001Y-95035959D01*
X169605001Y-95187760D01*
X162910834Y-101881928D01*
X162785000Y-101881928D01*
X162660518Y-101894188D01*
X162540820Y-101930498D01*
X162430506Y-101989463D01*
X162333815Y-102068815D01*
X162254463Y-102165506D01*
X162195498Y-102275820D01*
X162159188Y-102395518D01*
X162146928Y-102520000D01*
X162146928Y-102645833D01*
X160627762Y-104165000D01*
X156480322Y-104165000D01*
X156400000Y-104157089D01*
X156079483Y-104188657D01*
X155771285Y-104282148D01*
X155487248Y-104433969D01*
X155238286Y-104638286D01*
X155187084Y-104700676D01*
X152722762Y-107165000D01*
X146077239Y-107165000D01*
X144190219Y-105277980D01*
X148401626Y-105277980D01*
X148521514Y-105562836D01*
X148845210Y-105723699D01*
X149194069Y-105818322D01*
X149554684Y-105843067D01*
X149913198Y-105796985D01*
X150255833Y-105681846D01*
X150478486Y-105562836D01*
X150598374Y-105277980D01*
X149500000Y-104179605D01*
X148401626Y-105277980D01*
X144190219Y-105277980D01*
X143838072Y-104925834D01*
X143838072Y-104054684D01*
X147656933Y-104054684D01*
X147703015Y-104413198D01*
X147818154Y-104755833D01*
X147937164Y-104978486D01*
X148222020Y-105098374D01*
X149320395Y-104000000D01*
X149679605Y-104000000D01*
X150777980Y-105098374D01*
X151062836Y-104978486D01*
X151223699Y-104654790D01*
X151318322Y-104305931D01*
X151343067Y-103945316D01*
X151296985Y-103586802D01*
X151181846Y-103244167D01*
X151062836Y-103021514D01*
X150777980Y-102901626D01*
X149679605Y-104000000D01*
X149320395Y-104000000D01*
X148222020Y-102901626D01*
X147937164Y-103021514D01*
X147776301Y-103345210D01*
X147681678Y-103694069D01*
X147656933Y-104054684D01*
X143838072Y-104054684D01*
X143838072Y-102800000D01*
X143830392Y-102722020D01*
X148401626Y-102722020D01*
X149500000Y-103820395D01*
X150598374Y-102722020D01*
X150478486Y-102437164D01*
X150154790Y-102276301D01*
X149805931Y-102181678D01*
X149445316Y-102156933D01*
X149086802Y-102203015D01*
X148744167Y-102318154D01*
X148521514Y-102437164D01*
X148401626Y-102722020D01*
X143830392Y-102722020D01*
X143825812Y-102675518D01*
X143789502Y-102555820D01*
X143730537Y-102445506D01*
X143651185Y-102348815D01*
X143554494Y-102269463D01*
X143444180Y-102210498D01*
X143324482Y-102174188D01*
X143200000Y-102161928D01*
X140800000Y-102161928D01*
X140675518Y-102174188D01*
X140555820Y-102210498D01*
X140445506Y-102269463D01*
X140348815Y-102348815D01*
X140335532Y-102365000D01*
X131002318Y-102365000D01*
X130892012Y-102098698D01*
X130658363Y-101749017D01*
X130360983Y-101451637D01*
X130011302Y-101217988D01*
X129622756Y-101057047D01*
X129210279Y-100975000D01*
X128789721Y-100975000D01*
X128377244Y-101057047D01*
X127988698Y-101217988D01*
X127639017Y-101451637D01*
X127341637Y-101749017D01*
X127107988Y-102098698D01*
X126947047Y-102487244D01*
X126865000Y-102899721D01*
X126865000Y-103320279D01*
X126947047Y-103732756D01*
X127107988Y-104121302D01*
X127341637Y-104470983D01*
X127639017Y-104768363D01*
X127988698Y-105002012D01*
X128377244Y-105162953D01*
X128789721Y-105245000D01*
X128829771Y-105245000D01*
X128977248Y-105366031D01*
X129261285Y-105517852D01*
X129569484Y-105611343D01*
X129809678Y-105635000D01*
X129809680Y-105635000D01*
X129889999Y-105642911D01*
X129970319Y-105635000D01*
X140335532Y-105635000D01*
X140348815Y-105651185D01*
X140384732Y-105680661D01*
X140388657Y-105720516D01*
X140424318Y-105838072D01*
X140482148Y-106028714D01*
X140531218Y-106120517D01*
X140633970Y-106312752D01*
X140838287Y-106561714D01*
X140900682Y-106612920D01*
X144187080Y-109899319D01*
X144238286Y-109961714D01*
X144487248Y-110166031D01*
X144771285Y-110317852D01*
X145079484Y-110411343D01*
X145319678Y-110435000D01*
X145319680Y-110435000D01*
X145399999Y-110442911D01*
X145480319Y-110435000D01*
X153319681Y-110435000D01*
X153400000Y-110442911D01*
X153480319Y-110435000D01*
X153480322Y-110435000D01*
X153720516Y-110411343D01*
X154028715Y-110317852D01*
X154312752Y-110166031D01*
X154561714Y-109961714D01*
X154612924Y-109899314D01*
X156163423Y-108348816D01*
X162150000Y-108348816D01*
X162150000Y-108651184D01*
X162208989Y-108947743D01*
X162324701Y-109227095D01*
X162492688Y-109478505D01*
X162706495Y-109692312D01*
X162957905Y-109860299D01*
X163237257Y-109976011D01*
X163533816Y-110035000D01*
X163836184Y-110035000D01*
X164132743Y-109976011D01*
X164412095Y-109860299D01*
X164663505Y-109692312D01*
X164877312Y-109478505D01*
X165045299Y-109227095D01*
X165161011Y-108947743D01*
X165220000Y-108651184D01*
X165220000Y-108348816D01*
X165161011Y-108052257D01*
X165045299Y-107772905D01*
X164877312Y-107521495D01*
X164663505Y-107307688D01*
X164412095Y-107139701D01*
X164132743Y-107023989D01*
X163836184Y-106965000D01*
X163533816Y-106965000D01*
X163237257Y-107023989D01*
X162957905Y-107139701D01*
X162706495Y-107307688D01*
X162492688Y-107521495D01*
X162324701Y-107772905D01*
X162208989Y-108052257D01*
X162150000Y-108348816D01*
X156163423Y-108348816D01*
X157077240Y-107435000D01*
X161224681Y-107435000D01*
X161305000Y-107442911D01*
X161385319Y-107435000D01*
X161385322Y-107435000D01*
X161625516Y-107411343D01*
X161933715Y-107317852D01*
X162217752Y-107166031D01*
X162466714Y-106961714D01*
X162517925Y-106899313D01*
X164459167Y-104958072D01*
X164585000Y-104958072D01*
X164709482Y-104945812D01*
X164829180Y-104909502D01*
X164939494Y-104850537D01*
X165036185Y-104771185D01*
X165115537Y-104674494D01*
X165174502Y-104564180D01*
X165210812Y-104444482D01*
X165223072Y-104320000D01*
X165223072Y-104194166D01*
X166873000Y-102544238D01*
X166873000Y-149873000D01*
X166148778Y-149873000D01*
X166175960Y-149775565D01*
X165390000Y-148989605D01*
X164604040Y-149775565D01*
X164631222Y-149873000D01*
X164171131Y-149873000D01*
X164201502Y-149816180D01*
X164237812Y-149696482D01*
X164250072Y-149572000D01*
X164250072Y-149547317D01*
X164424435Y-149595960D01*
X165210395Y-148810000D01*
X165569605Y-148810000D01*
X166355565Y-149595960D01*
X166595656Y-149528980D01*
X166712756Y-149279952D01*
X166779023Y-149012865D01*
X166791910Y-148737983D01*
X166750922Y-148465867D01*
X166657636Y-148206977D01*
X166595656Y-148091020D01*
X166355565Y-148024040D01*
X165569605Y-148810000D01*
X165210395Y-148810000D01*
X164424435Y-148024040D01*
X164250072Y-148072683D01*
X164250072Y-148048000D01*
X164237812Y-147923518D01*
X164201502Y-147803820D01*
X164142537Y-147693506D01*
X164085000Y-147623397D01*
X164085000Y-147496915D01*
X164095506Y-147505537D01*
X164205820Y-147564502D01*
X164325518Y-147600812D01*
X164450000Y-147613072D01*
X164664250Y-147610000D01*
X164822998Y-147451252D01*
X164822998Y-147529385D01*
X164786977Y-147542364D01*
X164671020Y-147604344D01*
X164604040Y-147844435D01*
X165390000Y-148630395D01*
X166175960Y-147844435D01*
X166108980Y-147604344D01*
X165859952Y-147487244D01*
X165834484Y-147480925D01*
X165901185Y-147426185D01*
X165980537Y-147329494D01*
X166039502Y-147219180D01*
X166075812Y-147099482D01*
X166088072Y-146975000D01*
X166085000Y-146535750D01*
X165926250Y-146377000D01*
X165077000Y-146377000D01*
X165077000Y-146397000D01*
X164823000Y-146397000D01*
X164823000Y-146377000D01*
X164803000Y-146377000D01*
X164803000Y-146123000D01*
X164823000Y-146123000D01*
X164823000Y-145048750D01*
X165077000Y-145048750D01*
X165077000Y-146123000D01*
X165926250Y-146123000D01*
X166085000Y-145964250D01*
X166088072Y-145525000D01*
X166075812Y-145400518D01*
X166039502Y-145280820D01*
X165980537Y-145170506D01*
X165901185Y-145073815D01*
X165804494Y-144994463D01*
X165694180Y-144935498D01*
X165574482Y-144899188D01*
X165450000Y-144886928D01*
X165235750Y-144890000D01*
X165077000Y-145048750D01*
X164823000Y-145048750D01*
X164664250Y-144890000D01*
X164450000Y-144886928D01*
X164325518Y-144899188D01*
X164205820Y-144935498D01*
X164095506Y-144994463D01*
X163998815Y-145073815D01*
X163933342Y-145153594D01*
X163927962Y-145147038D01*
X163793386Y-145036595D01*
X163639850Y-144954528D01*
X163473254Y-144903992D01*
X163300000Y-144886928D01*
X162800000Y-144886928D01*
X162626746Y-144903992D01*
X162460150Y-144954528D01*
X162306614Y-145036595D01*
X162172038Y-145147038D01*
X162061595Y-145281614D01*
X161979528Y-145435150D01*
X161928992Y-145601746D01*
X161911928Y-145775000D01*
X161911928Y-146725000D01*
X161928992Y-146898254D01*
X161979528Y-147064850D01*
X162015000Y-147131214D01*
X162015000Y-147417118D01*
X161963518Y-147422188D01*
X161843820Y-147458498D01*
X161733506Y-147517463D01*
X161636815Y-147596815D01*
X161557463Y-147693506D01*
X161498498Y-147803820D01*
X161462188Y-147923518D01*
X161449928Y-148048000D01*
X161449928Y-148746362D01*
X161231290Y-148965000D01*
X154675952Y-148965000D01*
X154780535Y-148895120D01*
X154975120Y-148700535D01*
X155128005Y-148471727D01*
X155233314Y-148217490D01*
X155287000Y-147947592D01*
X155287000Y-147672408D01*
X155233314Y-147402510D01*
X155128005Y-147148273D01*
X154975120Y-146919465D01*
X154825000Y-146769345D01*
X154825000Y-145935932D01*
X154829524Y-145890000D01*
X154811471Y-145706708D01*
X154771600Y-145575271D01*
X154758007Y-145530460D01*
X154671186Y-145368028D01*
X154554344Y-145225656D01*
X154518659Y-145196370D01*
X151981685Y-142659396D01*
X151976007Y-142601746D01*
X151925471Y-142435150D01*
X151843404Y-142281614D01*
X151789999Y-142216539D01*
X151789999Y-140052408D01*
X152493000Y-140052408D01*
X152493000Y-140327592D01*
X152546686Y-140597490D01*
X152651995Y-140851727D01*
X152804880Y-141080535D01*
X152999465Y-141275120D01*
X153228273Y-141428005D01*
X153482510Y-141533314D01*
X153752408Y-141587000D01*
X154027592Y-141587000D01*
X154297490Y-141533314D01*
X154551727Y-141428005D01*
X154780535Y-141275120D01*
X154975120Y-141080535D01*
X154993913Y-141052408D01*
X161453000Y-141052408D01*
X161453000Y-141327592D01*
X161506686Y-141597490D01*
X161611995Y-141851727D01*
X161764880Y-142080535D01*
X161959465Y-142275120D01*
X162188273Y-142428005D01*
X162442510Y-142533314D01*
X162712408Y-142587000D01*
X162987592Y-142587000D01*
X163257490Y-142533314D01*
X163511727Y-142428005D01*
X163740535Y-142275120D01*
X163935120Y-142080535D01*
X164088005Y-141851727D01*
X164193314Y-141597490D01*
X164247000Y-141327592D01*
X164247000Y-141052408D01*
X164193314Y-140782510D01*
X164088005Y-140528273D01*
X163935120Y-140299465D01*
X163740535Y-140104880D01*
X163511727Y-139951995D01*
X163257490Y-139846686D01*
X162987592Y-139793000D01*
X162712408Y-139793000D01*
X162442510Y-139846686D01*
X162188273Y-139951995D01*
X161959465Y-140104880D01*
X161764880Y-140299465D01*
X161611995Y-140528273D01*
X161506686Y-140782510D01*
X161453000Y-141052408D01*
X154993913Y-141052408D01*
X155128005Y-140851727D01*
X155233314Y-140597490D01*
X155287000Y-140327592D01*
X155287000Y-140052408D01*
X155233314Y-139782510D01*
X155128005Y-139528273D01*
X154975120Y-139299465D01*
X154780535Y-139104880D01*
X154551727Y-138951995D01*
X154297490Y-138846686D01*
X154027592Y-138793000D01*
X153752408Y-138793000D01*
X153482510Y-138846686D01*
X153228273Y-138951995D01*
X152999465Y-139104880D01*
X152804880Y-139299465D01*
X152651995Y-139528273D01*
X152546686Y-139782510D01*
X152493000Y-140052408D01*
X151789999Y-140052408D01*
X151789999Y-139132290D01*
X152248660Y-138673629D01*
X152284344Y-138644344D01*
X152401186Y-138501972D01*
X152488007Y-138339540D01*
X152523350Y-138223029D01*
X152541472Y-138163292D01*
X152559524Y-137980000D01*
X152555000Y-137934065D01*
X152555000Y-137094396D01*
X152714396Y-136935000D01*
X159751843Y-136935000D01*
X159748320Y-136940273D01*
X159640147Y-137201426D01*
X159585000Y-137478665D01*
X159585000Y-137761335D01*
X159640147Y-138038574D01*
X159748320Y-138299727D01*
X159905363Y-138534759D01*
X160105241Y-138734637D01*
X160340273Y-138891680D01*
X160601426Y-138999853D01*
X160878665Y-139055000D01*
X161161335Y-139055000D01*
X161438574Y-138999853D01*
X161699727Y-138891680D01*
X161934759Y-138734637D01*
X162134637Y-138534759D01*
X162290000Y-138302241D01*
X162445363Y-138534759D01*
X162645241Y-138734637D01*
X162880273Y-138891680D01*
X163141426Y-138999853D01*
X163418665Y-139055000D01*
X163701335Y-139055000D01*
X163978574Y-138999853D01*
X164239727Y-138891680D01*
X164474759Y-138734637D01*
X164674637Y-138534759D01*
X164831680Y-138299727D01*
X164939853Y-138038574D01*
X164995000Y-137761335D01*
X164995000Y-137478665D01*
X164939853Y-137201426D01*
X164831680Y-136940273D01*
X164674637Y-136705241D01*
X164474759Y-136505363D01*
X164239727Y-136348320D01*
X163978574Y-136240147D01*
X163701335Y-136185000D01*
X163447289Y-136185000D01*
X162633630Y-135371341D01*
X162604344Y-135335656D01*
X162461972Y-135218814D01*
X162299540Y-135131993D01*
X162123292Y-135078529D01*
X161985932Y-135065000D01*
X161940000Y-135060476D01*
X161894068Y-135065000D01*
X152714396Y-135065000D01*
X152534759Y-134885363D01*
X152309724Y-134735000D01*
X161954068Y-134735000D01*
X162000000Y-134739524D01*
X162045932Y-134735000D01*
X162183292Y-134721471D01*
X162359540Y-134668007D01*
X162521972Y-134581186D01*
X162664344Y-134464344D01*
X162693630Y-134428659D01*
X164188664Y-132933626D01*
X164224344Y-132904344D01*
X164341186Y-132761972D01*
X164428007Y-132599540D01*
X164481471Y-132423292D01*
X164495000Y-132285932D01*
X164499524Y-132240001D01*
X164495000Y-132194069D01*
X164495000Y-131094396D01*
X164674637Y-130914759D01*
X164831680Y-130679727D01*
X164939853Y-130418574D01*
X164995000Y-130141335D01*
X164995000Y-129858665D01*
X164939853Y-129581426D01*
X164831680Y-129320273D01*
X164674637Y-129085241D01*
X164474759Y-128885363D01*
X164239727Y-128728320D01*
X163978574Y-128620147D01*
X163701335Y-128565000D01*
X163418665Y-128565000D01*
X163141426Y-128620147D01*
X162880273Y-128728320D01*
X162645241Y-128885363D01*
X162445363Y-129085241D01*
X162289085Y-129319128D01*
X162256671Y-129258486D01*
X162012702Y-129186903D01*
X161199605Y-130000000D01*
X162012702Y-130813097D01*
X162256671Y-130741514D01*
X162287194Y-130677008D01*
X162288320Y-130679727D01*
X162445363Y-130914759D01*
X162625000Y-131094396D01*
X162625001Y-131852709D01*
X161612711Y-132865000D01*
X150045924Y-132865000D01*
X149999999Y-132860477D01*
X149954074Y-132865000D01*
X149954068Y-132865000D01*
X149835110Y-132876717D01*
X149816707Y-132878529D01*
X149763243Y-132894747D01*
X149640460Y-132931993D01*
X149478028Y-133018814D01*
X149335656Y-133135656D01*
X149306376Y-133171334D01*
X148451341Y-134026370D01*
X148415656Y-134055656D01*
X148298814Y-134198029D01*
X148211993Y-134360461D01*
X148191303Y-134428667D01*
X148158529Y-134536709D01*
X148140476Y-134720000D01*
X148145000Y-134765933D01*
X148145000Y-134905604D01*
X147965363Y-135085241D01*
X147810000Y-135317759D01*
X147654637Y-135085241D01*
X147454759Y-134885363D01*
X147219727Y-134728320D01*
X146958574Y-134620147D01*
X146681335Y-134565000D01*
X146398665Y-134565000D01*
X146121426Y-134620147D01*
X145860273Y-134728320D01*
X145625241Y-134885363D01*
X145426643Y-135083961D01*
X145425812Y-135075518D01*
X145389502Y-134955820D01*
X145330537Y-134845506D01*
X145251185Y-134748815D01*
X145154494Y-134669463D01*
X145044180Y-134610498D01*
X144924482Y-134574188D01*
X144800000Y-134561928D01*
X143200000Y-134561928D01*
X143075518Y-134574188D01*
X142955820Y-134610498D01*
X142845506Y-134669463D01*
X142748815Y-134748815D01*
X142669463Y-134845506D01*
X142610498Y-134955820D01*
X142574188Y-135075518D01*
X142561928Y-135200000D01*
X142561928Y-136800000D01*
X142574188Y-136924482D01*
X142610498Y-137044180D01*
X142669463Y-137154494D01*
X142748815Y-137251185D01*
X142845506Y-137330537D01*
X142955820Y-137389502D01*
X143075518Y-137425812D01*
X143200000Y-137438072D01*
X144800000Y-137438072D01*
X144924482Y-137425812D01*
X145044180Y-137389502D01*
X145154494Y-137330537D01*
X145251185Y-137251185D01*
X145330537Y-137154494D01*
X145389502Y-137044180D01*
X145425812Y-136924482D01*
X145426643Y-136916039D01*
X145565001Y-137054397D01*
X145565000Y-137332112D01*
X145556613Y-137336595D01*
X145422038Y-137447038D01*
X145311595Y-137581613D01*
X145229528Y-137735149D01*
X145178992Y-137901745D01*
X145161928Y-138074999D01*
X145161928Y-138600001D01*
X145178992Y-138773255D01*
X145229528Y-138939851D01*
X145311595Y-139093387D01*
X145378276Y-139174637D01*
X145348815Y-139198815D01*
X145269463Y-139295506D01*
X145210498Y-139405820D01*
X145174188Y-139525518D01*
X145161928Y-139650000D01*
X145165000Y-139876750D01*
X145323750Y-140035500D01*
X146373000Y-140035500D01*
X146373000Y-140015500D01*
X146627000Y-140015500D01*
X146627000Y-140035500D01*
X147676250Y-140035500D01*
X147835000Y-139876750D01*
X147838072Y-139650000D01*
X147825812Y-139525518D01*
X147789502Y-139405820D01*
X147730537Y-139295506D01*
X147651185Y-139198815D01*
X147621724Y-139174637D01*
X147688405Y-139093387D01*
X147770472Y-138939851D01*
X147821008Y-138773255D01*
X147838072Y-138600001D01*
X147838072Y-138074999D01*
X147821008Y-137901745D01*
X147770472Y-137735149D01*
X147688405Y-137581613D01*
X147577962Y-137447038D01*
X147443387Y-137336595D01*
X147435000Y-137332112D01*
X147435000Y-137127840D01*
X147454759Y-137114637D01*
X147654637Y-136914759D01*
X147810000Y-136682241D01*
X147965363Y-136914759D01*
X148165241Y-137114637D01*
X148400273Y-137271680D01*
X148661426Y-137379853D01*
X148938665Y-137435000D01*
X149221335Y-137435000D01*
X149498574Y-137379853D01*
X149759727Y-137271680D01*
X149994759Y-137114637D01*
X150194637Y-136914759D01*
X150350000Y-136682241D01*
X150505363Y-136914759D01*
X150685000Y-137094396D01*
X150685000Y-137592711D01*
X150226335Y-138051376D01*
X150190656Y-138080657D01*
X150073814Y-138223029D01*
X150025391Y-138313623D01*
X149986993Y-138385461D01*
X149933528Y-138561710D01*
X149915475Y-138745001D01*
X149920000Y-138790943D01*
X149919999Y-142090649D01*
X149906184Y-142073815D01*
X149809493Y-141994463D01*
X149699179Y-141935498D01*
X149579481Y-141899188D01*
X149454999Y-141886928D01*
X149240749Y-141890000D01*
X149081999Y-142048750D01*
X149081999Y-143123000D01*
X149101999Y-143123000D01*
X149101999Y-143377000D01*
X149081999Y-143377000D01*
X149081999Y-145438001D01*
X149101999Y-145438001D01*
X149101999Y-145692001D01*
X149081999Y-145692001D01*
X149081999Y-145712001D01*
X148827999Y-145712001D01*
X148827999Y-145692001D01*
X147978749Y-145692001D01*
X147819999Y-145850751D01*
X147816927Y-146290001D01*
X147829187Y-146414483D01*
X147865497Y-146534181D01*
X147924462Y-146644495D01*
X148003814Y-146741186D01*
X148043710Y-146773928D01*
X148024040Y-146844435D01*
X148810000Y-147630395D01*
X148824143Y-147616253D01*
X149003748Y-147795858D01*
X148989605Y-147810000D01*
X149775565Y-148595960D01*
X150015656Y-148528980D01*
X150079485Y-148393240D01*
X150111995Y-148471727D01*
X150264880Y-148700535D01*
X150459465Y-148895120D01*
X150564048Y-148965000D01*
X149543112Y-148965000D01*
X149595960Y-148775565D01*
X148810000Y-147989605D01*
X148024040Y-148775565D01*
X148076888Y-148965000D01*
X141923112Y-148965000D01*
X141975960Y-148775565D01*
X141190000Y-147989605D01*
X141175858Y-148003748D01*
X140996253Y-147824143D01*
X141010395Y-147810000D01*
X141369605Y-147810000D01*
X142155565Y-148595960D01*
X142395656Y-148528980D01*
X142512756Y-148279952D01*
X142579023Y-148012865D01*
X142585157Y-147882017D01*
X147408090Y-147882017D01*
X147449078Y-148154133D01*
X147542364Y-148413023D01*
X147604344Y-148528980D01*
X147844435Y-148595960D01*
X148630395Y-147810000D01*
X147844435Y-147024040D01*
X147604344Y-147091020D01*
X147487244Y-147340048D01*
X147420977Y-147607135D01*
X147408090Y-147882017D01*
X142585157Y-147882017D01*
X142591910Y-147737983D01*
X142550922Y-147465867D01*
X142457636Y-147206977D01*
X142395656Y-147091020D01*
X142155565Y-147024040D01*
X141369605Y-147810000D01*
X141010395Y-147810000D01*
X140224435Y-147024040D01*
X140050072Y-147072683D01*
X140050072Y-147048000D01*
X140037812Y-146923518D01*
X140001502Y-146803820D01*
X139942537Y-146693506D01*
X139892269Y-146632254D01*
X139927962Y-146602962D01*
X139933342Y-146596406D01*
X139998815Y-146676185D01*
X140095506Y-146755537D01*
X140205820Y-146814502D01*
X140325518Y-146850812D01*
X140419692Y-146860087D01*
X141190000Y-147630395D01*
X141975960Y-146844435D01*
X141921960Y-146650871D01*
X141980537Y-146579494D01*
X142039502Y-146469180D01*
X142075812Y-146349482D01*
X142088072Y-146225000D01*
X142085000Y-145785750D01*
X141926250Y-145627000D01*
X141077000Y-145627000D01*
X141077000Y-145647000D01*
X140823000Y-145647000D01*
X140823000Y-145627000D01*
X140803000Y-145627000D01*
X140803000Y-145373000D01*
X140823000Y-145373000D01*
X140823000Y-144298750D01*
X141077000Y-144298750D01*
X141077000Y-145373000D01*
X141926250Y-145373000D01*
X142085000Y-145214250D01*
X142088072Y-144775000D01*
X142075812Y-144650518D01*
X142039502Y-144530820D01*
X141980537Y-144420506D01*
X141901185Y-144323815D01*
X141804494Y-144244463D01*
X141694180Y-144185498D01*
X141574482Y-144149188D01*
X141450000Y-144136928D01*
X141235750Y-144140000D01*
X141077000Y-144298750D01*
X140823000Y-144298750D01*
X140664250Y-144140000D01*
X140450000Y-144136928D01*
X140325518Y-144149188D01*
X140205820Y-144185498D01*
X140095506Y-144244463D01*
X139998815Y-144323815D01*
X139933342Y-144403594D01*
X139927962Y-144397038D01*
X139793386Y-144286595D01*
X139639850Y-144204528D01*
X139473254Y-144153992D01*
X139300000Y-144136928D01*
X138800639Y-144136928D01*
X138638711Y-143975000D01*
X147816927Y-143975000D01*
X147829187Y-144099482D01*
X147865497Y-144219180D01*
X147924462Y-144329494D01*
X147988480Y-144407501D01*
X147924462Y-144485507D01*
X147865497Y-144595821D01*
X147829187Y-144715519D01*
X147816927Y-144840001D01*
X147819999Y-145279251D01*
X147978749Y-145438001D01*
X148827999Y-145438001D01*
X148827999Y-143377000D01*
X147978749Y-143377000D01*
X147819999Y-143535750D01*
X147816927Y-143975000D01*
X138638711Y-143975000D01*
X137188711Y-142525000D01*
X147816927Y-142525000D01*
X147819999Y-142964250D01*
X147978749Y-143123000D01*
X148827999Y-143123000D01*
X148827999Y-142048750D01*
X148669249Y-141890000D01*
X148454999Y-141886928D01*
X148330517Y-141899188D01*
X148210819Y-141935498D01*
X148100505Y-141994463D01*
X148003814Y-142073815D01*
X147924462Y-142170506D01*
X147865497Y-142280820D01*
X147829187Y-142400518D01*
X147816927Y-142525000D01*
X137188711Y-142525000D01*
X136035000Y-141371290D01*
X136035000Y-140052408D01*
X137253000Y-140052408D01*
X137253000Y-140327592D01*
X137306686Y-140597490D01*
X137411995Y-140851727D01*
X137564880Y-141080535D01*
X137759465Y-141275120D01*
X137988273Y-141428005D01*
X138242510Y-141533314D01*
X138512408Y-141587000D01*
X138787592Y-141587000D01*
X139057490Y-141533314D01*
X139311727Y-141428005D01*
X139540535Y-141275120D01*
X139735120Y-141080535D01*
X139888005Y-140851727D01*
X139961208Y-140675000D01*
X145161928Y-140675000D01*
X145174188Y-140799482D01*
X145210498Y-140919180D01*
X145269463Y-141029494D01*
X145348815Y-141126185D01*
X145445506Y-141205537D01*
X145555820Y-141264502D01*
X145675518Y-141300812D01*
X145800000Y-141313072D01*
X146214250Y-141310000D01*
X146373000Y-141151250D01*
X146373000Y-140289500D01*
X146627000Y-140289500D01*
X146627000Y-141151250D01*
X146785750Y-141310000D01*
X147200000Y-141313072D01*
X147324482Y-141300812D01*
X147444180Y-141264502D01*
X147554494Y-141205537D01*
X147651185Y-141126185D01*
X147730537Y-141029494D01*
X147789502Y-140919180D01*
X147825812Y-140799482D01*
X147838072Y-140675000D01*
X147835000Y-140448250D01*
X147676250Y-140289500D01*
X146627000Y-140289500D01*
X146373000Y-140289500D01*
X145323750Y-140289500D01*
X145165000Y-140448250D01*
X145161928Y-140675000D01*
X139961208Y-140675000D01*
X139993314Y-140597490D01*
X140047000Y-140327592D01*
X140047000Y-140052408D01*
X139993314Y-139782510D01*
X139888005Y-139528273D01*
X139735120Y-139299465D01*
X139540535Y-139104880D01*
X139311727Y-138951995D01*
X139057490Y-138846686D01*
X138787592Y-138793000D01*
X138512408Y-138793000D01*
X138242510Y-138846686D01*
X137988273Y-138951995D01*
X137759465Y-139104880D01*
X137564880Y-139299465D01*
X137411995Y-139528273D01*
X137306686Y-139782510D01*
X137253000Y-140052408D01*
X136035000Y-140052408D01*
X136035000Y-130799570D01*
X136125000Y-130799570D01*
X136125000Y-131200430D01*
X136203204Y-131593587D01*
X136356607Y-131963934D01*
X136579313Y-132297237D01*
X136862763Y-132580687D01*
X137196066Y-132803393D01*
X137566413Y-132956796D01*
X137959570Y-133035000D01*
X138360430Y-133035000D01*
X138753587Y-132956796D01*
X139123934Y-132803393D01*
X139457237Y-132580687D01*
X139740687Y-132297237D01*
X139963393Y-131963934D01*
X139975378Y-131935000D01*
X148754068Y-131935000D01*
X148800000Y-131939524D01*
X148845932Y-131935000D01*
X148983292Y-131921471D01*
X149159540Y-131868007D01*
X149321972Y-131781186D01*
X149464344Y-131664344D01*
X149493631Y-131628658D01*
X149708654Y-131413634D01*
X149744344Y-131384344D01*
X149861186Y-131241972D01*
X149948007Y-131079540D01*
X149974348Y-130992702D01*
X160206903Y-130992702D01*
X160278486Y-131236671D01*
X160533996Y-131357571D01*
X160808184Y-131426300D01*
X161090512Y-131440217D01*
X161370130Y-131398787D01*
X161636292Y-131303603D01*
X161761514Y-131236671D01*
X161833097Y-130992702D01*
X161020000Y-130179605D01*
X160206903Y-130992702D01*
X149974348Y-130992702D01*
X149974739Y-130991416D01*
X150001472Y-130903292D01*
X150019524Y-130720000D01*
X150015000Y-130674065D01*
X150015000Y-130070512D01*
X159579783Y-130070512D01*
X159621213Y-130350130D01*
X159716397Y-130616292D01*
X159783329Y-130741514D01*
X160027298Y-130813097D01*
X160840395Y-130000000D01*
X160027298Y-129186903D01*
X159783329Y-129258486D01*
X159662429Y-129513996D01*
X159593700Y-129788184D01*
X159579783Y-130070512D01*
X150015000Y-130070512D01*
X150015000Y-129474396D01*
X150194637Y-129294759D01*
X150350000Y-129062241D01*
X150505363Y-129294759D01*
X150705241Y-129494637D01*
X150940273Y-129651680D01*
X151201426Y-129759853D01*
X151478665Y-129815000D01*
X151761335Y-129815000D01*
X152038574Y-129759853D01*
X152299727Y-129651680D01*
X152534759Y-129494637D01*
X152734637Y-129294759D01*
X152891680Y-129059727D01*
X152913396Y-129007298D01*
X160206903Y-129007298D01*
X161020000Y-129820395D01*
X161833097Y-129007298D01*
X161761514Y-128763329D01*
X161506004Y-128642429D01*
X161231816Y-128573700D01*
X160949488Y-128559783D01*
X160669870Y-128601213D01*
X160403708Y-128696397D01*
X160278486Y-128763329D01*
X160206903Y-129007298D01*
X152913396Y-129007298D01*
X152999853Y-128798574D01*
X153055000Y-128521335D01*
X153055000Y-128238665D01*
X152999853Y-127961426D01*
X152891680Y-127700273D01*
X152734637Y-127465241D01*
X152534759Y-127265363D01*
X152299727Y-127108320D01*
X152038574Y-127000147D01*
X151761335Y-126945000D01*
X151478665Y-126945000D01*
X151201426Y-127000147D01*
X150940273Y-127108320D01*
X150705241Y-127265363D01*
X150505363Y-127465241D01*
X150350000Y-127697759D01*
X150194637Y-127465241D01*
X149994759Y-127265363D01*
X149759727Y-127108320D01*
X149498574Y-127000147D01*
X149221335Y-126945000D01*
X148938665Y-126945000D01*
X148661426Y-127000147D01*
X148400273Y-127108320D01*
X148165241Y-127265363D01*
X147965363Y-127465241D01*
X147810000Y-127697759D01*
X147654637Y-127465241D01*
X147454759Y-127265363D01*
X147219727Y-127108320D01*
X146958574Y-127000147D01*
X146681335Y-126945000D01*
X146398665Y-126945000D01*
X146121426Y-127000147D01*
X145860273Y-127108320D01*
X145625241Y-127265363D01*
X145425363Y-127465241D01*
X145270000Y-127697759D01*
X145114637Y-127465241D01*
X144914759Y-127265363D01*
X144679727Y-127108320D01*
X144418574Y-127000147D01*
X144141335Y-126945000D01*
X143858665Y-126945000D01*
X143581426Y-127000147D01*
X143320273Y-127108320D01*
X143085241Y-127265363D01*
X142885363Y-127465241D01*
X142728320Y-127700273D01*
X142620147Y-127961426D01*
X142565000Y-128238665D01*
X142565000Y-128521335D01*
X142620147Y-128798574D01*
X142728320Y-129059727D01*
X142885363Y-129294759D01*
X143085241Y-129494637D01*
X143320273Y-129651680D01*
X143581426Y-129759853D01*
X143858665Y-129815000D01*
X144141335Y-129815000D01*
X144418574Y-129759853D01*
X144679727Y-129651680D01*
X144914759Y-129494637D01*
X145114637Y-129294759D01*
X145270000Y-129062241D01*
X145425363Y-129294759D01*
X145625241Y-129494637D01*
X145860273Y-129651680D01*
X146121426Y-129759853D01*
X146398665Y-129815000D01*
X146681335Y-129815000D01*
X146958574Y-129759853D01*
X147219727Y-129651680D01*
X147454759Y-129494637D01*
X147654637Y-129294759D01*
X147810000Y-129062241D01*
X147965363Y-129294759D01*
X148145000Y-129474396D01*
X148145001Y-130065000D01*
X139975378Y-130065000D01*
X139963393Y-130036066D01*
X139740687Y-129702763D01*
X139457237Y-129419313D01*
X139123934Y-129196607D01*
X138753587Y-129043204D01*
X138360430Y-128965000D01*
X137959570Y-128965000D01*
X137566413Y-129043204D01*
X137196066Y-129196607D01*
X136862763Y-129419313D01*
X136579313Y-129702763D01*
X136356607Y-130036066D01*
X136203204Y-130406413D01*
X136125000Y-130799570D01*
X136035000Y-130799570D01*
X136035000Y-125927412D01*
X136270960Y-126011909D01*
X136493000Y-125890624D01*
X136493000Y-124747000D01*
X136747000Y-124747000D01*
X136747000Y-125890624D01*
X136969040Y-126011909D01*
X137233881Y-125917070D01*
X137475131Y-125772385D01*
X137683519Y-125583414D01*
X137851037Y-125357420D01*
X137971246Y-125103087D01*
X138011904Y-124969039D01*
X137889915Y-124747000D01*
X136747000Y-124747000D01*
X136493000Y-124747000D01*
X136473000Y-124747000D01*
X136473000Y-124493000D01*
X136493000Y-124493000D01*
X136493000Y-124473000D01*
X136747000Y-124473000D01*
X136747000Y-124493000D01*
X137889915Y-124493000D01*
X138011904Y-124270961D01*
X137971246Y-124136913D01*
X137851037Y-123882580D01*
X137683519Y-123656586D01*
X137475131Y-123467615D01*
X137289135Y-123356067D01*
X137299727Y-123351680D01*
X137534759Y-123194637D01*
X137703554Y-123025843D01*
X138556370Y-123878659D01*
X138585656Y-123914344D01*
X138728028Y-124031186D01*
X138890460Y-124118007D01*
X139066708Y-124171471D01*
X139250000Y-124189524D01*
X139295932Y-124185000D01*
X142582112Y-124185000D01*
X142586595Y-124193387D01*
X142697038Y-124327962D01*
X142831613Y-124438405D01*
X142985149Y-124520472D01*
X143151745Y-124571008D01*
X143324999Y-124588072D01*
X143850001Y-124588072D01*
X144023255Y-124571008D01*
X144189851Y-124520472D01*
X144343387Y-124438405D01*
X144477962Y-124327962D01*
X144500000Y-124301109D01*
X144522038Y-124327962D01*
X144656613Y-124438405D01*
X144810149Y-124520472D01*
X144976745Y-124571008D01*
X145149999Y-124588072D01*
X145675001Y-124588072D01*
X145848255Y-124571008D01*
X146014851Y-124520472D01*
X146168387Y-124438405D01*
X146302962Y-124327962D01*
X146395668Y-124215000D01*
X148059043Y-124215000D01*
X148069463Y-124234494D01*
X148148815Y-124331185D01*
X148245506Y-124410537D01*
X148355820Y-124469502D01*
X148475518Y-124505812D01*
X148600000Y-124518072D01*
X150800000Y-124518072D01*
X150924482Y-124505812D01*
X151044180Y-124469502D01*
X151154494Y-124410537D01*
X151251185Y-124331185D01*
X151330537Y-124234494D01*
X151389502Y-124124180D01*
X151425812Y-124004482D01*
X151438072Y-123880000D01*
X151438072Y-122680000D01*
X151425812Y-122555518D01*
X151389502Y-122435820D01*
X151330537Y-122325506D01*
X151251185Y-122228815D01*
X151154494Y-122149463D01*
X151044180Y-122090498D01*
X150924482Y-122054188D01*
X150800000Y-122041928D01*
X148600000Y-122041928D01*
X148475518Y-122054188D01*
X148355820Y-122090498D01*
X148245506Y-122149463D01*
X148148815Y-122228815D01*
X148069463Y-122325506D01*
X148059043Y-122345000D01*
X146433923Y-122345000D01*
X146413405Y-122306613D01*
X146302962Y-122172038D01*
X146168387Y-122061595D01*
X146014851Y-121979528D01*
X145848255Y-121928992D01*
X145675001Y-121911928D01*
X145149999Y-121911928D01*
X144976745Y-121928992D01*
X144810149Y-121979528D01*
X144656613Y-122061595D01*
X144522038Y-122172038D01*
X144500000Y-122198891D01*
X144477962Y-122172038D01*
X144343387Y-122061595D01*
X144189851Y-121979528D01*
X144023255Y-121928992D01*
X143850001Y-121911928D01*
X143324999Y-121911928D01*
X143151745Y-121928992D01*
X142985149Y-121979528D01*
X142831613Y-122061595D01*
X142697038Y-122172038D01*
X142586595Y-122306613D01*
X142582112Y-122315000D01*
X139637289Y-122315000D01*
X138773630Y-121451341D01*
X138744344Y-121415656D01*
X138601972Y-121298814D01*
X138439540Y-121211993D01*
X138263292Y-121158529D01*
X138125932Y-121145000D01*
X138080000Y-121140476D01*
X138034068Y-121145000D01*
X137714396Y-121145000D01*
X137534759Y-120965363D01*
X137302241Y-120810000D01*
X137534759Y-120654637D01*
X137734637Y-120454759D01*
X137891680Y-120219727D01*
X137999853Y-119958574D01*
X138055000Y-119681335D01*
X138055000Y-119398665D01*
X137999853Y-119121426D01*
X137891680Y-118860273D01*
X137734637Y-118625241D01*
X137534759Y-118425363D01*
X137302241Y-118270000D01*
X137526732Y-118120000D01*
X147961928Y-118120000D01*
X147961928Y-119320000D01*
X147974188Y-119444482D01*
X148010498Y-119564180D01*
X148069463Y-119674494D01*
X148148815Y-119771185D01*
X148245506Y-119850537D01*
X148355820Y-119909502D01*
X148475518Y-119945812D01*
X148600000Y-119958072D01*
X149184261Y-119958072D01*
X149186646Y-119959347D01*
X149438294Y-120035683D01*
X149700000Y-120061459D01*
X149961705Y-120035683D01*
X150213353Y-119959347D01*
X150215738Y-119958072D01*
X150800000Y-119958072D01*
X150924482Y-119945812D01*
X151044180Y-119909502D01*
X151154494Y-119850537D01*
X151251185Y-119771185D01*
X151330537Y-119674494D01*
X151389502Y-119564180D01*
X151425812Y-119444482D01*
X151438072Y-119320000D01*
X151438072Y-118120000D01*
X151436103Y-118100000D01*
X152161928Y-118100000D01*
X152161928Y-123900000D01*
X152174188Y-124024482D01*
X152210498Y-124144180D01*
X152269463Y-124254494D01*
X152348815Y-124351185D01*
X152445506Y-124430537D01*
X152555820Y-124489502D01*
X152675518Y-124525812D01*
X152800000Y-124538072D01*
X157225833Y-124538072D01*
X157527080Y-124839319D01*
X157578286Y-124901714D01*
X157827248Y-125106031D01*
X158111285Y-125257852D01*
X158419484Y-125351343D01*
X158659678Y-125375000D01*
X158659680Y-125375000D01*
X158739999Y-125382911D01*
X158820319Y-125375000D01*
X163765322Y-125375000D01*
X164005516Y-125351343D01*
X164313715Y-125257852D01*
X164597752Y-125106031D01*
X164846714Y-124901714D01*
X165051031Y-124652752D01*
X165202852Y-124368715D01*
X165296343Y-124060516D01*
X165327911Y-123740000D01*
X165296343Y-123419484D01*
X165202852Y-123111285D01*
X165051031Y-122827248D01*
X164846714Y-122578286D01*
X164597752Y-122373969D01*
X164313715Y-122222148D01*
X164005516Y-122128657D01*
X163765322Y-122105000D01*
X159838072Y-122105000D01*
X159838072Y-118508816D01*
X162150000Y-118508816D01*
X162150000Y-118811184D01*
X162208989Y-119107743D01*
X162324701Y-119387095D01*
X162492688Y-119638505D01*
X162706495Y-119852312D01*
X162957905Y-120020299D01*
X163237257Y-120136011D01*
X163533816Y-120195000D01*
X163836184Y-120195000D01*
X164132743Y-120136011D01*
X164412095Y-120020299D01*
X164663505Y-119852312D01*
X164877312Y-119638505D01*
X165045299Y-119387095D01*
X165161011Y-119107743D01*
X165220000Y-118811184D01*
X165220000Y-118508816D01*
X165161011Y-118212257D01*
X165045299Y-117932905D01*
X164877312Y-117681495D01*
X164663505Y-117467688D01*
X164412095Y-117299701D01*
X164132743Y-117183989D01*
X163836184Y-117125000D01*
X163533816Y-117125000D01*
X163237257Y-117183989D01*
X162957905Y-117299701D01*
X162706495Y-117467688D01*
X162492688Y-117681495D01*
X162324701Y-117932905D01*
X162208989Y-118212257D01*
X162150000Y-118508816D01*
X159838072Y-118508816D01*
X159838072Y-118100000D01*
X159825812Y-117975518D01*
X159789502Y-117855820D01*
X159730537Y-117745506D01*
X159651185Y-117648815D01*
X159554494Y-117569463D01*
X159444180Y-117510498D01*
X159324482Y-117474188D01*
X159200000Y-117461928D01*
X158635000Y-117461928D01*
X158635000Y-113428816D01*
X162150000Y-113428816D01*
X162150000Y-113731184D01*
X162208989Y-114027743D01*
X162324701Y-114307095D01*
X162492688Y-114558505D01*
X162706495Y-114772312D01*
X162957905Y-114940299D01*
X163237257Y-115056011D01*
X163533816Y-115115000D01*
X163836184Y-115115000D01*
X164132743Y-115056011D01*
X164412095Y-114940299D01*
X164663505Y-114772312D01*
X164877312Y-114558505D01*
X165045299Y-114307095D01*
X165161011Y-114027743D01*
X165220000Y-113731184D01*
X165220000Y-113428816D01*
X165161011Y-113132257D01*
X165045299Y-112852905D01*
X164877312Y-112601495D01*
X164663505Y-112387688D01*
X164412095Y-112219701D01*
X164132743Y-112103989D01*
X163836184Y-112045000D01*
X163533816Y-112045000D01*
X163237257Y-112103989D01*
X162957905Y-112219701D01*
X162706495Y-112387688D01*
X162492688Y-112601495D01*
X162324701Y-112852905D01*
X162208989Y-113132257D01*
X162150000Y-113428816D01*
X158635000Y-113428816D01*
X158635000Y-112375952D01*
X158803393Y-112123934D01*
X158956796Y-111753587D01*
X159035000Y-111360430D01*
X159035000Y-110959570D01*
X158956796Y-110566413D01*
X158803393Y-110196066D01*
X158580687Y-109862763D01*
X158297237Y-109579313D01*
X157963934Y-109356607D01*
X157593587Y-109203204D01*
X157200430Y-109125000D01*
X156799570Y-109125000D01*
X156406413Y-109203204D01*
X156036066Y-109356607D01*
X155702763Y-109579313D01*
X155419313Y-109862763D01*
X155196607Y-110196066D01*
X155043204Y-110566413D01*
X154965000Y-110959570D01*
X154965000Y-111360430D01*
X155043204Y-111753587D01*
X155196607Y-112123934D01*
X155365000Y-112375952D01*
X155365001Y-117461928D01*
X152800000Y-117461928D01*
X152675518Y-117474188D01*
X152555820Y-117510498D01*
X152445506Y-117569463D01*
X152348815Y-117648815D01*
X152269463Y-117745506D01*
X152210498Y-117855820D01*
X152174188Y-117975518D01*
X152161928Y-118100000D01*
X151436103Y-118100000D01*
X151425812Y-117995518D01*
X151389502Y-117875820D01*
X151330537Y-117765506D01*
X151251185Y-117668815D01*
X151154494Y-117589463D01*
X151044180Y-117530498D01*
X151035000Y-117527713D01*
X151035000Y-116544349D01*
X151089727Y-116521680D01*
X151324759Y-116364637D01*
X151524637Y-116164759D01*
X151681680Y-115929727D01*
X151789853Y-115668574D01*
X151845000Y-115391335D01*
X151845000Y-115108665D01*
X151789853Y-114831426D01*
X151681680Y-114570273D01*
X151524637Y-114335241D01*
X151324759Y-114135363D01*
X151089727Y-113978320D01*
X150828574Y-113870147D01*
X150551335Y-113815000D01*
X150268665Y-113815000D01*
X149991426Y-113870147D01*
X149730273Y-113978320D01*
X149495241Y-114135363D01*
X149295363Y-114335241D01*
X149138320Y-114570273D01*
X149093466Y-114678560D01*
X148802387Y-114969639D01*
X148751446Y-115011445D01*
X148684199Y-115093386D01*
X148584618Y-115214726D01*
X148460654Y-115446646D01*
X148384317Y-115698295D01*
X148358541Y-115960000D01*
X148365001Y-116025588D01*
X148365000Y-117527713D01*
X148355820Y-117530498D01*
X148245506Y-117589463D01*
X148148815Y-117668815D01*
X148069463Y-117765506D01*
X148010498Y-117875820D01*
X147974188Y-117995518D01*
X147961928Y-118120000D01*
X137526732Y-118120000D01*
X137534759Y-118114637D01*
X137734637Y-117914759D01*
X137891680Y-117679727D01*
X137999853Y-117418574D01*
X138055000Y-117141335D01*
X138055000Y-116858665D01*
X137999853Y-116581426D01*
X137891680Y-116320273D01*
X137839849Y-116242702D01*
X139436903Y-116242702D01*
X139508486Y-116486671D01*
X139763996Y-116607571D01*
X140038184Y-116676300D01*
X140320512Y-116690217D01*
X140600130Y-116648787D01*
X140866292Y-116553603D01*
X140991514Y-116486671D01*
X141063097Y-116242702D01*
X140250000Y-115429605D01*
X139436903Y-116242702D01*
X137839849Y-116242702D01*
X137734637Y-116085241D01*
X137534759Y-115885363D01*
X137299727Y-115728320D01*
X137038574Y-115620147D01*
X136761335Y-115565000D01*
X136478665Y-115565000D01*
X136201426Y-115620147D01*
X135940273Y-115728320D01*
X135705241Y-115885363D01*
X135535000Y-116055604D01*
X135535000Y-115356250D01*
X135568386Y-115338405D01*
X135590188Y-115320512D01*
X138809783Y-115320512D01*
X138851213Y-115600130D01*
X138946397Y-115866292D01*
X139013329Y-115991514D01*
X139257298Y-116063097D01*
X140070395Y-115250000D01*
X140429605Y-115250000D01*
X141242702Y-116063097D01*
X141486671Y-115991514D01*
X141607571Y-115736004D01*
X141676300Y-115461816D01*
X141690217Y-115179488D01*
X141648787Y-114899870D01*
X141553603Y-114633708D01*
X141486671Y-114508486D01*
X141242702Y-114436903D01*
X140429605Y-115250000D01*
X140070395Y-115250000D01*
X139257298Y-114436903D01*
X139013329Y-114508486D01*
X138892429Y-114763996D01*
X138823700Y-115038184D01*
X138809783Y-115320512D01*
X135590188Y-115320512D01*
X135702962Y-115227962D01*
X135813405Y-115093386D01*
X135895472Y-114939850D01*
X135946008Y-114773254D01*
X135963072Y-114600000D01*
X135963072Y-114257298D01*
X139436903Y-114257298D01*
X140250000Y-115070395D01*
X141063097Y-114257298D01*
X140991514Y-114013329D01*
X140736004Y-113892429D01*
X140461816Y-113823700D01*
X140179488Y-113809783D01*
X139899870Y-113851213D01*
X139633708Y-113946397D01*
X139508486Y-114013329D01*
X139436903Y-114257298D01*
X135963072Y-114257298D01*
X135963072Y-114100000D01*
X135946008Y-113926746D01*
X135895472Y-113760150D01*
X135813405Y-113606614D01*
X135702962Y-113472038D01*
X135696406Y-113466658D01*
X135776185Y-113401185D01*
X135855537Y-113304494D01*
X135914502Y-113194180D01*
X135950812Y-113074482D01*
X135963072Y-112950000D01*
X135960000Y-112735750D01*
X135801250Y-112577000D01*
X134727000Y-112577000D01*
X134727000Y-112597000D01*
X134473000Y-112597000D01*
X134473000Y-112577000D01*
X133398750Y-112577000D01*
X133240000Y-112735750D01*
X133236928Y-112950000D01*
X133249188Y-113074482D01*
X133285498Y-113194180D01*
X133344463Y-113304494D01*
X133423815Y-113401185D01*
X133503594Y-113466658D01*
X133497038Y-113472038D01*
X133386595Y-113606614D01*
X133304528Y-113760150D01*
X133253992Y-113926746D01*
X133236928Y-114100000D01*
X133236928Y-114600000D01*
X133253992Y-114773254D01*
X133304528Y-114939850D01*
X133386595Y-115093386D01*
X133497038Y-115227962D01*
X133631614Y-115338405D01*
X133665000Y-115356250D01*
X133665001Y-116861928D01*
X133449999Y-116861928D01*
X133276745Y-116878992D01*
X133110149Y-116929528D01*
X132956613Y-117011595D01*
X132822500Y-117121659D01*
X132822500Y-115083432D01*
X132827024Y-115037500D01*
X132808971Y-114854208D01*
X132784128Y-114772312D01*
X132755507Y-114677960D01*
X132668686Y-114515528D01*
X132563072Y-114386837D01*
X132563072Y-114100000D01*
X132546008Y-113926746D01*
X132495472Y-113760150D01*
X132413405Y-113606614D01*
X132302962Y-113472038D01*
X132296406Y-113466658D01*
X132376185Y-113401185D01*
X132455537Y-113304494D01*
X132514502Y-113194180D01*
X132550812Y-113074482D01*
X132563072Y-112950000D01*
X132560000Y-112735750D01*
X132401250Y-112577000D01*
X131327000Y-112577000D01*
X131327000Y-112597000D01*
X131073000Y-112597000D01*
X131073000Y-112577000D01*
X129998750Y-112577000D01*
X129840000Y-112735750D01*
X129836928Y-112950000D01*
X129849188Y-113074482D01*
X129885498Y-113194180D01*
X129944463Y-113304494D01*
X130023815Y-113401185D01*
X130103594Y-113466658D01*
X130097038Y-113472038D01*
X129986595Y-113606614D01*
X129904528Y-113760150D01*
X129853992Y-113926746D01*
X129836928Y-114100000D01*
X129836928Y-114600000D01*
X129853992Y-114773254D01*
X129904528Y-114939850D01*
X129986595Y-115093386D01*
X130097038Y-115227962D01*
X130231614Y-115338405D01*
X130385150Y-115420472D01*
X130551746Y-115471008D01*
X130725000Y-115488072D01*
X130952501Y-115488072D01*
X130952500Y-117176307D01*
X130886595Y-117256613D01*
X130804528Y-117410149D01*
X130753992Y-117576745D01*
X130736928Y-117749999D01*
X130736928Y-118650001D01*
X130753992Y-118823255D01*
X130804528Y-118989851D01*
X130886595Y-119143387D01*
X130952500Y-119223693D01*
X130952501Y-122125209D01*
X130178441Y-122899270D01*
X130271680Y-122759727D01*
X130379853Y-122498574D01*
X130435000Y-122221335D01*
X130435000Y-121938665D01*
X130379853Y-121661426D01*
X130271680Y-121400273D01*
X130114637Y-121165241D01*
X129914759Y-120965363D01*
X129682241Y-120810000D01*
X129914759Y-120654637D01*
X130114637Y-120454759D01*
X130271680Y-120219727D01*
X130379853Y-119958574D01*
X130435000Y-119681335D01*
X130435000Y-119398665D01*
X130379853Y-119121426D01*
X130271680Y-118860273D01*
X130114637Y-118625241D01*
X129916039Y-118426643D01*
X129924482Y-118425812D01*
X130044180Y-118389502D01*
X130154494Y-118330537D01*
X130251185Y-118251185D01*
X130330537Y-118154494D01*
X130389502Y-118044180D01*
X130425812Y-117924482D01*
X130438072Y-117800000D01*
X130438072Y-116200000D01*
X130425812Y-116075518D01*
X130389502Y-115955820D01*
X130330537Y-115845506D01*
X130251185Y-115748815D01*
X130154494Y-115669463D01*
X130044180Y-115610498D01*
X129924482Y-115574188D01*
X129800000Y-115561928D01*
X128200000Y-115561928D01*
X128075518Y-115574188D01*
X127955820Y-115610498D01*
X127845506Y-115669463D01*
X127748815Y-115748815D01*
X127669463Y-115845506D01*
X127610498Y-115955820D01*
X127574188Y-116075518D01*
X127561928Y-116200000D01*
X127561928Y-117800000D01*
X127574188Y-117924482D01*
X127610498Y-118044180D01*
X127669463Y-118154494D01*
X127748815Y-118251185D01*
X127845506Y-118330537D01*
X127909981Y-118365000D01*
X127138072Y-118365000D01*
X127138072Y-118049999D01*
X127121008Y-117876745D01*
X127070472Y-117710149D01*
X126988405Y-117556613D01*
X126921724Y-117475363D01*
X126951185Y-117451185D01*
X127030537Y-117354494D01*
X127089502Y-117244180D01*
X127125812Y-117124482D01*
X127138072Y-117000000D01*
X127135000Y-116773250D01*
X126976250Y-116614500D01*
X125927000Y-116614500D01*
X125927000Y-116634500D01*
X125673000Y-116634500D01*
X125673000Y-116614500D01*
X124623750Y-116614500D01*
X124465000Y-116773250D01*
X124461928Y-117000000D01*
X124474188Y-117124482D01*
X124510498Y-117244180D01*
X124569463Y-117354494D01*
X124648815Y-117451185D01*
X124678276Y-117475363D01*
X124611595Y-117556613D01*
X124529528Y-117710149D01*
X124478992Y-117876745D01*
X124461928Y-118049999D01*
X124461928Y-118575001D01*
X124478992Y-118748255D01*
X124529528Y-118914851D01*
X124611595Y-119068387D01*
X124722038Y-119202962D01*
X124765001Y-119238221D01*
X124765001Y-119349153D01*
X124759993Y-119400000D01*
X124765000Y-119450838D01*
X124765000Y-119561780D01*
X124722038Y-119597038D01*
X124611595Y-119731613D01*
X124529528Y-119885149D01*
X124478992Y-120051745D01*
X124461928Y-120224999D01*
X124461928Y-120750001D01*
X124478992Y-120923255D01*
X124529528Y-121089851D01*
X124611595Y-121243387D01*
X124722038Y-121377962D01*
X124748891Y-121400000D01*
X124722038Y-121422038D01*
X124611595Y-121556613D01*
X124529528Y-121710149D01*
X124478992Y-121876745D01*
X124461928Y-122049999D01*
X124461928Y-122575001D01*
X124478992Y-122748255D01*
X124529528Y-122914851D01*
X124611595Y-123068387D01*
X124722038Y-123202962D01*
X124765001Y-123238221D01*
X124765000Y-130149172D01*
X124759994Y-130200000D01*
X124765000Y-130250828D01*
X124765000Y-130250837D01*
X124779976Y-130402894D01*
X124839159Y-130597992D01*
X124935266Y-130777797D01*
X125064604Y-130935396D01*
X125104097Y-130967807D01*
X125832197Y-131695908D01*
X125864604Y-131735396D01*
X125904092Y-131767803D01*
X125961928Y-131815268D01*
X125961928Y-132400000D01*
X125974188Y-132524482D01*
X126010498Y-132644180D01*
X126069463Y-132754494D01*
X126148815Y-132851185D01*
X126245506Y-132930537D01*
X126355820Y-132989502D01*
X126475518Y-133025812D01*
X126600000Y-133038072D01*
X129400000Y-133038072D01*
X129524482Y-133025812D01*
X129644180Y-132989502D01*
X129754494Y-132930537D01*
X129851185Y-132851185D01*
X129930537Y-132754494D01*
X129989502Y-132644180D01*
X130025812Y-132524482D01*
X130038072Y-132400000D01*
X130038072Y-129600000D01*
X130025812Y-129475518D01*
X129989502Y-129355820D01*
X129930537Y-129245506D01*
X129851185Y-129148815D01*
X129754494Y-129069463D01*
X129644180Y-129010498D01*
X129524482Y-128974188D01*
X129400000Y-128961928D01*
X126835000Y-128961928D01*
X126835000Y-123238220D01*
X126877962Y-123202962D01*
X126988405Y-123068387D01*
X127070472Y-122914851D01*
X127121008Y-122748255D01*
X127138072Y-122575001D01*
X127138072Y-122049999D01*
X127121008Y-121876745D01*
X127070472Y-121710149D01*
X126988405Y-121556613D01*
X126877962Y-121422038D01*
X126851109Y-121400000D01*
X126877962Y-121377962D01*
X126988405Y-121243387D01*
X127070472Y-121089851D01*
X127121008Y-120923255D01*
X127138072Y-120750001D01*
X127138072Y-120435000D01*
X127872160Y-120435000D01*
X127885363Y-120454759D01*
X128085241Y-120654637D01*
X128317759Y-120810000D01*
X128085241Y-120965363D01*
X127885363Y-121165241D01*
X127728320Y-121400273D01*
X127620147Y-121661426D01*
X127565000Y-121938665D01*
X127565000Y-122221335D01*
X127620147Y-122498574D01*
X127728320Y-122759727D01*
X127885363Y-122994759D01*
X128085241Y-123194637D01*
X128317759Y-123350000D01*
X128085241Y-123505363D01*
X127885363Y-123705241D01*
X127728320Y-123940273D01*
X127620147Y-124201426D01*
X127565000Y-124478665D01*
X127565000Y-124761335D01*
X127620147Y-125038574D01*
X127728320Y-125299727D01*
X127885363Y-125534759D01*
X128085241Y-125734637D01*
X128320273Y-125891680D01*
X128581426Y-125999853D01*
X128858665Y-126055000D01*
X129141335Y-126055000D01*
X129418574Y-125999853D01*
X129679727Y-125891680D01*
X129914759Y-125734637D01*
X130114637Y-125534759D01*
X130149395Y-125482739D01*
X130301972Y-125401186D01*
X130444344Y-125284344D01*
X130473630Y-125248659D01*
X132516164Y-123206126D01*
X132551844Y-123176844D01*
X132668686Y-123034472D01*
X132755507Y-122872040D01*
X132808971Y-122695792D01*
X132827024Y-122512501D01*
X132822500Y-122466569D01*
X132822500Y-119278341D01*
X132956613Y-119388405D01*
X133110149Y-119470472D01*
X133276745Y-119521008D01*
X133449999Y-119538072D01*
X133975001Y-119538072D01*
X134148255Y-119521008D01*
X134314851Y-119470472D01*
X134468387Y-119388405D01*
X134602962Y-119277962D01*
X134713405Y-119143387D01*
X134752566Y-119070123D01*
X134759540Y-119068007D01*
X134921972Y-118981186D01*
X135064344Y-118864344D01*
X135093631Y-118828658D01*
X135228655Y-118693633D01*
X135264344Y-118664344D01*
X135293630Y-118628659D01*
X135766632Y-118155657D01*
X135937759Y-118270000D01*
X135705241Y-118425363D01*
X135505363Y-118625241D01*
X135348320Y-118860273D01*
X135240147Y-119121426D01*
X135185000Y-119398665D01*
X135185000Y-119511289D01*
X134304092Y-120392198D01*
X134264605Y-120424604D01*
X134232198Y-120464092D01*
X134232197Y-120464093D01*
X134135266Y-120582203D01*
X134039160Y-120762007D01*
X133979977Y-120957105D01*
X133959994Y-121160000D01*
X133965001Y-121210838D01*
X133965000Y-141749172D01*
X133959994Y-141800000D01*
X133965000Y-141850828D01*
X133965000Y-141850837D01*
X133979976Y-142002894D01*
X134039159Y-142197992D01*
X134135266Y-142377797D01*
X134264604Y-142535396D01*
X134304097Y-142567807D01*
X137612352Y-145876062D01*
X137609994Y-145900000D01*
X137615000Y-145950828D01*
X137615000Y-146473903D01*
X137533506Y-146517463D01*
X137436815Y-146596815D01*
X137357463Y-146693506D01*
X137298498Y-146803820D01*
X137262188Y-146923518D01*
X137249928Y-147048000D01*
X137249928Y-148572000D01*
X137262188Y-148696482D01*
X137298498Y-148816180D01*
X137357463Y-148926494D01*
X137436815Y-149023185D01*
X137533506Y-149102537D01*
X137643820Y-149161502D01*
X137763518Y-149197812D01*
X137888000Y-149210072D01*
X138586362Y-149210072D01*
X139249290Y-149873000D01*
X128127000Y-149873000D01*
X128127000Y-143000000D01*
X128124560Y-142975224D01*
X128117333Y-142951399D01*
X128105597Y-142929443D01*
X128089803Y-142910197D01*
X128070557Y-142894403D01*
X128048601Y-142882667D01*
X128024776Y-142875440D01*
X128000000Y-142873000D01*
X121127000Y-142873000D01*
X121127000Y-115975000D01*
X124461928Y-115975000D01*
X124465000Y-116201750D01*
X124623750Y-116360500D01*
X125673000Y-116360500D01*
X125673000Y-115498750D01*
X125927000Y-115498750D01*
X125927000Y-116360500D01*
X126976250Y-116360500D01*
X127135000Y-116201750D01*
X127138072Y-115975000D01*
X127125812Y-115850518D01*
X127089502Y-115730820D01*
X127030537Y-115620506D01*
X126951185Y-115523815D01*
X126854494Y-115444463D01*
X126744180Y-115385498D01*
X126624482Y-115349188D01*
X126500000Y-115336928D01*
X126085750Y-115340000D01*
X125927000Y-115498750D01*
X125673000Y-115498750D01*
X125514250Y-115340000D01*
X125100000Y-115336928D01*
X124975518Y-115349188D01*
X124855820Y-115385498D01*
X124745506Y-115444463D01*
X124648815Y-115523815D01*
X124569463Y-115620506D01*
X124510498Y-115730820D01*
X124474188Y-115850518D01*
X124461928Y-115975000D01*
X121127000Y-115975000D01*
X121127000Y-111950000D01*
X129836928Y-111950000D01*
X129840000Y-112164250D01*
X129998750Y-112323000D01*
X131073000Y-112323000D01*
X131073000Y-111473750D01*
X131327000Y-111473750D01*
X131327000Y-112323000D01*
X132401250Y-112323000D01*
X132560000Y-112164250D01*
X132563072Y-111950000D01*
X133236928Y-111950000D01*
X133240000Y-112164250D01*
X133398750Y-112323000D01*
X134473000Y-112323000D01*
X134473000Y-111473750D01*
X134727000Y-111473750D01*
X134727000Y-112323000D01*
X135801250Y-112323000D01*
X135960000Y-112164250D01*
X135963072Y-111950000D01*
X135950812Y-111825518D01*
X135914502Y-111705820D01*
X135855537Y-111595506D01*
X135776185Y-111498815D01*
X135679494Y-111419463D01*
X135569180Y-111360498D01*
X135449482Y-111324188D01*
X135325000Y-111311928D01*
X134885750Y-111315000D01*
X134727000Y-111473750D01*
X134473000Y-111473750D01*
X134314250Y-111315000D01*
X133875000Y-111311928D01*
X133750518Y-111324188D01*
X133630820Y-111360498D01*
X133520506Y-111419463D01*
X133423815Y-111498815D01*
X133344463Y-111595506D01*
X133285498Y-111705820D01*
X133249188Y-111825518D01*
X133236928Y-111950000D01*
X132563072Y-111950000D01*
X132550812Y-111825518D01*
X132514502Y-111705820D01*
X132455537Y-111595506D01*
X132376185Y-111498815D01*
X132279494Y-111419463D01*
X132169180Y-111360498D01*
X132049482Y-111324188D01*
X131925000Y-111311928D01*
X131485750Y-111315000D01*
X131327000Y-111473750D01*
X131073000Y-111473750D01*
X130914250Y-111315000D01*
X130475000Y-111311928D01*
X130350518Y-111324188D01*
X130230820Y-111360498D01*
X130120506Y-111419463D01*
X130023815Y-111498815D01*
X129944463Y-111595506D01*
X129885498Y-111705820D01*
X129849188Y-111825518D01*
X129836928Y-111950000D01*
X121127000Y-111950000D01*
X121127000Y-89478665D01*
X121485000Y-89478665D01*
X121485000Y-89761335D01*
X121540147Y-90038574D01*
X121648320Y-90299727D01*
X121805363Y-90534759D01*
X122005241Y-90734637D01*
X122240273Y-90891680D01*
X122501426Y-90999853D01*
X122778665Y-91055000D01*
X123061335Y-91055000D01*
X123338574Y-90999853D01*
X123599727Y-90891680D01*
X123834759Y-90734637D01*
X124034637Y-90534759D01*
X124190000Y-90302241D01*
X124345363Y-90534759D01*
X124545241Y-90734637D01*
X124780273Y-90891680D01*
X125041426Y-90999853D01*
X125318665Y-91055000D01*
X125601335Y-91055000D01*
X125878574Y-90999853D01*
X126139727Y-90891680D01*
X126374759Y-90734637D01*
X126574637Y-90534759D01*
X126730000Y-90302241D01*
X126885363Y-90534759D01*
X127085241Y-90734637D01*
X127320273Y-90891680D01*
X127581426Y-90999853D01*
X127858665Y-91055000D01*
X128141335Y-91055000D01*
X128418574Y-90999853D01*
X128679727Y-90891680D01*
X128914759Y-90734637D01*
X128994396Y-90655000D01*
X131929172Y-90655000D01*
X131980000Y-90660006D01*
X132030828Y-90655000D01*
X132030838Y-90655000D01*
X132032972Y-90654790D01*
X128822762Y-93865000D01*
X128789721Y-93865000D01*
X128377244Y-93947047D01*
X127988698Y-94107988D01*
X127639017Y-94341637D01*
X127341637Y-94639017D01*
X127107988Y-94988698D01*
X126947047Y-95377244D01*
X126865000Y-95789721D01*
X126865000Y-96210279D01*
X126947047Y-96622756D01*
X127107988Y-97011302D01*
X127341637Y-97360983D01*
X127639017Y-97658363D01*
X127988698Y-97892012D01*
X128377244Y-98052953D01*
X128789721Y-98135000D01*
X129210279Y-98135000D01*
X129622756Y-98052953D01*
X130011302Y-97892012D01*
X130360983Y-97658363D01*
X130658363Y-97360983D01*
X130892012Y-97011302D01*
X131052953Y-96622756D01*
X131135000Y-96210279D01*
X131135000Y-96177238D01*
X136677239Y-90635000D01*
X139968808Y-90635000D01*
X140000000Y-90638072D01*
X140950869Y-90638072D01*
X141000000Y-90642911D01*
X141049131Y-90638072D01*
X142000000Y-90638072D01*
X142124482Y-90625812D01*
X142244180Y-90589502D01*
X142354494Y-90530537D01*
X142451185Y-90451185D01*
X142530537Y-90354494D01*
X142589502Y-90244180D01*
X142622496Y-90135413D01*
X145044192Y-90135413D01*
X145139956Y-90399814D01*
X145429571Y-90540704D01*
X145741108Y-90622384D01*
X146062595Y-90641718D01*
X146381675Y-90597961D01*
X146686088Y-90492795D01*
X146860044Y-90399814D01*
X146955808Y-90135413D01*
X146000000Y-89179605D01*
X145044192Y-90135413D01*
X142622496Y-90135413D01*
X142625812Y-90124482D01*
X142638072Y-90000000D01*
X142638072Y-89062595D01*
X144358282Y-89062595D01*
X144402039Y-89381675D01*
X144507205Y-89686088D01*
X144600186Y-89860044D01*
X144864587Y-89955808D01*
X145820395Y-89000000D01*
X146179605Y-89000000D01*
X147135413Y-89955808D01*
X147399814Y-89860044D01*
X147540704Y-89570429D01*
X147622384Y-89258892D01*
X147641718Y-88937405D01*
X147597961Y-88618325D01*
X147492795Y-88313912D01*
X147399814Y-88139956D01*
X147135413Y-88044192D01*
X146179605Y-89000000D01*
X145820395Y-89000000D01*
X144864587Y-88044192D01*
X144600186Y-88139956D01*
X144459296Y-88429571D01*
X144377616Y-88741108D01*
X144358282Y-89062595D01*
X142638072Y-89062595D01*
X142638072Y-89049131D01*
X142642911Y-89000000D01*
X142638072Y-88950869D01*
X142638072Y-88000000D01*
X142635000Y-87968808D01*
X142635000Y-87864587D01*
X145044192Y-87864587D01*
X146000000Y-88820395D01*
X146955808Y-87864587D01*
X146860044Y-87600186D01*
X146570429Y-87459296D01*
X146258892Y-87377616D01*
X145937405Y-87358282D01*
X145618325Y-87402039D01*
X145313912Y-87507205D01*
X145139956Y-87600186D01*
X145044192Y-87864587D01*
X142635000Y-87864587D01*
X142635000Y-85477238D01*
X143939318Y-84172921D01*
X144001714Y-84121714D01*
X144206031Y-83872752D01*
X144357852Y-83588715D01*
X144451343Y-83280516D01*
X144475000Y-83040322D01*
X144475000Y-83040320D01*
X144482911Y-82960000D01*
X144475000Y-82879681D01*
X144475000Y-78349224D01*
X146750381Y-78349224D01*
X146882317Y-78644312D01*
X147223045Y-78815159D01*
X147590557Y-78916250D01*
X147970729Y-78943701D01*
X148348951Y-78896457D01*
X148710690Y-78776333D01*
X148957683Y-78644312D01*
X149089619Y-78349224D01*
X147920000Y-77179605D01*
X146750381Y-78349224D01*
X144475000Y-78349224D01*
X144475000Y-78035958D01*
X144554775Y-77916566D01*
X144700639Y-77564419D01*
X144775000Y-77190581D01*
X144775000Y-77050729D01*
X145976299Y-77050729D01*
X146023543Y-77428951D01*
X146143667Y-77790690D01*
X146275688Y-78037683D01*
X146570776Y-78169619D01*
X147740395Y-77000000D01*
X148099605Y-77000000D01*
X149269224Y-78169619D01*
X149564312Y-78037683D01*
X149735159Y-77696955D01*
X149836250Y-77329443D01*
X149863701Y-76949271D01*
X149816457Y-76571049D01*
X149696333Y-76209310D01*
X149564312Y-75962317D01*
X149269224Y-75830381D01*
X148099605Y-77000000D01*
X147740395Y-77000000D01*
X146570776Y-75830381D01*
X146275688Y-75962317D01*
X146104841Y-76303045D01*
X146003750Y-76670557D01*
X145976299Y-77050729D01*
X144775000Y-77050729D01*
X144775000Y-76809419D01*
X144700639Y-76435581D01*
X144554775Y-76083434D01*
X144343013Y-75766509D01*
X144227280Y-75650776D01*
X146750381Y-75650776D01*
X147920000Y-76820395D01*
X149089619Y-75650776D01*
X148957683Y-75355688D01*
X148616955Y-75184841D01*
X148249443Y-75083750D01*
X147869271Y-75056299D01*
X147491049Y-75103543D01*
X147129310Y-75223667D01*
X146882317Y-75355688D01*
X146750381Y-75650776D01*
X144227280Y-75650776D01*
X144073491Y-75496987D01*
X143756566Y-75285225D01*
X143404419Y-75139361D01*
X143030581Y-75065000D01*
X142649419Y-75065000D01*
X142275581Y-75139361D01*
X141923434Y-75285225D01*
X141606509Y-75496987D01*
X141336987Y-75766509D01*
X141125225Y-76083434D01*
X140979361Y-76435581D01*
X140905000Y-76809419D01*
X140905000Y-77190581D01*
X140979361Y-77564419D01*
X141125225Y-77916566D01*
X141205000Y-78035958D01*
X141205001Y-82282760D01*
X139900686Y-83587075D01*
X139838286Y-83638286D01*
X139633969Y-83887249D01*
X139482148Y-84171286D01*
X139388657Y-84479485D01*
X139379610Y-84571343D01*
X139357089Y-84800000D01*
X139365000Y-84880320D01*
X139365001Y-87365000D01*
X136080319Y-87365000D01*
X136000000Y-87357089D01*
X135919680Y-87365000D01*
X135919678Y-87365000D01*
X135679484Y-87388657D01*
X135673124Y-87390586D01*
X138455908Y-84607803D01*
X138495396Y-84575396D01*
X138527803Y-84535908D01*
X138624734Y-84417798D01*
X138711897Y-84254726D01*
X138720841Y-84237993D01*
X138780024Y-84042895D01*
X138795000Y-83890838D01*
X138795000Y-83890829D01*
X138800006Y-83840001D01*
X138795000Y-83789173D01*
X138795000Y-78635640D01*
X138993491Y-78503013D01*
X139263013Y-78233491D01*
X139474775Y-77916566D01*
X139620639Y-77564419D01*
X139695000Y-77190581D01*
X139695000Y-76809419D01*
X139620639Y-76435581D01*
X139474775Y-76083434D01*
X139263013Y-75766509D01*
X138993491Y-75496987D01*
X138676566Y-75285225D01*
X138324419Y-75139361D01*
X137950581Y-75065000D01*
X137569419Y-75065000D01*
X137195581Y-75139361D01*
X136843434Y-75285225D01*
X136526509Y-75496987D01*
X136256987Y-75766509D01*
X136045225Y-76083434D01*
X135899361Y-76435581D01*
X135825000Y-76809419D01*
X135825000Y-77190581D01*
X135899361Y-77564419D01*
X136045225Y-77916566D01*
X136256987Y-78233491D01*
X136526509Y-78503013D01*
X136725001Y-78635641D01*
X136725000Y-83411289D01*
X131551290Y-88585000D01*
X128994396Y-88585000D01*
X128914759Y-88505363D01*
X128679727Y-88348320D01*
X128418574Y-88240147D01*
X128141335Y-88185000D01*
X127858665Y-88185000D01*
X127581426Y-88240147D01*
X127320273Y-88348320D01*
X127085241Y-88505363D01*
X126885363Y-88705241D01*
X126730000Y-88937759D01*
X126574637Y-88705241D01*
X126374759Y-88505363D01*
X126139727Y-88348320D01*
X125878574Y-88240147D01*
X125601335Y-88185000D01*
X125318665Y-88185000D01*
X125041426Y-88240147D01*
X124780273Y-88348320D01*
X124545241Y-88505363D01*
X124345363Y-88705241D01*
X124190000Y-88937759D01*
X124034637Y-88705241D01*
X123834759Y-88505363D01*
X123599727Y-88348320D01*
X123338574Y-88240147D01*
X123061335Y-88185000D01*
X122778665Y-88185000D01*
X122501426Y-88240147D01*
X122240273Y-88348320D01*
X122005241Y-88505363D01*
X121805363Y-88705241D01*
X121648320Y-88940273D01*
X121540147Y-89201426D01*
X121485000Y-89478665D01*
X121127000Y-89478665D01*
X121127000Y-79127000D01*
X125950711Y-79127000D01*
X124831341Y-80246370D01*
X124795656Y-80275656D01*
X124678814Y-80418029D01*
X124591993Y-80580461D01*
X124579331Y-80622203D01*
X124538529Y-80756709D01*
X124523740Y-80906864D01*
X124345363Y-81085241D01*
X124190000Y-81317759D01*
X124034637Y-81085241D01*
X123834759Y-80885363D01*
X123599727Y-80728320D01*
X123338574Y-80620147D01*
X123061335Y-80565000D01*
X122778665Y-80565000D01*
X122501426Y-80620147D01*
X122240273Y-80728320D01*
X122005241Y-80885363D01*
X121805363Y-81085241D01*
X121648320Y-81320273D01*
X121540147Y-81581426D01*
X121485000Y-81858665D01*
X121485000Y-82141335D01*
X121540147Y-82418574D01*
X121648320Y-82679727D01*
X121805363Y-82914759D01*
X122005241Y-83114637D01*
X122240273Y-83271680D01*
X122501426Y-83379853D01*
X122778665Y-83435000D01*
X123061335Y-83435000D01*
X123338574Y-83379853D01*
X123599727Y-83271680D01*
X123834759Y-83114637D01*
X124034637Y-82914759D01*
X124190000Y-82682241D01*
X124345363Y-82914759D01*
X124545241Y-83114637D01*
X124780273Y-83271680D01*
X125041426Y-83379853D01*
X125318665Y-83435000D01*
X125601335Y-83435000D01*
X125878574Y-83379853D01*
X126139727Y-83271680D01*
X126374759Y-83114637D01*
X126573357Y-82916039D01*
X126574188Y-82924482D01*
X126610498Y-83044180D01*
X126669463Y-83154494D01*
X126748815Y-83251185D01*
X126845506Y-83330537D01*
X126955820Y-83389502D01*
X127075518Y-83425812D01*
X127200000Y-83438072D01*
X128800000Y-83438072D01*
X128924482Y-83425812D01*
X129044180Y-83389502D01*
X129154494Y-83330537D01*
X129251185Y-83251185D01*
X129330537Y-83154494D01*
X129389502Y-83044180D01*
X129425812Y-82924482D01*
X129438072Y-82800000D01*
X129438072Y-81200000D01*
X129425812Y-81075518D01*
X129389502Y-80955820D01*
X129330537Y-80845506D01*
X129251185Y-80748815D01*
X129154494Y-80669463D01*
X129044180Y-80610498D01*
X128924482Y-80574188D01*
X128800000Y-80561928D01*
X127200000Y-80561928D01*
X127156031Y-80566258D01*
X128674789Y-79047500D01*
X129726308Y-79047500D01*
X129806613Y-79113405D01*
X129960149Y-79195472D01*
X130126745Y-79246008D01*
X130299999Y-79263072D01*
X131200001Y-79263072D01*
X131373255Y-79246008D01*
X131539851Y-79195472D01*
X131693387Y-79113405D01*
X131827962Y-79002962D01*
X131938405Y-78868387D01*
X132020472Y-78714851D01*
X132071008Y-78548255D01*
X132088072Y-78375001D01*
X132088072Y-77849999D01*
X132071008Y-77676745D01*
X132020472Y-77510149D01*
X131938405Y-77356613D01*
X131827962Y-77222038D01*
X131801109Y-77200000D01*
X131827962Y-77177962D01*
X131938405Y-77043387D01*
X132020472Y-76889851D01*
X132071008Y-76723255D01*
X132088072Y-76550001D01*
X132088072Y-76271717D01*
X134624789Y-73735000D01*
X149873000Y-73735000D01*
X149873000Y-84000000D01*
%TA.AperFunction,Conductor*%
D37*
G36*
X149873000Y-84000000D02*
G01*
X149875440Y-84024776D01*
X149882667Y-84048601D01*
X149894403Y-84070557D01*
X149910197Y-84089803D01*
X149929443Y-84105597D01*
X149951399Y-84117333D01*
X149975224Y-84124560D01*
X150000000Y-84127000D01*
X156857461Y-84127000D01*
X156728320Y-84320273D01*
X156620147Y-84581426D01*
X156565000Y-84858665D01*
X156565000Y-85141335D01*
X156620147Y-85418574D01*
X156665000Y-85526859D01*
X156665001Y-88175580D01*
X156568320Y-88320273D01*
X156460147Y-88581426D01*
X156405000Y-88858665D01*
X156405000Y-89141335D01*
X156460147Y-89418574D01*
X156505000Y-89526859D01*
X156505001Y-91607024D01*
X156050097Y-92061928D01*
X154700000Y-92061928D01*
X154575518Y-92074188D01*
X154455820Y-92110498D01*
X154345506Y-92169463D01*
X154248815Y-92248815D01*
X154169463Y-92345506D01*
X154110498Y-92455820D01*
X154074188Y-92575518D01*
X154061928Y-92700000D01*
X154061928Y-95300000D01*
X154074188Y-95424482D01*
X154110498Y-95544180D01*
X154169463Y-95654494D01*
X154248815Y-95751185D01*
X154345506Y-95830537D01*
X154455820Y-95889502D01*
X154575518Y-95925812D01*
X154665000Y-95934625D01*
X154665001Y-99934412D01*
X154658541Y-100000000D01*
X154684317Y-100261705D01*
X154752552Y-100486645D01*
X154760654Y-100513354D01*
X154884619Y-100745275D01*
X154961928Y-100839477D01*
X154961928Y-102400000D01*
X154974188Y-102524482D01*
X155010498Y-102644180D01*
X155069463Y-102754494D01*
X155148815Y-102851185D01*
X155245506Y-102930537D01*
X155355820Y-102989502D01*
X155475518Y-103025812D01*
X155600000Y-103038072D01*
X158400000Y-103038072D01*
X158524482Y-103025812D01*
X158644180Y-102989502D01*
X158754494Y-102930537D01*
X158851185Y-102851185D01*
X158930537Y-102754494D01*
X158989502Y-102644180D01*
X159025812Y-102524482D01*
X159038072Y-102400000D01*
X159038072Y-99600000D01*
X159025812Y-99475518D01*
X158989502Y-99355820D01*
X158930537Y-99245506D01*
X158851185Y-99148815D01*
X158754494Y-99069463D01*
X158644180Y-99010498D01*
X158524482Y-98974188D01*
X158400000Y-98961928D01*
X157335000Y-98961928D01*
X157335000Y-95934625D01*
X157424482Y-95925812D01*
X157544180Y-95889502D01*
X157654494Y-95830537D01*
X157751185Y-95751185D01*
X157830537Y-95654494D01*
X157889502Y-95544180D01*
X157925812Y-95424482D01*
X157938072Y-95300000D01*
X157938072Y-93949903D01*
X158737613Y-93150362D01*
X158788555Y-93108555D01*
X158955382Y-92905275D01*
X159079347Y-92673354D01*
X159155683Y-92421706D01*
X159175000Y-92225579D01*
X159181459Y-92160000D01*
X159175000Y-92094421D01*
X159175000Y-89526859D01*
X159219853Y-89418574D01*
X159228961Y-89372784D01*
X159239347Y-89353354D01*
X159315683Y-89101706D01*
X159335000Y-88905579D01*
X159341459Y-88840001D01*
X159335000Y-88774422D01*
X159335000Y-85526859D01*
X159379853Y-85418574D01*
X159435000Y-85141335D01*
X159435000Y-84858665D01*
X159379853Y-84581426D01*
X159271680Y-84320273D01*
X159142539Y-84127000D01*
X161612721Y-84127000D01*
X161482148Y-84371285D01*
X161388657Y-84679484D01*
X161357089Y-85000000D01*
X161388657Y-85320516D01*
X161482148Y-85628715D01*
X161633969Y-85912752D01*
X161838286Y-86161714D01*
X162087248Y-86366031D01*
X162371285Y-86517852D01*
X162679484Y-86611343D01*
X162919678Y-86635000D01*
X163322762Y-86635000D01*
X166900676Y-90212915D01*
X166900681Y-90212919D01*
X169605000Y-92917239D01*
X169605000Y-92964042D01*
X169525225Y-93083434D01*
X169379361Y-93435581D01*
X169305000Y-93809419D01*
X169305000Y-94190581D01*
X169379361Y-94564419D01*
X169525225Y-94916566D01*
X169605001Y-95035959D01*
X169605001Y-95187760D01*
X162910834Y-101881928D01*
X162785000Y-101881928D01*
X162660518Y-101894188D01*
X162540820Y-101930498D01*
X162430506Y-101989463D01*
X162333815Y-102068815D01*
X162254463Y-102165506D01*
X162195498Y-102275820D01*
X162159188Y-102395518D01*
X162146928Y-102520000D01*
X162146928Y-102645833D01*
X160627762Y-104165000D01*
X156480322Y-104165000D01*
X156400000Y-104157089D01*
X156079483Y-104188657D01*
X155771285Y-104282148D01*
X155487248Y-104433969D01*
X155238286Y-104638286D01*
X155187084Y-104700676D01*
X152722762Y-107165000D01*
X146077239Y-107165000D01*
X144190219Y-105277980D01*
X148401626Y-105277980D01*
X148521514Y-105562836D01*
X148845210Y-105723699D01*
X149194069Y-105818322D01*
X149554684Y-105843067D01*
X149913198Y-105796985D01*
X150255833Y-105681846D01*
X150478486Y-105562836D01*
X150598374Y-105277980D01*
X149500000Y-104179605D01*
X148401626Y-105277980D01*
X144190219Y-105277980D01*
X143838072Y-104925834D01*
X143838072Y-104054684D01*
X147656933Y-104054684D01*
X147703015Y-104413198D01*
X147818154Y-104755833D01*
X147937164Y-104978486D01*
X148222020Y-105098374D01*
X149320395Y-104000000D01*
X149679605Y-104000000D01*
X150777980Y-105098374D01*
X151062836Y-104978486D01*
X151223699Y-104654790D01*
X151318322Y-104305931D01*
X151343067Y-103945316D01*
X151296985Y-103586802D01*
X151181846Y-103244167D01*
X151062836Y-103021514D01*
X150777980Y-102901626D01*
X149679605Y-104000000D01*
X149320395Y-104000000D01*
X148222020Y-102901626D01*
X147937164Y-103021514D01*
X147776301Y-103345210D01*
X147681678Y-103694069D01*
X147656933Y-104054684D01*
X143838072Y-104054684D01*
X143838072Y-102800000D01*
X143830392Y-102722020D01*
X148401626Y-102722020D01*
X149500000Y-103820395D01*
X150598374Y-102722020D01*
X150478486Y-102437164D01*
X150154790Y-102276301D01*
X149805931Y-102181678D01*
X149445316Y-102156933D01*
X149086802Y-102203015D01*
X148744167Y-102318154D01*
X148521514Y-102437164D01*
X148401626Y-102722020D01*
X143830392Y-102722020D01*
X143825812Y-102675518D01*
X143789502Y-102555820D01*
X143730537Y-102445506D01*
X143651185Y-102348815D01*
X143554494Y-102269463D01*
X143444180Y-102210498D01*
X143324482Y-102174188D01*
X143200000Y-102161928D01*
X140800000Y-102161928D01*
X140675518Y-102174188D01*
X140555820Y-102210498D01*
X140445506Y-102269463D01*
X140348815Y-102348815D01*
X140335532Y-102365000D01*
X131002318Y-102365000D01*
X130892012Y-102098698D01*
X130658363Y-101749017D01*
X130360983Y-101451637D01*
X130011302Y-101217988D01*
X129622756Y-101057047D01*
X129210279Y-100975000D01*
X128789721Y-100975000D01*
X128377244Y-101057047D01*
X127988698Y-101217988D01*
X127639017Y-101451637D01*
X127341637Y-101749017D01*
X127107988Y-102098698D01*
X126947047Y-102487244D01*
X126865000Y-102899721D01*
X126865000Y-103320279D01*
X126947047Y-103732756D01*
X127107988Y-104121302D01*
X127341637Y-104470983D01*
X127639017Y-104768363D01*
X127988698Y-105002012D01*
X128377244Y-105162953D01*
X128789721Y-105245000D01*
X128829771Y-105245000D01*
X128977248Y-105366031D01*
X129261285Y-105517852D01*
X129569484Y-105611343D01*
X129809678Y-105635000D01*
X129809680Y-105635000D01*
X129889999Y-105642911D01*
X129970319Y-105635000D01*
X140335532Y-105635000D01*
X140348815Y-105651185D01*
X140384732Y-105680661D01*
X140388657Y-105720516D01*
X140424318Y-105838072D01*
X140482148Y-106028714D01*
X140531218Y-106120517D01*
X140633970Y-106312752D01*
X140838287Y-106561714D01*
X140900682Y-106612920D01*
X144187080Y-109899319D01*
X144238286Y-109961714D01*
X144487248Y-110166031D01*
X144771285Y-110317852D01*
X145079484Y-110411343D01*
X145319678Y-110435000D01*
X145319680Y-110435000D01*
X145399999Y-110442911D01*
X145480319Y-110435000D01*
X153319681Y-110435000D01*
X153400000Y-110442911D01*
X153480319Y-110435000D01*
X153480322Y-110435000D01*
X153720516Y-110411343D01*
X154028715Y-110317852D01*
X154312752Y-110166031D01*
X154561714Y-109961714D01*
X154612924Y-109899314D01*
X156163423Y-108348816D01*
X162150000Y-108348816D01*
X162150000Y-108651184D01*
X162208989Y-108947743D01*
X162324701Y-109227095D01*
X162492688Y-109478505D01*
X162706495Y-109692312D01*
X162957905Y-109860299D01*
X163237257Y-109976011D01*
X163533816Y-110035000D01*
X163836184Y-110035000D01*
X164132743Y-109976011D01*
X164412095Y-109860299D01*
X164663505Y-109692312D01*
X164877312Y-109478505D01*
X165045299Y-109227095D01*
X165161011Y-108947743D01*
X165220000Y-108651184D01*
X165220000Y-108348816D01*
X165161011Y-108052257D01*
X165045299Y-107772905D01*
X164877312Y-107521495D01*
X164663505Y-107307688D01*
X164412095Y-107139701D01*
X164132743Y-107023989D01*
X163836184Y-106965000D01*
X163533816Y-106965000D01*
X163237257Y-107023989D01*
X162957905Y-107139701D01*
X162706495Y-107307688D01*
X162492688Y-107521495D01*
X162324701Y-107772905D01*
X162208989Y-108052257D01*
X162150000Y-108348816D01*
X156163423Y-108348816D01*
X157077240Y-107435000D01*
X161224681Y-107435000D01*
X161305000Y-107442911D01*
X161385319Y-107435000D01*
X161385322Y-107435000D01*
X161625516Y-107411343D01*
X161933715Y-107317852D01*
X162217752Y-107166031D01*
X162466714Y-106961714D01*
X162517925Y-106899313D01*
X164459167Y-104958072D01*
X164585000Y-104958072D01*
X164709482Y-104945812D01*
X164829180Y-104909502D01*
X164939494Y-104850537D01*
X165036185Y-104771185D01*
X165115537Y-104674494D01*
X165174502Y-104564180D01*
X165210812Y-104444482D01*
X165223072Y-104320000D01*
X165223072Y-104194166D01*
X166873000Y-102544238D01*
X166873000Y-149873000D01*
X166148778Y-149873000D01*
X166175960Y-149775565D01*
X165390000Y-148989605D01*
X164604040Y-149775565D01*
X164631222Y-149873000D01*
X164171131Y-149873000D01*
X164201502Y-149816180D01*
X164237812Y-149696482D01*
X164250072Y-149572000D01*
X164250072Y-149547317D01*
X164424435Y-149595960D01*
X165210395Y-148810000D01*
X165569605Y-148810000D01*
X166355565Y-149595960D01*
X166595656Y-149528980D01*
X166712756Y-149279952D01*
X166779023Y-149012865D01*
X166791910Y-148737983D01*
X166750922Y-148465867D01*
X166657636Y-148206977D01*
X166595656Y-148091020D01*
X166355565Y-148024040D01*
X165569605Y-148810000D01*
X165210395Y-148810000D01*
X164424435Y-148024040D01*
X164250072Y-148072683D01*
X164250072Y-148048000D01*
X164237812Y-147923518D01*
X164201502Y-147803820D01*
X164142537Y-147693506D01*
X164085000Y-147623397D01*
X164085000Y-147496915D01*
X164095506Y-147505537D01*
X164205820Y-147564502D01*
X164325518Y-147600812D01*
X164450000Y-147613072D01*
X164664250Y-147610000D01*
X164822998Y-147451252D01*
X164822998Y-147529385D01*
X164786977Y-147542364D01*
X164671020Y-147604344D01*
X164604040Y-147844435D01*
X165390000Y-148630395D01*
X166175960Y-147844435D01*
X166108980Y-147604344D01*
X165859952Y-147487244D01*
X165834484Y-147480925D01*
X165901185Y-147426185D01*
X165980537Y-147329494D01*
X166039502Y-147219180D01*
X166075812Y-147099482D01*
X166088072Y-146975000D01*
X166085000Y-146535750D01*
X165926250Y-146377000D01*
X165077000Y-146377000D01*
X165077000Y-146397000D01*
X164823000Y-146397000D01*
X164823000Y-146377000D01*
X164803000Y-146377000D01*
X164803000Y-146123000D01*
X164823000Y-146123000D01*
X164823000Y-145048750D01*
X165077000Y-145048750D01*
X165077000Y-146123000D01*
X165926250Y-146123000D01*
X166085000Y-145964250D01*
X166088072Y-145525000D01*
X166075812Y-145400518D01*
X166039502Y-145280820D01*
X165980537Y-145170506D01*
X165901185Y-145073815D01*
X165804494Y-144994463D01*
X165694180Y-144935498D01*
X165574482Y-144899188D01*
X165450000Y-144886928D01*
X165235750Y-144890000D01*
X165077000Y-145048750D01*
X164823000Y-145048750D01*
X164664250Y-144890000D01*
X164450000Y-144886928D01*
X164325518Y-144899188D01*
X164205820Y-144935498D01*
X164095506Y-144994463D01*
X163998815Y-145073815D01*
X163933342Y-145153594D01*
X163927962Y-145147038D01*
X163793386Y-145036595D01*
X163639850Y-144954528D01*
X163473254Y-144903992D01*
X163300000Y-144886928D01*
X162800000Y-144886928D01*
X162626746Y-144903992D01*
X162460150Y-144954528D01*
X162306614Y-145036595D01*
X162172038Y-145147038D01*
X162061595Y-145281614D01*
X161979528Y-145435150D01*
X161928992Y-145601746D01*
X161911928Y-145775000D01*
X161911928Y-146725000D01*
X161928992Y-146898254D01*
X161979528Y-147064850D01*
X162015000Y-147131214D01*
X162015000Y-147417118D01*
X161963518Y-147422188D01*
X161843820Y-147458498D01*
X161733506Y-147517463D01*
X161636815Y-147596815D01*
X161557463Y-147693506D01*
X161498498Y-147803820D01*
X161462188Y-147923518D01*
X161449928Y-148048000D01*
X161449928Y-148746362D01*
X161231290Y-148965000D01*
X154675952Y-148965000D01*
X154780535Y-148895120D01*
X154975120Y-148700535D01*
X155128005Y-148471727D01*
X155233314Y-148217490D01*
X155287000Y-147947592D01*
X155287000Y-147672408D01*
X155233314Y-147402510D01*
X155128005Y-147148273D01*
X154975120Y-146919465D01*
X154825000Y-146769345D01*
X154825000Y-145935932D01*
X154829524Y-145890000D01*
X154811471Y-145706708D01*
X154771600Y-145575271D01*
X154758007Y-145530460D01*
X154671186Y-145368028D01*
X154554344Y-145225656D01*
X154518659Y-145196370D01*
X151981685Y-142659396D01*
X151976007Y-142601746D01*
X151925471Y-142435150D01*
X151843404Y-142281614D01*
X151789999Y-142216539D01*
X151789999Y-140052408D01*
X152493000Y-140052408D01*
X152493000Y-140327592D01*
X152546686Y-140597490D01*
X152651995Y-140851727D01*
X152804880Y-141080535D01*
X152999465Y-141275120D01*
X153228273Y-141428005D01*
X153482510Y-141533314D01*
X153752408Y-141587000D01*
X154027592Y-141587000D01*
X154297490Y-141533314D01*
X154551727Y-141428005D01*
X154780535Y-141275120D01*
X154975120Y-141080535D01*
X154993913Y-141052408D01*
X161453000Y-141052408D01*
X161453000Y-141327592D01*
X161506686Y-141597490D01*
X161611995Y-141851727D01*
X161764880Y-142080535D01*
X161959465Y-142275120D01*
X162188273Y-142428005D01*
X162442510Y-142533314D01*
X162712408Y-142587000D01*
X162987592Y-142587000D01*
X163257490Y-142533314D01*
X163511727Y-142428005D01*
X163740535Y-142275120D01*
X163935120Y-142080535D01*
X164088005Y-141851727D01*
X164193314Y-141597490D01*
X164247000Y-141327592D01*
X164247000Y-141052408D01*
X164193314Y-140782510D01*
X164088005Y-140528273D01*
X163935120Y-140299465D01*
X163740535Y-140104880D01*
X163511727Y-139951995D01*
X163257490Y-139846686D01*
X162987592Y-139793000D01*
X162712408Y-139793000D01*
X162442510Y-139846686D01*
X162188273Y-139951995D01*
X161959465Y-140104880D01*
X161764880Y-140299465D01*
X161611995Y-140528273D01*
X161506686Y-140782510D01*
X161453000Y-141052408D01*
X154993913Y-141052408D01*
X155128005Y-140851727D01*
X155233314Y-140597490D01*
X155287000Y-140327592D01*
X155287000Y-140052408D01*
X155233314Y-139782510D01*
X155128005Y-139528273D01*
X154975120Y-139299465D01*
X154780535Y-139104880D01*
X154551727Y-138951995D01*
X154297490Y-138846686D01*
X154027592Y-138793000D01*
X153752408Y-138793000D01*
X153482510Y-138846686D01*
X153228273Y-138951995D01*
X152999465Y-139104880D01*
X152804880Y-139299465D01*
X152651995Y-139528273D01*
X152546686Y-139782510D01*
X152493000Y-140052408D01*
X151789999Y-140052408D01*
X151789999Y-139132290D01*
X152248660Y-138673629D01*
X152284344Y-138644344D01*
X152401186Y-138501972D01*
X152488007Y-138339540D01*
X152523350Y-138223029D01*
X152541472Y-138163292D01*
X152559524Y-137980000D01*
X152555000Y-137934065D01*
X152555000Y-137094396D01*
X152714396Y-136935000D01*
X159751843Y-136935000D01*
X159748320Y-136940273D01*
X159640147Y-137201426D01*
X159585000Y-137478665D01*
X159585000Y-137761335D01*
X159640147Y-138038574D01*
X159748320Y-138299727D01*
X159905363Y-138534759D01*
X160105241Y-138734637D01*
X160340273Y-138891680D01*
X160601426Y-138999853D01*
X160878665Y-139055000D01*
X161161335Y-139055000D01*
X161438574Y-138999853D01*
X161699727Y-138891680D01*
X161934759Y-138734637D01*
X162134637Y-138534759D01*
X162290000Y-138302241D01*
X162445363Y-138534759D01*
X162645241Y-138734637D01*
X162880273Y-138891680D01*
X163141426Y-138999853D01*
X163418665Y-139055000D01*
X163701335Y-139055000D01*
X163978574Y-138999853D01*
X164239727Y-138891680D01*
X164474759Y-138734637D01*
X164674637Y-138534759D01*
X164831680Y-138299727D01*
X164939853Y-138038574D01*
X164995000Y-137761335D01*
X164995000Y-137478665D01*
X164939853Y-137201426D01*
X164831680Y-136940273D01*
X164674637Y-136705241D01*
X164474759Y-136505363D01*
X164239727Y-136348320D01*
X163978574Y-136240147D01*
X163701335Y-136185000D01*
X163447289Y-136185000D01*
X162633630Y-135371341D01*
X162604344Y-135335656D01*
X162461972Y-135218814D01*
X162299540Y-135131993D01*
X162123292Y-135078529D01*
X161985932Y-135065000D01*
X161940000Y-135060476D01*
X161894068Y-135065000D01*
X152714396Y-135065000D01*
X152534759Y-134885363D01*
X152309724Y-134735000D01*
X161954068Y-134735000D01*
X162000000Y-134739524D01*
X162045932Y-134735000D01*
X162183292Y-134721471D01*
X162359540Y-134668007D01*
X162521972Y-134581186D01*
X162664344Y-134464344D01*
X162693630Y-134428659D01*
X164188664Y-132933626D01*
X164224344Y-132904344D01*
X164341186Y-132761972D01*
X164428007Y-132599540D01*
X164481471Y-132423292D01*
X164495000Y-132285932D01*
X164499524Y-132240001D01*
X164495000Y-132194069D01*
X164495000Y-131094396D01*
X164674637Y-130914759D01*
X164831680Y-130679727D01*
X164939853Y-130418574D01*
X164995000Y-130141335D01*
X164995000Y-129858665D01*
X164939853Y-129581426D01*
X164831680Y-129320273D01*
X164674637Y-129085241D01*
X164474759Y-128885363D01*
X164239727Y-128728320D01*
X163978574Y-128620147D01*
X163701335Y-128565000D01*
X163418665Y-128565000D01*
X163141426Y-128620147D01*
X162880273Y-128728320D01*
X162645241Y-128885363D01*
X162445363Y-129085241D01*
X162289085Y-129319128D01*
X162256671Y-129258486D01*
X162012702Y-129186903D01*
X161199605Y-130000000D01*
X162012702Y-130813097D01*
X162256671Y-130741514D01*
X162287194Y-130677008D01*
X162288320Y-130679727D01*
X162445363Y-130914759D01*
X162625000Y-131094396D01*
X162625001Y-131852709D01*
X161612711Y-132865000D01*
X150045924Y-132865000D01*
X149999999Y-132860477D01*
X149954074Y-132865000D01*
X149954068Y-132865000D01*
X149835110Y-132876717D01*
X149816707Y-132878529D01*
X149763243Y-132894747D01*
X149640460Y-132931993D01*
X149478028Y-133018814D01*
X149335656Y-133135656D01*
X149306376Y-133171334D01*
X148451341Y-134026370D01*
X148415656Y-134055656D01*
X148298814Y-134198029D01*
X148211993Y-134360461D01*
X148191303Y-134428667D01*
X148158529Y-134536709D01*
X148140476Y-134720000D01*
X148145000Y-134765933D01*
X148145000Y-134905604D01*
X147965363Y-135085241D01*
X147810000Y-135317759D01*
X147654637Y-135085241D01*
X147454759Y-134885363D01*
X147219727Y-134728320D01*
X146958574Y-134620147D01*
X146681335Y-134565000D01*
X146398665Y-134565000D01*
X146121426Y-134620147D01*
X145860273Y-134728320D01*
X145625241Y-134885363D01*
X145426643Y-135083961D01*
X145425812Y-135075518D01*
X145389502Y-134955820D01*
X145330537Y-134845506D01*
X145251185Y-134748815D01*
X145154494Y-134669463D01*
X145044180Y-134610498D01*
X144924482Y-134574188D01*
X144800000Y-134561928D01*
X143200000Y-134561928D01*
X143075518Y-134574188D01*
X142955820Y-134610498D01*
X142845506Y-134669463D01*
X142748815Y-134748815D01*
X142669463Y-134845506D01*
X142610498Y-134955820D01*
X142574188Y-135075518D01*
X142561928Y-135200000D01*
X142561928Y-136800000D01*
X142574188Y-136924482D01*
X142610498Y-137044180D01*
X142669463Y-137154494D01*
X142748815Y-137251185D01*
X142845506Y-137330537D01*
X142955820Y-137389502D01*
X143075518Y-137425812D01*
X143200000Y-137438072D01*
X144800000Y-137438072D01*
X144924482Y-137425812D01*
X145044180Y-137389502D01*
X145154494Y-137330537D01*
X145251185Y-137251185D01*
X145330537Y-137154494D01*
X145389502Y-137044180D01*
X145425812Y-136924482D01*
X145426643Y-136916039D01*
X145565001Y-137054397D01*
X145565000Y-137332112D01*
X145556613Y-137336595D01*
X145422038Y-137447038D01*
X145311595Y-137581613D01*
X145229528Y-137735149D01*
X145178992Y-137901745D01*
X145161928Y-138074999D01*
X145161928Y-138600001D01*
X145178992Y-138773255D01*
X145229528Y-138939851D01*
X145311595Y-139093387D01*
X145378276Y-139174637D01*
X145348815Y-139198815D01*
X145269463Y-139295506D01*
X145210498Y-139405820D01*
X145174188Y-139525518D01*
X145161928Y-139650000D01*
X145165000Y-139876750D01*
X145323750Y-140035500D01*
X146373000Y-140035500D01*
X146373000Y-140015500D01*
X146627000Y-140015500D01*
X146627000Y-140035500D01*
X147676250Y-140035500D01*
X147835000Y-139876750D01*
X147838072Y-139650000D01*
X147825812Y-139525518D01*
X147789502Y-139405820D01*
X147730537Y-139295506D01*
X147651185Y-139198815D01*
X147621724Y-139174637D01*
X147688405Y-139093387D01*
X147770472Y-138939851D01*
X147821008Y-138773255D01*
X147838072Y-138600001D01*
X147838072Y-138074999D01*
X147821008Y-137901745D01*
X147770472Y-137735149D01*
X147688405Y-137581613D01*
X147577962Y-137447038D01*
X147443387Y-137336595D01*
X147435000Y-137332112D01*
X147435000Y-137127840D01*
X147454759Y-137114637D01*
X147654637Y-136914759D01*
X147810000Y-136682241D01*
X147965363Y-136914759D01*
X148165241Y-137114637D01*
X148400273Y-137271680D01*
X148661426Y-137379853D01*
X148938665Y-137435000D01*
X149221335Y-137435000D01*
X149498574Y-137379853D01*
X149759727Y-137271680D01*
X149994759Y-137114637D01*
X150194637Y-136914759D01*
X150350000Y-136682241D01*
X150505363Y-136914759D01*
X150685000Y-137094396D01*
X150685000Y-137592711D01*
X150226335Y-138051376D01*
X150190656Y-138080657D01*
X150073814Y-138223029D01*
X150025391Y-138313623D01*
X149986993Y-138385461D01*
X149933528Y-138561710D01*
X149915475Y-138745001D01*
X149920000Y-138790943D01*
X149919999Y-142090649D01*
X149906184Y-142073815D01*
X149809493Y-141994463D01*
X149699179Y-141935498D01*
X149579481Y-141899188D01*
X149454999Y-141886928D01*
X149240749Y-141890000D01*
X149081999Y-142048750D01*
X149081999Y-143123000D01*
X149101999Y-143123000D01*
X149101999Y-143377000D01*
X149081999Y-143377000D01*
X149081999Y-145438001D01*
X149101999Y-145438001D01*
X149101999Y-145692001D01*
X149081999Y-145692001D01*
X149081999Y-145712001D01*
X148827999Y-145712001D01*
X148827999Y-145692001D01*
X147978749Y-145692001D01*
X147819999Y-145850751D01*
X147816927Y-146290001D01*
X147829187Y-146414483D01*
X147865497Y-146534181D01*
X147924462Y-146644495D01*
X148003814Y-146741186D01*
X148043710Y-146773928D01*
X148024040Y-146844435D01*
X148810000Y-147630395D01*
X148824143Y-147616253D01*
X149003748Y-147795858D01*
X148989605Y-147810000D01*
X149775565Y-148595960D01*
X150015656Y-148528980D01*
X150079485Y-148393240D01*
X150111995Y-148471727D01*
X150264880Y-148700535D01*
X150459465Y-148895120D01*
X150564048Y-148965000D01*
X149543112Y-148965000D01*
X149595960Y-148775565D01*
X148810000Y-147989605D01*
X148024040Y-148775565D01*
X148076888Y-148965000D01*
X141923112Y-148965000D01*
X141975960Y-148775565D01*
X141190000Y-147989605D01*
X141175858Y-148003748D01*
X140996253Y-147824143D01*
X141010395Y-147810000D01*
X141369605Y-147810000D01*
X142155565Y-148595960D01*
X142395656Y-148528980D01*
X142512756Y-148279952D01*
X142579023Y-148012865D01*
X142585157Y-147882017D01*
X147408090Y-147882017D01*
X147449078Y-148154133D01*
X147542364Y-148413023D01*
X147604344Y-148528980D01*
X147844435Y-148595960D01*
X148630395Y-147810000D01*
X147844435Y-147024040D01*
X147604344Y-147091020D01*
X147487244Y-147340048D01*
X147420977Y-147607135D01*
X147408090Y-147882017D01*
X142585157Y-147882017D01*
X142591910Y-147737983D01*
X142550922Y-147465867D01*
X142457636Y-147206977D01*
X142395656Y-147091020D01*
X142155565Y-147024040D01*
X141369605Y-147810000D01*
X141010395Y-147810000D01*
X140224435Y-147024040D01*
X140050072Y-147072683D01*
X140050072Y-147048000D01*
X140037812Y-146923518D01*
X140001502Y-146803820D01*
X139942537Y-146693506D01*
X139892269Y-146632254D01*
X139927962Y-146602962D01*
X139933342Y-146596406D01*
X139998815Y-146676185D01*
X140095506Y-146755537D01*
X140205820Y-146814502D01*
X140325518Y-146850812D01*
X140419692Y-146860087D01*
X141190000Y-147630395D01*
X141975960Y-146844435D01*
X141921960Y-146650871D01*
X141980537Y-146579494D01*
X142039502Y-146469180D01*
X142075812Y-146349482D01*
X142088072Y-146225000D01*
X142085000Y-145785750D01*
X141926250Y-145627000D01*
X141077000Y-145627000D01*
X141077000Y-145647000D01*
X140823000Y-145647000D01*
X140823000Y-145627000D01*
X140803000Y-145627000D01*
X140803000Y-145373000D01*
X140823000Y-145373000D01*
X140823000Y-144298750D01*
X141077000Y-144298750D01*
X141077000Y-145373000D01*
X141926250Y-145373000D01*
X142085000Y-145214250D01*
X142088072Y-144775000D01*
X142075812Y-144650518D01*
X142039502Y-144530820D01*
X141980537Y-144420506D01*
X141901185Y-144323815D01*
X141804494Y-144244463D01*
X141694180Y-144185498D01*
X141574482Y-144149188D01*
X141450000Y-144136928D01*
X141235750Y-144140000D01*
X141077000Y-144298750D01*
X140823000Y-144298750D01*
X140664250Y-144140000D01*
X140450000Y-144136928D01*
X140325518Y-144149188D01*
X140205820Y-144185498D01*
X140095506Y-144244463D01*
X139998815Y-144323815D01*
X139933342Y-144403594D01*
X139927962Y-144397038D01*
X139793386Y-144286595D01*
X139639850Y-144204528D01*
X139473254Y-144153992D01*
X139300000Y-144136928D01*
X138800639Y-144136928D01*
X138638711Y-143975000D01*
X147816927Y-143975000D01*
X147829187Y-144099482D01*
X147865497Y-144219180D01*
X147924462Y-144329494D01*
X147988480Y-144407501D01*
X147924462Y-144485507D01*
X147865497Y-144595821D01*
X147829187Y-144715519D01*
X147816927Y-144840001D01*
X147819999Y-145279251D01*
X147978749Y-145438001D01*
X148827999Y-145438001D01*
X148827999Y-143377000D01*
X147978749Y-143377000D01*
X147819999Y-143535750D01*
X147816927Y-143975000D01*
X138638711Y-143975000D01*
X137188711Y-142525000D01*
X147816927Y-142525000D01*
X147819999Y-142964250D01*
X147978749Y-143123000D01*
X148827999Y-143123000D01*
X148827999Y-142048750D01*
X148669249Y-141890000D01*
X148454999Y-141886928D01*
X148330517Y-141899188D01*
X148210819Y-141935498D01*
X148100505Y-141994463D01*
X148003814Y-142073815D01*
X147924462Y-142170506D01*
X147865497Y-142280820D01*
X147829187Y-142400518D01*
X147816927Y-142525000D01*
X137188711Y-142525000D01*
X136035000Y-141371290D01*
X136035000Y-140052408D01*
X137253000Y-140052408D01*
X137253000Y-140327592D01*
X137306686Y-140597490D01*
X137411995Y-140851727D01*
X137564880Y-141080535D01*
X137759465Y-141275120D01*
X137988273Y-141428005D01*
X138242510Y-141533314D01*
X138512408Y-141587000D01*
X138787592Y-141587000D01*
X139057490Y-141533314D01*
X139311727Y-141428005D01*
X139540535Y-141275120D01*
X139735120Y-141080535D01*
X139888005Y-140851727D01*
X139961208Y-140675000D01*
X145161928Y-140675000D01*
X145174188Y-140799482D01*
X145210498Y-140919180D01*
X145269463Y-141029494D01*
X145348815Y-141126185D01*
X145445506Y-141205537D01*
X145555820Y-141264502D01*
X145675518Y-141300812D01*
X145800000Y-141313072D01*
X146214250Y-141310000D01*
X146373000Y-141151250D01*
X146373000Y-140289500D01*
X146627000Y-140289500D01*
X146627000Y-141151250D01*
X146785750Y-141310000D01*
X147200000Y-141313072D01*
X147324482Y-141300812D01*
X147444180Y-141264502D01*
X147554494Y-141205537D01*
X147651185Y-141126185D01*
X147730537Y-141029494D01*
X147789502Y-140919180D01*
X147825812Y-140799482D01*
X147838072Y-140675000D01*
X147835000Y-140448250D01*
X147676250Y-140289500D01*
X146627000Y-140289500D01*
X146373000Y-140289500D01*
X145323750Y-140289500D01*
X145165000Y-140448250D01*
X145161928Y-140675000D01*
X139961208Y-140675000D01*
X139993314Y-140597490D01*
X140047000Y-140327592D01*
X140047000Y-140052408D01*
X139993314Y-139782510D01*
X139888005Y-139528273D01*
X139735120Y-139299465D01*
X139540535Y-139104880D01*
X139311727Y-138951995D01*
X139057490Y-138846686D01*
X138787592Y-138793000D01*
X138512408Y-138793000D01*
X138242510Y-138846686D01*
X137988273Y-138951995D01*
X137759465Y-139104880D01*
X137564880Y-139299465D01*
X137411995Y-139528273D01*
X137306686Y-139782510D01*
X137253000Y-140052408D01*
X136035000Y-140052408D01*
X136035000Y-130799570D01*
X136125000Y-130799570D01*
X136125000Y-131200430D01*
X136203204Y-131593587D01*
X136356607Y-131963934D01*
X136579313Y-132297237D01*
X136862763Y-132580687D01*
X137196066Y-132803393D01*
X137566413Y-132956796D01*
X137959570Y-133035000D01*
X138360430Y-133035000D01*
X138753587Y-132956796D01*
X139123934Y-132803393D01*
X139457237Y-132580687D01*
X139740687Y-132297237D01*
X139963393Y-131963934D01*
X139975378Y-131935000D01*
X148754068Y-131935000D01*
X148800000Y-131939524D01*
X148845932Y-131935000D01*
X148983292Y-131921471D01*
X149159540Y-131868007D01*
X149321972Y-131781186D01*
X149464344Y-131664344D01*
X149493631Y-131628658D01*
X149708654Y-131413634D01*
X149744344Y-131384344D01*
X149861186Y-131241972D01*
X149948007Y-131079540D01*
X149974348Y-130992702D01*
X160206903Y-130992702D01*
X160278486Y-131236671D01*
X160533996Y-131357571D01*
X160808184Y-131426300D01*
X161090512Y-131440217D01*
X161370130Y-131398787D01*
X161636292Y-131303603D01*
X161761514Y-131236671D01*
X161833097Y-130992702D01*
X161020000Y-130179605D01*
X160206903Y-130992702D01*
X149974348Y-130992702D01*
X149974739Y-130991416D01*
X150001472Y-130903292D01*
X150019524Y-130720000D01*
X150015000Y-130674065D01*
X150015000Y-130070512D01*
X159579783Y-130070512D01*
X159621213Y-130350130D01*
X159716397Y-130616292D01*
X159783329Y-130741514D01*
X160027298Y-130813097D01*
X160840395Y-130000000D01*
X160027298Y-129186903D01*
X159783329Y-129258486D01*
X159662429Y-129513996D01*
X159593700Y-129788184D01*
X159579783Y-130070512D01*
X150015000Y-130070512D01*
X150015000Y-129474396D01*
X150194637Y-129294759D01*
X150350000Y-129062241D01*
X150505363Y-129294759D01*
X150705241Y-129494637D01*
X150940273Y-129651680D01*
X151201426Y-129759853D01*
X151478665Y-129815000D01*
X151761335Y-129815000D01*
X152038574Y-129759853D01*
X152299727Y-129651680D01*
X152534759Y-129494637D01*
X152734637Y-129294759D01*
X152891680Y-129059727D01*
X152913396Y-129007298D01*
X160206903Y-129007298D01*
X161020000Y-129820395D01*
X161833097Y-129007298D01*
X161761514Y-128763329D01*
X161506004Y-128642429D01*
X161231816Y-128573700D01*
X160949488Y-128559783D01*
X160669870Y-128601213D01*
X160403708Y-128696397D01*
X160278486Y-128763329D01*
X160206903Y-129007298D01*
X152913396Y-129007298D01*
X152999853Y-128798574D01*
X153055000Y-128521335D01*
X153055000Y-128238665D01*
X152999853Y-127961426D01*
X152891680Y-127700273D01*
X152734637Y-127465241D01*
X152534759Y-127265363D01*
X152299727Y-127108320D01*
X152038574Y-127000147D01*
X151761335Y-126945000D01*
X151478665Y-126945000D01*
X151201426Y-127000147D01*
X150940273Y-127108320D01*
X150705241Y-127265363D01*
X150505363Y-127465241D01*
X150350000Y-127697759D01*
X150194637Y-127465241D01*
X149994759Y-127265363D01*
X149759727Y-127108320D01*
X149498574Y-127000147D01*
X149221335Y-126945000D01*
X148938665Y-126945000D01*
X148661426Y-127000147D01*
X148400273Y-127108320D01*
X148165241Y-127265363D01*
X147965363Y-127465241D01*
X147810000Y-127697759D01*
X147654637Y-127465241D01*
X147454759Y-127265363D01*
X147219727Y-127108320D01*
X146958574Y-127000147D01*
X146681335Y-126945000D01*
X146398665Y-126945000D01*
X146121426Y-127000147D01*
X145860273Y-127108320D01*
X145625241Y-127265363D01*
X145425363Y-127465241D01*
X145270000Y-127697759D01*
X145114637Y-127465241D01*
X144914759Y-127265363D01*
X144679727Y-127108320D01*
X144418574Y-127000147D01*
X144141335Y-126945000D01*
X143858665Y-126945000D01*
X143581426Y-127000147D01*
X143320273Y-127108320D01*
X143085241Y-127265363D01*
X142885363Y-127465241D01*
X142728320Y-127700273D01*
X142620147Y-127961426D01*
X142565000Y-128238665D01*
X142565000Y-128521335D01*
X142620147Y-128798574D01*
X142728320Y-129059727D01*
X142885363Y-129294759D01*
X143085241Y-129494637D01*
X143320273Y-129651680D01*
X143581426Y-129759853D01*
X143858665Y-129815000D01*
X144141335Y-129815000D01*
X144418574Y-129759853D01*
X144679727Y-129651680D01*
X144914759Y-129494637D01*
X145114637Y-129294759D01*
X145270000Y-129062241D01*
X145425363Y-129294759D01*
X145625241Y-129494637D01*
X145860273Y-129651680D01*
X146121426Y-129759853D01*
X146398665Y-129815000D01*
X146681335Y-129815000D01*
X146958574Y-129759853D01*
X147219727Y-129651680D01*
X147454759Y-129494637D01*
X147654637Y-129294759D01*
X147810000Y-129062241D01*
X147965363Y-129294759D01*
X148145000Y-129474396D01*
X148145001Y-130065000D01*
X139975378Y-130065000D01*
X139963393Y-130036066D01*
X139740687Y-129702763D01*
X139457237Y-129419313D01*
X139123934Y-129196607D01*
X138753587Y-129043204D01*
X138360430Y-128965000D01*
X137959570Y-128965000D01*
X137566413Y-129043204D01*
X137196066Y-129196607D01*
X136862763Y-129419313D01*
X136579313Y-129702763D01*
X136356607Y-130036066D01*
X136203204Y-130406413D01*
X136125000Y-130799570D01*
X136035000Y-130799570D01*
X136035000Y-125927412D01*
X136270960Y-126011909D01*
X136493000Y-125890624D01*
X136493000Y-124747000D01*
X136747000Y-124747000D01*
X136747000Y-125890624D01*
X136969040Y-126011909D01*
X137233881Y-125917070D01*
X137475131Y-125772385D01*
X137683519Y-125583414D01*
X137851037Y-125357420D01*
X137971246Y-125103087D01*
X138011904Y-124969039D01*
X137889915Y-124747000D01*
X136747000Y-124747000D01*
X136493000Y-124747000D01*
X136473000Y-124747000D01*
X136473000Y-124493000D01*
X136493000Y-124493000D01*
X136493000Y-124473000D01*
X136747000Y-124473000D01*
X136747000Y-124493000D01*
X137889915Y-124493000D01*
X138011904Y-124270961D01*
X137971246Y-124136913D01*
X137851037Y-123882580D01*
X137683519Y-123656586D01*
X137475131Y-123467615D01*
X137289135Y-123356067D01*
X137299727Y-123351680D01*
X137534759Y-123194637D01*
X137703554Y-123025843D01*
X138556370Y-123878659D01*
X138585656Y-123914344D01*
X138728028Y-124031186D01*
X138890460Y-124118007D01*
X139066708Y-124171471D01*
X139250000Y-124189524D01*
X139295932Y-124185000D01*
X142582112Y-124185000D01*
X142586595Y-124193387D01*
X142697038Y-124327962D01*
X142831613Y-124438405D01*
X142985149Y-124520472D01*
X143151745Y-124571008D01*
X143324999Y-124588072D01*
X143850001Y-124588072D01*
X144023255Y-124571008D01*
X144189851Y-124520472D01*
X144343387Y-124438405D01*
X144477962Y-124327962D01*
X144500000Y-124301109D01*
X144522038Y-124327962D01*
X144656613Y-124438405D01*
X144810149Y-124520472D01*
X144976745Y-124571008D01*
X145149999Y-124588072D01*
X145675001Y-124588072D01*
X145848255Y-124571008D01*
X146014851Y-124520472D01*
X146168387Y-124438405D01*
X146302962Y-124327962D01*
X146395668Y-124215000D01*
X148059043Y-124215000D01*
X148069463Y-124234494D01*
X148148815Y-124331185D01*
X148245506Y-124410537D01*
X148355820Y-124469502D01*
X148475518Y-124505812D01*
X148600000Y-124518072D01*
X150800000Y-124518072D01*
X150924482Y-124505812D01*
X151044180Y-124469502D01*
X151154494Y-124410537D01*
X151251185Y-124331185D01*
X151330537Y-124234494D01*
X151389502Y-124124180D01*
X151425812Y-124004482D01*
X151438072Y-123880000D01*
X151438072Y-122680000D01*
X151425812Y-122555518D01*
X151389502Y-122435820D01*
X151330537Y-122325506D01*
X151251185Y-122228815D01*
X151154494Y-122149463D01*
X151044180Y-122090498D01*
X150924482Y-122054188D01*
X150800000Y-122041928D01*
X148600000Y-122041928D01*
X148475518Y-122054188D01*
X148355820Y-122090498D01*
X148245506Y-122149463D01*
X148148815Y-122228815D01*
X148069463Y-122325506D01*
X148059043Y-122345000D01*
X146433923Y-122345000D01*
X146413405Y-122306613D01*
X146302962Y-122172038D01*
X146168387Y-122061595D01*
X146014851Y-121979528D01*
X145848255Y-121928992D01*
X145675001Y-121911928D01*
X145149999Y-121911928D01*
X144976745Y-121928992D01*
X144810149Y-121979528D01*
X144656613Y-122061595D01*
X144522038Y-122172038D01*
X144500000Y-122198891D01*
X144477962Y-122172038D01*
X144343387Y-122061595D01*
X144189851Y-121979528D01*
X144023255Y-121928992D01*
X143850001Y-121911928D01*
X143324999Y-121911928D01*
X143151745Y-121928992D01*
X142985149Y-121979528D01*
X142831613Y-122061595D01*
X142697038Y-122172038D01*
X142586595Y-122306613D01*
X142582112Y-122315000D01*
X139637289Y-122315000D01*
X138773630Y-121451341D01*
X138744344Y-121415656D01*
X138601972Y-121298814D01*
X138439540Y-121211993D01*
X138263292Y-121158529D01*
X138125932Y-121145000D01*
X138080000Y-121140476D01*
X138034068Y-121145000D01*
X137714396Y-121145000D01*
X137534759Y-120965363D01*
X137302241Y-120810000D01*
X137534759Y-120654637D01*
X137734637Y-120454759D01*
X137891680Y-120219727D01*
X137999853Y-119958574D01*
X138055000Y-119681335D01*
X138055000Y-119398665D01*
X137999853Y-119121426D01*
X137891680Y-118860273D01*
X137734637Y-118625241D01*
X137534759Y-118425363D01*
X137302241Y-118270000D01*
X137526732Y-118120000D01*
X147961928Y-118120000D01*
X147961928Y-119320000D01*
X147974188Y-119444482D01*
X148010498Y-119564180D01*
X148069463Y-119674494D01*
X148148815Y-119771185D01*
X148245506Y-119850537D01*
X148355820Y-119909502D01*
X148475518Y-119945812D01*
X148600000Y-119958072D01*
X149184261Y-119958072D01*
X149186646Y-119959347D01*
X149438294Y-120035683D01*
X149700000Y-120061459D01*
X149961705Y-120035683D01*
X150213353Y-119959347D01*
X150215738Y-119958072D01*
X150800000Y-119958072D01*
X150924482Y-119945812D01*
X151044180Y-119909502D01*
X151154494Y-119850537D01*
X151251185Y-119771185D01*
X151330537Y-119674494D01*
X151389502Y-119564180D01*
X151425812Y-119444482D01*
X151438072Y-119320000D01*
X151438072Y-118120000D01*
X151436103Y-118100000D01*
X152161928Y-118100000D01*
X152161928Y-123900000D01*
X152174188Y-124024482D01*
X152210498Y-124144180D01*
X152269463Y-124254494D01*
X152348815Y-124351185D01*
X152445506Y-124430537D01*
X152555820Y-124489502D01*
X152675518Y-124525812D01*
X152800000Y-124538072D01*
X157225833Y-124538072D01*
X157527080Y-124839319D01*
X157578286Y-124901714D01*
X157827248Y-125106031D01*
X158111285Y-125257852D01*
X158419484Y-125351343D01*
X158659678Y-125375000D01*
X158659680Y-125375000D01*
X158739999Y-125382911D01*
X158820319Y-125375000D01*
X163765322Y-125375000D01*
X164005516Y-125351343D01*
X164313715Y-125257852D01*
X164597752Y-125106031D01*
X164846714Y-124901714D01*
X165051031Y-124652752D01*
X165202852Y-124368715D01*
X165296343Y-124060516D01*
X165327911Y-123740000D01*
X165296343Y-123419484D01*
X165202852Y-123111285D01*
X165051031Y-122827248D01*
X164846714Y-122578286D01*
X164597752Y-122373969D01*
X164313715Y-122222148D01*
X164005516Y-122128657D01*
X163765322Y-122105000D01*
X159838072Y-122105000D01*
X159838072Y-118508816D01*
X162150000Y-118508816D01*
X162150000Y-118811184D01*
X162208989Y-119107743D01*
X162324701Y-119387095D01*
X162492688Y-119638505D01*
X162706495Y-119852312D01*
X162957905Y-120020299D01*
X163237257Y-120136011D01*
X163533816Y-120195000D01*
X163836184Y-120195000D01*
X164132743Y-120136011D01*
X164412095Y-120020299D01*
X164663505Y-119852312D01*
X164877312Y-119638505D01*
X165045299Y-119387095D01*
X165161011Y-119107743D01*
X165220000Y-118811184D01*
X165220000Y-118508816D01*
X165161011Y-118212257D01*
X165045299Y-117932905D01*
X164877312Y-117681495D01*
X164663505Y-117467688D01*
X164412095Y-117299701D01*
X164132743Y-117183989D01*
X163836184Y-117125000D01*
X163533816Y-117125000D01*
X163237257Y-117183989D01*
X162957905Y-117299701D01*
X162706495Y-117467688D01*
X162492688Y-117681495D01*
X162324701Y-117932905D01*
X162208989Y-118212257D01*
X162150000Y-118508816D01*
X159838072Y-118508816D01*
X159838072Y-118100000D01*
X159825812Y-117975518D01*
X159789502Y-117855820D01*
X159730537Y-117745506D01*
X159651185Y-117648815D01*
X159554494Y-117569463D01*
X159444180Y-117510498D01*
X159324482Y-117474188D01*
X159200000Y-117461928D01*
X158635000Y-117461928D01*
X158635000Y-113428816D01*
X162150000Y-113428816D01*
X162150000Y-113731184D01*
X162208989Y-114027743D01*
X162324701Y-114307095D01*
X162492688Y-114558505D01*
X162706495Y-114772312D01*
X162957905Y-114940299D01*
X163237257Y-115056011D01*
X163533816Y-115115000D01*
X163836184Y-115115000D01*
X164132743Y-115056011D01*
X164412095Y-114940299D01*
X164663505Y-114772312D01*
X164877312Y-114558505D01*
X165045299Y-114307095D01*
X165161011Y-114027743D01*
X165220000Y-113731184D01*
X165220000Y-113428816D01*
X165161011Y-113132257D01*
X165045299Y-112852905D01*
X164877312Y-112601495D01*
X164663505Y-112387688D01*
X164412095Y-112219701D01*
X164132743Y-112103989D01*
X163836184Y-112045000D01*
X163533816Y-112045000D01*
X163237257Y-112103989D01*
X162957905Y-112219701D01*
X162706495Y-112387688D01*
X162492688Y-112601495D01*
X162324701Y-112852905D01*
X162208989Y-113132257D01*
X162150000Y-113428816D01*
X158635000Y-113428816D01*
X158635000Y-112375952D01*
X158803393Y-112123934D01*
X158956796Y-111753587D01*
X159035000Y-111360430D01*
X159035000Y-110959570D01*
X158956796Y-110566413D01*
X158803393Y-110196066D01*
X158580687Y-109862763D01*
X158297237Y-109579313D01*
X157963934Y-109356607D01*
X157593587Y-109203204D01*
X157200430Y-109125000D01*
X156799570Y-109125000D01*
X156406413Y-109203204D01*
X156036066Y-109356607D01*
X155702763Y-109579313D01*
X155419313Y-109862763D01*
X155196607Y-110196066D01*
X155043204Y-110566413D01*
X154965000Y-110959570D01*
X154965000Y-111360430D01*
X155043204Y-111753587D01*
X155196607Y-112123934D01*
X155365000Y-112375952D01*
X155365001Y-117461928D01*
X152800000Y-117461928D01*
X152675518Y-117474188D01*
X152555820Y-117510498D01*
X152445506Y-117569463D01*
X152348815Y-117648815D01*
X152269463Y-117745506D01*
X152210498Y-117855820D01*
X152174188Y-117975518D01*
X152161928Y-118100000D01*
X151436103Y-118100000D01*
X151425812Y-117995518D01*
X151389502Y-117875820D01*
X151330537Y-117765506D01*
X151251185Y-117668815D01*
X151154494Y-117589463D01*
X151044180Y-117530498D01*
X151035000Y-117527713D01*
X151035000Y-116544349D01*
X151089727Y-116521680D01*
X151324759Y-116364637D01*
X151524637Y-116164759D01*
X151681680Y-115929727D01*
X151789853Y-115668574D01*
X151845000Y-115391335D01*
X151845000Y-115108665D01*
X151789853Y-114831426D01*
X151681680Y-114570273D01*
X151524637Y-114335241D01*
X151324759Y-114135363D01*
X151089727Y-113978320D01*
X150828574Y-113870147D01*
X150551335Y-113815000D01*
X150268665Y-113815000D01*
X149991426Y-113870147D01*
X149730273Y-113978320D01*
X149495241Y-114135363D01*
X149295363Y-114335241D01*
X149138320Y-114570273D01*
X149093466Y-114678560D01*
X148802387Y-114969639D01*
X148751446Y-115011445D01*
X148684199Y-115093386D01*
X148584618Y-115214726D01*
X148460654Y-115446646D01*
X148384317Y-115698295D01*
X148358541Y-115960000D01*
X148365001Y-116025588D01*
X148365000Y-117527713D01*
X148355820Y-117530498D01*
X148245506Y-117589463D01*
X148148815Y-117668815D01*
X148069463Y-117765506D01*
X148010498Y-117875820D01*
X147974188Y-117995518D01*
X147961928Y-118120000D01*
X137526732Y-118120000D01*
X137534759Y-118114637D01*
X137734637Y-117914759D01*
X137891680Y-117679727D01*
X137999853Y-117418574D01*
X138055000Y-117141335D01*
X138055000Y-116858665D01*
X137999853Y-116581426D01*
X137891680Y-116320273D01*
X137839849Y-116242702D01*
X139436903Y-116242702D01*
X139508486Y-116486671D01*
X139763996Y-116607571D01*
X140038184Y-116676300D01*
X140320512Y-116690217D01*
X140600130Y-116648787D01*
X140866292Y-116553603D01*
X140991514Y-116486671D01*
X141063097Y-116242702D01*
X140250000Y-115429605D01*
X139436903Y-116242702D01*
X137839849Y-116242702D01*
X137734637Y-116085241D01*
X137534759Y-115885363D01*
X137299727Y-115728320D01*
X137038574Y-115620147D01*
X136761335Y-115565000D01*
X136478665Y-115565000D01*
X136201426Y-115620147D01*
X135940273Y-115728320D01*
X135705241Y-115885363D01*
X135535000Y-116055604D01*
X135535000Y-115356250D01*
X135568386Y-115338405D01*
X135590188Y-115320512D01*
X138809783Y-115320512D01*
X138851213Y-115600130D01*
X138946397Y-115866292D01*
X139013329Y-115991514D01*
X139257298Y-116063097D01*
X140070395Y-115250000D01*
X140429605Y-115250000D01*
X141242702Y-116063097D01*
X141486671Y-115991514D01*
X141607571Y-115736004D01*
X141676300Y-115461816D01*
X141690217Y-115179488D01*
X141648787Y-114899870D01*
X141553603Y-114633708D01*
X141486671Y-114508486D01*
X141242702Y-114436903D01*
X140429605Y-115250000D01*
X140070395Y-115250000D01*
X139257298Y-114436903D01*
X139013329Y-114508486D01*
X138892429Y-114763996D01*
X138823700Y-115038184D01*
X138809783Y-115320512D01*
X135590188Y-115320512D01*
X135702962Y-115227962D01*
X135813405Y-115093386D01*
X135895472Y-114939850D01*
X135946008Y-114773254D01*
X135963072Y-114600000D01*
X135963072Y-114257298D01*
X139436903Y-114257298D01*
X140250000Y-115070395D01*
X141063097Y-114257298D01*
X140991514Y-114013329D01*
X140736004Y-113892429D01*
X140461816Y-113823700D01*
X140179488Y-113809783D01*
X139899870Y-113851213D01*
X139633708Y-113946397D01*
X139508486Y-114013329D01*
X139436903Y-114257298D01*
X135963072Y-114257298D01*
X135963072Y-114100000D01*
X135946008Y-113926746D01*
X135895472Y-113760150D01*
X135813405Y-113606614D01*
X135702962Y-113472038D01*
X135696406Y-113466658D01*
X135776185Y-113401185D01*
X135855537Y-113304494D01*
X135914502Y-113194180D01*
X135950812Y-113074482D01*
X135963072Y-112950000D01*
X135960000Y-112735750D01*
X135801250Y-112577000D01*
X134727000Y-112577000D01*
X134727000Y-112597000D01*
X134473000Y-112597000D01*
X134473000Y-112577000D01*
X133398750Y-112577000D01*
X133240000Y-112735750D01*
X133236928Y-112950000D01*
X133249188Y-113074482D01*
X133285498Y-113194180D01*
X133344463Y-113304494D01*
X133423815Y-113401185D01*
X133503594Y-113466658D01*
X133497038Y-113472038D01*
X133386595Y-113606614D01*
X133304528Y-113760150D01*
X133253992Y-113926746D01*
X133236928Y-114100000D01*
X133236928Y-114600000D01*
X133253992Y-114773254D01*
X133304528Y-114939850D01*
X133386595Y-115093386D01*
X133497038Y-115227962D01*
X133631614Y-115338405D01*
X133665000Y-115356250D01*
X133665001Y-116861928D01*
X133449999Y-116861928D01*
X133276745Y-116878992D01*
X133110149Y-116929528D01*
X132956613Y-117011595D01*
X132822500Y-117121659D01*
X132822500Y-115083432D01*
X132827024Y-115037500D01*
X132808971Y-114854208D01*
X132784128Y-114772312D01*
X132755507Y-114677960D01*
X132668686Y-114515528D01*
X132563072Y-114386837D01*
X132563072Y-114100000D01*
X132546008Y-113926746D01*
X132495472Y-113760150D01*
X132413405Y-113606614D01*
X132302962Y-113472038D01*
X132296406Y-113466658D01*
X132376185Y-113401185D01*
X132455537Y-113304494D01*
X132514502Y-113194180D01*
X132550812Y-113074482D01*
X132563072Y-112950000D01*
X132560000Y-112735750D01*
X132401250Y-112577000D01*
X131327000Y-112577000D01*
X131327000Y-112597000D01*
X131073000Y-112597000D01*
X131073000Y-112577000D01*
X129998750Y-112577000D01*
X129840000Y-112735750D01*
X129836928Y-112950000D01*
X129849188Y-113074482D01*
X129885498Y-113194180D01*
X129944463Y-113304494D01*
X130023815Y-113401185D01*
X130103594Y-113466658D01*
X130097038Y-113472038D01*
X129986595Y-113606614D01*
X129904528Y-113760150D01*
X129853992Y-113926746D01*
X129836928Y-114100000D01*
X129836928Y-114600000D01*
X129853992Y-114773254D01*
X129904528Y-114939850D01*
X129986595Y-115093386D01*
X130097038Y-115227962D01*
X130231614Y-115338405D01*
X130385150Y-115420472D01*
X130551746Y-115471008D01*
X130725000Y-115488072D01*
X130952501Y-115488072D01*
X130952500Y-117176307D01*
X130886595Y-117256613D01*
X130804528Y-117410149D01*
X130753992Y-117576745D01*
X130736928Y-117749999D01*
X130736928Y-118650001D01*
X130753992Y-118823255D01*
X130804528Y-118989851D01*
X130886595Y-119143387D01*
X130952500Y-119223693D01*
X130952501Y-122125209D01*
X130178441Y-122899270D01*
X130271680Y-122759727D01*
X130379853Y-122498574D01*
X130435000Y-122221335D01*
X130435000Y-121938665D01*
X130379853Y-121661426D01*
X130271680Y-121400273D01*
X130114637Y-121165241D01*
X129914759Y-120965363D01*
X129682241Y-120810000D01*
X129914759Y-120654637D01*
X130114637Y-120454759D01*
X130271680Y-120219727D01*
X130379853Y-119958574D01*
X130435000Y-119681335D01*
X130435000Y-119398665D01*
X130379853Y-119121426D01*
X130271680Y-118860273D01*
X130114637Y-118625241D01*
X129916039Y-118426643D01*
X129924482Y-118425812D01*
X130044180Y-118389502D01*
X130154494Y-118330537D01*
X130251185Y-118251185D01*
X130330537Y-118154494D01*
X130389502Y-118044180D01*
X130425812Y-117924482D01*
X130438072Y-117800000D01*
X130438072Y-116200000D01*
X130425812Y-116075518D01*
X130389502Y-115955820D01*
X130330537Y-115845506D01*
X130251185Y-115748815D01*
X130154494Y-115669463D01*
X130044180Y-115610498D01*
X129924482Y-115574188D01*
X129800000Y-115561928D01*
X128200000Y-115561928D01*
X128075518Y-115574188D01*
X127955820Y-115610498D01*
X127845506Y-115669463D01*
X127748815Y-115748815D01*
X127669463Y-115845506D01*
X127610498Y-115955820D01*
X127574188Y-116075518D01*
X127561928Y-116200000D01*
X127561928Y-117800000D01*
X127574188Y-117924482D01*
X127610498Y-118044180D01*
X127669463Y-118154494D01*
X127748815Y-118251185D01*
X127845506Y-118330537D01*
X127909981Y-118365000D01*
X127138072Y-118365000D01*
X127138072Y-118049999D01*
X127121008Y-117876745D01*
X127070472Y-117710149D01*
X126988405Y-117556613D01*
X126921724Y-117475363D01*
X126951185Y-117451185D01*
X127030537Y-117354494D01*
X127089502Y-117244180D01*
X127125812Y-117124482D01*
X127138072Y-117000000D01*
X127135000Y-116773250D01*
X126976250Y-116614500D01*
X125927000Y-116614500D01*
X125927000Y-116634500D01*
X125673000Y-116634500D01*
X125673000Y-116614500D01*
X124623750Y-116614500D01*
X124465000Y-116773250D01*
X124461928Y-117000000D01*
X124474188Y-117124482D01*
X124510498Y-117244180D01*
X124569463Y-117354494D01*
X124648815Y-117451185D01*
X124678276Y-117475363D01*
X124611595Y-117556613D01*
X124529528Y-117710149D01*
X124478992Y-117876745D01*
X124461928Y-118049999D01*
X124461928Y-118575001D01*
X124478992Y-118748255D01*
X124529528Y-118914851D01*
X124611595Y-119068387D01*
X124722038Y-119202962D01*
X124765001Y-119238221D01*
X124765001Y-119349153D01*
X124759993Y-119400000D01*
X124765000Y-119450838D01*
X124765000Y-119561780D01*
X124722038Y-119597038D01*
X124611595Y-119731613D01*
X124529528Y-119885149D01*
X124478992Y-120051745D01*
X124461928Y-120224999D01*
X124461928Y-120750001D01*
X124478992Y-120923255D01*
X124529528Y-121089851D01*
X124611595Y-121243387D01*
X124722038Y-121377962D01*
X124748891Y-121400000D01*
X124722038Y-121422038D01*
X124611595Y-121556613D01*
X124529528Y-121710149D01*
X124478992Y-121876745D01*
X124461928Y-122049999D01*
X124461928Y-122575001D01*
X124478992Y-122748255D01*
X124529528Y-122914851D01*
X124611595Y-123068387D01*
X124722038Y-123202962D01*
X124765001Y-123238221D01*
X124765000Y-130149172D01*
X124759994Y-130200000D01*
X124765000Y-130250828D01*
X124765000Y-130250837D01*
X124779976Y-130402894D01*
X124839159Y-130597992D01*
X124935266Y-130777797D01*
X125064604Y-130935396D01*
X125104097Y-130967807D01*
X125832197Y-131695908D01*
X125864604Y-131735396D01*
X125904092Y-131767803D01*
X125961928Y-131815268D01*
X125961928Y-132400000D01*
X125974188Y-132524482D01*
X126010498Y-132644180D01*
X126069463Y-132754494D01*
X126148815Y-132851185D01*
X126245506Y-132930537D01*
X126355820Y-132989502D01*
X126475518Y-133025812D01*
X126600000Y-133038072D01*
X129400000Y-133038072D01*
X129524482Y-133025812D01*
X129644180Y-132989502D01*
X129754494Y-132930537D01*
X129851185Y-132851185D01*
X129930537Y-132754494D01*
X129989502Y-132644180D01*
X130025812Y-132524482D01*
X130038072Y-132400000D01*
X130038072Y-129600000D01*
X130025812Y-129475518D01*
X129989502Y-129355820D01*
X129930537Y-129245506D01*
X129851185Y-129148815D01*
X129754494Y-129069463D01*
X129644180Y-129010498D01*
X129524482Y-128974188D01*
X129400000Y-128961928D01*
X126835000Y-128961928D01*
X126835000Y-123238220D01*
X126877962Y-123202962D01*
X126988405Y-123068387D01*
X127070472Y-122914851D01*
X127121008Y-122748255D01*
X127138072Y-122575001D01*
X127138072Y-122049999D01*
X127121008Y-121876745D01*
X127070472Y-121710149D01*
X126988405Y-121556613D01*
X126877962Y-121422038D01*
X126851109Y-121400000D01*
X126877962Y-121377962D01*
X126988405Y-121243387D01*
X127070472Y-121089851D01*
X127121008Y-120923255D01*
X127138072Y-120750001D01*
X127138072Y-120435000D01*
X127872160Y-120435000D01*
X127885363Y-120454759D01*
X128085241Y-120654637D01*
X128317759Y-120810000D01*
X128085241Y-120965363D01*
X127885363Y-121165241D01*
X127728320Y-121400273D01*
X127620147Y-121661426D01*
X127565000Y-121938665D01*
X127565000Y-122221335D01*
X127620147Y-122498574D01*
X127728320Y-122759727D01*
X127885363Y-122994759D01*
X128085241Y-123194637D01*
X128317759Y-123350000D01*
X128085241Y-123505363D01*
X127885363Y-123705241D01*
X127728320Y-123940273D01*
X127620147Y-124201426D01*
X127565000Y-124478665D01*
X127565000Y-124761335D01*
X127620147Y-125038574D01*
X127728320Y-125299727D01*
X127885363Y-125534759D01*
X128085241Y-125734637D01*
X128320273Y-125891680D01*
X128581426Y-125999853D01*
X128858665Y-126055000D01*
X129141335Y-126055000D01*
X129418574Y-125999853D01*
X129679727Y-125891680D01*
X129914759Y-125734637D01*
X130114637Y-125534759D01*
X130149395Y-125482739D01*
X130301972Y-125401186D01*
X130444344Y-125284344D01*
X130473630Y-125248659D01*
X132516164Y-123206126D01*
X132551844Y-123176844D01*
X132668686Y-123034472D01*
X132755507Y-122872040D01*
X132808971Y-122695792D01*
X132827024Y-122512501D01*
X132822500Y-122466569D01*
X132822500Y-119278341D01*
X132956613Y-119388405D01*
X133110149Y-119470472D01*
X133276745Y-119521008D01*
X133449999Y-119538072D01*
X133975001Y-119538072D01*
X134148255Y-119521008D01*
X134314851Y-119470472D01*
X134468387Y-119388405D01*
X134602962Y-119277962D01*
X134713405Y-119143387D01*
X134752566Y-119070123D01*
X134759540Y-119068007D01*
X134921972Y-118981186D01*
X135064344Y-118864344D01*
X135093631Y-118828658D01*
X135228655Y-118693633D01*
X135264344Y-118664344D01*
X135293630Y-118628659D01*
X135766632Y-118155657D01*
X135937759Y-118270000D01*
X135705241Y-118425363D01*
X135505363Y-118625241D01*
X135348320Y-118860273D01*
X135240147Y-119121426D01*
X135185000Y-119398665D01*
X135185000Y-119511289D01*
X134304092Y-120392198D01*
X134264605Y-120424604D01*
X134232198Y-120464092D01*
X134232197Y-120464093D01*
X134135266Y-120582203D01*
X134039160Y-120762007D01*
X133979977Y-120957105D01*
X133959994Y-121160000D01*
X133965001Y-121210838D01*
X133965000Y-141749172D01*
X133959994Y-141800000D01*
X133965000Y-141850828D01*
X133965000Y-141850837D01*
X133979976Y-142002894D01*
X134039159Y-142197992D01*
X134135266Y-142377797D01*
X134264604Y-142535396D01*
X134304097Y-142567807D01*
X137612352Y-145876062D01*
X137609994Y-145900000D01*
X137615000Y-145950828D01*
X137615000Y-146473903D01*
X137533506Y-146517463D01*
X137436815Y-146596815D01*
X137357463Y-146693506D01*
X137298498Y-146803820D01*
X137262188Y-146923518D01*
X137249928Y-147048000D01*
X137249928Y-148572000D01*
X137262188Y-148696482D01*
X137298498Y-148816180D01*
X137357463Y-148926494D01*
X137436815Y-149023185D01*
X137533506Y-149102537D01*
X137643820Y-149161502D01*
X137763518Y-149197812D01*
X137888000Y-149210072D01*
X138586362Y-149210072D01*
X139249290Y-149873000D01*
X128127000Y-149873000D01*
X128127000Y-143000000D01*
X128124560Y-142975224D01*
X128117333Y-142951399D01*
X128105597Y-142929443D01*
X128089803Y-142910197D01*
X128070557Y-142894403D01*
X128048601Y-142882667D01*
X128024776Y-142875440D01*
X128000000Y-142873000D01*
X121127000Y-142873000D01*
X121127000Y-115975000D01*
X124461928Y-115975000D01*
X124465000Y-116201750D01*
X124623750Y-116360500D01*
X125673000Y-116360500D01*
X125673000Y-115498750D01*
X125927000Y-115498750D01*
X125927000Y-116360500D01*
X126976250Y-116360500D01*
X127135000Y-116201750D01*
X127138072Y-115975000D01*
X127125812Y-115850518D01*
X127089502Y-115730820D01*
X127030537Y-115620506D01*
X126951185Y-115523815D01*
X126854494Y-115444463D01*
X126744180Y-115385498D01*
X126624482Y-115349188D01*
X126500000Y-115336928D01*
X126085750Y-115340000D01*
X125927000Y-115498750D01*
X125673000Y-115498750D01*
X125514250Y-115340000D01*
X125100000Y-115336928D01*
X124975518Y-115349188D01*
X124855820Y-115385498D01*
X124745506Y-115444463D01*
X124648815Y-115523815D01*
X124569463Y-115620506D01*
X124510498Y-115730820D01*
X124474188Y-115850518D01*
X124461928Y-115975000D01*
X121127000Y-115975000D01*
X121127000Y-111950000D01*
X129836928Y-111950000D01*
X129840000Y-112164250D01*
X129998750Y-112323000D01*
X131073000Y-112323000D01*
X131073000Y-111473750D01*
X131327000Y-111473750D01*
X131327000Y-112323000D01*
X132401250Y-112323000D01*
X132560000Y-112164250D01*
X132563072Y-111950000D01*
X133236928Y-111950000D01*
X133240000Y-112164250D01*
X133398750Y-112323000D01*
X134473000Y-112323000D01*
X134473000Y-111473750D01*
X134727000Y-111473750D01*
X134727000Y-112323000D01*
X135801250Y-112323000D01*
X135960000Y-112164250D01*
X135963072Y-111950000D01*
X135950812Y-111825518D01*
X135914502Y-111705820D01*
X135855537Y-111595506D01*
X135776185Y-111498815D01*
X135679494Y-111419463D01*
X135569180Y-111360498D01*
X135449482Y-111324188D01*
X135325000Y-111311928D01*
X134885750Y-111315000D01*
X134727000Y-111473750D01*
X134473000Y-111473750D01*
X134314250Y-111315000D01*
X133875000Y-111311928D01*
X133750518Y-111324188D01*
X133630820Y-111360498D01*
X133520506Y-111419463D01*
X133423815Y-111498815D01*
X133344463Y-111595506D01*
X133285498Y-111705820D01*
X133249188Y-111825518D01*
X133236928Y-111950000D01*
X132563072Y-111950000D01*
X132550812Y-111825518D01*
X132514502Y-111705820D01*
X132455537Y-111595506D01*
X132376185Y-111498815D01*
X132279494Y-111419463D01*
X132169180Y-111360498D01*
X132049482Y-111324188D01*
X131925000Y-111311928D01*
X131485750Y-111315000D01*
X131327000Y-111473750D01*
X131073000Y-111473750D01*
X130914250Y-111315000D01*
X130475000Y-111311928D01*
X130350518Y-111324188D01*
X130230820Y-111360498D01*
X130120506Y-111419463D01*
X130023815Y-111498815D01*
X129944463Y-111595506D01*
X129885498Y-111705820D01*
X129849188Y-111825518D01*
X129836928Y-111950000D01*
X121127000Y-111950000D01*
X121127000Y-89478665D01*
X121485000Y-89478665D01*
X121485000Y-89761335D01*
X121540147Y-90038574D01*
X121648320Y-90299727D01*
X121805363Y-90534759D01*
X122005241Y-90734637D01*
X122240273Y-90891680D01*
X122501426Y-90999853D01*
X122778665Y-91055000D01*
X123061335Y-91055000D01*
X123338574Y-90999853D01*
X123599727Y-90891680D01*
X123834759Y-90734637D01*
X124034637Y-90534759D01*
X124190000Y-90302241D01*
X124345363Y-90534759D01*
X124545241Y-90734637D01*
X124780273Y-90891680D01*
X125041426Y-90999853D01*
X125318665Y-91055000D01*
X125601335Y-91055000D01*
X125878574Y-90999853D01*
X126139727Y-90891680D01*
X126374759Y-90734637D01*
X126574637Y-90534759D01*
X126730000Y-90302241D01*
X126885363Y-90534759D01*
X127085241Y-90734637D01*
X127320273Y-90891680D01*
X127581426Y-90999853D01*
X127858665Y-91055000D01*
X128141335Y-91055000D01*
X128418574Y-90999853D01*
X128679727Y-90891680D01*
X128914759Y-90734637D01*
X128994396Y-90655000D01*
X131929172Y-90655000D01*
X131980000Y-90660006D01*
X132030828Y-90655000D01*
X132030838Y-90655000D01*
X132032972Y-90654790D01*
X128822762Y-93865000D01*
X128789721Y-93865000D01*
X128377244Y-93947047D01*
X127988698Y-94107988D01*
X127639017Y-94341637D01*
X127341637Y-94639017D01*
X127107988Y-94988698D01*
X126947047Y-95377244D01*
X126865000Y-95789721D01*
X126865000Y-96210279D01*
X126947047Y-96622756D01*
X127107988Y-97011302D01*
X127341637Y-97360983D01*
X127639017Y-97658363D01*
X127988698Y-97892012D01*
X128377244Y-98052953D01*
X128789721Y-98135000D01*
X129210279Y-98135000D01*
X129622756Y-98052953D01*
X130011302Y-97892012D01*
X130360983Y-97658363D01*
X130658363Y-97360983D01*
X130892012Y-97011302D01*
X131052953Y-96622756D01*
X131135000Y-96210279D01*
X131135000Y-96177238D01*
X136677239Y-90635000D01*
X139968808Y-90635000D01*
X140000000Y-90638072D01*
X140950869Y-90638072D01*
X141000000Y-90642911D01*
X141049131Y-90638072D01*
X142000000Y-90638072D01*
X142124482Y-90625812D01*
X142244180Y-90589502D01*
X142354494Y-90530537D01*
X142451185Y-90451185D01*
X142530537Y-90354494D01*
X142589502Y-90244180D01*
X142622496Y-90135413D01*
X145044192Y-90135413D01*
X145139956Y-90399814D01*
X145429571Y-90540704D01*
X145741108Y-90622384D01*
X146062595Y-90641718D01*
X146381675Y-90597961D01*
X146686088Y-90492795D01*
X146860044Y-90399814D01*
X146955808Y-90135413D01*
X146000000Y-89179605D01*
X145044192Y-90135413D01*
X142622496Y-90135413D01*
X142625812Y-90124482D01*
X142638072Y-90000000D01*
X142638072Y-89062595D01*
X144358282Y-89062595D01*
X144402039Y-89381675D01*
X144507205Y-89686088D01*
X144600186Y-89860044D01*
X144864587Y-89955808D01*
X145820395Y-89000000D01*
X146179605Y-89000000D01*
X147135413Y-89955808D01*
X147399814Y-89860044D01*
X147540704Y-89570429D01*
X147622384Y-89258892D01*
X147641718Y-88937405D01*
X147597961Y-88618325D01*
X147492795Y-88313912D01*
X147399814Y-88139956D01*
X147135413Y-88044192D01*
X146179605Y-89000000D01*
X145820395Y-89000000D01*
X144864587Y-88044192D01*
X144600186Y-88139956D01*
X144459296Y-88429571D01*
X144377616Y-88741108D01*
X144358282Y-89062595D01*
X142638072Y-89062595D01*
X142638072Y-89049131D01*
X142642911Y-89000000D01*
X142638072Y-88950869D01*
X142638072Y-88000000D01*
X142635000Y-87968808D01*
X142635000Y-87864587D01*
X145044192Y-87864587D01*
X146000000Y-88820395D01*
X146955808Y-87864587D01*
X146860044Y-87600186D01*
X146570429Y-87459296D01*
X146258892Y-87377616D01*
X145937405Y-87358282D01*
X145618325Y-87402039D01*
X145313912Y-87507205D01*
X145139956Y-87600186D01*
X145044192Y-87864587D01*
X142635000Y-87864587D01*
X142635000Y-85477238D01*
X143939318Y-84172921D01*
X144001714Y-84121714D01*
X144206031Y-83872752D01*
X144357852Y-83588715D01*
X144451343Y-83280516D01*
X144475000Y-83040322D01*
X144475000Y-83040320D01*
X144482911Y-82960000D01*
X144475000Y-82879681D01*
X144475000Y-78349224D01*
X146750381Y-78349224D01*
X146882317Y-78644312D01*
X147223045Y-78815159D01*
X147590557Y-78916250D01*
X147970729Y-78943701D01*
X148348951Y-78896457D01*
X148710690Y-78776333D01*
X148957683Y-78644312D01*
X149089619Y-78349224D01*
X147920000Y-77179605D01*
X146750381Y-78349224D01*
X144475000Y-78349224D01*
X144475000Y-78035958D01*
X144554775Y-77916566D01*
X144700639Y-77564419D01*
X144775000Y-77190581D01*
X144775000Y-77050729D01*
X145976299Y-77050729D01*
X146023543Y-77428951D01*
X146143667Y-77790690D01*
X146275688Y-78037683D01*
X146570776Y-78169619D01*
X147740395Y-77000000D01*
X148099605Y-77000000D01*
X149269224Y-78169619D01*
X149564312Y-78037683D01*
X149735159Y-77696955D01*
X149836250Y-77329443D01*
X149863701Y-76949271D01*
X149816457Y-76571049D01*
X149696333Y-76209310D01*
X149564312Y-75962317D01*
X149269224Y-75830381D01*
X148099605Y-77000000D01*
X147740395Y-77000000D01*
X146570776Y-75830381D01*
X146275688Y-75962317D01*
X146104841Y-76303045D01*
X146003750Y-76670557D01*
X145976299Y-77050729D01*
X144775000Y-77050729D01*
X144775000Y-76809419D01*
X144700639Y-76435581D01*
X144554775Y-76083434D01*
X144343013Y-75766509D01*
X144227280Y-75650776D01*
X146750381Y-75650776D01*
X147920000Y-76820395D01*
X149089619Y-75650776D01*
X148957683Y-75355688D01*
X148616955Y-75184841D01*
X148249443Y-75083750D01*
X147869271Y-75056299D01*
X147491049Y-75103543D01*
X147129310Y-75223667D01*
X146882317Y-75355688D01*
X146750381Y-75650776D01*
X144227280Y-75650776D01*
X144073491Y-75496987D01*
X143756566Y-75285225D01*
X143404419Y-75139361D01*
X143030581Y-75065000D01*
X142649419Y-75065000D01*
X142275581Y-75139361D01*
X141923434Y-75285225D01*
X141606509Y-75496987D01*
X141336987Y-75766509D01*
X141125225Y-76083434D01*
X140979361Y-76435581D01*
X140905000Y-76809419D01*
X140905000Y-77190581D01*
X140979361Y-77564419D01*
X141125225Y-77916566D01*
X141205000Y-78035958D01*
X141205001Y-82282760D01*
X139900686Y-83587075D01*
X139838286Y-83638286D01*
X139633969Y-83887249D01*
X139482148Y-84171286D01*
X139388657Y-84479485D01*
X139379610Y-84571343D01*
X139357089Y-84800000D01*
X139365000Y-84880320D01*
X139365001Y-87365000D01*
X136080319Y-87365000D01*
X136000000Y-87357089D01*
X135919680Y-87365000D01*
X135919678Y-87365000D01*
X135679484Y-87388657D01*
X135673124Y-87390586D01*
X138455908Y-84607803D01*
X138495396Y-84575396D01*
X138527803Y-84535908D01*
X138624734Y-84417798D01*
X138711897Y-84254726D01*
X138720841Y-84237993D01*
X138780024Y-84042895D01*
X138795000Y-83890838D01*
X138795000Y-83890829D01*
X138800006Y-83840001D01*
X138795000Y-83789173D01*
X138795000Y-78635640D01*
X138993491Y-78503013D01*
X139263013Y-78233491D01*
X139474775Y-77916566D01*
X139620639Y-77564419D01*
X139695000Y-77190581D01*
X139695000Y-76809419D01*
X139620639Y-76435581D01*
X139474775Y-76083434D01*
X139263013Y-75766509D01*
X138993491Y-75496987D01*
X138676566Y-75285225D01*
X138324419Y-75139361D01*
X137950581Y-75065000D01*
X137569419Y-75065000D01*
X137195581Y-75139361D01*
X136843434Y-75285225D01*
X136526509Y-75496987D01*
X136256987Y-75766509D01*
X136045225Y-76083434D01*
X135899361Y-76435581D01*
X135825000Y-76809419D01*
X135825000Y-77190581D01*
X135899361Y-77564419D01*
X136045225Y-77916566D01*
X136256987Y-78233491D01*
X136526509Y-78503013D01*
X136725001Y-78635641D01*
X136725000Y-83411289D01*
X131551290Y-88585000D01*
X128994396Y-88585000D01*
X128914759Y-88505363D01*
X128679727Y-88348320D01*
X128418574Y-88240147D01*
X128141335Y-88185000D01*
X127858665Y-88185000D01*
X127581426Y-88240147D01*
X127320273Y-88348320D01*
X127085241Y-88505363D01*
X126885363Y-88705241D01*
X126730000Y-88937759D01*
X126574637Y-88705241D01*
X126374759Y-88505363D01*
X126139727Y-88348320D01*
X125878574Y-88240147D01*
X125601335Y-88185000D01*
X125318665Y-88185000D01*
X125041426Y-88240147D01*
X124780273Y-88348320D01*
X124545241Y-88505363D01*
X124345363Y-88705241D01*
X124190000Y-88937759D01*
X124034637Y-88705241D01*
X123834759Y-88505363D01*
X123599727Y-88348320D01*
X123338574Y-88240147D01*
X123061335Y-88185000D01*
X122778665Y-88185000D01*
X122501426Y-88240147D01*
X122240273Y-88348320D01*
X122005241Y-88505363D01*
X121805363Y-88705241D01*
X121648320Y-88940273D01*
X121540147Y-89201426D01*
X121485000Y-89478665D01*
X121127000Y-89478665D01*
X121127000Y-79127000D01*
X125950711Y-79127000D01*
X124831341Y-80246370D01*
X124795656Y-80275656D01*
X124678814Y-80418029D01*
X124591993Y-80580461D01*
X124579331Y-80622203D01*
X124538529Y-80756709D01*
X124523740Y-80906864D01*
X124345363Y-81085241D01*
X124190000Y-81317759D01*
X124034637Y-81085241D01*
X123834759Y-80885363D01*
X123599727Y-80728320D01*
X123338574Y-80620147D01*
X123061335Y-80565000D01*
X122778665Y-80565000D01*
X122501426Y-80620147D01*
X122240273Y-80728320D01*
X122005241Y-80885363D01*
X121805363Y-81085241D01*
X121648320Y-81320273D01*
X121540147Y-81581426D01*
X121485000Y-81858665D01*
X121485000Y-82141335D01*
X121540147Y-82418574D01*
X121648320Y-82679727D01*
X121805363Y-82914759D01*
X122005241Y-83114637D01*
X122240273Y-83271680D01*
X122501426Y-83379853D01*
X122778665Y-83435000D01*
X123061335Y-83435000D01*
X123338574Y-83379853D01*
X123599727Y-83271680D01*
X123834759Y-83114637D01*
X124034637Y-82914759D01*
X124190000Y-82682241D01*
X124345363Y-82914759D01*
X124545241Y-83114637D01*
X124780273Y-83271680D01*
X125041426Y-83379853D01*
X125318665Y-83435000D01*
X125601335Y-83435000D01*
X125878574Y-83379853D01*
X126139727Y-83271680D01*
X126374759Y-83114637D01*
X126573357Y-82916039D01*
X126574188Y-82924482D01*
X126610498Y-83044180D01*
X126669463Y-83154494D01*
X126748815Y-83251185D01*
X126845506Y-83330537D01*
X126955820Y-83389502D01*
X127075518Y-83425812D01*
X127200000Y-83438072D01*
X128800000Y-83438072D01*
X128924482Y-83425812D01*
X129044180Y-83389502D01*
X129154494Y-83330537D01*
X129251185Y-83251185D01*
X129330537Y-83154494D01*
X129389502Y-83044180D01*
X129425812Y-82924482D01*
X129438072Y-82800000D01*
X129438072Y-81200000D01*
X129425812Y-81075518D01*
X129389502Y-80955820D01*
X129330537Y-80845506D01*
X129251185Y-80748815D01*
X129154494Y-80669463D01*
X129044180Y-80610498D01*
X128924482Y-80574188D01*
X128800000Y-80561928D01*
X127200000Y-80561928D01*
X127156031Y-80566258D01*
X128674789Y-79047500D01*
X129726308Y-79047500D01*
X129806613Y-79113405D01*
X129960149Y-79195472D01*
X130126745Y-79246008D01*
X130299999Y-79263072D01*
X131200001Y-79263072D01*
X131373255Y-79246008D01*
X131539851Y-79195472D01*
X131693387Y-79113405D01*
X131827962Y-79002962D01*
X131938405Y-78868387D01*
X132020472Y-78714851D01*
X132071008Y-78548255D01*
X132088072Y-78375001D01*
X132088072Y-77849999D01*
X132071008Y-77676745D01*
X132020472Y-77510149D01*
X131938405Y-77356613D01*
X131827962Y-77222038D01*
X131801109Y-77200000D01*
X131827962Y-77177962D01*
X131938405Y-77043387D01*
X132020472Y-76889851D01*
X132071008Y-76723255D01*
X132088072Y-76550001D01*
X132088072Y-76271717D01*
X134624789Y-73735000D01*
X149873000Y-73735000D01*
X149873000Y-84000000D01*
G37*
%TD.AperFunction*%
%TD*%
M02*
